<?xml version="1.0" encoding="UTF-8"?>
<svg id="Capa_2" data-name="Capa 2" xmlns="http://www.w3.org/2000/svg" viewBox="0 0 178.22 51.54">
  <defs>
    <style>
      .cls-1 {
        fill: #fefefe;
      }

      .cls-1, .cls-2 {
        stroke: #fff;
        stroke-miterlimit: 10;
      }

      .cls-2 {
        fill: none;
      }
    </style>
  </defs>
  <g id="Capa_3" data-name="Capa 3">
    <g>
      <g>
        <path class="cls-1" d="M85.29,19.18h-6.01c-3.26-4.25-9.22-5.46-13.87-2.68-6.72,4.01-7.07,13.81-.67,18.3,4.77,3.34,11.21,2.21,14.67-2.39h5.88v8.57c-8.95,8.03-23.14,6.78-30.65-2.57-6.23-7.76-5.86-18.92.83-26.27,7.75-8.5,21.22-9.29,29.82-1.6v8.64Z"/>
        <path class="cls-1" d="M20.32,11.44c.04-.18.81-1.06,1-1.25,5.33-5.55,16.72-5.56,22.17-.19,3.97,3.91,4.8,10.54,2.68,15.59-1.8,4.27-6.13,6.74-9.26,9.94l-1.74,1.44h12.34v8.73h-27.25v-5.94c0-.19.41-.7.55-.87,4.65-5.36,9.78-10.35,14.4-15.73,1.26-1.47,1.81-2.73,1.28-4.69-.49-1.84-1.96-2.95-3.86-3.08-2.81-.19-4.41,1.79-4.85,4.37h-7.45v-8.32Z"/>
        <path class="cls-1" d="M114.2,5.96l-10.98.02-13.69,33.52v6.13h8.35l3.99-10.01,13.71-.02,3.89,10.02h8.1v-6.39l-13.38-33.29ZM105.08,27.08l3.6-9.44,3.6,9.44h-7.2Z"/>
        <path class="cls-1" d="M151.45,6.01l-20.28-.06v39.69h10.09v-12.97h10.38c5.52-.43,10.35-4.36,11.84-9.68,2.31-8.26-3.58-16.37-12.03-16.97ZM149.39,23.93h-8.13v-9.18h8.32c2.2,0,4.15,2.49,4.15,4.59,0,2.23-2.03,4.59-4.34,4.59Z"/>
      </g>
      <rect class="cls-2" x=".5" y=".5" width="177.22" height="50.54" rx="25.27" ry="25.27"/>
    </g>
  </g>
</svg>