<?xml version="1.0" encoding="UTF-8"?>
<svg id="Capa_2" data-name="Capa 2" xmlns="http://www.w3.org/2000/svg" viewBox="0 0 678.25 227.65">
  <defs>
    <style>
      .cls-1 {
        fill: #fff;
      }

      .cls-2 {
        fill: red;
      }
    </style>
  </defs>
  <g id="Layer_1" data-name="Layer 1">
    <g>
      <path class="cls-2" d="M564.43,0H113.82C51.22,0,0,51.22,0,113.82s51.22,113.82,113.82,113.82h450.6c62.6,0,113.82-51.22,113.82-113.82S627.03,0,564.43,0"/>
      <path class="cls-1" d="M563.73,38.18l-72.7-.21v148.23h37.62v-48.41h35.08c27.4,0,49.81-22.41,49.81-49.81s-22.41-49.81-49.81-49.81M558.06,105.1h-29.3v-34.33h29.3c9.44,0,17.17,7.72,17.17,17.17s-7.72,17.17-17.17,17.17"/>
      <path class="cls-1" d="M188.65,111.98c0,42.34,35.13,76.67,78.46,76.67,20.15,0,38.53-7.43,52.43-19.63v-32.23h-21.86c-7.3,9.84-18.9,16.21-31.97,16.21-22.1,0-40.01-18.2-40.01-40.65s17.91-40.65,40.01-40.65c12.79,0,24.18,6.11,31.5,15.61h22.33v-32.38c-13.9-12.2-32.27-19.63-52.43-19.63-43.33,0-78.46,34.33-78.46,76.68"/>
      <path class="cls-1" d="M136.89,150.16c8.15-7.3,16.29-14.61,24.42-21.93,5.3-4.78,9.38-10.46,12.19-17.01,3.59-8.38,4.54-17.2,3.98-26.22-.6-9.62-3.4-18.5-9.16-26.29-7.3-9.87-17.3-15.66-29.06-18.55-9.62-2.37-19.34-2.58-29.12-.91-12.99,2.23-24.16,7.66-32.45,18.2-.32.41-.56.95-.7,1.51v30.45h27.88c.59-2.31,1.27-5.06,2.12-6.86,3.29-6.96,9.78-10.39,17.48-9.19,6.45,1,10.95,4.62,12.89,11,1.99,6.55.37,12.25-4.21,17.26-18.41,20.13-36.8,40.29-55.15,60.48-.49.54-.86,1.33-1.03,2.1v22.3h101.49v-32.65h-46.15l4.59-3.71Z"/>
      <path class="cls-1" d="M386.63,37.98l-51.02,125.35v22.88h30.98l15.06-37.48h51.51l14.39,37.48h29.97v-23.75l-49.91-124.48h-40.99ZM393.56,116.85l13.35-35.65,13.63,35.65h-26.98Z"/>
    </g>
  </g>
</svg>