<svg width="512" height="512" viewBox="0 0 512 512" fill="none" xmlns="http://www.w3.org/2000/svg">
<rect width="512" height="512" rx="25" fill="url(#paint0_linear_7_30)"/>
<path d="M412.424 161.649C411.258 161.242 410.065 160.998 408.863 160.923C403.187 160.326 397.549 160.772 391.888 160.866C383.563 160.997 375.225 161.12 366.875 161.234L342.278 161.598C333.718 161.729 325.157 161.852 316.595 161.966C305.716 162.101 294.833 162.267 283.953 162.324C266.823 162.413 249.688 162.387 232.557 162.475C228.126 162.501 223.763 163.254 219.631 165.673C213.467 169.307 209.414 175.661 206.92 184.034C205.906 187.456 206.678 189.34 209.285 190.342C210.058 190.636 210.843 190.868 211.635 191.038C214.537 191.666 217.459 192.138 220.338 192.891C222.741 193.514 223.669 195.876 222.575 198.695C219.733 206.015 217.035 213.448 213.576 220.285C208.918 229.495 202.485 233.949 194.379 233.907C190.234 233.832 186.094 233.448 181.979 232.755C179.992 232.454 177.975 232.319 176.061 231.405C174.146 230.492 173.593 228.986 174.169 226.287C174.519 224.84 174.993 223.455 175.58 222.16C180.373 210.673 185.176 199.19 189.99 187.71C198.709 166.99 207.446 146.29 216.202 125.611C219.828 117.087 225.19 111.626 232.361 109.991C238.385 108.615 244.47 108.059 250.589 107.691C251.789 107.554 252.998 107.692 254.165 108.101C256.057 108.859 256.938 110.556 256.957 113.225C256.976 115.374 256.416 117.305 255.731 119.153C254.309 123.021 252.791 126.816 251.357 130.673C250.131 133.975 248.731 137.188 248.224 140.915C247.773 144.253 248.636 146.496 250.922 147.794C252.624 148.728 254.443 149.194 256.276 149.164C271.892 149.209 287.508 149.232 303.124 149.232C307.755 149.232 311.994 147.534 315.706 143.61C318.521 140.63 320.406 136.653 322.139 132.49C326.824 121.225 332.129 110.401 335.035 97.8741C335.379 96.3945 335.3 96.0883 334.138 96.0934C324.455 96.1506 314.771 96.135 305.091 96.1246C271.135 96.0865 237.183 96.045 203.234 96C195.606 96 164.788 96.2855 161.836 97.8118C155.301 101.186 150.938 107.743 147.665 115.898C146.268 119.377 144.834 122.829 143.396 126.281C136.914 141.855 130.462 157.429 123.938 172.92C116.188 191.346 108.457 209.785 100.745 228.239C98.8948 232.656 96.6849 236.877 96 242.063V245.37H96.1287L96.246 245.427C96.6509 247.28 97.7596 248.075 98.9478 248.646C100.815 249.472 102.75 249.979 104.707 250.156C109.823 250.81 114.955 250.515 120.078 250.675C128.861 250.961 137.644 251.044 146.423 251.195C160.78 251.451 175.136 251.702 189.49 251.947C191.538 251.989 193.596 251.818 195.628 252.368C197.846 252.97 198.568 254.564 197.899 257.507C197.479 259.181 196.937 260.792 196.279 262.314C191.095 275.244 185.909 288.174 180.723 301.104C179.527 304.099 178.388 307.147 178.036 310.604C177.748 313.439 178.573 315.5 180.488 316.626C181.646 317.266 182.874 317.634 184.121 317.716C191.689 318.51 199.276 318.038 206.856 318.235C217.02 318.474 227.192 318.422 237.363 318.453C248.954 318.484 260.541 318.697 272.113 319.642C273.842 319.782 275.598 319.694 277.289 320.333C279.295 321.085 279.919 322.83 279.155 325.472C278.958 326.152 278.712 326.801 278.481 327.46C277.009 331.53 276.312 336.045 276.457 340.584C276.703 347.058 278.534 352.799 281.062 358.131C288.683 374.224 296.047 390.488 303.54 406.669C304.732 409.265 305.962 411.804 307.57 413.937C309.7 416.787 311.82 416.694 313.78 413.595C315.562 410.777 317.137 407.725 318.483 404.484C339.659 353.557 360.833 302.625 382.004 251.688C383.37 248.402 384.826 245.183 385.727 241.575C387.158 235.865 385.992 232.968 381.731 231.712C381.353 231.597 380.944 231.509 380.55 231.436C376.641 230.725 372.706 231.068 368.789 231.052C349.29 230.98 329.79 231.021 310.295 231.016C308.733 230.978 307.172 231.122 305.629 231.447C296.615 233.523 291.249 241.471 287.999 252.539C287.166 255.358 288.044 257.242 290.148 258.177C290.66 258.384 291.182 258.542 291.711 258.649C295.041 259.459 298.443 259.688 301.742 260.767C304.365 261.624 305.099 263.83 303.74 266.997C300.335 274.955 297.035 282.976 293.19 290.545C290.208 296.416 286.144 300.092 280.843 300.455C273.85 300.938 266.842 300.548 259.86 300.035C258.832 299.994 257.822 299.668 256.889 299.074C255.629 298.233 255.152 296.904 255.421 295.025C255.69 293.146 256.348 291.479 257.033 289.834C261.869 278.243 266.708 266.649 271.549 255.052C280.313 234.165 289.087 213.288 297.871 192.418C301.126 184.699 305.89 179.778 312.399 178.319C317.061 177.281 321.748 176.509 326.46 176.003C329.109 175.728 331.781 175.131 334.456 175.588C337.385 176.107 338.645 178.552 338.085 182.493C337.84 184.106 337.431 185.665 336.87 187.123C335.523 190.757 334.108 194.36 332.761 198.025C331.595 201.171 330.275 204.255 329.612 207.686C328.663 212.613 329.945 215.473 333.582 216.475C334.28 216.669 334.989 216.779 335.701 216.802C340.072 216.906 344.439 217.036 348.809 217.046C361.52 217.077 374.231 217.171 386.942 216.787C392.399 216.626 396.864 213.864 399.709 207.037C401.427 202.884 403.399 198.975 405.196 194.9C408.698 186.954 412.048 178.9 415.247 170.739C416.904 166.503 415.765 162.978 412.424 161.649Z" fill="white"/>
<defs>
<linearGradient id="paint0_linear_7_30" x1="7.99999" y1="10.5" x2="88.5" y2="512" gradientUnits="userSpaceOnUse">
<stop offset="0.0510981" stop-color="#191919"/>
<stop offset="1"/>
</linearGradient>
</defs>
</svg>
