<svg width="248" height="54" viewBox="0 0 248 54" fill="none" xmlns="http://www.w3.org/2000/svg">
<path d="M178 47.9998H1.89996C1.59996 44.8998 1.39995 41.6998 1.19995 38.5998H178.4C181.8 38.5998 184.9 37.1998 187.3 34.7998C189.6 32.3998 190.9 29.2998 190.8 25.9998C190.6 19.4998 185.1 14.0998 178.5 14.0998H0.699951C0.699951 11.2998 0.699957 8.4998 0.799957 5.7998H178.1C188.5 6.8998 196.9 15.3998 197.5 25.5998C198.2 36.6998 189.5 46.6998 178.2 47.8998L178 47.9998Z" fill="#FDBC08"/>
<path d="M246.7 6.5H192.7C193.9 7.5 195 8.59999 196.1 9.79999C200.8 15.2 203.2 22.2 202.6 29C201.9 36.2 198.2 42.6 192.7 46.9H245.6C246.7 33.3 247.1 19.7 246.7 6.5ZM209.8 29.9C208 29.9 206.5 28.4 206.5 26.6C206.5 24.8 208 23.3 209.8 23.3C211.6 23.3 213.1 24.8 213.1 26.6C213.1 28.4 211.6 29.9 209.8 29.9ZM236.7 29.9C234.9 29.9 233.4 28.4 233.4 26.6C233.4 24.8 234.9 23.3 236.7 23.3C238.5 23.3 240 24.8 240 26.6C240 28.4 238.5 29.9 236.7 29.9Z" fill="#FDBC08"/>
<path d="M239.2 26.6001C239.2 28.0001 238.1 29.1001 236.7 29.1001C235.3 29.1001 234.2 28.0001 234.2 26.6001C234.2 25.2001 235.3 24.1001 236.7 24.1001C238.1 24.1001 239.2 25.2001 239.2 26.6001Z" fill="#FDBC08"/>
<path d="M212.3 26.6001C212.3 28.0001 211.2 29.1001 209.8 29.1001C208.4 29.1001 207.3 28.0001 207.3 26.6001C207.3 25.2001 208.4 24.1001 209.8 24.1001C211.2 24.1001 212.3 25.2001 212.3 26.6001Z" fill="#FDBC08"/>
<path d="M1.3 53.2V51.1H176.4C188.9 50.6 199.6 40.8 200.7 28.9C201.3 22.6 199.1 16.1 194.7 11C190 5.6 183.5 2.39998 176.3 2.09998H0V0H176.4C184.2 0.4 191.2 3.79998 196.3 9.59998C201.1 15.1 203.4 22.2 202.8 29.1C201.6 42.3 190.3 52.7 176.4 53.2H1.2H1.3Z" fill="#1A1A1A"/>
<path d="M123.7 31.8998C120.8 31.8998 118.4 29.4998 118.4 26.5998C118.4 23.6998 120.8 21.2998 123.7 21.2998C126.6 21.2998 129 23.6998 129 26.5998C129 29.4998 126.6 31.8998 123.7 31.8998ZM123.7 22.2998C121.4 22.2998 119.4 24.1998 119.4 26.5998C119.4 28.9998 121.3 30.8998 123.7 30.8998C126.1 30.8998 128 28.9998 128 26.5998C128 24.1998 126.1 22.2998 123.7 22.2998Z" fill="#1A1A1A"/>
<path d="M180.6 31.8998C177.7 31.8998 175.3 29.4998 175.3 26.5998C175.3 23.6998 177.7 21.2998 180.6 21.2998C183.5 21.2998 185.9 23.6998 185.9 26.5998C185.9 29.4998 183.5 31.8998 180.6 31.8998ZM180.6 22.2998C178.3 22.2998 176.3 24.1998 176.3 26.5998C176.3 28.9998 178.2 30.8998 180.6 30.8998C183 30.8998 184.9 28.9998 184.9 26.5998C184.9 24.1998 183 22.2998 180.6 22.2998Z" fill="#1A1A1A"/>
<path d="M153.1 31.8998C150.2 31.8998 147.8 29.4998 147.8 26.5998C147.8 23.6998 150.2 21.2998 153.1 21.2998C156 21.2998 158.4 23.6998 158.4 26.5998C158.4 29.4998 156 31.8998 153.1 31.8998ZM153.1 22.2998C150.8 22.2998 148.8 24.1998 148.8 26.5998C148.8 28.9998 150.7 30.8998 153.1 30.8998C155.5 30.8998 157.4 28.9998 157.4 26.5998C157.4 24.1998 155.5 22.2998 153.1 22.2998Z" fill="#1A1A1A"/>
<path d="M96.2004 31.8998C93.3004 31.8998 90.9004 29.4998 90.9004 26.5998C90.9004 23.6998 93.3004 21.2998 96.2004 21.2998C99.1004 21.2998 101.5 23.6998 101.5 26.5998C101.5 29.4998 99.1004 31.8998 96.2004 31.8998ZM96.2004 22.2998C93.9004 22.2998 91.9004 24.1998 91.9004 26.5998C91.9004 28.9998 93.8004 30.8998 96.2004 30.8998C98.6004 30.8998 100.5 28.9998 100.5 26.5998C100.5 24.1998 98.6004 22.2998 96.2004 22.2998Z" fill="#1A1A1A"/>
<path d="M67.0998 31.8998C64.1998 31.8998 61.7998 29.4998 61.7998 26.5998C61.7998 23.6998 64.1998 21.2998 67.0998 21.2998C69.9998 21.2998 72.3998 23.6998 72.3998 26.5998C72.3998 29.4998 69.9998 31.8998 67.0998 31.8998ZM67.0998 22.2998C64.7998 22.2998 62.7998 24.1998 62.7998 26.5998C62.7998 28.9998 64.6998 30.8998 67.0998 30.8998C69.4998 30.8998 71.3998 28.9998 71.3998 26.5998C71.3998 24.1998 69.4998 22.2998 67.0998 22.2998Z" fill="#1A1A1A"/>
<path d="M39.8 31.8998C36.9 31.8998 34.5 29.4998 34.5 26.5998C34.5 23.6998 36.9 21.2998 39.8 21.2998C42.7 21.2998 45.1 23.6998 45.1 26.5998C45.1 29.4998 42.7 31.8998 39.8 31.8998ZM39.8 22.2998C37.5 22.2998 35.5 24.1998 35.5 26.5998C35.5 28.9998 37.4 30.8998 39.8 30.8998C42.2 30.8998 44.1 28.9998 44.1 26.5998C44.1 24.1998 42.2 22.2998 39.8 22.2998Z" fill="#1A1A1A"/>
<path d="M247.3 1.2998H183.5V3.39978H247.3V1.2998Z" fill="#1A1A1A"/>
<path d="M246.1 50.0996H182.8V52.1996H246.1V50.0996Z" fill="#1A1A1A"/>
<path d="M247.4 5.59961H191V6.59961H247.4V5.59961Z" fill="#1A1A1A"/>
<path d="M209.8 29.9997C207.9 29.9997 206.4 28.4997 206.4 26.5997C206.4 24.6997 207.9 23.1997 209.8 23.1997C211.7 23.1997 213.2 24.6997 213.2 26.5997C213.2 28.4997 211.7 29.9997 209.8 29.9997ZM209.8 24.1997C208.5 24.1997 207.4 25.2997 207.4 26.5997C207.4 27.8997 208.5 28.9997 209.8 28.9997C211.1 28.9997 212.2 27.8997 212.2 26.5997C212.2 25.2997 211.1 24.1997 209.8 24.1997Z" fill="#1A1A1A"/>
<path d="M236.7 29.9997C234.8 29.9997 233.3 28.4997 233.3 26.5997C233.3 24.6997 234.8 23.1997 236.7 23.1997C238.6 23.1997 240.1 24.6997 240.1 26.5997C240.1 28.4997 238.6 29.9997 236.7 29.9997ZM236.7 24.1997C235.4 24.1997 234.3 25.2997 234.3 26.5997C234.3 27.8997 235.4 28.9997 236.7 28.9997C238 28.9997 239.1 27.8997 239.1 26.5997C239.1 25.2997 238 24.1997 236.7 24.1997Z" fill="#1A1A1A"/>
<path d="M1.41096 47.1596L29.5 46.375L28.3664 5.79085L0.277347 6.57545L1.41096 47.1596Z" fill="#FFF7F6" stroke="#1D1D1B" stroke-width="0.5" stroke-miterlimit="10"/>
</svg>
