<svg width="563" height="362" viewBox="0 0 563 362" fill="none" xmlns="http://www.w3.org/2000/svg">
<g filter="url(#filter0_d_280_1715)">
<path d="M148.907 172.3C150.807 105.5 194.707 44.9998 258.307 21.8998H258.407V21.7998C260.207 20.2998 262.207 19.3998 264.107 19.0998C264.307 19.0998 264.507 19.0998 264.707 19.0998C264.707 19.0998 264.707 19.0998 264.807 19.0998C276.207 18.2998 287.707 36.4998 292.707 44.2998C315.407 80.1998 347.907 142.9 357.907 162.3C357.207 162.8 356.007 163.8 354.807 165.2C354.107 165.9 353.507 166.8 353.007 167.6C351.807 169.4 350.807 171.7 350.307 174.4L206.907 177.1L350.207 180.2C350.907 185.3 353.707 189.7 357.607 192.6C322.207 258.4 293.607 308.2 282.807 322.7C280.007 326.5 272.607 336.5 264.707 335.6C262.607 335.3 260.507 334.3 258.507 332.5H258.407L258.307 332.4C190.907 307.8 146.907 243.5 148.907 172.6V172.3Z" fill="#003F5E"/>
<path d="M5.60691 178.8C5.20691 129.6 22.5069 98.4001 37.1069 80.9001C74.1069 36.5001 132.607 30.4001 194.707 23.9001C214.507 21.8001 234.607 21.1001 254.507 21.8001C224.307 33.5001 198.307 53.5001 179.207 79.8001C159.407 107 148.507 139 147.507 172.3C146.507 207.2 156.507 241.1 176.507 270.3C195.707 298.4 222.607 319.8 254.207 332.2C236.907 332.2 219.507 331.5 202.307 329.8C131.007 322.9 74.607 317.4 38.307 275.6C17.007 251.1 6.007 218.5 5.707 178.8H5.60691Z" fill="#003F5E"/>
<path d="M351.507 177.5C351.507 177.1 351.507 176.9 351.507 176.6C351.507 176.4 351.507 176.2 351.507 176C351.607 174.7 351.907 173.5 352.307 172.3C352.307 172.1 352.407 171.9 352.507 171.7C352.507 171.5 352.607 171.4 352.707 171.2C352.707 171 352.807 170.9 352.907 170.7C352.907 170.5 353.107 170.4 353.107 170.2C353.107 170.2 353.107 170.2 353.107 170.1C353.807 168.6 354.707 167.4 355.607 166.3C355.607 166.3 355.707 166.2 355.807 166.1C355.807 166.1 355.907 166 356.007 165.9C356.107 165.8 356.207 165.7 356.307 165.6C356.307 165.6 356.407 165.5 356.507 165.4C359.607 162.4 363.807 160.5 368.507 160.5C377.907 160.5 385.507 168.1 385.507 177.5C385.507 186.9 377.907 194.5 368.507 194.5C359.107 194.5 362.107 193.5 359.507 191.9C359.507 191.8 359.007 191.4 359.007 191.4C358.707 191.2 351.507 186.3 351.507 177.4V177.5Z" fill="#003F5E"/>
<path d="M268.507 17.8C302.607 6.70001 337.607 1.30002 372.607 1.90002C401.707 2.40002 434.507 2.90001 470.207 20.5C456.107 43.1 441.407 65.9 426.707 88.2C410.607 112.6 393.907 137.2 377.107 161.1C374.507 159.7 371.607 158.9 368.507 158.9C365.407 158.9 361.907 159.8 359.207 161.4C349.307 142 316.707 79.3 294.007 43.4C289.407 36.1 279.307 20.2 268.407 17.8H268.507Z" fill="#003F5E"/>
<path d="M378.407 161.9C395.107 138 411.807 113.5 427.907 89.0002C442.707 66.6002 457.307 43.8002 471.507 21.2002C471.907 21.4002 472.407 21.6002 472.807 21.9002C486.107 28.8002 526.807 49.6002 546.307 94.0002C556.507 117.3 556.507 137.1 556.407 176.3H387.007C386.607 170.3 383.307 165 378.407 162V161.9Z" fill="#003F5E"/>
<path d="M378.407 193.1C383.507 189.8 386.907 184.1 387.007 177.7H556.407C556.207 216.4 556.107 236 545.907 259.4C526.207 304.3 486.407 325.1 473.407 331.9C472.707 332.3 471.907 332.7 471.207 333C457.207 310.6 442.707 288 428.107 265.9C412.007 241.5 395.307 217 378.607 193L378.407 193.1Z" fill="#003F5E"/>
<path d="M268.407 336.5C275.407 334.8 281.207 327 283.907 323.3C294.707 308.8 323.307 258.9 358.707 193.2C361.507 195 364.907 196 368.407 196C371.907 196 374.507 195.2 377.007 193.8C393.707 217.8 410.407 242.3 426.607 266.7C441.207 288.7 455.607 311.2 469.607 333.6C434.607 350.9 402.807 351.4 372.007 351.9C337.107 352.5 302.207 347.3 268.307 336.5H268.407Z" fill="#003F5E"/>
<path d="M371.106 194.7L373.406 198.2L372.506 198.8L370.207 195.3L371.106 194.7ZM375.707 201.7L378.006 205.2L377.106 205.8L374.807 202.3L375.707 201.7ZM380.406 208.6L382.707 212.1L381.807 212.7L379.506 209.2L380.406 208.6ZM385.006 215.6L387.307 219.1L386.406 219.7L384.106 216.2L385.006 215.6ZM389.606 222.6L391.906 226.1L391.006 226.7L388.707 223.2L389.606 222.6ZM394.207 229.6L396.506 233.1L395.606 233.7L393.307 230.2L394.207 229.6ZM398.906 236.6L401.207 240.1L400.307 240.7L398.006 237.2L398.906 236.6ZM403.506 243.6L405.807 247.1L404.906 247.7L402.606 244.2L403.506 243.6ZM408.106 250.5L410.406 254L409.506 254.6L407.207 251.1L408.106 250.5ZM412.707 257.5L415.006 261L414.106 261.6L411.807 258.1L412.707 257.5ZM417.307 264.5L419.606 268L418.707 268.6L416.406 265.1L417.307 264.5ZM422.006 271.5L424.307 275L423.406 275.6L421.106 272.1L422.006 271.5ZM426.606 278.5L428.906 282L428.006 282.6L425.707 279.1L426.606 278.5ZM431.207 285.5L433.506 289L432.606 289.6L430.307 286.1L431.207 285.5ZM435.807 292.4L438.106 295.9L437.207 296.5L434.906 293L435.807 292.4ZM440.406 299.4L442.707 302.9L441.807 303.5L439.506 300L440.406 299.4ZM445.106 306.4L447.406 309.9L446.506 310.5L444.207 307L445.106 306.4ZM449.707 313.4L452.006 316.9L451.106 317.5L448.807 314L449.707 313.4ZM454.307 320.4L456.606 323.9L455.707 324.5L453.406 321L454.307 320.4ZM458.906 327.3L461.207 330.8L460.307 331.4L458.006 327.9L458.906 327.3ZM463.606 334.3L465.506 337.1L464.606 337.7L462.707 334.9L463.606 334.3Z" fill="#1A1A1A"/>
<path d="M383.307 187.4L385.607 190.9L384.707 191.5L382.407 188L383.307 187.4ZM387.907 194.3L390.207 197.8L389.307 198.4L387.007 194.9L387.907 194.3ZM392.607 201.3L394.907 204.8L394.007 205.4L391.707 201.9L392.607 201.3ZM397.207 208.3L399.507 211.8L398.607 212.4L396.307 208.9L397.207 208.3ZM401.807 215.3L404.107 218.8L403.207 219.4L400.907 215.9L401.807 215.3ZM406.407 222.3L408.707 225.8L407.807 226.4L405.507 222.9L406.407 222.3ZM411.007 229.3L413.307 232.8L412.407 233.4L410.107 229.9L411.007 229.3ZM415.707 236.2L418.007 239.7L417.107 240.3L414.807 236.8L415.707 236.2ZM420.307 243.2L422.607 246.7L421.707 247.3L419.407 243.8L420.307 243.2ZM424.907 250.2L427.207 253.7L426.307 254.3L424.007 250.8L424.907 250.2ZM429.507 257.2L431.807 260.7L430.907 261.3L428.607 257.8L429.507 257.2ZM434.107 264.2L436.407 267.7L435.507 268.3L433.207 264.8L434.107 264.2ZM438.807 271.2L441.107 274.7L440.207 275.3L437.907 271.8L438.807 271.2ZM443.407 278.1L445.707 281.6L444.807 282.2L442.507 278.7L443.407 278.1ZM448.007 285.1L450.307 288.6L449.407 289.2L447.107 285.7L448.007 285.1ZM452.607 292.1L454.907 295.6L454.007 296.2L451.707 292.7L452.607 292.1ZM457.207 299.1L459.507 302.6L458.607 303.2L456.307 299.7L457.207 299.1ZM461.907 306.1L464.207 309.6L463.307 310.2L461.007 306.7L461.907 306.1ZM466.507 313.1L468.807 316.6L467.907 317.2L465.607 313.7L466.507 313.1ZM471.107 320L473.407 323.5L472.507 324.1L470.207 320.6L471.107 320ZM475.707 327L478.007 330.5L477.107 331.1L474.807 327.6L475.707 327Z" fill="#1A1A1A"/>
<path d="M464.507 17L465.407 17.6L463.507 20.4L462.607 19.8L464.507 17ZM460.407 23.3L461.307 23.9L459.007 27.4L458.107 26.8L460.407 23.3ZM455.707 30.3L456.607 30.9L454.307 34.4L453.407 33.8L455.707 30.3ZM451.107 37.3L452.007 37.9L449.707 41.4L448.807 40.8L451.107 37.3ZM446.507 44.2L447.407 44.8L445.107 48.3L444.207 47.7L446.507 44.2ZM441.907 51.2L442.807 51.8L440.507 55.3L439.607 54.7L441.907 51.2ZM437.307 58.2L438.207 58.8L435.907 62.3L435.007 61.7L437.307 58.2ZM432.607 65.2L433.507 65.8L431.207 69.3L430.307 68.7L432.607 65.2ZM428.007 72.2L428.907 72.8L426.607 76.3L425.707 75.7L428.007 72.2ZM423.407 79.1L424.307 79.7L422.007 83.2L421.107 82.6L423.407 79.1ZM418.807 86.1L419.707 86.7L417.407 90.2L416.507 89.6L418.807 86.1ZM414.207 93.1L415.107 93.7L412.807 97.2L411.907 96.6L414.207 93.1ZM409.507 100.1L410.407 100.7L408.107 104.2L407.207 103.6L409.507 100.1ZM404.907 107.1L405.807 107.7L403.507 111.2L402.607 110.6L404.907 107.1ZM400.307 114.1L401.207 114.7L398.907 118.2L398.007 117.6L400.307 114.1ZM395.707 121L396.607 121.6L394.307 125.1L393.407 124.5L395.707 121ZM391.107 128L392.007 128.6L389.707 132.1L388.807 131.5L391.107 128ZM386.407 135L387.307 135.6L385.007 139.1L384.107 138.5L386.407 135ZM381.807 142L382.707 142.6L380.407 146.1L379.507 145.5L381.807 142ZM377.207 149L378.107 149.6L375.807 153.1L374.907 152.5L377.207 149ZM372.607 156L373.507 156.6L371.207 160.1L370.307 159.5L372.607 156Z" fill="#1A1A1A"/>
<path d="M477.207 23.6001L478.107 24.2001L475.807 27.7001L474.907 27.1001L477.207 23.6001ZM472.507 30.6001L473.407 31.2001L471.107 34.7001L470.207 34.1001L472.507 30.6001ZM467.907 37.6001L468.807 38.2001L466.507 41.7001L465.607 41.1001L467.907 37.6001ZM463.307 44.6001L464.207 45.2001L461.907 48.7001L461.007 48.1001L463.307 44.6001ZM458.707 51.5001L459.607 52.1001L457.307 55.6001L456.407 55.0001L458.707 51.5001ZM454.107 58.5001L455.007 59.1001L452.707 62.6001L451.807 62.0001L454.107 58.5001ZM449.407 65.5001L450.307 66.1001L448.007 69.6001L447.107 69.0001L449.407 65.5001ZM444.807 72.5001L445.707 73.1001L443.407 76.6001L442.507 76.0001L444.807 72.5001ZM440.207 79.5001L441.107 80.1001L438.807 83.6001L437.907 83.0001L440.207 79.5001ZM435.607 86.5001L436.507 87.1001L434.207 90.6001L433.307 90.0001L435.607 86.5001ZM431.007 93.4001L431.907 94.0001L429.607 97.5001L428.707 96.9001L431.007 93.4001ZM426.307 100.4L427.207 101L424.907 104.5L424.007 103.9L426.307 100.4ZM421.707 107.4L422.607 108L420.307 111.5L419.407 110.9L421.707 107.4ZM417.107 114.4L418.007 115L415.707 118.5L414.807 117.9L417.107 114.4ZM412.507 121.4L413.407 122L411.107 125.5L410.207 124.9L412.507 121.4ZM407.907 128.4L408.807 129L406.507 132.5L405.607 131.9L407.907 128.4ZM403.207 135.3L404.107 135.9L401.807 139.4L400.907 138.8L403.207 135.3ZM398.607 142.3L399.507 142.9L397.207 146.4L396.307 145.8L398.607 142.3ZM394.007 149.3L394.907 149.9L392.607 153.4L391.707 152.8L394.007 149.3ZM389.407 156.3L390.307 156.9L388.007 160.4L387.107 159.8L389.407 156.3ZM384.807 163.3L385.707 163.9L383.407 167.4L382.507 166.8L384.807 163.3Z" fill="#1A1A1A"/>
<path d="M384.307 168.8H388.507V169.8H384.307V168.8ZM392.707 168.8H396.907V169.8H392.707V168.8ZM401.007 168.8H405.207V169.8H401.007V168.8ZM409.407 168.8H413.607V169.8H409.407V168.8ZM417.807 168.8H422.007V169.8H417.807V168.8ZM426.207 168.8H430.407V169.8H426.207V168.8ZM434.507 168.8H438.707V169.8H434.507V168.8ZM442.907 168.8H447.107V169.8H442.907V168.8ZM451.307 168.8H455.507V169.8H451.307V168.8ZM459.707 168.8H463.907V169.8H459.707V168.8ZM468.007 168.8H472.207V169.8H468.007V168.8ZM476.407 168.8H480.607V169.8H476.407V168.8ZM484.807 168.8H489.007V169.8H484.807V168.8ZM493.107 168.8H497.307V169.8H493.107V168.8ZM501.507 168.8H505.707V169.8H501.507V168.8ZM509.907 168.8H514.107V169.8H509.907V168.8ZM518.307 168.8H522.507V169.8H518.307V168.8ZM526.607 168.8H530.807V169.8H526.607V168.8ZM535.007 168.8H539.207V169.8H535.007V168.8ZM543.407 168.8H547.607V169.8H543.407V168.8ZM551.807 168.8H556.007V169.8H551.807V168.8Z" fill="#1A1A1A"/>
<path d="M385.407 183.9H389.607V184.9H385.407V183.9ZM393.807 183.9H398.007V184.9H393.807V183.9ZM402.207 183.9H406.407V184.9H402.207V183.9ZM410.507 183.9H414.707V184.9H410.507V183.9ZM418.907 183.9H423.107V184.9H418.907V183.9ZM427.307 183.9H431.507V184.9H427.307V183.9ZM435.707 183.9H439.907V184.9H435.707V183.9ZM444.007 183.9H448.207V184.9H444.007V183.9ZM452.407 183.9H456.607V184.9H452.407V183.9ZM460.807 183.9H465.007V184.9H460.807V183.9ZM469.107 183.9H473.307V184.9H469.107V183.9ZM477.507 183.9H481.707V184.9H477.507V183.9ZM485.907 183.9H490.107V184.9H485.907V183.9ZM494.307 183.9H498.507V184.9H494.307V183.9ZM502.607 183.9H506.807V184.9H502.607V183.9ZM511.007 183.9H515.207V184.9H511.007V183.9ZM519.407 183.9H523.607V184.9H519.407V183.9ZM527.807 183.9H532.007V184.9H527.807V183.9ZM536.107 183.9H540.307V184.9H536.107V183.9ZM544.507 183.9H548.707V184.9H544.507V183.9ZM552.907 183.9H557.107V184.9H552.907V183.9Z" fill="#1A1A1A"/>
<path d="M251.207 24.2998C252.607 24.4998 254.007 24.7998 255.407 25.1998L255.107 26.1998C253.807 25.7998 252.507 25.4998 251.107 25.2998V24.2998H251.207ZM259.307 26.8998C260.607 27.5998 261.807 28.2998 262.907 29.0998L262.307 29.9998C261.207 29.1998 260.007 28.4998 258.807 27.8998L259.307 26.9998V26.8998ZM266.207 31.8998C267.107 32.7998 268.107 33.7998 269.107 34.9998L268.307 35.6998C267.307 34.4998 266.307 33.4998 265.407 32.6998L266.107 31.8998H266.207ZM271.807 38.1998C272.607 39.1998 273.507 40.3998 274.407 41.4998L273.607 42.0998C272.707 40.8998 271.907 39.7998 271.007 38.7998L271.807 38.0998V38.1998ZM276.907 44.8998C277.707 45.9998 278.507 47.0998 279.307 48.2998L278.407 48.8998C277.607 47.6998 276.807 46.5998 276.007 45.4998L276.807 44.8998H276.907ZM281.707 51.7998C282.507 52.8998 283.307 54.0998 284.007 55.2998L283.107 55.8998C282.307 54.6998 281.507 53.5998 280.807 52.3998L281.707 51.7998ZM286.407 58.7998C287.207 59.9998 287.907 61.0998 288.707 62.2998L287.807 62.8998C287.007 61.6998 286.307 60.4998 285.507 59.3998L286.407 58.7998ZM290.907 65.7998C291.607 66.9998 292.407 68.1998 293.107 69.3998L292.207 69.9998C291.507 68.7998 290.707 67.5998 290.007 66.4998L290.907 65.8998V65.7998ZM295.307 72.8998C296.007 74.0998 296.807 75.2998 297.507 76.4998L296.607 76.9998C295.907 75.7998 295.107 74.5998 294.407 73.3998L295.307 72.8998ZM299.707 80.0998C300.407 81.2998 301.107 82.4998 301.907 83.6998L301.007 84.1998C300.307 82.9998 299.607 81.7998 298.807 80.5998L299.707 80.0998ZM304.007 87.2998C304.707 88.4998 305.407 89.6998 306.107 90.8998L305.207 91.3998C304.507 90.1998 303.807 88.9998 303.107 87.7998L304.007 87.2998ZM308.307 94.4998C309.007 95.6998 309.707 96.8998 310.407 98.0998L309.507 98.5998C308.807 97.3998 308.107 96.1998 307.407 94.9998L308.307 94.4998ZM312.507 101.8C313.207 103 313.907 104.2 314.607 105.4L313.707 105.9C313.007 104.7 312.307 103.5 311.607 102.3L312.507 101.8ZM316.707 109.1L318.807 112.7L317.907 113.2L315.807 109.6L316.707 109.1ZM320.807 116.4C321.507 117.7 322.207 118.9 322.907 120.1L322.007 120.6C321.307 119.4 320.707 118.2 319.907 116.9L320.807 116.4ZM324.907 123.7C325.607 125 326.307 126.2 326.907 127.4L326.007 127.9C325.407 126.8 324.707 125.5 324.007 124.2L324.907 123.7ZM329.007 131.1C329.807 132.6 330.507 133.8 331.007 134.8L330.107 135.3C329.607 134.3 328.907 133.1 328.107 131.6L329.007 131.1ZM333.007 138.5C333.607 139.6 334.307 140.9 335.007 142.2L334.107 142.7C333.407 141.4 332.707 140.2 332.107 139L333.007 138.5ZM337.107 145.8C337.807 147 338.407 148.2 339.207 149.4L338.307 149.9C337.607 148.6 336.907 147.4 336.207 146.3L337.107 145.8ZM341.207 153.1C341.907 154.3 342.607 155.5 343.307 156.7L342.407 157.2C341.707 156 341.007 154.8 340.307 153.6L341.207 153.1ZM345.507 160.3C346.207 161.5 346.907 162.7 347.707 163.9L346.807 164.4C346.107 163.2 345.307 162 344.607 160.8L345.507 160.3ZM349.807 167.4C350.507 168.6 351.307 169.8 352.007 171L351.107 171.6C350.307 170.4 349.607 169.2 348.907 168L349.807 167.5V167.4Z" fill="#1A1A1A"/>
<path d="M351.107 182.6L352.007 183.2C351.207 184.4 350.507 185.6 349.807 186.8L348.907 186.3C349.607 185.1 350.407 183.9 351.107 182.7V182.6ZM346.707 189.7L347.607 190.2C346.907 191.4 346.107 192.6 345.407 193.8L344.507 193.3C345.207 192.1 345.907 190.9 346.707 189.7ZM342.407 196.9L343.307 197.4C342.607 198.6 341.907 199.8 341.207 201L340.307 200.5C341.007 199.3 341.707 198.1 342.407 196.9ZM338.207 204.2L339.107 204.7C338.407 206 337.707 207.2 337.007 208.3L336.107 207.8C336.807 206.6 337.407 205.4 338.207 204.2ZM334.107 211.5L335.007 212C334.307 213.3 333.607 214.5 333.007 215.7L332.107 215.2C332.707 214.1 333.407 212.8 334.107 211.5ZM330.107 218.9L331.007 219.4C330.507 220.4 329.807 221.6 329.007 223.1L328.107 222.6C328.907 221.1 329.607 219.9 330.107 218.9ZM326.007 226.2L326.907 226.7C326.307 227.8 325.607 229.1 324.907 230.4L324.007 229.9C324.707 228.6 325.407 227.4 326.007 226.2ZM321.907 233.6L322.807 234.1C322.107 235.3 321.507 236.5 320.707 237.8L319.807 237.3C320.507 236 321.207 234.8 321.907 233.6ZM317.807 240.9L318.707 241.4L316.607 245L315.707 244.5L317.807 240.9ZM313.707 248.2L314.607 248.7C313.907 249.9 313.207 251.1 312.507 252.3L311.607 251.8C312.307 250.6 313.007 249.4 313.707 248.2ZM309.507 255.4L310.407 255.9C309.707 257.1 309.007 258.3 308.307 259.5L307.407 259C308.107 257.8 308.807 256.6 309.507 255.4ZM305.307 262.7L306.207 263.2C305.507 264.4 304.807 265.6 304.107 266.8L303.207 266.3C303.907 265.1 304.607 263.9 305.307 262.7ZM301.007 269.9L301.907 270.4C301.207 271.6 300.507 272.8 299.707 274L298.807 273.5C299.507 272.3 300.207 271.1 301.007 269.9ZM296.607 277.1L297.507 277.6C296.807 278.8 296.007 280 295.307 281.2L294.407 280.7C295.107 279.5 295.907 278.3 296.607 277.1ZM292.207 284.2L293.107 284.8C292.407 286 291.607 287.2 290.907 288.4L290.007 287.8C290.707 286.6 291.507 285.4 292.207 284.3V284.2ZM287.807 291.3L288.707 291.9C287.907 293.1 287.207 294.3 286.407 295.4L285.507 294.8C286.307 293.6 287.007 292.5 287.807 291.3ZM283.207 298.3L284.107 298.9C283.307 300.1 282.507 301.2 281.807 302.4L280.907 301.8C281.707 300.7 282.507 299.5 283.207 298.3ZM278.507 305.2L279.407 305.8C278.607 307 277.807 308.1 277.007 309.2L276.207 308.6C277.007 307.5 277.807 306.4 278.607 305.2H278.507ZM273.507 312L274.307 312.6C273.407 313.8 272.507 314.9 271.707 315.9L270.907 315.2C271.707 314.2 272.607 313.1 273.507 311.9V312ZM268.307 318.5L269.107 319.2C268.107 320.4 267.107 321.4 266.207 322.3L265.507 321.5C266.407 320.7 267.307 319.6 268.407 318.5H268.307ZM262.307 324.1L262.907 325C261.807 325.8 260.507 326.6 259.307 327.2L258.807 326.3C260.007 325.7 261.207 324.9 262.307 324.2V324.1ZM255.007 327.9L255.307 328.9C253.907 329.3 252.507 329.6 251.107 329.8V328.8C252.307 328.6 253.707 328.3 255.007 327.9Z" fill="#1A1A1A"/>
<path d="M176.107 80.4004C177.207 80.4004 178.207 80.4004 179.207 80.4004V81.4004C178.207 81.4004 177.207 81.4004 176.107 81.4004H175.007V80.4004H176.107ZM170.807 80.5004V81.5004C169.507 81.5004 168.107 81.6004 166.707 81.7004V80.7004C168.107 80.6004 169.507 80.5004 170.807 80.5004ZM162.407 81.1004V82.1004C161.207 82.2004 159.807 82.4004 158.407 82.6004V81.6004C159.707 81.4004 161.107 81.2004 162.407 81.1004ZM154.107 82.3004L154.307 83.3004C153.007 83.5004 151.607 83.8004 150.207 84.1004L150.007 83.1004C151.407 82.8004 152.807 82.6004 154.107 82.3004ZM145.807 84.0004L146.007 85.0004C144.707 85.3004 143.307 85.7004 142.007 86.0004L141.707 85.0004C143.107 84.6004 144.407 84.3004 145.807 84.0004ZM137.707 86.2004L138.007 87.2004C136.607 87.6004 135.307 88.0004 134.007 88.4004L133.707 87.4004C135.007 87.0004 136.407 86.6004 137.707 86.2004ZM129.707 88.6004L130.007 89.6004C128.607 90.1004 127.307 90.6004 126.107 91.1004L125.707 90.1004C126.907 89.6004 128.207 89.1004 129.607 88.6004H129.707ZM121.907 91.8004L122.407 92.7004C121.107 93.3004 119.907 94.0004 118.807 94.7004L118.307 93.8004C119.507 93.1004 120.707 92.4004 122.007 91.8004H121.907ZM114.707 96.2004L115.307 97.0004L114.807 97.3004C113.807 98.0004 112.907 98.8004 112.007 99.5004L111.307 98.7004C112.207 97.9004 113.207 97.1004 114.107 96.4004L114.607 96.1004L114.707 96.2004ZM108.307 101.7L109.107 102.4C108.107 103.4 107.207 104.4 106.407 105.5L105.607 104.8C106.507 103.7 107.407 102.6 108.407 101.6L108.307 101.7ZM102.907 108.3L103.807 108.9C103.007 110 102.307 111.2 101.607 112.4L100.707 111.9C101.407 110.7 102.207 109.5 102.907 108.3ZM98.7068 115.6L99.6067 116.1C99.0067 117.3 98.4067 118.6 97.9067 119.9L96.9067 119.5C97.4067 118.2 98.0067 116.9 98.6067 115.7L98.7068 115.6ZM95.5067 123.4L96.5067 123.8C96.0067 125.1 95.6068 126.4 95.2068 127.8L94.2068 127.5C94.6068 126.1 95.1067 124.8 95.5067 123.5V123.4ZM93.0067 131.4L94.0067 131.7C93.6067 133 93.3067 134.4 93.0067 135.7L92.0067 135.5C92.3067 134.1 92.7067 132.8 93.0067 131.4ZM91.0067 139.6L92.0067 139.8C91.7067 141.2 91.4068 142.5 91.2068 143.9L90.2068 143.7C90.5068 142.3 90.7067 141 91.0067 139.6ZM89.4067 147.8L90.4067 148L90.0067 150C89.9067 150.6 89.8067 151.3 89.6067 152.1L88.6067 151.9C88.7067 151.1 88.9067 150.4 89.0067 149.8L89.4067 147.8ZM88.1067 156.1H89.1067C88.9067 157.5 88.8067 158.9 88.6067 160.4H87.6067C87.8067 158.8 87.9067 157.4 88.1067 156.1ZM87.2068 164.5H88.2068C88.2068 165.9 88.0067 167.3 88.0067 168.7H87.0067C87.0067 167.2 87.1068 165.8 87.2068 164.5ZM86.9067 172.9H87.9067C87.9067 173.6 87.9067 174.3 87.9067 174.9C87.9067 175.6 87.9067 176.3 87.9067 177.1H86.9067C86.9067 176.4 86.9067 175.7 86.9067 174.9C86.9067 174.2 86.9067 173.5 86.9067 172.9ZM88.0067 181.2C88.0067 182.6 88.1068 183.9 88.2068 185.4H87.2068C87.2068 184 87.0067 182.6 87.0067 181.3H88.0067V181.2ZM88.6067 189.5C88.7067 190.9 88.9067 192.2 89.1067 193.6H88.1067C87.9067 192.3 87.8067 190.9 87.6067 189.6H88.6067V189.5ZM89.6067 197.8C89.8067 199.2 90.0068 200.5 90.3068 201.9L89.3068 202.1C89.0068 200.7 88.8067 199.3 88.6067 198L89.6067 197.8ZM91.1067 206C91.4067 207.3 91.6067 208.7 91.9067 210.1L90.9067 210.3C90.6067 208.9 90.3067 207.5 90.1067 206.2L91.1067 206ZM92.8068 214.2C93.1068 215.5 93.4068 216.9 93.7068 218.3L92.7068 218.5C92.4068 217.1 92.1068 215.8 91.8068 214.4L92.8068 214.2ZM94.8068 222.3C95.2068 223.6 95.5067 225 96.0067 226.3L95.0067 226.6C94.6067 225.3 94.2068 223.9 93.8068 222.6L94.8068 222.3ZM97.2068 230.3C97.7068 231.6 98.2068 233 98.7068 234.2L97.7068 234.6C97.2068 233.3 96.7068 232 96.2068 230.7L97.2068 230.4V230.3ZM100.407 238C101.007 239.3 101.607 240.5 102.307 241.7L101.407 242.2C100.707 241 100.107 239.7 99.5067 238.4L100.407 238ZM104.407 245.3C105.207 246.5 106.007 247.6 106.807 248.7L106.007 249.3C105.207 248.2 104.407 247 103.607 245.8L104.507 245.2L104.407 245.3ZM109.407 251.8C110.307 252.8 111.307 253.8 112.307 254.7L111.607 255.5C110.607 254.6 109.607 253.6 108.607 252.5L109.407 251.8ZM115.507 257.4C116.307 258 117.207 258.7 118.107 259.2C118.407 259.4 118.607 259.5 118.907 259.7L118.407 260.6C118.107 260.4 117.907 260.3 117.607 260.1C116.707 259.5 115.807 258.9 114.907 258.2L115.507 257.4ZM122.507 261.7C123.607 262.2 124.907 262.7 126.307 263.3L125.907 264.3C124.407 263.8 123.207 263.2 122.007 262.7L122.407 261.8L122.507 261.7ZM130.307 264.6C131.507 265 132.807 265.4 134.307 265.9L134.007 266.9C132.607 266.4 131.207 266 130.007 265.6L130.307 264.6ZM138.307 267.1C139.707 267.5 141.007 267.9 142.307 268.3L142.007 269.3C140.707 268.9 139.307 268.5 138.007 268.1L138.307 267.1ZM146.307 269.3C147.707 269.6 149.007 270 150.407 270.3L150.207 271.3C148.907 271 147.507 270.7 146.107 270.3L146.407 269.3H146.307ZM154.507 271.1C155.907 271.4 157.307 271.6 158.607 271.9L158.407 272.9C157.107 272.7 155.707 272.4 154.307 272.1L154.507 271.1ZM162.707 272.6C164.107 272.8 165.507 273 166.807 273.2V274.2C165.307 274 163.907 273.9 162.507 273.6L162.707 272.6ZM171.007 273.6C172.407 273.7 173.807 273.9 175.207 274V275C173.807 275 172.407 274.8 170.907 274.6V273.6H171.007ZM179.307 274.2H180.507V275.3H179.307V274.2Z" fill="#1A1A1A"/>
<path d="M180.207 67.4004C181.307 67.4004 182.307 67.4004 183.307 67.4004V68.4004C182.307 68.4004 181.207 68.4004 180.207 68.4004C179.807 68.4004 179.506 68.4004 179.106 68.4004V67.4004C179.406 67.4004 179.807 67.4004 180.207 67.4004ZM175.006 67.5004V68.5004C173.706 68.5004 172.306 68.6004 170.906 68.7004V67.7004C172.306 67.7004 173.706 67.5004 175.006 67.5004ZM187.606 67.6004C188.206 67.6004 188.806 67.6004 189.406 67.6004V68.6004C188.806 68.6004 188.206 68.6004 187.606 68.6004V67.6004ZM166.606 68.0004V69.0004C165.306 69.1004 164.006 69.3004 162.506 69.4004V68.4004C163.806 68.2004 165.206 68.1004 166.606 68.0004ZM158.207 69.0004L158.406 70.0004C157.006 70.2004 155.707 70.4004 154.307 70.7004L154.106 69.7004C155.506 69.5004 156.907 69.2004 158.207 69.0004ZM150.006 70.5004L150.207 71.5004C148.907 71.8004 147.506 72.1004 146.106 72.4004L145.906 71.4004C147.306 71.1004 148.706 70.8004 150.006 70.5004ZM141.807 72.4004L142.106 73.4004C140.806 73.8004 139.406 74.1004 138.106 74.5004L137.807 73.5004C139.207 73.1004 140.507 72.7004 141.807 72.4004ZM133.707 74.7004L134.006 75.7004C132.706 76.1004 131.406 76.5004 130.006 77.0004L129.707 76.0004C131.107 75.5004 132.407 75.1004 133.707 74.7004ZM125.707 77.4004L126.106 78.4004C124.806 78.9004 123.507 79.4004 122.207 79.9004L121.807 78.9004C123.007 78.4004 124.407 77.9004 125.707 77.4004ZM118.006 80.6004L118.506 81.5004C117.206 82.1004 116.007 82.8004 114.807 83.4004L114.307 82.5004C115.507 81.8004 116.706 81.2004 118.106 80.6004H118.006ZM110.606 84.8004L111.207 85.7004C110.107 86.4004 108.907 87.3004 107.807 88.1004L107.207 87.3004C108.307 86.4004 109.506 85.6004 110.606 84.9004V84.8004ZM103.906 89.9004L104.606 90.7004C103.606 91.6004 102.606 92.6004 101.606 93.6004L100.906 92.9004C101.906 91.9004 102.906 90.9004 104.006 90.0004L103.906 89.9004ZM98.0065 95.9004L98.8065 96.6004C97.9065 97.6004 97.0065 98.7004 96.2065 99.8004L95.4065 99.2004C96.2065 98.1004 97.1065 97.0004 98.0065 95.9004ZM92.9065 102.6L93.8065 103.2C93.0065 104.3 92.3064 105.5 91.6064 106.7L90.7065 106.2C91.4065 105 92.2065 103.8 93.0065 102.6H92.9065ZM88.6064 109.8L89.5065 110.3C88.9065 111.5 88.2064 112.8 87.6064 114L86.7065 113.6C87.3065 112.3 87.9064 111.1 88.6064 109.8ZM85.0065 117.4L86.0065 117.8C85.5065 119 85.0065 120.4 84.5065 121.7L83.5065 121.3C84.0065 120 84.5064 118.7 85.1064 117.4H85.0065ZM82.0065 125.3L83.0065 125.6C82.6065 126.9 82.1065 128.2 81.7065 129.6L80.7065 129.3C81.1065 127.9 81.5065 126.6 82.0065 125.3ZM79.6064 133.3L80.6064 133.6C80.2064 135 79.9064 136.3 79.6064 137.7L78.6064 137.5C78.9064 136.2 79.2064 134.8 79.6064 133.4V133.3ZM77.7065 141.5L78.7065 141.7C78.4065 143.1 78.2065 144.5 77.9065 145.8L76.9065 145.6C77.1065 144.2 77.4065 142.9 77.7065 141.5ZM76.2065 149.8L77.2065 150C77.0065 151.4 76.8064 152.8 76.6064 154.1H75.6064C75.8064 152.6 76.0065 151.2 76.2065 149.8ZM75.2065 158.2H76.2065C76.1065 159.8 75.9065 161.2 75.8065 162.5H74.8065C74.9065 161.1 75.0065 159.7 75.2065 158.2ZM74.6064 166.5H75.6064C75.6064 167.8 75.5065 168.9 75.4065 169.8V170.7H74.3065V169.8C74.3065 168.9 74.4065 167.8 74.5065 166.5H74.6064ZM74.2065 174.9H75.2065C75.2065 176.2 75.2065 177.6 75.2065 179.1H74.2065C74.2065 177.6 74.2065 176.2 74.2065 174.9ZM75.2065 183.3C75.2065 184.6 75.2065 186 75.3065 187.5H74.3065C74.3065 186.1 74.3065 184.7 74.2065 183.3H75.2065ZM75.6064 191.7C75.6064 193.1 75.8065 194.4 75.9065 195.9H74.9065C74.8065 194.6 74.7064 193.2 74.6064 191.8H75.6064V191.7ZM76.3065 200C76.4065 201.4 76.6065 202.7 76.8065 204.1H75.8065C75.6065 202.8 75.4065 201.4 75.3065 200.1H76.3065V200ZM77.4065 208.3C77.6065 209.7 77.9064 211 78.1064 212.4L77.1064 212.6C76.8064 211.2 76.6065 209.8 76.4065 208.5L77.4065 208.3ZM78.9065 216.5C79.2065 217.8 79.5065 219.2 79.9065 220.6L78.9065 220.9C78.6065 219.5 78.2065 218.2 77.9065 216.8L78.9065 216.6V216.5ZM81.0065 224.6C81.4065 225.9 81.8065 227.3 82.2065 228.6L81.2065 228.9C80.8065 227.6 80.3065 226.2 80.0065 224.9L81.0065 224.6ZM83.6064 232.5C84.1064 233.8 84.6064 235.1 85.1064 236.4L84.1064 236.8C83.6064 235.5 83.0065 234.2 82.5065 232.9L83.5065 232.5H83.6064ZM86.9065 240.2C87.5065 241.5 88.1065 242.7 88.8065 243.9L87.9065 244.4C87.3065 243.2 86.6065 241.9 86.0065 240.6L86.9065 240.2ZM90.8065 247.5C91.5065 248.7 92.3065 249.9 93.0065 251L92.1064 251.6C91.3064 250.4 90.6065 249.3 89.8065 248.1L90.7065 247.6L90.8065 247.5ZM95.5065 254.4C96.3065 255.5 97.2064 256.6 98.1064 257.6L97.3065 258.3C96.4065 257.2 95.5064 256.1 94.6064 255L95.4065 254.4H95.5065ZM101.006 260.6C102.006 261.6 103.006 262.5 104.006 263.4L103.307 264.2C102.207 263.3 101.207 262.3 100.207 261.3L100.906 260.6H101.006ZM107.207 266.1C108.207 266.9 109.307 267.6 110.307 268.4L110.506 268.6L109.906 269.5L109.707 269.3C108.607 268.6 107.506 267.8 106.506 267L107.106 266.2L107.207 266.1ZM114.106 270.7C115.306 271.4 116.507 272 117.807 272.7L117.307 273.6C116.007 273 114.806 272.3 113.606 271.6L114.106 270.7ZM121.506 274.5C122.706 275.1 124.007 275.6 125.307 276.1L124.906 277.1C123.606 276.6 122.306 276 121.006 275.5L121.406 274.5H121.506ZM129.207 277.6C130.507 278.1 131.807 278.5 133.207 278.9L132.906 279.9C131.606 279.5 130.206 279 128.906 278.6L129.307 277.6H129.207ZM137.207 280.1C138.607 280.5 139.907 280.9 141.207 281.2L140.906 282.2C139.606 281.9 138.207 281.5 136.807 281.1L137.106 280.1H137.207ZM145.307 282.2C146.707 282.5 148.106 282.8 149.406 283.1L149.207 284.1C147.907 283.8 146.506 283.5 145.106 283.2L145.307 282.2ZM153.406 283.9C154.906 284.2 156.306 284.4 157.506 284.6L157.307 285.6C156.107 285.4 154.707 285.2 153.207 284.9L153.406 283.9ZM161.707 285.3C163.107 285.5 164.507 285.7 165.807 285.9V286.9C164.307 286.7 162.906 286.5 161.506 286.3L161.707 285.3ZM170.006 286.3C171.406 286.4 172.807 286.5 174.207 286.6V287.6C172.807 287.6 171.406 287.4 169.906 287.3V286.3H170.006ZM178.307 286.8C179.707 286.8 181.106 286.9 182.506 286.9V287.9C181.106 287.9 179.707 287.9 178.307 287.8V286.8ZM190.807 286.9V287.9C189.507 287.9 188.106 287.9 186.606 287.9V286.9C188.106 286.9 189.507 286.9 190.807 286.9Z" fill="#1A1A1A"/>
<path d="M198.007 54.6001C199.107 54.6001 200.207 54.6001 201.307 54.6001V55.6001C200.207 55.6001 199.207 55.6001 198.007 55.6001H197.107V54.6001H198.007ZM192.907 54.6001V55.6001C191.607 55.6001 190.207 55.6001 188.707 55.7001V54.7001C190.107 54.7001 191.507 54.6001 192.907 54.6001ZM184.507 55.0001V56.0001C183.207 56.0001 181.807 56.2001 180.407 56.3001V55.3001C181.707 55.2001 183.107 55.1001 184.507 55.0001ZM176.207 55.6001V56.6001C174.907 56.7001 173.607 56.9001 172.107 57.0001V56.0001C173.407 55.8001 174.807 55.7001 176.207 55.6001ZM167.807 56.6001V57.6001C166.607 57.8001 165.207 58.0001 163.807 58.2001L163.607 57.2001C165.007 57.0001 166.407 56.8001 167.807 56.6001ZM159.507 57.9001L159.707 58.9001L155.607 59.6001L155.407 58.6001L159.507 57.9001ZM151.307 59.4001L151.507 60.4001C150.207 60.7001 148.807 60.9001 147.407 61.2001L147.207 60.2001C148.607 59.9001 150.007 59.7001 151.307 59.4001ZM143.107 61.0001L143.307 62.0001C142.007 62.3001 140.607 62.6001 139.207 62.9001L139.007 61.9001C140.407 61.6001 141.707 61.3001 143.107 61.0001ZM134.907 63.0001L135.207 64.0001C133.907 64.3001 132.507 64.7001 131.207 65.1001L130.907 64.1001C132.307 63.7001 133.607 63.3001 135.007 63.0001H134.907ZM126.807 65.3001L127.107 66.3001C125.807 66.7001 124.507 67.2001 123.107 67.6001L122.707 66.6001C124.007 66.1001 125.407 65.7001 126.707 65.3001H126.807ZM118.907 68.1001L119.307 69.1001C118.007 69.6001 116.707 70.2001 115.507 70.7001L115.107 69.7001C116.307 69.1001 117.607 68.6001 119.007 68.1001H118.907ZM111.207 71.6001L111.707 72.5001C110.407 73.1001 109.207 73.8001 108.007 74.5001L107.507 73.6001C108.707 72.9001 109.907 72.3001 111.207 71.6001ZM103.907 75.8001L104.507 76.7001C103.307 77.4001 102.207 78.2001 101.107 79.1001L100.507 78.3001C101.607 77.5001 102.807 76.7001 104.007 75.9001L103.907 75.8001ZM97.1066 80.8001L97.8066 81.6001C96.7066 82.5001 95.7067 83.4001 94.7067 84.3001L94.0066 83.5001C95.0066 82.5001 96.1067 81.6001 97.2067 80.7001L97.1066 80.8001ZM90.9066 86.5001L91.7067 87.2001C90.7067 88.2001 89.8066 89.2001 88.9066 90.3001L88.1066 89.6001C89.0066 88.5001 90.0066 87.5001 91.0066 86.5001H90.9066ZM85.4066 92.8001L86.2067 93.4001C85.4067 94.5001 84.5067 95.6001 83.7067 96.7001L82.8066 96.1001C83.6066 95.0001 84.5066 93.8001 85.3066 92.7001L85.4066 92.8001ZM80.5066 99.7001L81.4066 100.3C80.7066 101.5 79.9067 102.6 79.2067 103.8L78.3066 103.3C79.0066 102.1 79.8066 100.9 80.5066 99.7001ZM76.2067 106.9L77.1066 107.4C76.5066 108.6 75.8067 109.9 75.2067 111.1L74.3066 110.6C74.9066 109.3 75.6067 108.1 76.2067 106.9ZM72.5066 114.5L73.5066 114.9C72.9066 116.1 72.4066 117.4 71.9066 118.7L70.9066 118.3C71.4066 117 72.0066 115.7 72.5066 114.4V114.5ZM69.4066 122.3L70.4066 122.7C69.9066 124 69.5066 125.3 69.0066 126.6L68.0066 126.3C68.4066 125 68.9066 123.7 69.4066 122.3ZM66.8066 130.3L67.8066 130.6C67.4066 131.9 67.0067 133.3 66.7067 134.6L65.7067 134.3C66.1067 133 66.4066 131.6 66.8066 130.3ZM64.6066 138.4L65.6066 138.6C65.3066 140 65.0067 141.3 64.7067 142.7L63.7067 142.5C64.0067 141.2 64.3066 139.8 64.6066 138.4ZM62.8066 146.6L63.8066 146.8C63.5066 148.2 63.3066 149.6 63.1066 150.9L62.1066 150.7C62.3066 149.3 62.6066 148 62.8066 146.6ZM61.5066 154.9H62.5066C62.3066 156.5 62.1066 157.9 62.0066 159.2H61.0066C61.2066 157.7 61.3066 156.3 61.5066 154.9ZM60.5066 163.3H61.5066C61.4066 164.9 61.2067 166.3 61.2067 167.6H60.2067C60.2067 166.2 60.4066 164.8 60.5066 163.3ZM59.9066 171.7H60.9066C60.9066 173.5 60.8066 174.9 60.8066 175.9H59.8066C59.8066 174.9 59.8066 173.4 59.9066 171.7ZM60.8066 180.1C60.8066 181.3 60.8066 182.7 60.9066 184.3H59.9066C59.9066 182.7 59.8066 181.3 59.8066 180.1H60.8066ZM61.2067 188.4C61.2067 189.7 61.4066 191.1 61.5066 192.6H60.5066C60.4066 191.2 60.3067 189.8 60.2067 188.5H61.2067V188.4ZM61.9066 196.8C62.1066 198.1 62.2066 199.5 62.4066 200.9H61.4066C61.2066 199.6 61.0066 198.2 60.9066 196.9H61.9066V196.8ZM63.1066 205C63.3066 206.3 63.6066 207.7 63.8066 209.1L62.8066 209.3C62.5066 207.9 62.3066 206.5 62.1066 205.2L63.1066 205ZM64.7067 213.2C65.0067 214.5 65.3067 215.9 65.7067 217.3L64.7067 217.6C64.4067 216.2 64.0067 214.9 63.7067 213.5L64.7067 213.3V213.2ZM66.8066 221.3C67.2066 222.6 67.6066 224 68.0066 225.3L67.0066 225.6C66.6066 224.2 66.2066 222.9 65.8066 221.6L66.8066 221.3ZM69.3066 229.3C69.8066 230.6 70.2067 231.9 70.7067 233.2L69.7067 233.6C69.2067 232.3 68.7067 231 68.2067 229.7L69.2067 229.4L69.3066 229.3ZM72.3066 237.1C72.9066 238.4 73.4066 239.7 74.0066 240.9L73.1066 241.3C72.5066 240 71.9066 238.8 71.4066 237.5L72.4066 237.1H72.3066ZM75.9066 244.6C76.5066 245.8 77.2066 247.1 77.9066 248.3L77.0066 248.8C76.3066 247.6 75.6066 246.3 75.0066 245.1L75.9066 244.6ZM80.0066 251.8C80.8066 253 81.5066 254.2 82.3066 255.3L81.4066 255.9C80.6066 254.8 79.8066 253.6 79.1066 252.4L80.0066 251.8ZM84.8066 258.6C85.6066 259.7 86.5066 260.8 87.4066 261.8L86.6066 262.5C85.7066 261.4 84.8066 260.3 84.0066 259.2L84.8066 258.6ZM90.2067 265C91.1067 266 92.1066 267 93.1066 268L92.4066 268.7C91.4066 267.7 90.4066 266.7 89.5066 265.7L90.3066 265H90.2067ZM96.1066 270.8C97.1066 271.7 98.2066 272.6 99.3066 273.5L98.7067 274.3C97.6067 273.4 96.5066 272.5 95.5066 271.6L96.2067 270.8H96.1066ZM102.607 275.9C103.707 276.7 104.907 277.5 106.107 278.2L105.507 279.1C104.307 278.3 103.107 277.6 102.007 276.8L102.607 275.9ZM109.707 280.4C110.907 281.1 112.107 281.7 113.407 282.4L112.907 283.3C111.607 282.7 110.407 282 109.207 281.3L109.707 280.4ZM117.107 284.2C118.307 284.8 119.607 285.3 120.907 285.9L120.507 286.9C119.207 286.4 117.907 285.8 116.707 285.2L117.107 284.3V284.2ZM124.707 287.4C126.007 287.9 127.307 288.4 128.607 288.8L128.307 289.8C127.007 289.4 125.707 288.9 124.307 288.4L124.707 287.4ZM132.607 290.1C133.907 290.5 135.307 290.9 136.607 291.3L136.307 292.3C135.007 291.9 133.607 291.5 132.307 291.1L132.607 290.1ZM140.707 292.4C142.107 292.7 143.407 293.1 144.807 293.4L144.607 294.4C143.307 294.1 141.907 293.8 140.507 293.4L140.807 292.4H140.707ZM148.807 294.2C150.207 294.5 151.607 294.7 152.907 295L152.707 296C151.407 295.8 150.007 295.5 148.607 295.2L148.807 294.2ZM157.007 295.7C158.407 295.9 159.807 296.2 161.107 296.4L160.907 297.4C159.607 297.2 158.207 297 156.807 296.7L157.007 295.7ZM165.307 297L166.907 297.2C167.707 297.3 168.607 297.4 169.407 297.5V298.5C168.407 298.4 167.607 298.3 166.807 298.2L165.207 298V297H165.307ZM173.607 298C175.007 298.1 176.407 298.3 177.807 298.4V299.4C176.307 299.3 175.007 299.2 173.507 299V298H173.607ZM181.907 298.7C183.307 298.7 184.707 298.9 186.107 298.9V299.9C184.707 299.9 183.307 299.8 181.907 299.7V298.7ZM202.807 298.9V299.9C201.507 299.9 200.107 300 198.707 300V299C200.107 299 201.507 299 202.807 298.9ZM190.307 299.1C191.607 299.1 192.907 299.1 194.107 299.1H194.507V300.1H194.107C192.907 300.1 191.607 300.1 190.307 300.1V299.1Z" fill="#1A1A1A"/>
<path d="M217.606 42V43C217.006 43 216.407 43 215.807 43V42C216.407 42 217.006 42 217.606 42ZM211.606 42V43C210.306 43 208.906 43 207.406 43.1V42.1C208.806 42.1 210.206 42.1 211.606 42ZM203.207 42.3V43.3C201.907 43.3 200.506 43.4 199.106 43.5V42.5C200.506 42.5 201.907 42.3 203.207 42.3ZM194.906 42.8V43.8C193.606 43.8 192.207 44 190.807 44.1V43.1C192.107 43 193.507 42.9 194.906 42.8ZM186.506 43.5V44.5C185.206 44.6 183.806 44.8 182.406 44.9V43.9C183.706 43.7 185.106 43.6 186.506 43.5ZM178.207 44.4V45.4C177.007 45.6 175.607 45.7 174.207 45.9V44.9C175.507 44.7 176.907 44.5 178.207 44.4ZM169.906 45.5V46.5C168.606 46.7 167.306 46.9 165.906 47.1V46.1C167.106 45.9 168.506 45.7 169.906 45.5ZM161.606 46.6V47.6C160.406 47.8 159.006 48 157.606 48.2L157.406 47.2C158.806 47 160.206 46.8 161.506 46.6H161.606ZM153.307 47.8L153.506 48.8C152.106 49 150.706 49.2 149.406 49.5L149.207 48.5C150.607 48.3 151.907 48.1 153.307 47.8ZM145.006 49.2L145.207 50.2C143.807 50.4 142.406 50.7 141.106 51L140.906 50C142.306 49.7 143.606 49.5 145.006 49.2ZM136.807 50.8L137.006 51.8C135.606 52.1 134.306 52.4 132.906 52.7L132.707 51.7C134.107 51.4 135.407 51.1 136.807 50.8ZM128.606 52.7L128.906 53.7C127.506 54.1 126.206 54.4 124.906 54.8L124.606 53.8C125.906 53.4 127.307 53.1 128.707 52.7H128.606ZM120.506 55L120.807 56C119.507 56.4 118.107 56.9 116.807 57.3L116.406 56.3C117.706 55.8 119.006 55.4 120.406 55H120.506ZM112.606 57.8L113.006 58.8C111.706 59.3 110.407 59.9 109.207 60.4L108.807 59.4C110.007 58.8 111.407 58.3 112.707 57.8H112.606ZM104.906 61.2L105.406 62.1C104.206 62.7 102.907 63.4 101.707 64L101.207 63.1C102.407 62.4 103.706 61.8 104.906 61.1V61.2ZM97.6064 65.4L98.2065 66.3C97.0065 67 95.9065 67.8 94.7065 68.6L94.1064 67.7C95.2064 66.9 96.4064 66.1 97.6064 65.4ZM90.7065 70.2L91.3065 71C90.2065 71.8 89.1064 72.7 88.1064 73.6L87.4065 72.8C88.5065 71.9 89.6065 71 90.7065 70.2ZM84.2065 75.6L84.9065 76.4C83.9065 77.3 82.9065 78.3 81.9065 79.3L81.2065 78.6C82.2065 77.6 83.2065 76.6 84.2065 75.7V75.6ZM78.3065 81.6L79.1064 82.3C78.2064 83.3 77.3065 84.4 76.4065 85.4L75.6064 84.7C76.5064 83.6 77.4065 82.6 78.4065 81.5L78.3065 81.6ZM72.9065 88L73.7065 88.6C72.9065 89.7 72.0065 90.8 71.2065 91.9L70.4065 91.3C71.2065 90.2 72.1065 89 72.9065 87.9V88ZM68.0065 94.9L68.9065 95.5C68.1065 96.6 67.4065 97.8 66.7065 99L65.8065 98.5C66.5065 97.3 67.3064 96.1 68.1064 95L68.0065 94.9ZM63.6064 102L64.5065 102.5C63.8065 103.7 63.1065 104.9 62.5065 106.2L61.6064 105.7C62.3064 104.5 62.9064 103.2 63.6064 102ZM59.7065 109.5L60.6064 110C60.0064 111.2 59.4065 112.5 58.8065 113.8L57.8065 113.4C58.4065 112.1 59.0064 110.9 59.6064 109.6L59.7065 109.5ZM56.3065 117.1L57.3065 117.5C56.8065 118.8 56.3065 120.1 55.8065 121.4L54.8065 121C55.3065 119.7 55.8065 118.4 56.4065 117.1H56.3065ZM53.3065 125L54.3065 125.3C53.8065 126.6 53.4065 127.9 53.0065 129.3L52.0065 129C52.4065 127.7 52.9065 126.3 53.3065 125ZM50.7065 133L51.7065 133.3C51.3065 134.6 50.9064 136 50.6064 137.3L49.6064 137C50.0064 135.7 50.3065 134.3 50.7065 133ZM48.6064 141.1L49.6064 141.3C49.3064 142.7 49.0065 144 48.7065 145.4L47.7065 145.2C48.0065 143.8 48.3064 142.5 48.6064 141.1ZM46.8065 149.3L47.8065 149.5C47.5065 150.9 47.3064 152.2 47.1064 153.6L46.1064 153.4C46.3064 152 46.6065 150.6 46.8065 149.3ZM45.5065 157.6H46.5065C46.3065 159.1 46.1065 160.5 46.0065 161.9H45.0065C45.1065 160.4 45.3065 159 45.5065 157.6ZM44.6064 166H45.6064C45.5064 167.5 45.4065 168.9 45.3065 170.2H44.3065C44.3065 168.8 44.5064 167.4 44.6064 166ZM44.2065 174.3H45.2065C45.2065 175.2 45.2065 176.1 45.2065 176.9V177.6V178.5H44.2065V177.6V176.9C44.2065 176 44.2065 175.2 44.2065 174.3ZM45.3065 182.7C45.3065 183.9 45.4065 185.3 45.5065 186.9H44.5065C44.4065 185.4 44.3065 184 44.3065 182.8H45.3065V182.7ZM45.8065 191.1C45.9065 192.4 46.1065 193.8 46.2065 195.3H45.2065C45.0065 194 44.9065 192.6 44.8065 191.2H45.8065V191.1ZM46.8065 199.4C47.0065 200.7 47.2065 202.1 47.4065 203.5L46.4065 203.7C46.2065 202.3 46.0065 200.9 45.8065 199.5H46.8065V199.4ZM48.2065 207.6C48.5065 208.9 48.7065 210.3 49.0065 211.7L48.0065 211.9C47.7065 210.5 47.4065 209.1 47.2065 207.8L48.2065 207.6ZM49.9065 215.8C50.2065 217.1 50.6065 218.5 50.9065 219.8L49.9065 220.1C49.5065 218.7 49.2065 217.4 48.9065 216L49.9065 215.8ZM52.1064 223.9C52.5064 225.2 52.9065 226.5 53.3065 227.9L52.3065 228.2C51.9065 226.9 51.4065 225.5 51.0065 224.2L52.0065 223.9H52.1064ZM54.7065 231.8C55.2065 233.1 55.7065 234.4 56.2065 235.7L55.2065 236.1C54.7065 234.8 54.2065 233.5 53.7065 232.2L54.7065 231.8ZM57.7065 239.6C58.2065 240.9 58.8065 242.1 59.4065 243.4L58.5065 243.8C57.9065 242.5 57.3065 241.2 56.8065 240L57.8065 239.6H57.7065ZM61.3065 247.1C61.9065 248.3 62.6065 249.6 63.3065 250.8L62.4065 251.3C61.7065 250.1 61.1065 248.8 60.4065 247.6L61.3065 247.1ZM65.3065 254.4C66.0065 255.6 66.8065 256.8 67.5065 257.9L66.6064 258.5C65.8064 257.4 65.1065 256.2 64.4065 254.9L65.3065 254.4ZM69.9065 261.4C70.7065 262.5 71.5065 263.7 72.4065 264.7L71.6064 265.3C70.7064 264.2 69.9064 263.1 69.1064 261.9L69.9065 261.3V261.4ZM75.0065 267.9C75.9065 269 76.8065 270 77.8065 271L77.0065 271.7C76.1065 270.7 75.1065 269.6 74.2065 268.6L75.0065 267.9ZM80.7065 274C81.7065 275 82.7065 275.9 83.7065 276.9L83.0065 277.7C82.0065 276.8 80.9065 275.8 79.9065 274.8L80.6064 274.1L80.7065 274ZM86.8065 279.6C87.9065 280.5 89.0064 281.3 90.1064 282.2L89.5065 283C88.4065 282.2 87.3065 281.3 86.2065 280.4L86.9065 279.6H86.8065ZM93.5065 284.6C94.6065 285.4 95.8065 286.1 97.0065 286.9L96.5065 287.8C95.3065 287.1 94.1065 286.3 93.0065 285.5L93.6064 284.6H93.5065ZM100.606 289C101.806 289.7 103.007 290.3 104.307 290.9L103.807 291.8C102.507 291.2 101.306 290.5 100.106 289.8L100.606 288.9V289ZM108.006 292.7C109.306 293.3 110.507 293.8 111.807 294.3L111.406 295.3C110.106 294.8 108.806 294.2 107.506 293.7L107.906 292.7H108.006ZM115.807 295.8C117.107 296.3 118.407 296.7 119.707 297.2L119.406 298.2C118.106 297.8 116.706 297.3 115.406 296.8L115.807 295.8ZM123.707 298.4C125.007 298.8 126.407 299.2 127.707 299.6L127.406 300.6C126.006 300.2 124.706 299.8 123.406 299.4L123.707 298.4ZM131.707 300.6C133.007 300.9 134.407 301.3 135.807 301.6L135.606 302.6C134.206 302.3 132.906 301.9 131.506 301.6L131.807 300.6H131.707ZM139.906 302.6C141.206 302.9 142.606 303.2 144.006 303.5L143.807 304.5C142.407 304.2 141.107 303.9 139.707 303.6L139.906 302.6ZM148.006 304.3C149.406 304.6 150.706 304.9 152.106 305.2L151.906 306.2C150.506 305.9 149.207 305.6 147.807 305.3L148.006 304.3ZM156.207 306C157.607 306.3 158.907 306.5 160.307 306.8L160.106 307.8C158.706 307.5 157.406 307.3 156.006 307L156.207 306ZM164.406 307.6C165.806 307.8 167.206 308.1 168.506 308.3L168.307 309.3C166.907 309.1 165.607 308.9 164.207 308.6L164.406 307.6ZM172.707 308.9C174.107 309.1 175.507 309.3 176.807 309.5V310.5C175.307 310.3 173.906 310.1 172.506 309.9V308.9H172.707ZM181.006 309.9C182.406 310.1 183.807 310.2 185.207 310.3V311.3C183.707 311.2 182.306 311 180.906 310.9V309.9H181.006ZM189.307 310.7C190.707 310.8 192.106 310.9 193.506 311V312C192.106 312 190.707 311.8 189.207 311.7V310.7H189.307ZM197.606 311.3C199.006 311.3 200.407 311.4 201.807 311.5V312.5C200.407 312.5 199.006 312.4 197.606 312.3V311.3ZM218.506 311.5V312.5C217.206 312.5 215.807 312.5 214.307 312.5V311.5C215.707 311.5 217.106 311.5 218.506 311.5ZM206.006 311.6C207.406 311.6 208.807 311.6 210.207 311.6V312.6C208.807 312.6 207.406 312.6 206.006 312.6V311.6Z" fill="#1A1A1A"/>
<path d="M231.507 32.2002V33.2002C230.207 33.2002 228.807 33.3002 227.407 33.4002V32.4002C228.807 32.4002 230.207 32.3002 231.507 32.2002ZM223.207 32.6002V33.6002C221.907 33.6002 220.507 33.8002 219.107 33.9002V32.9002C220.507 32.9002 221.907 32.7002 223.207 32.6002ZM214.807 33.1002V34.1002C213.507 34.1002 212.107 34.3002 210.707 34.4002V33.4002C212.007 33.3002 213.407 33.2002 214.807 33.1002ZM206.407 33.8002V34.8002C205.107 34.9002 203.707 35.1002 202.307 35.2002V34.2002C203.607 34.1002 205.007 33.9002 206.407 33.8002ZM198.107 34.6002V35.6002C196.807 35.7002 195.507 35.9002 194.107 36.1002V35.1002C195.407 34.9002 196.807 34.8002 198.107 34.6002ZM189.807 35.6002V36.6002C188.607 36.8002 187.207 36.9002 185.807 37.1002V36.1002C187.107 35.9002 188.507 35.7002 189.807 35.6002ZM181.507 36.7002V37.7002C180.707 37.8002 179.707 38.0002 178.707 38.1002L177.507 38.3002L177.307 37.3002L178.507 37.1002C179.507 37.0002 180.507 36.8002 181.507 36.7002ZM173.207 37.8002V38.8002C173.307 38.8002 169.207 39.4002 169.207 39.4002V38.4002C169.107 38.4002 173.207 37.8002 173.207 37.8002ZM164.907 39.0002L165.107 40.0002L161.007 40.6002L160.807 39.6002L164.907 39.0002ZM156.607 40.3002L156.807 41.3002C155.407 41.5002 154.007 41.7002 152.707 41.9002L152.507 40.9002C153.907 40.7002 155.207 40.5002 156.607 40.3002ZM148.307 41.6002L148.507 42.6002C147.107 42.8002 145.707 43.0002 144.407 43.3002L144.207 42.3002C145.607 42.1002 146.907 41.8002 148.307 41.6002ZM140.107 42.9002L140.307 43.9002C138.907 44.1002 137.507 44.4002 136.207 44.6002L136.007 43.6002C137.307 43.3002 138.707 43.1002 140.107 42.9002ZM131.807 44.5002L132.007 45.5002C130.607 45.8002 129.207 46.1002 127.907 46.3002L127.707 45.3002C129.007 45.0002 130.407 44.7002 131.807 44.5002ZM123.607 46.2002L123.807 47.2002C122.407 47.5002 121.107 47.9002 119.707 48.2002L119.407 47.2002C120.707 46.9002 122.107 46.5002 123.507 46.2002H123.607ZM115.507 48.3002L115.807 49.3002C114.407 49.7002 113.107 50.1002 111.807 50.5002L111.507 49.5002C112.807 49.1002 114.207 48.7002 115.507 48.3002ZM107.507 50.9002L107.907 51.9002C106.607 52.4002 105.307 52.9002 104.007 53.4002L103.607 52.4002C104.907 51.9002 106.207 51.4002 107.507 50.9002ZM99.707 54.0002L100.107 55.0002C98.8069 55.6002 97.607 56.2002 96.307 56.8002L95.807 55.9002C97.007 55.3002 98.3069 54.7002 99.6069 54.1002L99.707 54.0002ZM92.207 57.8002L92.707 58.7002C91.507 59.4002 90.3069 60.1002 89.1069 60.8002L88.507 59.9002C89.707 59.2002 90.9069 58.4002 92.1069 57.7002L92.207 57.8002ZM85.1069 62.3002L85.707 63.2002C84.607 64.0002 83.407 64.8002 82.307 65.6002L81.707 64.8002C82.807 64.0002 84.0069 63.1002 85.1069 62.3002ZM78.407 67.4002L79.1069 68.2002C78.0069 69.1002 77.007 70.0002 75.907 70.9002L75.207 70.1002C76.207 69.2002 77.307 68.3002 78.407 67.4002ZM72.1069 73.0002L72.807 73.8002C71.807 74.8002 70.807 75.7002 69.907 76.8002L69.1069 76.1002C70.1069 75.1002 71.1069 74.1002 72.1069 73.1002V73.0002ZM66.307 79.0002L67.1069 79.7002C66.2069 80.7002 65.307 81.8002 64.407 82.9002L63.6069 82.2002C64.5069 81.1002 65.407 80.0002 66.307 79.0002ZM61.007 85.5002L61.807 86.1002C61.007 87.2002 60.107 88.3002 59.307 89.5002L58.407 88.9002C59.207 87.8002 60.007 86.6002 60.907 85.5002H61.007ZM56.1069 92.4002L57.007 93.0002C56.207 94.2002 55.507 95.3002 54.807 96.5002L53.907 96.0002C54.607 94.8002 55.407 93.6002 56.207 92.5002L56.1069 92.4002ZM51.707 99.5002L52.6069 100C51.9069 101.2 51.2069 102.4 50.6069 103.7L49.707 103.2C50.407 102 51.007 100.7 51.707 99.5002ZM47.707 107L48.6069 107.5C48.0069 108.7 47.407 110 46.807 111.3L45.907 110.9C46.507 109.6 47.107 108.4 47.707 107.1V107ZM44.207 114.6L45.207 115C44.707 116.3 44.1069 117.6 43.6069 118.9L42.6069 118.5C43.1069 117.2 43.607 115.9 44.207 114.6ZM41.207 122.4L42.207 122.8C41.707 124.1 41.307 125.4 40.807 126.7L39.807 126.4C40.207 125.1 40.707 123.8 41.207 122.4ZM38.6069 130.4L39.6069 130.7C39.2069 132 38.807 133.4 38.407 134.7L37.407 134.4C37.807 133.1 38.2069 131.7 38.6069 130.4ZM36.307 138.5L37.307 138.8C37.007 140.2 36.707 141.5 36.407 142.9L35.407 142.7C35.707 141.3 36.007 140 36.407 138.6L36.307 138.5ZM34.507 146.7L35.507 146.9C35.207 148.3 35.007 149.6 34.807 151L33.807 150.8C34.007 149.4 34.307 148 34.507 146.7ZM33.1069 154.9H34.1069C33.9069 156.4 33.7069 157.8 33.6069 159.2H32.6069C32.8069 157.7 32.9069 156.3 33.1069 154.9ZM32.207 163.3H33.207C33.107 164.8 33.007 166.2 32.907 167.6H31.907C31.907 166.1 32.107 164.7 32.207 163.3ZM31.6069 171.7H32.6069C32.6069 173.1 32.6069 174.5 32.6069 175.9H31.6069C31.6069 174.5 31.6069 173.1 31.6069 171.7ZM32.707 180.1C32.707 181.2 32.807 182.6 32.907 184.3H31.907C31.807 182.7 31.707 181.3 31.707 180.2H32.707V180.1ZM33.307 188.4C33.407 189.7 33.607 191.1 33.707 192.6H32.707C32.507 191.2 32.407 189.8 32.207 188.5H33.207L33.307 188.4ZM34.207 196.7C34.407 198 34.607 199.4 34.807 200.8L33.807 201C33.607 199.6 33.407 198.2 33.207 196.8H34.207V196.7ZM35.6069 205C35.9069 206.3 36.107 207.7 36.407 209.1L35.407 209.3C35.107 207.9 34.8069 206.5 34.6069 205.2L35.6069 205ZM37.307 213.2C37.607 214.5 37.907 215.9 38.307 217.3L37.307 217.6C36.907 216.2 36.607 214.9 36.307 213.5L37.307 213.3V213.2ZM39.407 221.2C39.807 222.5 40.2069 223.9 40.6069 225.2L39.6069 225.5C39.2069 224.1 38.807 222.8 38.407 221.5L39.407 221.2ZM41.907 229.2C42.307 230.5 42.807 231.8 43.307 233.1L42.307 233.5C41.807 232.2 41.307 230.9 40.907 229.5L41.907 229.2ZM44.807 237C45.307 238.3 45.907 239.6 46.407 240.9L45.407 241.3C44.807 240 44.307 238.7 43.807 237.4L44.807 237ZM48.1069 244.7C48.7069 246 49.307 247.2 49.907 248.5L49.007 249C48.407 247.7 47.807 246.5 47.207 245.2L48.1069 244.8V244.7ZM51.907 252.1C52.607 253.3 53.207 254.5 54.007 255.7L53.1069 256.2C52.4069 255 51.707 253.8 51.007 252.5L51.907 252V252.1ZM56.207 259.3C57.007 260.5 57.707 261.7 58.507 262.8L57.6069 263.4C56.8069 262.3 56.107 261.1 55.307 259.9L56.207 259.3ZM60.907 266.2C61.707 267.3 62.607 268.4 63.407 269.5L62.6069 270.2C61.7069 269.1 60.907 268 60.007 266.9L60.807 266.3L60.907 266.2ZM66.1069 272.7C67.0069 273.8 67.907 274.8 68.907 275.8L68.1069 276.5C67.2069 275.5 66.207 274.4 65.307 273.4L66.1069 272.7ZM71.707 278.8C72.707 279.8 73.707 280.7 74.707 281.7L74.007 282.5C73.007 281.6 72.007 280.6 71.007 279.6L71.707 278.9V278.8ZM77.907 284.4C79.007 285.3 80.1069 286.2 81.1069 287L80.507 287.8C79.407 287 78.307 286.1 77.207 285.2L77.907 284.4ZM84.507 289.5L85.207 290C86.107 290.6 87.007 291.2 87.907 291.8L87.307 292.7C86.407 292.1 85.5069 291.5 84.6069 290.9L83.907 290.4L84.507 289.5ZM91.407 294C92.607 294.7 93.807 295.4 95.007 296L94.507 296.9C93.307 296.2 92.007 295.6 90.807 294.8L91.307 293.9L91.407 294ZM98.807 297.9C100.007 298.5 101.307 299.1 102.607 299.6L102.207 300.6C100.907 300 99.607 299.5 98.407 298.9L98.907 298L98.807 297.9ZM106.407 301.2C107.607 301.7 109.007 302.2 110.307 302.6L110.007 303.6C108.607 303.1 107.307 302.6 106.107 302.2L106.507 301.2H106.407ZM114.307 304C115.607 304.4 116.907 304.8 118.307 305.2L118.007 306.2C116.607 305.8 115.307 305.4 114.007 305L114.307 304ZM122.307 306.3C123.607 306.6 125.007 307 126.407 307.3L126.207 308.3C124.807 308 123.507 307.6 122.107 307.3L122.407 306.3H122.307ZM130.407 308.2C131.707 308.5 133.107 308.8 134.507 309.1L134.307 310.1C132.907 309.8 131.507 309.5 130.207 309.2L130.407 308.2ZM138.607 309.9C139.907 310.2 141.307 310.4 142.707 310.7L142.507 311.7C141.107 311.4 139.707 311.2 138.407 310.9L138.607 309.9ZM146.807 311.4C148.207 311.6 149.507 311.9 150.907 312.1L150.707 313.1C149.307 312.9 147.907 312.6 146.607 312.4L146.807 311.4ZM155.107 312.7C156.507 312.9 157.807 313.1 159.207 313.3L159.007 314.3C157.607 314.1 156.207 313.9 154.907 313.7L155.107 312.7ZM163.407 314L167.507 314.6L167.307 315.6L163.207 315L163.407 314ZM171.607 315.2L175.707 315.8L175.507 316.8L171.407 316.2L171.607 315.2ZM179.907 316.5H180.507C181.707 316.8 182.907 316.9 184.107 317.1V318.1C182.807 317.9 181.607 317.8 180.407 317.6H179.807L180.007 316.5H179.907ZM188.207 317.6C189.607 317.8 191.007 318 192.407 318.1V319.1C190.907 318.9 189.507 318.8 188.107 318.6V317.6H188.207ZM196.507 318.6C197.907 318.8 199.307 318.9 200.707 319V320C199.207 319.9 197.807 319.7 196.407 319.6V318.6H196.507ZM204.807 319.5C206.207 319.6 207.607 319.8 209.007 319.9V320.9C207.507 320.8 206.207 320.7 204.707 320.5V319.5H204.807ZM213.207 320.2C214.607 320.3 216.007 320.4 217.407 320.5V321.5C216.007 321.5 214.607 321.3 213.107 321.2V320.2H213.207ZM221.507 320.7C222.907 320.7 224.307 320.9 225.707 320.9V321.9C224.307 321.9 222.907 321.8 221.507 321.7V320.7ZM229.907 321.1C231.407 321.1 232.807 321.2 234.107 321.2V322.2C232.707 322.2 231.307 322.2 229.907 322.1V321.1Z" fill="#1A1A1A"/>
<path d="M275.907 14.7998C276.907 15.3998 277.807 15.9998 278.707 16.5998L278.107 17.4998C277.207 16.8998 276.307 16.2998 275.407 15.6998L275.907 14.7998ZM282.007 19.1998C282.407 19.4998 282.707 19.7998 283.107 20.0998C283.807 20.6998 284.507 21.2998 285.207 21.9998L284.507 22.7998C283.807 22.1998 283.107 21.4998 282.407 20.8998C282.007 20.5998 281.707 20.2998 281.307 19.9998L282.007 19.1998ZM288.107 24.9998C289.007 25.9998 289.907 27.0998 290.807 28.1998L290.007 28.7998C289.107 27.6998 288.307 26.5998 287.307 25.5998L288.107 24.8998V24.9998ZM293.407 31.5998C293.707 31.9998 293.907 32.2998 294.107 32.5998L295.807 35.0998L294.907 35.6998L293.307 33.2998C293.107 32.8998 292.807 32.5998 292.607 32.1998L293.507 31.5998H293.407ZM298.007 38.5998C298.807 39.7998 299.607 40.9998 300.307 42.0998L299.407 42.6998C298.707 41.5998 297.907 40.4998 297.107 39.1998L298.007 38.5998ZM302.607 45.4998C303.507 46.7998 304.207 47.9998 304.907 48.9998L304.007 49.5998C303.307 48.5998 302.607 47.3998 301.707 46.0998L302.607 45.4998ZM307.107 52.5998C308.407 54.6998 308.807 55.3998 308.807 55.4998L309.207 56.2998L308.307 56.7998L307.907 55.9998C307.907 55.9998 307.507 55.1998 306.207 53.1998L307.107 52.6998V52.5998ZM311.307 59.8998L313.307 63.5998L312.407 64.0998L310.407 60.3998L311.307 59.8998ZM315.207 67.2998L317.207 70.9998L316.307 71.4998L314.307 67.7998L315.207 67.2998ZM319.207 74.6998L321.207 78.3998L320.307 78.8998L318.307 75.1998L319.207 74.6998ZM323.207 82.0998L325.207 85.7998L324.307 86.2998L322.307 82.5998L323.207 82.0998ZM327.107 89.3998L329.107 93.0998L328.207 93.5998L326.207 89.8998L327.107 89.3998ZM331.107 96.7998L333.107 100.5L332.207 101L330.207 97.2998L331.107 96.7998ZM335.007 104.2L337.007 107.9L336.107 108.4L334.107 104.7L335.007 104.2ZM338.907 111.6L340.907 115.3L340.007 115.8L338.007 112.1L338.907 111.6ZM342.907 119L344.907 122.7L344.007 123.2L342.007 119.5L342.907 119ZM346.807 126.4L348.807 130.1L347.907 130.6L345.907 126.9L346.807 126.4ZM350.707 133.8L352.707 137.5L351.807 138L349.807 134.3L350.707 133.8ZM354.707 141.2L356.707 144.9L355.807 145.4L353.807 141.7L354.707 141.2ZM358.607 148.6L360.607 152.3L359.707 152.8L357.707 149.1L358.607 148.6ZM362.507 156.1L364.507 159.8L363.607 160.3L361.607 156.6L362.507 156.1Z" fill="#1A1A1A"/>
<path d="M363.607 194.5L364.507 195L362.507 198.7L361.607 198.2L363.607 194.5ZM359.607 201.9L360.507 202.4L358.507 206.1L357.607 205.6L359.607 201.9ZM355.707 209.3L356.607 209.8L354.607 213.5L353.707 213L355.707 209.3ZM351.807 216.7L352.707 217.2L350.707 220.9L349.807 220.4L351.807 216.7ZM347.907 224.1L348.807 224.6L346.807 228.3L345.907 227.8L347.907 224.1ZM343.907 231.5L344.807 232L342.807 235.7L341.907 235.2L343.907 231.5ZM340.007 238.9L340.907 239.4L338.907 243.1L338.007 242.6L340.007 238.9ZM336.107 246.3L337.007 246.8L335.007 250.5L334.107 250L336.107 246.3ZM332.107 253.7L333.007 254.2L331.007 257.9L330.107 257.4L332.107 253.7ZM328.207 261.1L329.107 261.6L327.107 265.3L326.207 264.8L328.207 261.1ZM324.207 268.5L325.107 269L323.107 272.7L322.207 272.2L324.207 268.5ZM320.307 275.9L321.207 276.4L319.207 280.1L318.307 279.6L320.307 275.9ZM316.307 283.2L317.207 283.7L315.207 287.4L314.307 286.9L316.307 283.2ZM312.307 290.6L313.207 291.1L311.207 294.8L310.307 294.3L312.307 290.6ZM308.407 298L309.307 298.5L308.907 299.3C308.907 299.3 308.507 300.1 307.207 302.2L306.307 301.7C307.607 299.7 308.007 298.9 308.007 298.9L308.407 298.1V298ZM304.007 305.1L304.907 305.7C304.207 306.7 303.507 307.9 302.607 309.2L301.707 308.6C302.607 307.3 303.307 306.1 304.007 305.1ZM299.507 312.1L300.407 312.7C299.707 313.8 298.907 314.9 298.107 316.2L297.207 315.6C298.007 314.4 298.807 313.2 299.507 312.1ZM294.807 319.1L295.707 319.7L294.107 322.1C293.907 322.5 293.607 322.8 293.407 323.2L292.507 322.6C292.707 322.2 293.007 321.9 293.207 321.6L294.907 319.2L294.807 319.1ZM290.007 325.9L290.807 326.5C289.907 327.6 289.007 328.7 288.107 329.7L287.307 329C288.207 328 289.107 326.9 290.007 325.8V325.9ZM284.507 332L285.207 332.8C284.507 333.4 283.807 334.1 283.107 334.7C282.707 335 282.407 335.3 282.007 335.6L281.307 334.8C281.707 334.5 282.007 334.2 282.407 333.9C283.107 333.3 283.807 332.7 284.507 332ZM278.007 337.2L278.607 338.1C277.707 338.7 276.807 339.3 275.807 339.9L275.307 339C276.207 338.4 277.107 337.8 278.007 337.2Z" fill="#1A1A1A"/>
<path d="M265.707 17.2001C277.807 17.2001 289.307 35.3001 294.307 43.3001C317.307 79.6001 350.307 143.3 359.807 162L360.207 162.8L359.407 163.3C359.107 163.5 351.807 168.3 351.707 177.2C351.707 186.1 358.807 191 359.107 191.2L359.907 191.7L359.507 192.5C323.907 258.7 295.007 308.9 284.207 323.5C281.007 327.9 273.307 338.1 264.507 337.1C262.007 336.8 259.707 335.7 257.507 333.7C224.307 321.5 196.207 299.6 176.207 270.4C156.207 241.2 146.207 207.2 147.207 172.2C148.107 138.9 159.107 106.8 178.907 79.5001C198.707 52.2001 225.907 31.7001 257.607 20.1001C259.607 18.5001 261.807 17.5001 264.107 17.2001C264.707 17.2001 265.307 17.1001 265.807 17.1001L265.707 17.2001ZM357.607 162.1C347.507 142.5 315.207 80.1001 292.607 44.4001C287.507 36.4001 275.707 17.7001 264.307 19.4001C262.407 19.7001 260.507 20.6001 258.707 22.0001H258.607C258.607 22.1001 258.407 22.2001 258.407 22.2001C195.007 45.3001 151.107 105.7 149.207 172.4C147.207 243.2 191.107 307.3 258.407 331.9H258.607L258.807 332.1C260.707 333.8 262.707 334.9 264.807 335.1C272.507 336.1 279.807 326.1 282.607 322.4C293.307 307.9 322.007 258.2 357.307 192.5C355.107 190.8 349.707 185.7 349.807 177.3C349.807 168.9 355.507 163.9 357.707 162.3L357.607 162.1Z" fill="#1A1A1A"/>
<path d="M239.507 19.7002C245.707 19.7002 251.907 19.8002 258.107 20.1002V22.2002C237.007 21.3002 215.607 21.9002 194.707 24.1002C132.807 30.6002 74.2068 36.7002 37.4068 81.0002C22.9068 98.5002 5.60673 129.6 6.00673 178.7C6.30673 218.3 17.3067 250.8 38.6067 275.3C74.8067 317 131.107 322.4 202.407 329.4C220.907 331.2 239.707 332 258.207 331.8V333.9C239.607 334.1 220.807 333.3 202.207 331.5C130.507 324.5 73.8067 319 37.1067 276.7C15.5067 251.9 4.40673 218.9 4.00673 178.8C3.60673 129 21.1068 97.4002 35.9068 79.7002C73.3068 34.8002 132.207 28.6002 194.607 22.1002C209.507 20.5002 224.607 19.8002 239.707 19.8002L239.507 19.7002Z" fill="#1A1A1A"/>
<path d="M367.607 0.100006C369.307 0.100006 371.007 0.100006 372.707 0.100006C402.707 0.600006 436.607 1.10001 473.707 20.2C487.207 27.1 528.207 48.2 548.007 93.1C558.507 116.9 558.407 136.9 558.207 176.9C558.007 216.3 558.007 236.1 547.507 260C527.607 305.5 487.407 326.5 474.207 333.4C437.407 352.6 404.307 353.1 372.307 353.7C336.007 354.3 299.707 348.7 264.407 337L265.107 335C300.207 346.6 336.207 352.1 372.307 351.5C404.107 351 437.007 350.5 473.307 331.5C486.407 324.7 526.107 303.9 545.707 259.1C556.007 235.6 556.107 216 556.207 176.8C556.407 137.2 556.407 117.3 546.107 93.9C526.707 49.7 486.107 28.8 472.807 22C436.107 3.2 402.407 2.60001 372.707 2.10001C336.407 1.50001 300.207 7.30001 265.007 19.2L264.307 17.2C298.107 5.80001 332.807 0 367.607 0V0.100006Z" fill="#1A1A1A"/>
<path d="M350.707 181.3L206.907 177L350.707 173V181.3Z" fill="#1A1A1A"/>
<path d="M378.607 192.7C395.407 216.7 412.107 241.3 428.207 265.7C442.907 288 457.607 310.9 471.807 333.6L470.007 334.7C455.807 312 441.107 289.2 426.407 266.9C410.307 242.5 393.607 217.9 376.807 193.9L378.507 192.7H378.607Z" fill="#1A1A1A"/>
<path d="M470.107 20.2002L471.907 21.3002C457.707 44.0002 443.007 66.8002 428.307 89.2002C412.207 113.6 395.507 138.2 378.707 162.2L377.007 161C393.807 137 410.507 112.4 426.607 88.0002C441.307 65.7002 456.007 42.9002 470.207 20.2002H470.107Z" fill="#1A1A1A"/>
<path d="M557.007 175.9H386.507V178H557.007V175.9Z" fill="#1A1A1A"/>
<path d="M368.506 158.7C378.906 158.7 387.307 167.1 387.307 177.5C387.307 187.9 378.906 196.3 368.506 196.3C358.106 196.3 349.707 187.9 349.707 177.5C349.707 167.1 358.106 158.7 368.506 158.7ZM368.506 194.2C377.706 194.2 385.207 186.7 385.207 177.5C385.207 168.3 377.706 160.8 368.506 160.8C359.306 160.8 351.807 168.3 351.807 177.5C351.807 186.7 359.306 194.2 368.506 194.2Z" fill="#1A1A1A"/>
</g>
<defs>
<filter id="filter0_d_280_1715" x="0" y="0" width="562.257" height="361.744" filterUnits="userSpaceOnUse" color-interpolation-filters="sRGB">
<feFlood flood-opacity="0" result="BackgroundImageFix"/>
<feColorMatrix in="SourceAlpha" type="matrix" values="0 0 0 0 0 0 0 0 0 0 0 0 0 0 0 0 0 0 127 0" result="hardAlpha"/>
<feOffset dy="4"/>
<feGaussianBlur stdDeviation="2"/>
<feComposite in2="hardAlpha" operator="out"/>
<feColorMatrix type="matrix" values="0 0 0 0 0 0 0 0 0 0 0 0 0 0 0 0 0 0 0.25 0"/>
<feBlend mode="normal" in2="BackgroundImageFix" result="effect1_dropShadow_280_1715"/>
<feBlend mode="normal" in="SourceGraphic" in2="effect1_dropShadow_280_1715" result="shape"/>
</filter>
</defs>
</svg>
