<svg width="490" height="404" viewBox="0 0 490 404" fill="none" xmlns="http://www.w3.org/2000/svg">
<path d="M485.263 362.028C480.263 365.928 475.163 369.628 469.863 372.928C472.563 340.528 472.563 307.928 469.863 276.028C464.963 219.428 459.963 160.928 419.663 106.528C407.463 90.0283 392.563 74.8283 376.763 62.6283C335.663 31.0283 291.163 20.3283 259.363 17.0283C261.263 16.6283 263.063 16.1283 264.963 15.5283C274.363 15.8283 283.863 16.6283 293.263 17.8283C304.463 19.2283 323.163 21.7283 344.963 29.1283C354.963 32.5283 374.363 40.0283 392.463 52.2283C432.963 79.3283 451.563 117.828 459.563 134.228C482.663 181.828 484.263 225.528 486.563 285.928C487.563 311.228 487.063 336.828 485.363 362.028H485.263Z" fill="#FDBC08"/>
<path d="M468.263 374.028C460.163 379.128 451.663 383.428 442.863 387.128C420.263 396.628 396.263 401.428 371.463 401.428H370.663L367.663 397.928C369.363 379.328 369.663 360.828 368.663 342.828C368.163 333.728 367.463 326.528 365.663 319.728C365.663 319.528 365.663 319.528 365.563 319.528C364.763 316.528 363.763 313.628 362.563 310.628C361.063 307.028 356.563 297.428 347.663 287.228C340.363 278.928 330.663 271.428 318.763 264.828C293.063 250.528 264.763 245.128 245.363 243.028V18.4283C248.163 18.4283 251.063 18.4283 253.863 18.0283C285.663 20.6283 332.663 30.5283 375.863 63.8283C391.563 75.9283 406.363 91.0283 418.463 107.428C458.463 161.528 463.463 219.828 468.363 276.128C471.163 308.328 471.163 341.228 468.363 373.928L468.263 374.028Z" fill="#FDBC08"/>
<path d="M229.763 17.2289C198.063 20.5289 153.863 31.3289 112.963 62.7289C97.0632 74.9289 82.2632 90.1289 70.0632 106.629C29.7632 161.129 24.7632 219.629 19.8632 276.129C17.0632 308.229 17.0632 340.929 19.8632 373.529C14.2632 370.029 8.8632 366.229 3.6632 362.129C1.8632 336.929 1.46321 311.329 2.46321 286.029C4.76321 225.629 6.3632 181.929 29.4632 134.329C37.4632 117.929 56.0632 79.4289 96.5632 52.3289C114.663 40.2289 134.063 32.6289 144.063 29.2289C165.863 21.8289 184.563 19.3289 195.763 17.9289C205.163 16.7289 214.663 15.9289 224.063 15.6289C225.963 16.2289 227.863 16.8289 229.863 17.2289H229.763Z" fill="#FDBC08"/>
<path d="M243.663 18.4285V243.029C224.263 245.129 195.963 250.528 170.263 264.828C158.363 271.428 148.563 278.929 141.363 287.229C132.363 297.429 127.963 306.928 126.463 310.628C122.263 320.628 121.163 329.628 120.363 342.828C119.363 360.728 119.663 379.228 121.363 397.928L118.363 401.428H117.563C92.7632 401.428 68.6632 396.628 46.1632 387.128C37.6632 383.528 29.4632 379.329 21.5632 374.529C18.7632 341.629 18.6632 308.629 21.5632 276.229C26.4632 219.829 31.4632 161.629 71.4632 107.529C83.5632 91.1285 98.3632 76.0285 114.063 63.9285C157.363 30.6285 204.263 20.7285 236.063 18.2285C238.663 18.5285 241.163 18.6285 243.763 18.5285L243.663 18.4285Z" fill="#FDBC08"/>
<path d="M363.563 318.529C338.463 304.629 298.463 288.529 247.963 287.729C194.163 287.029 151.663 303.929 125.063 318.729C125.763 316.229 126.663 313.829 127.663 311.229C129.163 307.629 133.563 298.329 142.363 288.329C149.463 280.229 159.063 272.829 170.863 266.229C196.663 251.929 225.063 246.529 244.363 244.529C263.663 246.529 292.063 251.929 317.763 266.229C329.563 272.729 339.163 280.129 346.263 288.329C355.063 298.329 359.463 307.729 360.963 311.229C361.963 313.629 362.763 316.029 363.463 318.429L363.563 318.529Z" fill="#FDBC08"/>
<path d="M264.163 14.2287C261.963 14.9287 259.763 15.5286 257.563 15.9286C253.463 16.7286 249.263 17.0286 245.163 16.9286H244.463H243.663C239.463 17.0286 235.263 16.7286 231.263 15.9286C229.063 15.5286 226.763 14.9286 224.663 14.1286C223.563 12.3286 223.263 10.6287 223.563 9.22867C224.863 3.62867 236.963 1.52864 245.163 1.82864C251.363 2.02864 263.563 4.12863 264.863 10.1286C265.163 11.3286 264.863 12.7286 264.263 14.1286L264.163 14.2287Z" fill="#FDBC08"/>
<path d="M321.763 375.929C320.663 388.229 310.063 397.929 297.163 398.429H122.863V398.129C122.863 397.329 122.663 396.529 122.663 395.829H298.763C310.563 394.529 319.463 384.129 318.863 372.629C318.263 362.029 309.563 353.229 298.763 352.129H121.463C121.463 351.029 121.463 349.929 121.563 348.829H297.163C304.363 349.129 310.963 352.429 315.763 357.829C320.163 362.929 322.463 369.529 321.863 375.929H321.763Z" fill="#43523B"/>
<path d="M298.763 395.029H122.663C122.363 391.929 122.163 388.729 121.963 385.629H299.163C302.563 385.629 305.663 384.229 308.063 381.829C310.363 379.429 311.663 376.329 311.563 373.029C311.363 366.529 305.863 361.129 299.263 361.129H121.463C121.463 358.329 121.463 355.529 121.563 352.829H298.863C309.263 353.929 317.663 362.429 318.263 372.629C318.963 383.729 310.263 393.729 298.963 394.929L298.763 395.029Z" fill="#43523B"/>
<path d="M299.063 361.929H121.263C121.263 369.529 121.463 377.129 121.863 384.829H299.063C302.163 384.829 305.163 383.529 307.363 381.229C309.563 378.929 310.663 376.029 310.663 373.029C310.463 366.929 305.263 361.929 299.063 361.929ZM160.563 378.729C157.763 378.729 155.363 376.429 155.363 373.529C155.363 370.629 157.663 368.329 160.563 368.329C163.463 368.329 165.763 370.629 165.763 373.529C165.763 376.429 163.463 378.729 160.563 378.729ZM187.863 378.729C185.063 378.729 182.663 376.429 182.663 373.529C182.663 370.629 184.963 368.329 187.863 368.329C190.763 368.329 193.063 370.629 193.063 373.529C193.063 376.429 190.763 378.729 187.863 378.729ZM216.963 378.729C214.063 378.729 211.763 376.429 211.763 373.529C211.763 370.629 214.063 368.329 216.963 368.329C219.863 368.329 222.163 370.629 222.163 373.529C222.163 376.429 219.863 378.729 216.963 378.729ZM244.463 378.729C241.663 378.729 239.263 376.429 239.263 373.529C239.263 370.629 241.563 368.329 244.463 368.329C247.363 368.329 249.663 370.629 249.663 373.529C249.663 376.429 247.363 378.729 244.463 378.729ZM273.863 378.729C271.063 378.729 268.663 376.429 268.663 373.529C268.663 370.629 270.963 368.329 273.863 368.329C276.763 368.329 279.063 370.629 279.063 373.529C279.063 376.429 276.763 378.729 273.863 378.729ZM301.363 378.729C298.563 378.729 296.163 376.429 296.163 373.529C296.163 370.629 298.463 368.329 301.363 368.329C304.263 368.329 306.563 370.629 306.563 373.529C306.563 376.429 304.263 378.729 301.363 378.729Z" fill="#43523B"/>
<path d="M305.763 373.628C305.763 376.028 303.763 378.029 301.363 378.029C298.963 378.029 296.963 376.028 296.963 373.628C296.963 371.228 298.963 369.229 301.363 369.229C303.763 369.229 305.763 371.228 305.763 373.628Z" fill="#43523B"/>
<path d="M278.263 373.628C278.263 376.028 276.263 378.029 273.863 378.029C271.463 378.029 269.463 376.028 269.463 373.628C269.463 371.228 271.463 369.229 273.863 369.229C276.263 369.229 278.263 371.228 278.263 373.628Z" fill="#43523B"/>
<path d="M248.863 373.628C248.863 376.028 246.863 378.029 244.463 378.029C242.063 378.029 240.063 376.028 240.063 373.628C240.063 371.228 242.063 369.229 244.463 369.229C246.863 369.229 248.863 371.228 248.863 373.628Z" fill="#43523B"/>
<path d="M221.363 373.628C221.363 376.028 219.363 378.029 216.963 378.029C214.563 378.029 212.563 376.028 212.563 373.628C212.563 371.228 214.563 369.229 216.963 369.229C219.363 369.229 221.363 371.228 221.363 373.628Z" fill="#43523B"/>
<path d="M192.263 373.628C192.263 376.028 190.263 378.029 187.863 378.029C185.463 378.029 183.463 376.028 183.463 373.628C183.463 371.228 185.463 369.229 187.863 369.229C190.263 369.229 192.263 371.228 192.263 373.628Z" fill="#43523B"/>
<path d="M164.963 373.628C164.963 376.028 162.963 378.029 160.563 378.029C158.163 378.029 156.163 376.028 156.163 373.628C156.163 371.228 158.163 369.229 160.563 369.229C162.963 369.229 164.963 371.228 164.963 373.628Z" fill="#43523B"/>
<path d="M366.263 395.529C366.263 396.129 366.263 396.829 366.063 397.429H307.863C309.063 396.829 310.263 396.229 311.363 395.529H366.263Z" fill="#43523B"/>
<path d="M367.463 352.729H312.563C311.163 351.729 309.763 350.829 308.263 350.029H367.463C367.463 350.929 367.463 351.829 367.463 352.729Z" fill="#43523B"/>
<path d="M367.463 353.529H313.463C314.663 354.529 315.763 355.629 316.863 356.829C321.563 362.229 323.963 369.229 323.363 376.029C322.663 383.229 318.963 389.629 313.463 393.929H366.363C367.463 380.329 367.863 366.729 367.463 353.529ZM330.563 376.929C328.763 376.929 327.263 375.429 327.263 373.629C327.263 371.829 328.763 370.329 330.563 370.329C332.363 370.329 333.863 371.829 333.863 373.629C333.863 375.429 332.363 376.929 330.563 376.929ZM357.463 376.929C355.663 376.929 354.163 375.429 354.163 373.629C354.163 371.829 355.663 370.329 357.463 370.329C359.263 370.329 360.763 371.829 360.763 373.629C360.763 375.429 359.263 376.929 357.463 376.929Z" fill="#43523B"/>
<path d="M359.963 373.629C359.963 375.029 358.863 376.129 357.463 376.129C356.063 376.129 354.963 375.029 354.963 373.629C354.963 372.229 356.063 371.129 357.463 371.129C358.863 371.129 359.963 372.229 359.963 373.629Z" fill="#43523B"/>
<path d="M333.063 373.629C333.063 375.029 331.963 376.129 330.563 376.129C329.163 376.129 328.063 375.029 328.063 373.629C328.063 372.229 329.163 371.129 330.563 371.129C331.963 371.129 333.063 372.229 333.063 373.629Z" fill="#43523B"/>
<path d="M462.863 375.829H461.863C461.863 374.429 461.963 373.029 462.063 371.629H463.063C463.063 373.129 462.963 374.529 462.863 375.829ZM463.263 367.429H462.263C462.263 366.029 462.263 364.629 462.363 363.229H463.363C463.363 364.729 463.363 366.129 463.263 367.429ZM463.463 358.929H462.463C462.463 357.529 462.463 356.129 462.463 354.729H463.463C463.463 356.129 463.463 357.629 463.463 358.929ZM463.663 350.529H462.663C462.663 349.129 462.663 347.729 462.663 346.329H463.663C463.663 347.729 463.663 349.129 463.663 350.529ZM463.763 342.129H462.763C462.763 340.729 462.763 339.329 462.763 337.929H463.763C463.763 339.329 463.763 340.729 463.763 342.129ZM462.763 333.729C462.763 332.329 462.763 330.929 462.763 329.529H463.763C463.763 330.929 463.763 332.329 463.763 333.729H462.763ZM462.663 325.329V321.129H463.663V325.329H462.663ZM462.563 316.929V312.729H463.563V316.929H462.563ZM462.463 308.529C462.463 307.129 462.463 305.729 462.463 304.329H463.463C463.463 305.729 463.463 307.129 463.463 308.529H462.463ZM462.163 300.129C462.163 298.729 462.163 297.329 462.063 295.929H463.063C463.063 297.329 463.063 298.729 463.163 300.129H462.163ZM461.863 291.729C461.863 290.329 461.763 288.929 461.663 287.529H462.663C462.663 288.929 462.763 290.329 462.863 291.629H461.863V291.729ZM461.463 283.429C461.463 282.029 461.263 280.629 461.263 279.229H462.263C462.263 280.529 462.463 281.929 462.463 283.329H461.463V283.429ZM460.963 275.029C460.963 273.629 460.763 272.229 460.663 270.829H461.663C461.763 272.129 461.863 273.529 461.963 274.929H460.963V275.029ZM460.363 266.629C460.263 265.229 460.163 263.829 459.963 262.429H460.963C461.063 263.729 461.263 265.129 461.363 266.529H460.363V266.629ZM459.563 258.229C459.463 256.829 459.263 255.429 459.163 254.029H460.163C460.363 255.329 460.463 256.729 460.563 258.129H459.563V258.229ZM458.663 249.929L458.163 245.729H459.163C459.163 245.629 459.663 249.729 459.663 249.729H458.663V249.929ZM252.263 244.729H251.263V240.529H252.263V244.729ZM457.563 241.629L457.063 237.429H458.063C458.063 237.329 458.563 241.429 458.563 241.429H457.563V241.629ZM252.263 236.329H251.263V232.129H252.263V236.329ZM456.563 233.229C456.363 231.829 456.163 230.429 455.963 229.029H456.963C457.163 230.229 457.363 231.629 457.563 233.029H456.563V233.229ZM252.263 227.829H251.263V223.629H252.263V227.829ZM455.363 224.929C455.163 223.529 454.963 222.129 454.763 220.729L455.763 220.529C455.963 221.929 456.163 223.329 456.363 224.729H455.363V224.929ZM252.263 219.429H251.263V215.229H252.263V219.429ZM454.163 216.629C453.963 215.229 453.763 213.829 453.463 212.529L454.463 212.329C454.663 213.729 454.963 215.129 455.163 216.429L454.163 216.629ZM252.263 211.029H251.263V206.829H252.263V211.029ZM452.763 208.429C452.563 207.029 452.263 205.729 451.963 204.329L452.963 204.129C453.263 205.529 453.463 206.929 453.763 208.229L452.763 208.429ZM252.263 202.629H251.263V198.429H252.263V202.629ZM451.163 200.129C450.863 198.729 450.563 197.429 450.263 196.029L451.263 195.829C451.563 197.229 451.863 198.529 452.163 199.929L451.163 200.129ZM252.263 194.229H251.263V190.029H252.263V194.229ZM449.363 191.929C449.063 190.529 448.663 189.229 448.363 187.829L449.363 187.529C449.763 188.929 450.063 190.229 450.363 191.629L449.363 191.829V191.929ZM252.263 185.829H251.263V181.629H252.263V185.829ZM447.163 183.829C446.763 182.529 446.363 181.129 445.963 179.829L446.963 179.529C447.363 180.929 447.763 182.229 448.163 183.529L447.163 183.829ZM252.263 177.429H251.263V173.229H252.263V177.429ZM444.763 175.829C444.363 174.529 443.863 173.229 443.463 171.829L444.463 171.529C444.963 172.829 445.363 174.229 445.763 175.529L444.763 175.829ZM252.263 169.029H251.263V164.829H252.263V169.029ZM442.063 167.929C441.563 166.629 441.063 165.329 440.563 164.029L441.563 163.629C442.063 164.929 442.563 166.229 443.063 167.529L442.063 167.929ZM252.263 160.629H251.263V156.429H252.263V160.629ZM439.063 160.129C438.563 158.929 438.063 157.629 437.463 156.429V156.229L438.363 155.829V156.029C438.963 157.329 439.463 158.529 439.963 159.729L438.963 160.129H439.063ZM435.763 152.429C435.163 151.129 434.563 149.829 433.963 148.629L434.863 148.229C435.463 149.529 436.063 150.729 436.663 152.029L435.663 152.429H435.763ZM252.263 152.229H251.263V148.029H252.263V152.229ZM432.163 144.829C431.563 143.529 430.863 142.329 430.263 141.129L431.163 140.629C431.763 141.829 432.463 143.129 433.063 144.429L432.163 144.929V144.829ZM252.263 143.829H251.263V139.629H252.263V143.829ZM428.363 137.329C427.663 136.129 427.063 134.829 426.363 133.629L427.263 133.129C427.963 134.329 428.663 135.529 429.263 136.829L428.363 137.329ZM252.263 135.429H251.263V131.229H252.263V135.429ZM424.163 130.029C423.463 128.829 422.763 127.629 421.963 126.429L422.863 125.929C423.563 127.129 424.363 128.329 425.063 129.529L424.163 130.029ZM252.263 127.029H251.263V122.829H252.263V127.029ZM419.763 122.929C418.963 121.729 418.263 120.529 417.463 119.429L418.363 118.829C419.163 120.029 419.863 121.129 420.663 122.329L419.763 122.929ZM252.263 118.629H251.263V114.429H252.263V118.629ZM415.163 115.929C414.363 114.729 413.563 113.629 412.763 112.529L413.663 111.929C414.463 113.029 415.263 114.229 416.063 115.329L415.163 115.929ZM252.263 110.229H251.263V106.029H252.263V110.229ZM410.263 109.129C409.463 108.029 408.563 106.829 407.763 105.829L408.563 105.229C409.363 106.329 410.263 107.429 411.063 108.629L410.263 109.229V109.129ZM405.163 102.429C404.263 101.329 403.363 100.229 402.563 99.1286L403.363 98.4286C404.263 99.5286 405.163 100.629 406.063 101.729L405.263 102.429H405.163ZM252.263 101.829H251.263V97.6286H252.263V101.829ZM399.863 96.0286C398.963 94.9286 398.063 93.9286 397.063 92.8286L397.863 92.1286C398.763 93.1286 399.663 94.2286 400.663 95.3286L399.863 96.0286ZM252.263 93.4286H251.263V89.2286H252.263V93.4286ZM394.263 89.7286C393.263 88.6286 392.363 87.6286 391.363 86.6286L392.163 85.9286C393.063 86.9286 394.063 87.9286 395.063 89.0286L394.263 89.7286ZM252.263 85.0286H251.263V80.8286H252.263V85.0286ZM388.563 83.6286C387.563 82.6286 386.563 81.6286 385.563 80.6286L386.263 79.8286C387.263 80.7286 388.263 81.7286 389.263 82.8286L388.563 83.5286V83.6286ZM382.563 77.7286C381.463 76.7286 380.463 75.7286 379.463 74.9286L380.163 74.1286C381.163 75.0286 382.163 75.9286 383.263 77.0286L382.563 77.8286V77.7286ZM252.263 76.6286H251.263V72.4286H252.263V76.6286ZM376.263 72.1286C374.963 71.0286 373.963 70.1286 373.063 69.4286L373.763 68.6286C374.663 69.3286 375.663 70.2286 376.963 71.3286L376.263 72.1286ZM252.263 68.2286H251.263V64.0286H252.263V68.2286ZM369.863 66.7286C368.763 65.8286 367.663 65.0286 366.563 64.1286L367.163 63.3286C368.263 64.2286 369.363 65.0286 370.463 65.9286L369.763 66.7286H369.863ZM363.263 61.6286C362.163 60.8286 360.963 59.9286 359.863 59.1286L360.463 58.2286C361.563 59.0286 362.763 59.8286 363.863 60.7286L363.263 61.5286V61.6286ZM252.263 59.8286H251.263V55.6286H252.263V59.8286ZM356.363 56.7286C355.163 55.9286 354.063 55.1286 352.863 54.4286L353.463 53.5286C354.663 54.3286 355.763 55.0286 356.963 55.8286L356.363 56.7286ZM349.363 52.1286C348.163 51.3286 346.963 50.6286 345.763 49.9286L346.263 49.0286C347.463 49.7286 348.663 50.5286 349.863 51.2286L349.263 52.1286H349.363ZM252.263 51.4286H251.263V47.2286H252.263V51.4286ZM342.263 47.8286C341.063 47.1286 339.863 46.4286 338.663 45.7286L339.163 44.8286C340.363 45.5286 341.563 46.2286 342.863 46.9286L342.363 47.8286H342.263ZM334.863 43.7286C333.663 43.0286 332.363 42.4286 331.163 41.8286L331.663 40.9286C332.863 41.5286 334.163 42.2286 335.363 42.8286L334.863 43.7286ZM252.263 43.0286H251.263V38.8286H252.263V43.0286ZM327.463 39.9286C326.163 39.3286 324.963 38.7286 323.663 38.1286L324.063 37.1286C325.363 37.7286 326.563 38.3286 327.863 38.9286L327.363 39.8286L327.463 39.9286ZM319.763 36.4286C318.463 35.8286 317.163 35.3286 315.863 34.7286L316.263 33.7286C317.563 34.2286 318.863 34.8286 320.163 35.4286L319.763 36.4286ZM252.263 34.6286H251.263V30.4286H252.263V34.6286ZM312.063 33.2286C310.763 32.7286 309.463 32.2286 308.163 31.7286L308.563 30.7286C309.863 31.2286 311.163 31.7286 312.463 32.2286L312.063 33.2286ZM304.263 30.2286C302.963 29.7286 301.563 29.3286 300.263 28.8286L300.563 27.8286C301.863 28.2286 303.163 28.7286 304.563 29.2286L304.163 30.2286H304.263ZM296.263 27.5286C294.863 27.1286 293.563 26.7286 292.263 26.3286L292.563 25.3286C293.863 25.7286 295.263 26.1286 296.563 26.5286L296.263 27.5286ZM252.263 26.2286H251.263V22.0286H252.263V26.2286ZM288.263 25.1286C286.863 24.7286 285.563 24.4286 284.263 24.0286L284.563 23.0286C285.863 23.3286 287.263 23.7286 288.663 24.1286L288.363 25.1286H288.263ZM280.163 23.0286C278.763 22.7286 277.363 22.3286 276.063 22.0286L276.263 21.0286C277.563 21.3286 278.963 21.6286 280.363 22.0286L280.163 23.0286ZM271.963 21.2286C270.563 20.9286 269.163 20.6286 267.863 20.4286L268.063 19.4286C269.363 19.7286 270.763 19.9286 272.163 20.2286L271.963 21.2286ZM263.763 19.6286C262.363 19.4286 260.963 19.1286 259.663 18.9286L259.863 17.9286C261.163 18.1286 262.563 18.3286 264.063 18.6286L263.863 19.6286H263.763ZM255.463 18.4286C254.163 18.2286 252.863 18.1286 251.663 17.9286C251.663 17.8286 251.163 17.8286 251.163 17.8286V16.8286H251.763C252.963 17.0286 254.163 17.2286 255.563 17.3286V18.3286L255.463 18.4286Z" fill="#1A1A1A"/>
<path d="M25.8631 375.829C25.8631 374.429 25.7631 373.029 25.6631 371.629H26.6631C26.6631 373.029 26.7631 374.429 26.8631 375.829H25.8631ZM25.4631 367.429C25.4631 366.029 25.4631 364.629 25.3631 363.229H26.3631C26.3631 364.629 26.3631 366.029 26.4631 367.429H25.4631ZM25.2631 358.929C25.2631 357.529 25.2631 356.129 25.2631 354.729H26.2631C26.2631 356.129 26.2631 357.529 26.2631 358.929H25.2631ZM25.0631 350.529C25.0631 349.129 25.0631 347.729 25.0631 346.329H26.0631C26.0631 347.729 26.0631 349.129 26.0631 350.529H25.0631ZM24.9631 342.129C24.9631 340.729 24.9631 339.329 24.9631 337.929H25.9631C25.9631 339.329 25.9631 340.729 25.9631 342.129H24.9631ZM25.9631 333.729H24.9631C24.9631 332.329 24.9631 330.929 24.9631 329.529H25.9631C25.9631 330.929 25.9631 332.329 25.9631 333.729ZM26.0631 325.329H25.0631V321.129H26.0631V325.329ZM26.1631 316.929H25.1631C25.1631 315.529 25.1631 314.129 25.1631 312.729H26.1631C26.1631 314.129 26.1631 315.529 26.1631 316.929ZM26.2631 308.529H25.2631C25.2631 307.129 25.2631 305.729 25.2631 304.329H26.2631C26.2631 305.729 26.2631 307.129 26.2631 308.529ZM26.5631 300.129H25.5631C25.5631 298.729 25.5631 297.329 25.6631 295.929H26.6631C26.6631 297.429 26.6631 298.829 26.5631 300.129ZM26.8631 291.729H25.8631C25.8631 290.329 25.9631 288.929 26.0631 287.529H27.0631C27.0631 289.029 26.9631 290.429 26.8631 291.729ZM27.2631 283.429H26.2631C26.2631 282.029 26.4631 280.629 26.4631 279.129H27.4631C27.4631 280.629 27.2631 282.029 27.2631 283.429ZM27.7631 275.029H26.7631C26.7631 273.529 26.9631 272.129 27.0631 270.729H28.0631C27.9631 272.229 27.8631 273.629 27.7631 275.029ZM28.4631 266.629H27.4631C27.5631 265.129 27.6631 263.729 27.8631 262.329H28.8631C28.7631 263.829 28.5631 265.229 28.4631 266.629ZM29.1631 258.229H28.1631C28.2631 256.729 28.4631 255.329 28.5631 253.929H29.5631C29.3631 255.429 29.2631 256.829 29.1631 258.229ZM30.1631 249.929H29.1631C29.1631 249.829 29.6631 245.629 29.6631 245.629H30.6631C30.6631 245.729 30.1631 249.929 30.1631 249.929ZM237.563 244.729H236.563V240.529H237.563V244.729ZM31.1631 241.629H30.1631C30.1631 241.529 30.6631 237.329 30.6631 237.329H31.6631C31.6631 237.429 31.1631 241.629 31.1631 241.629ZM237.563 236.329H236.563V232.129H237.563V236.329ZM32.2631 233.229H31.2631C31.4631 231.729 31.6631 230.329 31.8631 228.929H32.8631C32.6631 230.429 32.4631 231.829 32.2631 233.229ZM237.563 227.829H236.563V223.629H237.563V227.829ZM33.3631 224.929H32.3631C32.5631 223.429 32.7631 222.029 32.9631 220.629L33.9631 220.829C33.7631 222.229 33.5631 223.629 33.3631 225.029V224.929ZM237.563 219.429H236.563V215.229H237.563V219.429ZM34.5631 216.629L33.5631 216.429C33.7631 215.029 33.9631 213.629 34.2631 212.329L35.2631 212.529C35.0631 213.929 34.7631 215.329 34.5631 216.629ZM237.563 211.029H236.563V206.829H237.563V211.029ZM35.9631 208.429L34.9631 208.229C35.1631 206.829 35.4631 205.429 35.7631 204.129L36.7631 204.329C36.4631 205.729 36.2631 207.029 35.9631 208.429ZM237.563 202.629H236.563V198.429H237.563V202.629ZM37.5631 200.129L36.5631 199.929C36.8631 198.529 37.1631 197.229 37.4631 195.829L38.4631 196.029C38.1631 197.429 37.8631 198.729 37.5631 200.129ZM237.563 194.229H236.563V190.029H237.563V194.229ZM39.4631 191.929L38.4631 191.729C38.7631 190.329 39.1631 189.029 39.4631 187.629L40.4631 187.929C40.0631 189.329 39.7631 190.629 39.4631 192.029V191.929ZM237.563 185.829H236.563V181.629H237.563V185.829ZM41.5631 183.829L40.5631 183.529C40.9631 182.229 41.3631 180.829 41.7631 179.529L42.7631 179.829C42.3631 181.129 41.9631 182.529 41.5631 183.829ZM237.563 177.429H236.563V173.229H237.563V177.429ZM43.9631 175.829L42.9631 175.529C43.3631 174.229 43.8631 172.829 44.2631 171.529L45.2631 171.829C44.7631 173.129 44.3631 174.529 43.9631 175.829ZM237.563 169.029H236.563V164.829H237.563V169.029ZM46.6631 167.929L45.6631 167.529C46.1631 166.229 46.6631 164.929 47.1631 163.629L48.1631 164.029C47.6631 165.329 47.1631 166.629 46.6631 167.929ZM237.563 160.629H236.563V156.429H237.563V160.629ZM49.6631 160.129L48.6631 159.729C49.1631 158.529 49.6631 157.229 50.2631 156.029H50.7631L51.2631 156.329C50.6631 157.629 50.1631 158.929 49.6631 160.129ZM52.9631 152.429L51.9631 152.029C52.5631 150.729 53.1631 149.429 53.7631 148.229L54.6631 148.629C54.0631 149.929 53.4631 151.129 52.8631 152.429H52.9631ZM237.563 152.229H236.563V148.029H237.563V152.229ZM56.5631 144.829L55.6631 144.329C56.2631 143.029 56.9631 141.829 57.5631 140.529L58.4631 141.029C57.8631 142.229 57.1631 143.529 56.5631 144.729V144.829ZM237.563 143.829H236.563V139.629H237.563V143.829ZM60.4631 137.329L59.5631 136.829C60.2631 135.629 60.9631 134.329 61.5631 133.129L62.4631 133.629C61.7631 134.829 61.0631 136.029 60.4631 137.329ZM237.563 135.429H236.563V131.229H237.563V135.429ZM64.5631 130.029L63.6631 129.529C64.3631 128.329 65.0631 127.129 65.8631 125.929L66.7631 126.429C66.0631 127.629 65.3631 128.829 64.5631 130.029ZM237.563 127.029H236.563V122.829H237.563V127.029ZM68.9631 122.929L68.0631 122.329C68.8631 121.129 69.5631 119.929 70.3631 118.829L71.2631 119.429C70.4631 120.629 69.7631 121.729 68.9631 122.929ZM237.563 118.629H236.563V114.429H237.563V118.629ZM73.5631 115.929L72.6631 115.329C73.4631 114.129 74.2631 113.029 75.0631 111.929L75.9631 112.529C75.1631 113.629 74.3631 114.829 73.5631 115.929ZM237.563 110.229H236.563V106.029H237.563V110.229ZM78.4631 109.129L77.6631 108.529C78.4631 107.429 79.3631 106.229 80.1631 105.129L80.9631 105.729C80.1631 106.829 79.2631 107.929 78.4631 109.029V109.129ZM83.5631 102.429L82.7631 101.729C83.6631 100.629 84.5631 99.5287 85.4631 98.4287L86.2631 99.1287C85.3631 100.229 84.4631 101.229 83.6631 102.429H83.5631ZM237.563 101.829H236.563V97.6287H237.563V101.829ZM88.8631 96.0287L88.0631 95.3287C88.9631 94.2287 89.9631 93.1287 90.8631 92.1287L91.6631 92.8287C90.7631 93.8287 89.8631 94.9287 88.8631 96.0287ZM237.563 93.4287H236.563V89.2288H237.563V93.4287ZM94.4631 89.7288L93.6631 89.0287C94.6631 87.9287 95.5631 86.9287 96.5631 85.9287L97.3631 86.6287C96.4631 87.6287 95.4631 88.6288 94.4631 89.7288ZM237.563 85.0287H236.563V80.8287H237.563V85.0287ZM100.263 83.6287L99.5631 82.9287C100.563 81.9287 101.563 80.9287 102.563 79.9287L103.263 80.7288C102.263 81.6288 101.363 82.6288 100.263 83.7288V83.6287ZM106.163 77.7288L105.463 76.9287C106.563 75.9287 107.563 74.9287 108.563 74.0287L109.263 74.8287C108.263 75.7287 107.263 76.6287 106.163 77.6287V77.7288ZM237.563 76.6287H236.563V72.4287H237.563V76.6287ZM112.463 72.1287L111.763 71.3287C113.063 70.2287 114.063 69.3287 114.963 68.6287L115.663 69.4287C114.763 70.1287 113.763 71.0287 112.463 72.1287ZM237.563 68.2288H236.563V64.0287H237.563V68.2288ZM118.863 66.7288L118.163 65.9287C119.263 65.0287 120.363 64.2287 121.463 63.3287L122.063 64.1287C120.963 64.9287 119.863 65.8288 118.763 66.7288H118.863ZM125.463 61.6287L124.863 60.8287C125.963 60.0287 127.163 59.1287 128.263 58.3287L128.863 59.2288C127.763 60.0288 126.563 60.8288 125.463 61.7288V61.6287ZM237.563 59.8287H236.563V55.6287H237.563V59.8287ZM132.363 56.7288L131.763 55.8287C132.963 55.0287 134.063 54.2287 135.263 53.5287L135.863 54.4287C134.663 55.2287 133.563 55.9288 132.363 56.7288ZM139.363 52.1287L138.763 51.2288C139.963 50.4288 141.163 49.7287 142.363 49.0287L142.863 49.9287C141.663 50.6287 140.463 51.4287 139.263 52.1287H139.363ZM237.563 51.4287H236.563V47.2288H237.563V51.4287ZM146.463 47.8287L145.963 46.9287C147.163 46.2287 148.363 45.5287 149.663 44.8287L150.163 45.7288C148.963 46.4288 147.763 47.1287 146.563 47.8287H146.463ZM153.863 43.7288L153.363 42.8287C154.663 42.1287 155.863 41.5287 157.063 40.9287L157.563 41.8287C156.363 42.4287 155.063 43.1288 153.863 43.7288ZM237.563 43.0287H236.563V38.8287H237.563V43.0287ZM161.363 39.9287L160.863 39.0287C162.163 38.4287 163.363 37.8288 164.663 37.2288L165.063 38.2288C163.763 38.8288 162.563 39.4287 161.263 40.0287L161.363 39.9287ZM168.963 36.4287L168.563 35.4287C169.863 34.8287 171.163 34.3288 172.463 33.7288L172.863 34.7288C171.563 35.2288 170.263 35.8287 168.963 36.4287ZM237.563 34.6287H236.563V30.4287H237.563V34.6287ZM176.663 33.2288L176.263 32.2288C177.563 31.7288 178.863 31.2288 180.163 30.7288L180.563 31.7288C179.263 32.2288 177.963 32.7288 176.663 33.2288ZM184.463 30.2288L184.063 29.2288C185.363 28.7288 186.763 28.3287 188.063 27.8287L188.363 28.8287C187.063 29.2287 185.763 29.7288 184.363 30.2288H184.463ZM192.463 27.5287L192.163 26.5287C193.563 26.1287 194.863 25.7287 196.163 25.3287L196.463 26.3287C195.163 26.7287 193.763 27.1287 192.463 27.5287ZM237.563 26.2288H236.563V22.0287H237.563V26.2288ZM200.463 25.1287L200.163 24.1287C201.563 23.7287 202.863 23.3287 204.263 23.0287L204.563 24.0287C203.263 24.3287 201.863 24.7287 200.563 25.1287H200.463ZM208.563 23.0287L208.363 22.0287C209.763 21.7287 211.163 21.3287 212.463 21.0287L212.663 22.0287C211.363 22.3287 209.963 22.6287 208.563 23.0287ZM216.763 21.2288L216.563 20.2288C217.963 19.9288 219.363 19.6287 220.663 19.4287L220.863 20.4287C219.563 20.7287 218.163 20.9288 216.763 21.2288ZM225.063 19.6287L224.863 18.6287C226.263 18.4287 227.663 18.1287 229.063 17.9287L229.263 18.9287C227.963 19.1287 226.563 19.3287 225.163 19.6287H225.063ZM233.363 18.4287V17.4287C234.563 17.2287 235.863 17.1287 236.963 16.9287H237.563V17.8287H237.063C235.863 18.1287 234.663 18.2287 233.263 18.4287H233.363Z" fill="#1A1A1A"/>
<path d="M106.963 402.029C106.963 400.729 106.763 399.329 106.663 397.829H107.663C107.663 399.329 107.863 400.729 107.963 401.929H106.963V402.029ZM380.863 401.929C380.863 401.829 381.863 401.929 381.863 401.929H380.763H380.863ZM382.263 397.729H381.263C381.263 396.329 381.463 394.929 381.563 393.429H382.563C382.563 394.929 382.363 396.429 382.263 397.729ZM106.463 393.629C106.463 392.329 106.363 390.929 106.363 389.429H107.363C107.363 390.829 107.363 392.229 107.463 393.629H106.463ZM382.763 389.329H381.763C381.763 387.929 381.763 386.529 381.863 385.129H382.863C382.863 386.629 382.863 388.029 382.763 389.329ZM106.263 385.129C106.263 384.229 106.263 383.229 106.263 382.329V380.929H107.363V382.329C107.363 383.329 107.363 384.229 107.363 385.129H106.363H106.263ZM382.963 380.829H381.963C381.963 379.529 381.963 378.129 381.963 376.629H382.963C382.963 378.129 382.963 379.529 382.963 380.829ZM107.263 376.729H106.263C106.263 375.429 106.263 374.029 106.263 372.529H107.263C107.263 374.029 107.263 375.429 107.263 376.729ZM381.963 372.429C381.963 371.129 381.963 369.729 381.963 368.229H382.963C382.963 369.629 382.963 371.029 382.963 372.429H381.963ZM107.463 368.329H106.463C106.463 366.929 106.463 365.529 106.563 364.129H107.563C107.563 365.629 107.463 367.029 107.463 368.329ZM381.863 364.029C381.863 362.629 381.863 361.229 381.763 359.829H382.763C382.763 361.229 382.763 362.629 382.863 364.029H381.863ZM107.763 359.929H106.763C106.763 358.529 106.963 357.129 106.963 355.629H107.963C107.963 357.129 107.763 358.529 107.763 359.929ZM381.463 355.729C381.463 354.329 381.263 352.929 381.263 351.529H382.263C382.263 352.929 382.463 354.329 382.463 355.629H381.463V355.729ZM108.363 351.629H107.363C107.463 350.129 107.563 348.729 107.763 347.329H108.763C108.663 348.829 108.463 350.229 108.363 351.629ZM380.963 347.329C380.863 345.929 380.763 344.529 380.563 343.129H381.563C381.663 344.429 381.863 345.829 381.963 347.229H380.963V347.329ZM109.163 343.229H108.163C108.363 341.729 108.463 340.329 108.663 338.929H109.663C109.463 340.429 109.363 341.829 109.163 343.229ZM380.063 338.929C379.863 337.529 379.763 336.129 379.563 334.729H380.563C380.763 336.029 380.963 337.429 381.063 338.729H380.063V338.929ZM110.163 334.929L109.163 334.729C109.363 333.329 109.563 331.929 109.763 330.529L110.763 330.729C110.563 332.129 110.363 333.529 110.163 334.829V334.929ZM378.963 330.629C378.763 329.229 378.463 327.829 378.263 326.529L379.263 326.329C379.563 327.729 379.763 329.129 379.963 330.529L378.963 330.729V330.629ZM111.563 326.629L110.563 326.429C110.863 325.029 111.063 323.629 111.363 322.329L112.363 322.529C112.063 323.929 111.763 325.229 111.563 326.629ZM377.463 322.429C377.163 321.029 376.863 319.729 376.563 318.329L377.563 318.129C377.863 319.529 378.163 320.829 378.463 322.229L377.463 322.429ZM113.263 318.429L112.263 318.229C112.563 316.829 112.963 315.529 113.263 314.129L114.263 314.429C113.863 315.729 113.563 317.129 113.263 318.529V318.429ZM375.563 314.229C375.163 312.829 374.863 311.529 374.463 310.229L375.463 309.929C375.863 311.229 376.263 312.629 376.563 314.029L375.563 314.329V314.229ZM115.463 310.329L114.463 310.029C114.863 308.629 115.263 307.329 115.763 306.029L116.763 306.329C116.363 307.629 115.863 309.029 115.563 310.329H115.463ZM373.263 306.229C372.863 304.929 372.363 303.529 371.863 302.229L372.863 301.829C373.363 303.129 373.763 304.429 374.263 305.829L373.263 306.129V306.229ZM118.063 302.429L117.063 302.029C117.563 300.729 118.063 299.329 118.563 298.129L119.563 298.529C119.063 299.829 118.563 301.129 118.063 302.429ZM370.363 298.329C369.863 297.029 369.263 295.729 368.763 294.529L369.763 294.129C370.363 295.429 370.863 296.729 371.463 298.029L370.463 298.429L370.363 298.329ZM121.263 294.629L120.363 294.229C120.863 293.129 121.363 292.029 121.963 291.029L122.263 290.429L123.163 290.929L122.863 291.529C122.363 292.529 121.763 293.629 121.263 294.729V294.629ZM366.863 290.729C366.263 289.429 365.563 288.229 364.863 287.029L365.763 286.529C366.463 287.729 367.063 289.029 367.763 290.229L366.863 290.729ZM125.163 287.329L124.263 286.829C124.963 285.629 125.763 284.429 126.563 283.229L127.463 283.829C126.663 285.029 125.963 286.129 125.263 287.329H125.163ZM362.763 283.429C362.063 282.229 361.263 281.129 360.463 279.929L361.363 279.329C362.163 280.529 362.963 281.629 363.663 282.829L362.763 283.429ZM129.863 280.329L129.063 279.729C129.863 278.629 130.763 277.529 131.663 276.429L132.463 277.129C131.563 278.229 130.763 279.329 129.863 280.429V280.329ZM358.063 276.629C357.163 275.529 356.363 274.429 355.463 273.429L356.263 272.729C357.163 273.829 358.063 274.929 358.963 276.029L358.163 276.629H358.063ZM135.063 273.829L134.263 273.129C135.163 272.129 136.163 271.029 137.163 270.029L137.963 270.729C136.963 271.729 136.063 272.729 135.063 273.729V273.829ZM352.563 270.329C351.663 269.329 350.663 268.329 349.663 267.329L350.363 266.529C351.363 267.529 352.363 268.529 353.363 269.529L352.563 270.229V270.329ZM140.963 267.929L140.263 267.129C141.263 266.229 142.363 265.229 143.363 264.329L144.063 265.129C142.963 266.029 141.963 267.029 140.963 267.929ZM346.563 264.529C345.563 263.629 344.463 262.729 343.363 261.829L344.063 261.029C345.163 261.929 346.263 262.829 347.263 263.729L346.563 264.529ZM147.263 262.429L146.563 261.629C147.663 260.729 148.763 259.929 149.863 259.029L150.463 259.829C149.363 260.629 148.263 261.529 147.163 262.329L147.263 262.429ZM340.163 259.229C339.063 258.429 337.963 257.629 336.763 256.829L337.363 255.929C338.563 256.729 339.663 257.529 340.763 258.429L340.163 259.229ZM153.963 257.529L153.363 256.629C154.563 255.829 155.663 255.029 156.863 254.329L157.463 255.229C156.263 255.929 155.163 256.729 153.963 257.529ZM333.263 254.429C332.063 253.729 330.863 252.929 329.663 252.229L330.163 251.329C331.363 252.029 332.563 252.729 333.763 253.529L333.163 254.429H333.263ZM161.063 253.029L160.563 252.129C161.763 251.429 162.963 250.729 164.263 250.029L164.763 250.929C163.563 251.629 162.363 252.329 161.163 253.029H161.063ZM326.063 250.229C324.863 249.529 323.563 248.929 322.363 248.329L322.863 247.429C324.163 248.029 325.363 248.729 326.563 249.329L326.063 250.229ZM168.363 249.029L167.863 248.129C169.163 247.529 170.363 246.829 171.663 246.229L172.063 247.129C170.763 247.729 169.563 248.329 168.263 248.929L168.363 249.029ZM318.563 246.529C317.263 245.929 315.963 245.429 314.763 244.829L315.163 243.829C316.463 244.329 317.763 244.929 319.063 245.529L318.663 246.529H318.563ZM175.963 245.429L175.563 244.429C176.863 243.829 178.163 243.329 179.463 242.829L179.863 243.829C178.563 244.329 177.263 244.929 175.963 245.429ZM310.863 243.229C309.563 242.729 308.263 242.229 306.963 241.729L307.363 240.729C308.663 241.229 309.963 241.729 311.263 242.229L310.863 243.229ZM183.663 242.229L183.263 241.229C184.563 240.729 185.863 240.229 187.263 239.829L187.563 240.829C186.263 241.329 184.963 241.729 183.663 242.229ZM302.963 240.429C301.663 240.029 300.263 239.529 298.963 239.129L299.263 238.129C300.563 238.529 301.963 238.929 303.263 239.429L302.963 240.429ZM191.563 239.429L191.263 238.429C192.563 238.029 193.963 237.629 195.263 237.229L195.563 238.229C194.263 238.629 192.863 239.029 191.563 239.429ZM294.963 237.929C293.563 237.529 292.263 237.229 290.863 236.829L291.163 235.829C292.463 236.129 293.863 236.529 295.263 236.929L294.963 237.929ZM199.663 237.129L199.363 236.129C200.763 235.729 202.063 235.429 203.463 235.029L203.763 236.029C202.363 236.329 201.063 236.729 199.663 237.029V237.129ZM286.763 235.929C285.363 235.629 283.963 235.329 282.663 235.029L282.863 234.029C284.263 234.329 285.563 234.629 286.963 234.929L286.763 235.929ZM207.763 235.129L207.563 234.129C208.963 233.829 210.363 233.529 211.663 233.229L211.863 234.229C210.463 234.529 209.163 234.829 207.763 235.129ZM278.563 234.229C277.163 233.929 275.763 233.729 274.463 233.529L274.663 232.529C276.063 232.729 277.363 233.029 278.863 233.229L278.663 234.229H278.563ZM215.963 233.529L215.763 232.529C217.163 232.329 218.563 232.029 219.963 231.829L220.163 232.829C218.763 233.029 217.363 233.229 216.063 233.529H215.963ZM270.263 232.829C268.863 232.629 267.463 232.429 266.063 232.229V231.229C267.563 231.429 268.963 231.629 270.363 231.829V232.829H270.263ZM224.263 232.229V231.229C225.563 231.029 226.963 230.929 228.363 230.729V231.729C227.063 231.829 225.663 232.029 224.263 232.229ZM261.963 231.829C260.463 231.629 259.063 231.529 257.763 231.429V230.429C259.163 230.529 260.563 230.629 262.063 230.829V231.829H261.963ZM232.663 231.329V230.329C233.963 230.229 235.363 230.129 236.763 230.029V231.029C235.463 231.029 234.063 231.229 232.663 231.329ZM253.563 231.129C251.963 231.129 250.563 230.929 249.363 230.929V229.929C250.663 229.929 252.063 230.029 253.663 230.129V231.129H253.563ZM240.963 230.829V229.829C242.063 229.829 243.263 229.829 244.363 229.829H245.163V230.829H244.463C243.363 230.829 242.163 230.829 241.063 230.829H240.963Z" fill="#1A1A1A"/>
<path d="M366.863 390.829V389.829C367.863 389.829 368.963 389.629 369.963 389.529V390.529C368.963 390.529 367.963 390.729 366.863 390.829ZM374.263 390.129V389.129C375.563 389.029 376.963 388.829 378.363 388.729V389.729C377.063 389.929 375.663 390.029 374.263 390.129ZM382.563 389.229V388.229C383.863 388.029 385.263 387.929 386.563 387.729V388.729C385.363 388.929 383.963 389.129 382.563 389.229ZM390.963 388.129V387.129C392.263 386.929 393.563 386.729 394.963 386.529L395.163 387.529C393.763 387.729 392.363 387.929 390.963 388.129ZM399.263 386.829L399.063 385.829C400.463 385.629 401.863 385.329 403.163 385.129L403.363 386.129C401.963 386.329 400.663 386.629 399.263 386.829ZM407.563 385.429L407.363 384.429C408.763 384.129 410.163 383.929 411.463 383.629L411.663 384.629C410.263 384.929 408.963 385.129 407.563 385.429ZM415.763 383.829L415.563 382.829C416.963 382.529 418.363 382.229 419.663 381.929L419.863 382.929C418.563 383.229 417.163 383.529 415.763 383.829ZM424.063 382.029L423.863 381.029C424.963 380.729 426.063 380.529 427.163 380.229L427.963 380.029L428.163 381.029L427.363 381.229C426.263 381.529 425.163 381.729 424.063 382.029ZM432.163 380.029L431.863 379.029C433.263 378.629 434.563 378.329 435.963 377.929L436.263 378.929C434.963 379.329 433.563 379.629 432.163 380.029ZM440.363 377.829L440.063 376.829C441.463 376.429 442.763 376.029 444.063 375.629L444.363 376.629C443.063 377.029 441.763 377.429 440.363 377.829ZM448.363 375.229L447.963 374.229C449.363 373.729 450.663 373.229 451.863 372.729L452.263 373.729C451.063 374.229 449.663 374.729 448.363 375.229ZM456.163 372.129L455.763 371.129C457.063 370.529 458.263 369.929 459.563 369.329L460.063 370.229C458.863 370.829 457.563 371.529 456.263 372.029L456.163 372.129ZM463.663 368.229L463.163 367.329C464.363 366.629 465.563 365.929 466.763 365.129L467.363 366.029C466.163 366.829 464.963 367.529 463.763 368.229H463.663ZM470.763 363.629L470.163 362.729C471.263 361.929 472.463 361.129 473.563 360.229L474.163 361.029C473.063 361.929 471.863 362.729 470.763 363.529V363.629ZM477.463 358.429L476.763 357.629C477.863 356.729 478.863 355.829 479.863 354.829L480.563 355.629C479.563 356.529 478.463 357.529 477.363 358.429H477.463ZM483.663 352.729L482.963 352.029C483.963 351.029 484.863 350.029 485.863 349.029L486.663 349.729C485.763 350.729 484.763 351.829 483.763 352.829L483.663 352.729Z" fill="#1A1A1A"/>
<path d="M121.363 390.829C120.263 390.829 119.263 390.629 118.163 390.529V389.529C119.363 389.529 120.363 389.729 121.463 389.829V390.829H121.363ZM113.963 390.129C112.563 390.029 111.163 389.829 109.763 389.729V388.729C111.263 388.929 112.663 389.029 114.063 389.129V390.129H113.963ZM105.663 389.229C104.263 389.029 102.863 388.929 101.463 388.729V387.729C102.963 387.929 104.363 388.129 105.763 388.229V389.229H105.663ZM97.2633 388.129C95.8633 387.929 94.4633 387.729 93.0633 387.529L93.2633 386.529C94.6633 386.729 95.9633 386.929 97.4633 387.129V388.129H97.2633ZM88.9633 386.829C87.5633 386.629 86.1633 386.329 84.8633 386.129L85.0633 385.129C86.4633 385.329 87.7633 385.629 89.1633 385.829L88.9633 386.829ZM80.6633 385.429C79.2633 385.129 77.8633 384.929 76.5633 384.629L76.7633 383.629C78.0633 383.929 79.4633 384.129 80.8633 384.429L80.6633 385.429ZM72.4633 383.829C71.0633 383.529 69.6633 383.229 68.3633 382.929L68.5633 381.929C69.8633 382.229 71.2633 382.529 72.6633 382.829L72.4633 383.829ZM64.2633 382.029C63.1633 381.729 62.0633 381.529 60.9633 381.229L60.1633 381.029L60.3633 380.029L61.1633 380.229C62.2633 380.529 63.3633 380.729 64.4633 381.029L64.2633 382.029ZM56.0633 380.029C54.6633 379.629 53.2633 379.329 51.9633 378.929L52.2633 377.929C53.5633 378.329 54.9633 378.629 56.3633 379.029L56.0633 380.029ZM47.8633 377.829C46.4633 377.429 45.1633 377.029 43.8633 376.629L44.1633 375.629C45.4633 376.029 46.7633 376.429 48.1633 376.829L47.8633 377.829ZM39.8633 375.229C38.4633 374.729 37.1633 374.229 35.9633 373.729L36.3633 372.729C37.5633 373.229 38.9633 373.729 40.2633 374.229L39.8633 375.229ZM32.0633 372.129C30.7633 371.529 29.4633 370.929 28.2633 370.329L28.7633 369.429C29.9633 370.029 31.2633 370.629 32.5633 371.229L32.1633 372.229L32.0633 372.129ZM24.5633 368.229C23.3633 367.529 22.1633 366.829 20.9633 366.029L21.5633 365.129C22.7633 365.929 23.9633 366.629 25.1633 367.329L24.6633 368.229H24.5633ZM17.4633 363.629C16.3633 362.829 15.1633 361.929 14.0633 361.129L14.6633 360.329C15.7633 361.229 16.8633 362.029 18.0633 362.829L17.4633 363.729V363.629ZM10.7633 358.429C9.66333 357.529 8.66333 356.629 7.56333 355.629L8.26333 354.829C9.26333 355.729 10.3633 356.729 11.3633 357.629L10.6633 358.429H10.7633ZM4.56333 352.729C3.56333 351.729 2.56333 350.729 1.66333 349.629L2.46333 348.929C3.36333 349.929 4.36333 350.929 5.36333 351.929L4.66333 352.629L4.56333 352.729Z" fill="#1A1A1A"/>
<path d="M371.363 403.229C370.963 403.229 370.563 403.229 370.263 403.229H369.763L365.663 398.529V398.129C367.363 379.529 367.763 360.929 366.763 343.029C366.063 330.029 364.863 321.129 360.863 311.429C359.363 307.929 354.963 298.529 346.263 288.529C339.163 280.429 329.563 273.029 317.863 266.529C292.063 252.229 263.663 246.829 244.463 244.929H243.563V16.6287H244.663C249.063 16.8287 253.463 16.6288 257.763 15.7288C260.063 15.2288 262.363 14.6287 264.663 13.9287H264.863H265.063C274.563 14.2287 284.163 15.0287 293.663 16.3287C304.963 17.8287 323.763 20.2288 345.763 27.7288C355.863 31.1288 375.363 38.7287 393.663 51.0287C434.563 78.4287 453.363 117.229 461.363 133.729C484.663 181.729 486.263 225.529 488.563 286.129C489.563 311.629 489.063 337.429 487.263 362.729V363.229L486.863 363.529C473.663 374.029 459.163 382.629 443.663 389.029C420.863 398.629 396.563 403.429 371.563 403.429L371.363 403.229ZM370.763 401.129C370.963 401.129 371.163 401.129 371.363 401.129C396.163 401.129 420.163 396.329 442.663 386.829C457.763 380.529 471.963 372.129 484.963 361.829C486.763 336.729 487.163 311.229 486.163 285.929C483.863 225.529 482.263 181.929 459.163 134.329C451.163 117.929 432.563 79.5287 392.163 52.4287C374.063 40.3287 354.663 32.8287 344.763 29.4287C322.963 22.0287 304.263 19.5287 293.063 18.1287C283.763 16.9287 274.263 16.1287 264.863 15.8287C262.563 16.6287 260.263 17.2287 257.963 17.6287C253.863 18.4287 249.663 18.8288 245.463 18.7288V242.829C264.863 244.929 293.063 250.429 318.763 264.629C330.763 271.229 340.463 278.829 347.763 287.129C356.763 297.329 361.263 306.929 362.763 310.529C366.963 320.529 368.163 329.629 368.863 342.829C369.863 360.729 369.563 379.229 367.863 397.829L370.763 401.129Z" fill="#1A1A1A"/>
<path d="M117.463 403.229C92.3632 403.229 68.1632 398.328 45.3632 388.828C29.9632 382.328 15.3632 373.728 2.16324 363.328L1.76324 363.029V362.529C-0.0367599 337.229 -0.436759 311.428 0.463241 285.928C2.76324 225.328 4.36324 181.529 27.6632 133.529C35.6632 116.929 54.4632 78.2285 95.3632 50.8285C113.663 38.6285 133.263 31.0285 143.263 27.5285C165.263 20.0285 184.063 17.6285 195.363 16.1285C204.863 14.9285 214.463 14.1285 223.963 13.7285H224.163H224.363C226.563 14.5285 228.863 15.1285 231.263 15.5285C235.563 16.3285 239.963 16.7285 244.363 16.5285H245.463V244.628H244.563C225.263 246.728 196.963 252.128 171.163 266.328C159.463 272.828 149.863 280.228 142.763 288.328C133.963 298.328 129.563 307.629 128.163 311.229C124.163 320.929 122.963 329.828 122.263 342.828C121.263 360.728 121.563 379.328 123.263 397.928V398.328L119.263 403.029H118.763C118.363 403.029 117.963 403.029 117.663 403.029L117.463 403.229ZM3.86324 361.928C16.8632 372.128 31.0632 380.528 46.1632 386.928C68.8632 396.528 93.1632 401.329 118.163 401.229L121.063 397.928C119.363 379.328 119.063 360.828 120.063 342.928C120.763 329.728 121.963 320.628 126.163 310.628C127.663 307.028 132.163 297.429 141.163 287.229C148.463 278.929 158.163 271.429 170.163 264.729C195.863 250.529 223.963 245.028 243.463 242.928V18.8285C239.263 18.9285 235.063 18.6285 230.963 17.7285C228.663 17.2285 226.263 16.6285 224.063 15.9285C214.663 16.3285 205.163 17.0285 195.863 18.2285C184.663 19.6285 165.963 22.1285 144.163 29.5285C134.163 32.9285 114.763 40.4285 96.7632 52.5285C56.3632 79.6285 37.7632 118.028 29.7632 134.428C6.66324 182.028 5.06324 225.629 2.76324 286.029C1.76324 311.329 2.26324 336.828 3.96324 361.928H3.86324Z" fill="#1A1A1A"/>
<path d="M124.463 321.229L123.463 319.429C149.963 304.429 193.063 286.729 248.063 287.529C299.963 288.229 340.763 305.329 365.763 319.429L364.763 321.229C339.963 307.229 299.563 290.329 248.063 289.629C193.563 288.829 150.763 306.429 124.563 321.229H124.463Z" fill="#1A1A1A"/>
<path d="M469.963 375.029L467.863 374.829C470.763 341.829 470.763 308.629 467.963 276.229C463.063 219.929 458.063 161.629 418.063 107.629C405.963 91.2286 391.263 76.1286 375.463 64.1286C332.263 30.9286 285.363 20.9286 253.563 18.4286L253.763 16.3286C285.763 18.8286 333.163 28.9286 376.763 62.4286C392.663 74.6286 407.463 89.8286 419.763 106.429C460.063 160.929 465.163 219.529 470.063 276.129C472.863 308.729 472.863 342.029 469.963 375.129V375.029Z" fill="#1A1A1A"/>
<path d="M19.6632 375.029C16.7632 341.929 16.7633 308.629 19.5633 276.029C24.4633 219.429 29.4633 160.828 69.8633 106.328C82.0633 89.7285 96.9633 74.6285 112.863 62.3285C156.463 28.8285 203.863 18.7285 235.863 16.2285L236.063 18.3285C204.263 20.8285 157.363 30.8285 114.163 64.0285C98.4633 76.1285 83.7633 91.1285 71.5633 107.529C31.5633 161.529 26.5632 219.828 21.6632 276.128C18.8632 308.628 18.8633 341.729 21.7633 374.729L19.6632 374.928V375.029Z" fill="#1A1A1A"/>
<path d="M223.163 15.3286C221.763 12.9286 221.263 10.7286 221.663 8.8286C223.363 1.7286 236.563 -0.271386 245.063 0.0286142C252.263 0.328614 264.863 2.72863 266.463 9.72863C266.863 11.4286 266.463 13.3286 265.563 15.2286L263.663 14.3286C264.363 12.8286 264.663 11.4286 264.363 10.2286C263.163 4.82863 252.063 2.42859 244.963 2.12859C236.863 1.82859 224.963 3.8286 223.663 9.3286C223.363 10.7286 223.663 12.4286 224.863 14.3286L223.063 15.4286L223.163 15.3286Z" fill="#1A1A1A"/>
<path d="M122.063 400.229V398.129H297.163C309.663 397.629 320.363 387.829 321.463 375.929C322.063 369.629 319.863 363.129 315.463 358.029C310.763 352.629 304.263 349.429 297.063 349.129H120.763V347.029H297.163C304.963 347.429 311.963 350.829 317.063 356.629C321.863 362.129 324.163 369.229 323.563 376.129C322.363 389.329 311.063 399.729 297.163 400.229H121.963H122.063Z" fill="#1A1A1A"/>
<path d="M121.763 395.929V394.929H298.663C309.863 393.729 318.563 383.729 317.863 372.729C317.263 362.629 308.963 354.129 298.563 353.029H120.563V352.029H298.563C309.463 353.129 318.163 362.029 318.763 372.629C319.463 384.229 310.363 394.629 298.563 395.929H121.563H121.763Z" fill="#1A1A1A"/>
<path d="M120.663 385.828V384.828H299.063C302.163 384.828 305.063 383.528 307.263 381.328C309.463 379.128 310.563 376.229 310.463 373.229C310.263 367.229 305.163 362.229 299.063 362.229H120.463V361.229H299.063C305.763 361.229 311.363 366.629 311.563 373.229C311.563 376.529 310.363 379.628 308.063 382.128C305.663 384.628 302.463 385.928 299.063 385.928H120.663V385.828Z" fill="#1A1A1A"/>
<path d="M244.463 378.929C241.563 378.929 239.163 376.529 239.163 373.629C239.163 370.729 241.563 368.329 244.463 368.329C247.363 368.329 249.763 370.729 249.763 373.629C249.763 376.529 247.363 378.929 244.463 378.929ZM244.463 369.329C242.163 369.329 240.163 371.229 240.163 373.629C240.163 376.029 242.063 377.929 244.463 377.929C246.863 377.929 248.763 376.029 248.763 373.629C248.763 371.229 246.863 369.329 244.463 369.329Z" fill="#1A1A1A"/>
<path d="M301.363 378.929C298.463 378.929 296.063 376.529 296.063 373.629C296.063 370.729 298.463 368.329 301.363 368.329C304.263 368.329 306.663 370.729 306.663 373.629C306.663 376.529 304.263 378.929 301.363 378.929ZM301.363 369.329C299.063 369.329 297.063 371.229 297.063 373.629C297.063 376.029 298.963 377.929 301.363 377.929C303.763 377.929 305.663 376.029 305.663 373.629C305.663 371.229 303.763 369.329 301.363 369.329Z" fill="#1A1A1A"/>
<path d="M273.863 378.929C270.963 378.929 268.563 376.529 268.563 373.629C268.563 370.729 270.963 368.329 273.863 368.329C276.763 368.329 279.163 370.729 279.163 373.629C279.163 376.529 276.763 378.929 273.863 378.929ZM273.863 369.329C271.563 369.329 269.563 371.229 269.563 373.629C269.563 376.029 271.463 377.929 273.863 377.929C276.263 377.929 278.163 376.029 278.163 373.629C278.163 371.229 276.263 369.329 273.863 369.329Z" fill="#1A1A1A"/>
<path d="M216.963 378.929C214.063 378.929 211.663 376.529 211.663 373.629C211.663 370.729 214.063 368.329 216.963 368.329C219.863 368.329 222.263 370.729 222.263 373.629C222.263 376.529 219.863 378.929 216.963 378.929ZM216.963 369.329C214.663 369.329 212.663 371.229 212.663 373.629C212.663 376.029 214.563 377.929 216.963 377.929C219.363 377.929 221.263 376.029 221.263 373.629C221.263 371.229 219.363 369.329 216.963 369.329Z" fill="#1A1A1A"/>
<path d="M187.863 378.929C184.963 378.929 182.563 376.529 182.563 373.629C182.563 370.729 184.963 368.329 187.863 368.329C190.763 368.329 193.163 370.729 193.163 373.629C193.163 376.529 190.763 378.929 187.863 378.929ZM187.863 369.329C185.563 369.329 183.563 371.229 183.563 373.629C183.563 376.029 185.463 377.929 187.863 377.929C190.263 377.929 192.163 376.029 192.163 373.629C192.163 371.229 190.263 369.329 187.863 369.329Z" fill="#1A1A1A"/>
<path d="M160.563 378.929C157.663 378.929 155.263 376.529 155.263 373.629C155.263 370.729 157.663 368.329 160.563 368.329C163.463 368.329 165.863 370.729 165.863 373.629C165.863 376.529 163.463 378.929 160.563 378.929ZM160.563 369.329C158.263 369.329 156.263 371.229 156.263 373.629C156.263 376.029 158.163 377.929 160.563 377.929C162.963 377.929 164.863 376.029 164.863 373.629C164.863 371.229 162.963 369.329 160.563 369.329Z" fill="#1A1A1A"/>
<path d="M368.063 348.329H304.263V350.429H368.063V348.329Z" fill="#1A1A1A"/>
<path d="M366.863 397.128H303.563V399.228H366.863V397.128Z" fill="#1A1A1A"/>
<path d="M366.863 393.628H311.063V395.728H366.863V393.628Z" fill="#1A1A1A"/>
<path d="M368.163 352.628H311.763V353.628H368.163V352.628Z" fill="#1A1A1A"/>
<path d="M330.563 377.029C328.663 377.029 327.163 375.528 327.163 373.628C327.163 371.728 328.663 370.229 330.563 370.229C332.463 370.229 333.963 371.728 333.963 373.628C333.963 375.528 332.463 377.029 330.563 377.029ZM330.563 371.229C329.263 371.229 328.163 372.328 328.163 373.628C328.163 374.928 329.263 376.029 330.563 376.029C331.863 376.029 332.963 374.928 332.963 373.628C332.963 372.328 331.863 371.229 330.563 371.229Z" fill="#1A1A1A"/>
<path d="M357.463 377.029C355.563 377.029 354.063 375.528 354.063 373.628C354.063 371.728 355.563 370.229 357.463 370.229C359.363 370.229 360.863 371.728 360.863 373.628C360.863 375.528 359.363 377.029 357.463 377.029ZM357.463 371.229C356.163 371.229 355.063 372.328 355.063 373.628C355.063 374.928 356.163 376.029 357.463 376.029C358.763 376.029 359.863 374.928 359.863 373.628C359.863 372.328 358.763 371.229 357.463 371.229Z" fill="#1A1A1A"/>
<path d="M122.174 394.188L150.263 393.404L149.13 352.82L121.041 353.604L122.174 394.188Z" fill="#3C3C3B" stroke="#1D1D1B" stroke-width="0.5" stroke-miterlimit="10"/>
</svg>
