<?xml version="1.0" encoding="UTF-8"?>
<svg id="Capa_1" xmlns="http://www.w3.org/2000/svg" xmlns:xlink="http://www.w3.org/1999/xlink" viewBox="0 0 282.01 472">
  <defs>
    <style>
      .cls-1 {
        fill: none;
      }

      .cls-2 {
        fill: #fdbc08;
      }

      .cls-3 {
        fill: #333;
      }

      .cls-4 {
        fill: #1a1a1a;
      }

      .cls-5 {
        clip-path: url(#clippath);
      }
    </style>
    <clipPath id="clippath">
      <rect class="cls-1" x="29.74" y="-28.22" width="193.22" height="474.46"/>
    </clipPath>
  </defs>
  <g class="cls-5">
    <g>
      <path class="cls-2" d="M237.72,44.04l-1.06.42c-11.16,6.56-22.3,13.3-33.2,20.09-.68.37-70.41,43.99-80.33,72.53-.66,1.91-1.03,3.93-1.03,3.93-.98,5.35-.11,9.63.32,11.31,3.26,15.72,6.19,31.87,9,47.39,3.77,20.98,7.64,42.71,12.74,63.81,2.99,12.48,5.92,25.31,8.68,38.05,0,0,.1.14.15.21l-.14.1c-.28.5-.55,1.31-.51,2.43.07,1.3.65,2.15,1.04,2.71,5.34.06,10.79-.17,16.16-.66,14.56-1.32,25.9-4.46,56.4-13.55l.45-.1c12.42-3.68,19.31-5.73,21.46-6.38-3.04-9.23-6.17-18.59-9.14-27.87l-1.67-5.29c-11.92-37.17-17.9-55.79-22.26-74.9-5.07-22.57-13.61-60.41-4.84-90.45,6.07-21.01,18.89-35.26,19.04-35.35,2.43-2.5,4.97-4.99,7.55-7.28.44-.41.89-.82,1.38-1.16l-.19.03Z"/>
      <path class="cls-2" d="M482.59,122.16c-9.33-17.14-17.43-31.91-29.27-45.77-24.93-29.23-52.65-42.01-71.54-47.57-25.78-7.56-46.91-5.98-76.29-2.64-13.57,1.56-27.07,4.12-40.32,7.65,16.89-1.57,33.19.38,48.64,5.62,19.03,6.51,30.93,16.69,46.05,29.42,38.36,32.43,59.35,68.75,69.49,86.16,7.09,12.24,13.55,24.93,19.26,37.72,7.2-3.72,14.42-7.55,21.47-11.48,9.92-5.49,19.94-11.15,29.67-16.92l1.42-3.37c-5.45-13.17-11.72-26.19-18.63-38.77l.07-.05Z"/>
      <path class="cls-2" d="M428.35,155.41c-10.02-17.39-30.98-53.52-69.18-85.86-15.53-13.18-26.8-22.75-45.66-29.17-17.46-6.03-36.17-7.57-55.45-4.66l-16.59,6.66c-1.31,1.11-2.69,2.27-4,3.38-2.57,2.29-5.05,4.73-7.48,7.23-.14.1-12.8,14.12-18.83,34.9-8.66,29.76-.22,67.45,4.87,89.91,4.24,19.1,10.22,37.72,22.21,74.83l1.67,5.29c2.97,9.27,6.03,18.69,9.14,27.87,21.97-7.15,36.33-14.04,57.96-24.39,3.7-1.72,7.48-3.6,11.58-5.49,19.73-9.35,28.07-12.92,35.42-16.11,7.21-3.1,13.48-5.76,28.8-13.21,21.4-10.39,42.71-21.35,63.41-32.61.42-.29.94-.44,1.36-.73-5.7-12.79-12.16-25.47-19.21-37.65l-.03-.19Z"/>
      <path class="cls-2" d="M276.76,276.87c-8.6,3.64-17.32,6.96-27.85,10.37-1.25.45-8.19,2.43-22.05,6.58l-.45.1c-30.62,9.07-41.98,12.33-56.66,13.63-5.38.49-10.95.69-16.28.64-11.18,9.69-22.39,19.49-33.41,29.27-22.85,20.33-45.81,41.25-68.11,62.24-2.6,2.1-3.97,4.19-4.05,6.32-.44,8.4,18.5,16.74,31.4,19.79,20.16,4.69,37.44-.68,43.13-2.53,28.39-8.98,55.24-26.98,86.91-58.47,25.43-25.33,48.32-53.88,68.02-84.81l-.64-3.19.05.07Z"/>
      <path class="cls-2" d="M259.4,31.06c-2.14-3.1-10.49-.45-11.41-.13-6.09,2.02-11.33,6.46-12.73,9.4-.39.79-.5,1.38-.28,1.85.15.52.7.87,1.63,1.16l20.98-8.44c.71-.18,1.37-.42,2.08-.6.26-1.43.15-2.49-.38-3.27l.12.02Z"/>
      <path class="cls-4" d="M500.37,158.19l-2.94,1.61-.49-.7,3.01-1.66.34.8.07-.05ZM491.27,163.22l-.49-.7,3.01-1.66.49.7-3.01,1.66ZM485.23,166.66l-.49-.7,3.01-1.66.49.7-3.01,1.66ZM479.21,169.98l-.49-.7,2.94-1.61.49.7-2.94,1.61ZM473.12,173.35l-.49-.7,2.94-1.61.49.7-2.94,1.61ZM467.03,176.72l-.49-.7s3.01-1.66,2.94-1.61l.49.7s-3.01,1.66-2.94,1.61ZM460.94,180.09l-.49-.7s3.01-1.66,2.94-1.61l.49.7s-3.01,1.66-2.94,1.61ZM454.92,183.41l-.49-.7s3.01-1.66,2.94-1.61l.49.7s-3.01,1.66-2.94,1.61ZM448.78,186.7l-.49-.7s3.01-1.66,2.94-1.61l.49.7s-3.01,1.66-2.94,1.61ZM442.69,190.07l-.49-.7s3.01-1.66,2.94-1.61l.49.7s-3.01,1.66-2.94,1.61ZM436.56,193.37l-.49-.7s3.01-1.66,2.94-1.61l.49.7s-3.01,1.66-2.94,1.61ZM430.44,196.55l-.49-.7s3.06-1.59,2.99-1.54l.49.7s-3.06,1.59-2.99,1.54ZM424.3,199.85l-.49-.7c1.01-.49,1.98-1.05,2.99-1.54l.49.7c-1.01.49-2.05,1.1-2.99,1.54ZM418.11,203.07l-.49-.7c1.01-.49,2.05-1.1,2.99-1.54l.49.7c-1.01.49-2.05,1.1-2.99,1.54ZM412,206.25l-.49-.7c1.08-.54,2.05-1.1,2.99-1.54l.49.7c-1.01.49-2.05,1.1-2.99,1.54ZM405.81,209.48l-.49-.7c1.03-.61,2.05-1.1,2.99-1.54l.49.7c-.96.56-2.05,1.1-2.99,1.54ZM399.6,212.52l-.49-.7s3.11-1.52,3.04-1.47l.49.7s-3.11,1.52-3.04,1.47ZM396.28,214.18c-1.01.49-2.09,1.03-3.11,1.52l-.34-.8c1.08-.54,2.09-1.03,3.04-1.47l.49.7-.07.05ZM387.03,218.69l-.35-.8c1.01-.49,2.02-.98,3.11-1.52l.34.8c-1.01.49-2.09,1.03-3.11,1.52ZM383.85,220.26c-1.06.42-2.14.96-3.15,1.45l-.34-.8c1.01-.49,2.02-.98,3.11-1.52l.34.8.05.07ZM374.39,224.61l-.34-.8c1.06-.42,2.07-.91,3.16-1.45l.34.8c-1.06.42-2.14.96-3.15,1.45ZM368.12,227.58l-.34-.8c1.01-.49,2.07-.91,3.15-1.45l.34.8c-1.01.49-2.14.96-3.16,1.45ZM361.81,230.47l-.34-.8,3.15-1.45.34.8-3.16,1.45ZM355.5,233.37l-.34-.8,3.15-1.45.34.8-3.16,1.45ZM349.14,236.2l-.34-.8c1.08-.54,2.14-.96,3.16-1.45l.34.8c-1.01.49-2.02.98-3.16,1.45ZM342.81,238.91l-.34-.8,3.2-1.38.34.8-3.2,1.38ZM336.45,241.73l-.34-.8,3.2-1.38.34.8-3.2,1.38ZM330.04,244.49l-.34-.8,3.2-1.38.34.8-3.2,1.38ZM323.75,247.27l-.34-.8,3.2-1.38.34.8-3.2,1.38ZM317.34,250.03l-.34-.8,3.2-1.38.34.8-3.2,1.38ZM310.93,252.78l-.34-.8,3.2-1.38.34.8-3.2,1.38ZM304.64,255.56l-.34-.8,3.2-1.38.35.8-3.2,1.38ZM298.24,258.32l-.34-.8,3.2-1.38.34.8-3.2,1.38ZM291.83,261.08l-.34-.8,3.2-1.38.34.8-3.2,1.38ZM285.54,263.85l-.34-.8,3.2-1.38.34.8-3.2,1.38ZM279.13,266.61l-.34-.8,3.2-1.38.34.8-3.2,1.38ZM272.8,269.32l-.34-.8,3.2-1.38.34.8-3.2,1.38ZM266.39,272.08l-.34-.8,3.2-1.38.34.8-3.2,1.38ZM260.05,274.78l-.34-.8c1.01-.49,2.07-.91,3.2-1.38l.34.8c-1.2.52-2.21,1.01-3.2,1.38ZM256.87,276.04c-1.2.52-2.26.94-3.25,1.31l-.34-.8c.99-.37,2.05-.79,3.18-1.26l.34.8.07-.05ZM247.08,279.78l-.27-.85c1.06-.42,2.17-.77,3.23-1.19l.27.85c-1.06.42-2.12.84-3.23,1.19ZM240.53,282.02l-.27-.85c1.11-.35,2.17-.77,3.28-1.12l.27.85c-1.06.42-2.17.77-3.28,1.12ZM233.87,284.11l-.27-.85c1.11-.35,2.22-.7,3.33-1.05l.27.85c-1.11.35-2.22.7-3.33,1.05ZM227.19,286.02l-.27-.85c1.16-.28,2.27-.63,3.38-.98l.27.85c-1.11.35-2.27.63-3.38.98ZM220.51,287.93l-.27-.85c1.11-.35,2.2-.58,3.31-.93l.27.85c-1.04.3-2.15.65-3.31.93ZM213.8,289.65l-.27-.85,3.35-.86.27.85-3.35.86ZM207.07,291.48l-.27-.85,3.35-.86.27.85-3.35.86ZM200.41,293.27l-.27-.85,3.35-.86.27.85-3.35.86ZM196.91,294.23c-1.09.23-2.2.58-3.35.86l-.2-.9c1.16-.28,2.32-.56,3.35-.86l.27.85-.07.05ZM186.87,296.69l-.16-.83c1.16-.28,2.32-.56,3.4-.79l.16.83c-1.09.23-2.25.51-3.4.79ZM180.09,298.14l-.16-.83c1.21-.21,2.29-.44,3.38-.67l.15.83c-1.09.23-2.17.46-3.38.67ZM176.78,298.76l-.57.08c-1.02.18-1.91.39-2.86.52l-.16-.83c.88-.09,1.84-.34,2.79-.47l.57-.08.16.83.07-.05ZM169.78,300.06c-1.14.16-2.27.32-3.41.48l-.08-.88c1.07-.11,2.27-.32,3.41-.48l.16.83-.07.05ZM159.46,301.36l-.08-.88c1.14-.16,2.32-.25,3.46-.41l.09.88c-1.21.21-2.39.3-3.46.41ZM152.59,301.94l-.09-.88c1.07-.11,2.18-.15,3.43-.29l.08.88c-1.18.09-2.37.18-3.43.29Z"/>
      <path class="cls-4" d="M237,290.16l-.52-1.51.85-.27.52,1.51-.85.27ZM235.36,285.37l-1.12-3.28.85-.27,1.12,3.28-.85.27ZM233.08,278.74l-1.12-3.28.85-.27,1.12,3.28-.85.27ZM230.84,272.18c-.42-1.06-.77-2.17-1.12-3.28l.85-.27c.35,1.11.77,2.17,1.12,3.28l-.85.27ZM228.67,265.58l-1.12-3.28.85-.27,1.12,3.28-.85.27ZM226.55,259.04l-1.05-3.33.85-.27,1.05,3.33-.85.27ZM224.46,252.39l-1.05-3.33.85-.27,1.05,3.33-.85.27ZM222.29,245.78l-1.05-3.33.85-.27,1.05,3.33-.85.27ZM220.19,239.12l-1.05-3.33.85-.27,1.05,3.33-.85.27ZM218.21,232.49c-.35-1.11-.7-2.22-1.05-3.33l.85-.27c.35,1.11.7,2.22,1.05,3.33l-.85.27ZM216.24,225.86c-.28-1.16-.63-2.27-.98-3.38l.85-.27c.28,1.16.63,2.27.98,3.38l-.85.27ZM214.26,219.22c-.33-1.23-.63-2.27-.98-3.38l.85-.27c.35,1.11.63,2.27.98,3.38l-.85.27ZM212.35,212.54c-.35-1.11-.58-2.2-.93-3.31l.85-.27c.3,1.04.58,2.2.93,3.31l-.85.27ZM210.44,205.86c-.35-1.11-.58-2.2-.93-3.31l.85-.27c.3,1.04.65,2.15.93,3.31l-.85.27ZM208.61,199.13c-.28-1.16-.58-2.2-.86-3.35l.85-.27c.23,1.09.58,2.2.86,3.35l-.85.27ZM207.62,192.12l-.85.27c-.28-1.16-.63-2.27-.86-3.35l.9-.2c.23,1.09.58,2.2.86,3.35l-.05-.07ZM205.19,185.59c-.28-1.16-.56-2.32-.79-3.4l.83-.16c.23,1.09.51,2.25.79,3.4l-.83.16ZM203.55,178.84c-.28-1.16-.56-2.32-.79-3.4l.83-.16c.28,1.16.51,2.25.79,3.4l-.83.16ZM202.02,172.1c-.16-1.14-.44-2.29-.67-3.38l.83-.16c.23,1.09.39,2.22.67,3.38l-.83.16ZM200.63,165.27c-.28-1.16-.44-2.29-.67-3.38l.83-.16c.23,1.09.46,2.18.67,3.38l-.83.16ZM199.36,158.46c-.21-1.21-.44-2.29-.6-3.43l.83-.16c.23,1.09.39,2.22.6,3.43l-.83.16ZM198.23,151.55c-.14-1.26-.3-2.39-.41-3.46l.88-.09c.11,1.07.27,2.2.41,3.46l-.88.08ZM197.46,144.71c-.19-1.33-.23-2.44-.29-3.43l.88-.08c.06.99.18,2.06.29,3.43l-.88.09ZM197.87,137.78l-.88.08c-.09-1.18-.18-2.37-.22-3.48l.88-.08c.04,1.11.08,2.23.17,3.41l.05.07ZM196.7,130.8c-.09-1.18-.06-2.35-.1-3.46l.85.03c.04,1.11.08,2.23.1,3.46l-.85-.03ZM197.42,123.86l-.85-.03c.03-1.16.06-2.32.09-3.49l.85.03c.04,1.11.01,2.28-.02,3.44l-.07.05ZM196.79,116.92c.1-1.21.13-2.37.21-3.47l.85.03c-.08,1.09-.18,2.3-.21,3.47l-.85-.03ZM198.01,109.95l-.85-.03c.1-1.21.18-2.3.33-3.44l.9.1c-.08,1.09-.23,2.23-.33,3.44l-.05-.07ZM198.89,103.11l-.9-.1c.17-1.26.32-2.4.51-3.47l.83.15c-.15,1.14-.37,2.33-.51,3.47l.07-.05ZM199.88,96.41l-.83-.15c.22-1.19.49-2.31.75-3.43l.83.15c-.2,1.07-.46,2.19-.68,3.38l-.07.05ZM201.55,89.64l-.88-.22c.34-1.17.68-2.34.99-3.38l.81.27c-.32,1.05-.63,2.1-.97,3.26l.05.07ZM203.7,82.97l-.81-.27c.39-1.1.84-2.24,1.28-3.27l.79.39c-.5,1.08-.94,2.1-1.33,3.2l.07-.05ZM206.45,76.71l-.79-.39c.43-1.03.99-2.03,1.61-3.08l.72.44c-.62,1.05-1.11,2.01-1.66,3.01l.12.02ZM209.7,70.73l-.72-.44c.67-.98,1.27-1.92,1.95-2.9l.72.44c-.6.93-1.27,1.92-1.88,2.85l-.07.05ZM213.01,64.4c.72-.91,1.44-1.83,2.16-2.74l.7.56c-.72.91-1.44,1.83-2.16,2.74l-.7-.56ZM217.99,59.72l-.63-.61c.77-.84,1.61-1.73,2.38-2.57l.63.61c-.77.84-1.54,1.68-2.31,2.53l-.07.05ZM222.29,54.05c.89-.82,1.71-1.59,2.66-2.46l.49.7c-.82.77-1.71,1.59-2.52,2.36l-.63-.61ZM227.99,50.12l-.49-.7c.87-.7,1.75-1.52,2.74-2.2l.49.7c-.87.7-1.8,1.45-2.67,2.15l-.07.05Z"/>
      <path class="cls-4" d="M255.15,284.4c-.27-.85-.62-1.96-1.12-3.28l.85-.27c.38,1.3.8,2.36,1.12,3.28l-.85.27ZM252.84,277.89c-.3-1.04-.72-2.1-1.12-3.28l.85-.27c.4,1.18.75,2.29,1.12,3.28l-.85.27ZM250.56,271.26l-1.12-3.28.85-.27,1.12,3.28-.85.27ZM248.32,264.7c-.42-1.06-.77-2.17-1.12-3.28l.85-.27c.35,1.11.77,2.17,1.12,3.28l-.85.27ZM246.15,258.09c-.42-1.06-.77-2.17-1.12-3.28l.85-.27c.42,1.06.77,2.17,1.12,3.28l-.85.27ZM243.98,251.49c-.35-1.11-.7-2.22-1.05-3.33l.85-.27c.35,1.11.7,2.22,1.05,3.33l-.85.27ZM241.82,244.88c-.35-1.11-.7-2.22-1.05-3.33l.85-.27c.35,1.11.7,2.22,1.05,3.33l-.85.27ZM239.72,238.22l-1.05-3.33.85-.27,1.05,3.33-.85.27ZM237.67,231.64l-1.05-3.33.85-.27,1.05,3.33-.85.27ZM235.58,224.98c-.35-1.11-.7-2.22-1.05-3.33l.85-.27c.35,1.11.7,2.22,1.05,3.33l-.85.27ZM233.6,218.35c-.35-1.11-.63-2.27-.98-3.38l.85-.27c.28,1.16.63,2.27.98,3.38l-.85.27ZM231.69,211.67c-.35-1.11-.63-2.27-.98-3.38l.85-.27c.35,1.11.63,2.27.98,3.38l-.85.27ZM229.78,204.99c-.3-1.04-.58-2.2-.93-3.31l.85-.27c.3,1.04.58,2.2.93,3.31l-.85.27ZM227.88,198.3c-.3-1.04-.65-2.15-.93-3.31l.85-.27c.35,1.11.58,2.2.93,3.31l-.85.27ZM226.09,191.64c-.28-1.16-.58-2.2-.86-3.35l.85-.27c.28,1.16.58,2.2.86,3.35l-.85.27ZM225.12,184.52l-.85.27c-.28-1.16-.58-2.2-.86-3.35l.9-.2c.28,1.16.58,2.2.86,3.35l-.05-.07ZM222.7,177.99c-.35-1.11-.58-2.2-.86-3.35l.83-.16c.35,1.11.58,2.2.86,3.35l-.83.16ZM221.05,171.23c-.28-1.16-.51-2.24-.79-3.4l.83-.16c.28,1.16.51,2.25.79,3.4l-.83.16ZM219.4,164.47c-.28-1.16-.51-2.24-.79-3.4l.83-.16c.28,1.16.51,2.25.79,3.4l-.83.16ZM218.82,157.61l-.83.16c-.28-1.16-.49-2.36-.72-3.45l.83-.16c.16,1.14.39,2.22.67,3.38l.05.07ZM216.55,150.86c-.23-1.09-.44-2.29-.67-3.38l.83-.16c.23,1.09.44,2.29.67,3.38l-.83.16ZM215.28,144.05c-.16-1.14-.44-2.29-.6-3.43l.83-.16c.16,1.14.44,2.29.6,3.43l-.83.16ZM214.09,137.19c-.21-1.21-.37-2.34-.53-3.48l.83-.16c.16,1.14.37,2.34.53,3.48l-.83.16ZM212.96,130.28l-.18-1.02c-.16-.83-.19-1.63-.35-2.46l.88-.08c.16.83.24,1.7.35,2.46l.18,1.02-.88.08ZM212.99,123.4l-.88.09c-.16-1.14-.25-2.32-.34-3.51l.88-.08c.09,1.18.13,2.3.29,3.43l.05.07ZM212.45,116.3l-.88.08c-.04-1.11-.08-2.23-.1-3.46l.85.03c-.03,1.16.06,2.35.1,3.46l.02-.12ZM211.42,109.53c.03-1.16.06-2.32.09-3.49l.85.03c-.03,1.16-.06,2.33-.09,3.49l-.85-.03ZM212.57,102.61l-.85-.03c.1-1.21.25-2.35.4-3.49l.9.1c-.15,1.14-.18,2.3-.32,3.44l-.12-.02ZM213.63,95.86l-.83-.15c.15-1.14.37-2.33.63-3.45l.83.15c-.27,1.12-.53,2.24-.68,3.38l.05.07ZM214.87,89.08l-.88-.22c.22-.88.52-1.81.74-2.69l.25-.69.81.27-.18.64c-.22.88-.45,1.76-.67,2.64l-.07.05ZM216.09,82.11c.39-1.1.77-2.19,1.16-3.29l.81.27c-.39,1.1-.77,2.19-1.16,3.29l-.81-.27ZM219.2,75.92l-.79-.39c.51-1.08.94-2.1,1.44-3.18l.79.39c-.43,1.03-.94,2.1-1.37,3.13l-.07.05ZM221.42,69.2c.5-1.08,1.06-2.08,1.61-3.08l.79.39c-.55,1-1.06,2.08-1.61,3.08l-.79-.39ZM224.81,63.12c.6-.93,1.16-1.94,1.83-2.92l.72.44c-.6.93-1.27,1.92-1.83,2.92l-.72-.44ZM229.47,57.83l-.77-.51c.6-.93,1.28-1.92,2-2.83l.7.56c-.72.91-1.44,1.83-2.04,2.76l.12.02ZM232.74,51.73c.72-.91,1.44-1.83,2.21-2.67l.7.56c-.77.84-1.49,1.75-2.21,2.67l-.7-.56ZM238.02,47.04l-.63-.61c.79-.96,1.61-1.73,2.38-2.58l.63.61c-.82.77-1.59,1.61-2.43,2.5l.05.07ZM242.13,41.41l.42-.29.68.68-.42.29-.67-.68Z"/>
      <path class="cls-4" d="M442.86,194.53l-.8.34c-.49-1.01-.98-2.02-1.47-3.04l.7-.49c.54,1.08,1.03,2.09,1.52,3.11l.05.07ZM439.72,188.17l-.7.49c-.49-1.01-.98-2.02-1.47-3.04l.7-.49c.54,1.08,1.03,2.09,1.52,3.11l-.05-.07ZM436.57,181.94l-.7.49c-.49-1.01-1.05-1.98-1.54-2.99l.7-.49c.49,1.01,1.1,2.05,1.59,3.06l-.05-.07ZM433.39,175.82l-.7.49c-.49-1.01-.98-2.02-1.54-2.99l.7-.49c.49,1.01,1.1,2.05,1.59,3.06l-.05-.07ZM430.09,169.68l-.7.49s-1.66-3.01-1.61-2.94l.7-.49,1.66,3.01-.05-.07ZM426.72,163.59l-.7.49c-.56-.96-1.05-1.98-1.61-2.94l.7-.49c.56.96,1.1,2.05,1.66,3.01l-.05-.07ZM422.7,158.06c-.54-1.08-1.1-2.05-1.66-3.01l.7-.49c.56.96,1.1,2.05,1.66,3.01l-.7.49ZM419.91,151.46l-.7.49c-.61-1.03-1.17-2-1.73-2.96l.7-.49c.61,1.03,1.22,2.07,1.78,3.03l-.05-.07ZM416.47,145.42l-.7.49c-.61-1.03-1.1-2.05-1.73-2.96l.7-.49c.61,1.03,1.15,2.12,1.78,3.03l-.05-.07ZM412.89,139.48l-.7.49c-.56-.96-1.17-2-1.8-2.91l.7-.49c.61,1.03,1.22,2.07,1.85,2.98l-.05-.07ZM409.24,133.58l-.7.49c-.56-.96-1.24-1.95-1.87-2.86l.7-.49c.61,1.03,1.29,2.02,1.92,2.93l-.05-.07ZM405.4,127.71l-.7.49c-.63-.92-1.26-1.83-1.94-2.82l.7-.49c.68.99,1.31,1.9,1.99,2.89l-.05-.07ZM398.83,119.68l.7-.49c.68.99,1.31,1.9,1.99,2.89l-.7.49c-.68-.99-1.31-1.9-1.99-2.89ZM394.75,114.08l.7-.49c.75.94,1.38,1.85,2.06,2.84l-.7.49c-.63-.91-1.38-1.85-2.06-2.84ZM390.4,108.67l.7-.49c.7.87,1.52,1.75,2.2,2.74l-.7.49c-.7-.87-1.52-1.75-2.2-2.74ZM386.05,103.26l.7-.49c.77.82,1.52,1.75,2.27,2.69l-.7.49c-.7-.87-1.47-1.68-2.27-2.69ZM383.78,100.56c-.77-.82-1.42-1.61-2.2-2.43l-.1-.14.65-.56.15.21c.77.82,1.5,1.57,2.24,2.5l-.7.49-.05-.07ZM376.8,92.7l.7-.49c.82.89,1.52,1.75,2.39,2.71l-.7.49c-.75-.94-1.52-1.75-2.39-2.71ZM372.17,87.8l.61-.63c.82.89,1.59,1.71,2.46,2.67l-.7.49c-.77-.82-1.54-1.64-2.36-2.52ZM367.37,82.8l.61-.63c.84.77,1.66,1.66,2.43,2.48l-.61.63c-.77-.82-1.66-1.66-2.43-2.48ZM362.43,77.89l.61-.63c.84.77,1.73,1.61,2.5,2.43l-.61.63c-.84-.77-1.66-1.66-2.5-2.43ZM357.35,73.09l.61-.63c.89.84,1.73,1.61,2.58,2.38l-.61.63c-.89-.84-1.73-1.61-2.58-2.38ZM352.16,68.57l.56-.7c.84.77,1.76,1.49,2.6,2.26l-.56.7c-.84-.77-1.68-1.54-2.6-2.26ZM346.75,64.19l.56-.7c.91.72,1.83,1.44,2.74,2.16l-.56.7c-.91-.72-1.83-1.44-2.74-2.16ZM344.04,62.22c-.98-.67-1.85-1.32-2.83-2l.51-.77c.93.6,1.92,1.27,2.83,2l-.56.7.05.07ZM338.21,58.14c-.93-.6-1.92-1.28-2.85-1.88l.44-.72c1.05.62,1.99,1.23,2.97,1.9l-.44.72-.12-.02ZM329.5,52.72l.44-.72c1,.55,1.99,1.23,2.99,1.78l-.44.72c-.98-.67-1.99-1.23-2.99-1.78ZM323.33,49.5l.39-.79c1,.55,2.08,1.06,3.09,1.61l-.39.79c-1.01-.55-2.01-1.11-3.09-1.61ZM317.04,46.56l.39-.79c1.08.5,2.1.94,3.18,1.44l-.39.79c-1.08-.5-2.15-1.01-3.18-1.44ZM313.84,45.24c-1.03-.43-2.12-.82-3.22-1.21l.27-.81c1.15.46,2.17.89,3.27,1.28l-.27.81-.05-.07ZM304.07,41.91l.27-.81c1.12.27,2.22.65,3.31,1.04l-.27.81c-1.1-.39-2.22-.65-3.31-1.04ZM297.28,40.04l.22-.88c1.12.27,2.29.6,3.41.87l-.22.88c-1.17-.34-2.29-.6-3.41-.87ZM290.66,38.58l.15-.83c1.07.2,2.26.42,3.38.68l-.15.83c-1.12-.27-2.31-.49-3.38-.68ZM283.77,37.62l.1-.9c1.14.15,2.33.37,3.47.51l-.15.83c-1.14-.15-2.28-.3-3.42-.44ZM280.42,37.13c-1.14-.15-2.35-.25-3.44-.33l.03-.85c1.09.08,2.23.23,3.44.33l-.1.9.07-.05ZM269.95,36.56l.03-.85c1.11-.04,2.32.06,3.49.09l-.03.85c-1.16-.03-2.33-.06-3.49-.09ZM266.63,36.56c-1.23.02-2.35.06-3.46.1l-.08-.88c1.11-.04,2.23-.08,3.46-.1l-.03.85.12.02ZM256.11,36.97l-.08-.88c1.11-.04,2.3-.13,3.48-.22l.09.88c-1.23.02-2.42.11-3.48.22Z"/>
      <path class="cls-4" d="M452.34,191.41l-.44-.94.8-.34.44.94-.8.34ZM450.52,187.27c-.49-1.01-.91-2.07-1.45-3.15l.8-.34c.54,1.08.96,2.14,1.45,3.16l-.8.34ZM447.7,180.91c-.42-1.06-.91-2.07-1.45-3.15l.8-.34c.47,1.13.96,2.14,1.45,3.16l-.8.34ZM445.46,174.35l-.8.34c-.49-1.01-1.03-2.09-1.47-3.04l.7-.49c.49,1.01,1.03,2.09,1.52,3.11l.05.07ZM442.32,168l-.7.49c-.49-1.01-1.1-2.05-1.54-2.99l.7-.49c.49,1.01,1.1,2.05,1.59,3.06l-.05-.07ZM439.1,161.81l-.7.49c-.56-.96-1.05-1.98-1.61-2.94l.7-.49c.56.96,1.1,2.05,1.66,3.01l-.05-.07ZM435.73,155.72l-.7.49c-.61-1.03-1.17-2-1.73-2.96l.7-.49c.61,1.03,1.22,2.07,1.78,3.03l-.05-.07ZM432.2,149.85l-.7.49c-.41-.75-.83-1.5-1.29-2.33l-.44-.63.7-.49.44.63c.41.75.88,1.58,1.36,2.28l-.07.05ZM428.64,143.78l-.7.49c-.61-1.03-1.17-2-1.8-2.91l.7-.49c.61,1.03,1.17,2,1.85,2.98l-.05-.07ZM424.99,137.89l-.7.49c-.56-.96-1.24-1.95-1.87-2.86l.7-.49c.61,1.03,1.24,1.95,1.92,2.93l-.05-.07ZM420.42,132.62c-.68-.99-1.36-1.97-1.99-2.89l.7-.49c.68.99,1.31,1.9,1.99,2.89l-.7.49ZM414.57,123.99l.7-.49c.68.99,1.31,1.9,1.99,2.89l-.7.49c-.68-.99-1.36-1.97-1.99-2.89ZM410.43,118.43l.7-.49c.7.87,1.38,1.85,2.06,2.84l-.7.49c-.75-.94-1.38-1.85-2.06-2.84ZM406.22,112.92l.7-.49c.7.87,1.45,1.8,2.13,2.79l-.7.49c-.75-.94-1.45-1.8-2.13-2.79ZM401.93,107.47l.7-.49c.7.87,1.47,1.68,2.2,2.74l-.7.49c-.75-.94-1.52-1.76-2.2-2.74ZM397.51,102.1l.7-.49c.72.75,1.47,1.68,2.27,2.69l-.7.49c-.75-.94-1.52-1.76-2.27-2.69ZM392.89,96.77l.7-.49c.77.82,1.47,1.68,2.39,2.71l-.7.49c-.87-.96-1.69-1.85-2.39-2.71ZM388.31,91.62l.7-.49s2.34,2.64,2.39,2.71l-.7.49s-2.34-2.64-2.39-2.71ZM383.6,86.46l.7-.49s2.34,2.64,2.39,2.71l-.7.49s-2.34-2.64-2.39-2.71ZM378.87,81.41l.7-.49c.82.89,1.59,1.71,2.46,2.67l-.7.49c-.82-.89-1.59-1.71-2.46-2.67ZM374.27,76.38l.61-.63c.77.82,1.59,1.71,2.36,2.52l-.61.63c-.77-.82-1.59-1.71-2.36-2.52ZM369.4,71.43l.61-.63c.77.82,1.66,1.66,2.43,2.47l-.61.63c-.77-.82-1.66-1.66-2.43-2.48ZM364.39,66.57l.61-.63c.84.77,1.66,1.66,2.5,2.43l-.61.63c-.89-.84-1.66-1.66-2.5-2.43ZM361.88,64.15c-.84-.77-1.68-1.54-2.53-2.31l.61-.63c.89.84,1.73,1.61,2.58,2.38l-.61.63-.05-.07ZM354.07,57.49l.56-.7c.91.72,1.75,1.49,2.67,2.21l-.56.7c-.91-.72-1.75-1.49-2.67-2.21ZM351.28,55.25c-.91-.72-1.85-1.32-2.76-2.04l.56-.7c.98.67,1.9,1.39,2.81,2.11l-.56.7-.05-.07ZM342.84,49.34l.44-.72c.98.67,1.92,1.27,2.9,1.95l-.44.72c-.98-.67-1.97-1.34-2.9-1.95ZM339.85,47.56c-.98-.67-1.99-1.23-2.99-1.78l.44-.72c1.08.51,2.06,1.18,3.06,1.73l-.44.72-.07.05ZM333.84,44.12c-1.08-.5-2.03-.99-3.11-1.49l.39-.79c1.08.5,2.15,1.01,3.15,1.56l-.39.79-.05-.07ZM327.73,41.27c-1.03-.43-2.1-.94-3.2-1.33l.27-.81c1.03.43,2.17.89,3.2,1.33l-.39.79.12.02ZM321.09,38.58c-1.05-.32-2.15-.7-3.24-1.09l.27-.81c1.1.39,2.19.77,3.29,1.16l-.27.81-.05-.07ZM314.63,36.59c-1.17-.34-2.22-.65-3.33-.92l.22-.88c1.12.27,2.17.58,3.33.92l-.27.81.05.07ZM307.84,34.73c-1.12-.27-2.26-.42-3.38-.68l.15-.83c1.12.27,2.31.49,3.43.75l-.15.83-.05-.07ZM301.11,33.56c-1.19-.22-2.33-.37-3.47-.51l.1-.9c1.14.15,2.28.3,3.47.51l-.15.83.05.07ZM294.36,32.5c-1.14-.15-2.35-.25-3.44-.33l.03-.85c1.09.08,2.23.23,3.44.33l-.1.9.07-.05ZM283.82,31.98l.03-.85c1.16.03,2.32.06,3.49.09l-.03.85c-1.16-.03-2.33-.06-3.49-.09ZM280.57,31.93c-1.23.02-2.35.06-3.46.1l-.08-.88c1.11-.04,2.23-.08,3.46-.1l-.03.85.12.02ZM270.08,32.53l-.08-.88c1.07-.11,2.25-.2,3.43-.29l.09.88c-1.18.09-2.37.18-3.43.29Z"/>
      <path class="cls-4" d="M140.29,339.09c.92-.63,1.9-1.31,2.89-1.99l.49.7c-.99.68-1.97,1.36-2.89,1.99l-.49-.7ZM135.03,343.65l-.49-.7c.89-.51,1.88-1.19,2.87-1.87l.49.7c-.99.68-2.02,1.29-2.86,1.87ZM145.85,334.94c.91-.63,1.73-1.4,2.79-2.13l.49.7c-.94.75-1.87,1.5-2.79,2.13l-.49-.7ZM131.5,345.77c-.8.34-1.69.86-2.71,1.35l-.34-.8c.94-.44,1.88-.88,2.64-1.3,0,0,.42-.29.35-.24l.49.7-.42.29ZM151.31,330.66c.82-.77,1.69-1.47,2.69-2.27l.49.7c-.89.82-1.83,1.57-2.69,2.27l-.49-.7ZM157.04,326.92l-.49-.7c.87-.7,1.73-1.4,2.69-2.27l.49.7c-.87.7-1.75,1.52-2.62,2.22l-.07.05ZM122.24,349.35l-.16-.83c1.04-.3,2.13-.53,3.26-1l.27.85c-1.18.4-2.29.75-3.38.98ZM162.23,322.4l-.49-.7c.94-.75,1.75-1.52,2.71-2.39l.49.7c-.82.77-1.75,1.52-2.57,2.29l-.14.1ZM167.45,317.77l-.49-.7c.89-.82,1.71-1.59,2.66-2.46l.49.7c-.82.77-1.71,1.59-2.52,2.36l-.14.1ZM172.01,312.33c.82-.77,1.71-1.59,2.52-2.36l.63.61c-.82.77-1.71,1.59-2.52,2.36l-.63-.61ZM115.11,349.7l.15-.83c1.07.2,2.23.23,3.35.18l.09.88c-1.23.02-2.44-.08-3.59-.23ZM177.03,307.42c.68-.67,1.42-1.4,2.1-2.07l.63.61c-.68.67-1.43,1.4-2.1,2.07l-.63-.61ZM108.56,346.84l.56-.7c.91.72,1.92,1.27,2.94,1.71l-.39.79c-1.08-.5-2.13-1.13-3.11-1.8Z"/>
      <path class="cls-4" d="M137.01,350.59l-.49-.7c.84-.58,1.69-1.17,2.53-1.75l.35-.24.49.7-.35.24c-.84.58-1.69,1.17-2.53,1.75ZM142.25,345.84c.94-.75,1.85-1.38,2.84-2.06l.49.7c-.94.75-1.92,1.43-2.84,2.06l-.49-.7ZM131.19,354.19l-.49-.7c.96-.56,1.93-1.12,2.91-1.8l.49.7c-1.06.73-2.02,1.29-2.91,1.8ZM147.85,341.77c.91-.63,1.8-1.45,2.79-2.13l.49.7c-.94.75-1.8,1.45-2.79,2.13l-.49-.7ZM124.88,357.4l-.34-.8c.99-.37,2.07-.91,3.01-1.35l.49.7c-1.08.54-2.09,1.03-3.15,1.45ZM153.31,337.48c.87-.7,1.8-1.45,2.74-2.2l.49.7c-.94.75-1.75,1.52-2.74,2.2l-.49-.7ZM158.74,333.01c.87-.7,1.76-1.52,2.69-2.27l.49.7c-.94.75-1.76,1.52-2.69,2.27l-.49-.7ZM164.4,329.32l-.49-.7c.89-.82,1.83-1.57,2.71-2.39l.49.7c-.82.77-1.64,1.54-2.57,2.29l-.14.1ZM121.53,358.57c-1.18.4-2.29.75-3.38.98l-.16-.83c1.09-.23,2.2-.58,3.31-.93l.27.85-.05-.07ZM169.6,324.8l-.49-.7c.89-.82,1.76-1.52,2.71-2.39l.49.7c-.82.77-1.69,1.47-2.57,2.29l-.14.1ZM174.76,320.09l-.49-.7c.89-.82,1.71-1.59,2.66-2.46l.49.7c-.82.77-1.64,1.54-2.52,2.36l-.14.1ZM179.45,314.68c.89-.82,1.71-1.59,2.52-2.36l.63.61c-.82.77-1.64,1.54-2.52,2.36l-.63-.61ZM111.24,360.37l.03-.85c1.16.03,2.28-.01,3.41-.17l.09.88c-1.18.09-2.37.18-3.53.15ZM184.45,309.89c.84-.89,1.73-1.71,2.48-2.43l.63.61c-.75.72-1.59,1.61-2.48,2.43l-.63-.61ZM189.4,305.02c.98-.99,1.73-1.71,2.26-2.29l.63.61c-.47.53-1.28,1.3-2.26,2.29l-.63-.61ZM107.06,360.03c-.9-.1-1.9-.35-2.78-.57l.22-.88c.93.29,1.81.52,2.71.62.24.04.43.02.67.06l-.15.83c-.19.03-.43-.02-.67-.06ZM97.64,356.76l.39-.79c1.01.55,2.08,1.06,3.11,1.49l-.27.81c-1.14-.46-2.22-.96-3.23-1.51Z"/>
      <path class="cls-4" d="M144.98,355.07l-.07.05-.49-.7.07-.05c.91-.63,1.9-1.31,2.82-1.94l.49.7c-.92.63-1.83,1.26-2.75,1.89l-.07.05ZM139.18,358.86l-.49-.7c.96-.56,1.95-1.24,2.86-1.87l.49.7c-.96.56-1.95,1.24-2.86,1.87ZM150.1,350.29c.87-.7,1.8-1.45,2.79-2.13l.49.7c-.89.82-1.8,1.45-2.79,2.13l-.49-.7ZM133.24,362.44l-.49-.7c1.03-.61,2.05-1.1,2.96-1.73l.49.7c-1.03.61-2.07,1.22-2.96,1.73ZM155.68,346.03c.87-.7,1.75-1.52,2.74-2.2l.49.7c-.94.75-1.76,1.52-2.74,2.2l-.49-.7ZM161.14,341.75c.82-.77,1.76-1.52,2.69-2.27l.49.7c-.89.82-1.76,1.52-2.69,2.27l-.49-.7ZM129.97,364.18c-1.01.49-2.09,1.03-3.11,1.52l-.34-.8c1.01-.49,2.09-1.03,3.04-1.47l.49.7-.07.05ZM166.79,338.05l-.49-.7c.94-.75,1.8-1.45,2.76-2.32l.49.7c-.87.7-1.68,1.47-2.62,2.22l-.14.1ZM123.85,367.05c-1.13.47-2.19.89-3.25,1.31l-.34-.8c.99-.37,2.12-.84,3.18-1.26l.34.8.07-.05ZM172.06,333.49l-.49-.7c.89-.82,1.75-1.52,2.71-2.39l.49.7c-.82.77-1.68,1.47-2.57,2.29l-.14.1ZM177.15,328.83l-.49-.7c.89-.82,1.71-1.59,2.67-2.46l.49.7c-.82.77-1.64,1.54-2.52,2.36l-.14.1ZM113.87,370.5l-.2-.9c1.09-.23,2.2-.58,3.31-.93l.27.85c-1.11.35-2.29.75-3.38.98ZM181.79,323.35c.82-.77,1.71-1.59,2.52-2.36l.63.61c-.82.77-1.64,1.54-2.52,2.36l-.63-.61ZM186.79,318.55c.89-.82,1.66-1.66,2.48-2.43l.63.61c-.82.77-1.59,1.61-2.48,2.43l-.63-.61ZM110.51,371.36c-1.21.21-2.46.35-3.53.46l-.09-.88c1.07-.11,2.2-.27,3.41-.48l.16.83.05.07ZM192.32,314.22l-.63-.61c.89-.82,1.66-1.66,2.48-2.43l.63.61c-.77.84-1.59,1.61-2.43,2.5l-.05-.07ZM196.59,308.68c.84-.89,1.66-1.66,2.43-2.5l.63.61c-.77.84-1.59,1.61-2.43,2.5l-.63-.61ZM201.45,303.67c.86-1.01,1.75-1.83,2.38-2.58l.63.61c-.7.79-1.47,1.64-2.38,2.58l-.63-.61ZM103.53,371.92c-1.21-.1-2.37-.13-3.51-.28l.1-.9c1.07.2,2.23.23,3.4.26l-.03.85.05.07ZM96.47,370.87c-.71-.13-1.29-.36-1.98-.61-.41-.14-.86-.34-1.31-.55l.39-.79c.45.21.86.34,1.31.55.62.3,1.27.48,1.91.66l-.27.81-.05-.07ZM90.07,368.22c-1.05-.62-2.04-1.3-2.95-2.02l.56-.7c.86.65,1.85,1.32,2.78,1.92l-.44.72.05.07Z"/>
      <path class="cls-4" d="M152.93,364.34c.99-.68,1.97-1.36,2.89-1.99l.49.7c-.92.63-1.9,1.31-2.89,1.99l-.49-.7ZM147.66,368.9l-.49-.7c.96-.56,1.95-1.24,2.86-1.87l.49.7c-.92.63-1.95,1.24-2.86,1.87ZM158.48,360.19c.94-.75,1.8-1.45,2.74-2.2l.49.7c-.87.7-1.76,1.52-2.74,2.2l-.49-.7ZM141.55,372.39l-.49-.7c1.08-.54,2.1-1.03,3.01-1.66l.49.7c-1.03.61-2.05,1.1-3.01,1.66ZM164.31,356.59l-.49-.7c.94-.75,1.75-1.52,2.69-2.27l.49.7c-.8.65-1.68,1.47-2.62,2.22l-.07.05ZM138.4,374.15c-1.01.49-2.02.98-3.11,1.52l-.34-.8c1.08-.54,2.09-1.03,3.04-1.47l.49.7-.07.05ZM169.5,352.08l-.49-.7c.89-.82,1.76-1.52,2.71-2.39l.49.7c-.82.77-1.76,1.52-2.57,2.29l-.14.1ZM128.96,378.37l-.34-.8c1.18-.4,2.19-.89,3.25-1.31l.34.8c-1.06.42-2.19.89-3.25,1.31ZM174.72,347.44l-.49-.7c.89-.82,1.71-1.59,2.67-2.46l.49.7c-.82.77-1.71,1.59-2.52,2.36l-.14.1ZM179.28,342.01c.82-.77,1.64-1.54,2.52-2.36l.63.61c-.82.77-1.71,1.59-2.52,2.36l-.63-.61ZM124.93,379.91c-.85.27-1.7.55-2.55.82l-.27-.85c.85-.27,1.7-.55,2.55-.82l.73-.3.27.85-.73.3ZM184.35,337.16c.82-.77,1.66-1.66,2.48-2.43l.63.61c-.82.77-1.66,1.66-2.48,2.43l-.63-.61ZM189.31,332.29c.77-.84,1.66-1.66,2.43-2.51l.63.61c-.84.89-1.61,1.73-2.43,2.5l-.63-.61ZM115.59,382.19l-.16-.83c1.21-.21,2.29-.44,3.38-.67l.16.83c-1.09.23-2.17.46-3.38.67ZM194.09,327.33c.82-.77,1.66-1.66,2.43-2.5l.63.61c-.84.89-1.66,1.66-2.43,2.5l-.63-.61ZM198.9,322.25c.77-.84,1.61-1.73,2.38-2.58l.63.61c-.84.89-1.61,1.73-2.38,2.58l-.63-.61ZM108.66,383.13l-.09-.88c1.25-.14,2.39-.3,3.46-.41l.08.88c-1.14.16-2.27.32-3.46.41ZM204.28,317.71l-.63-.61c.77-.84,1.54-1.68,2.31-2.53l.63.61c-.84.89-1.61,1.73-2.38,2.58l.07-.05ZM208.78,312.63l-.63-.61c.77-.84,1.49-1.75,2.26-2.6l.7.56c-.77.84-1.49,1.75-2.26,2.6l-.07.05ZM101.79,383.71l-.08-.88c1.18-.09,2.37-.18,3.43-.29l.09.88c-1.07.11-2.25.2-3.43.29ZM212.74,306.79c.72-.91,1.49-1.75,2.21-2.67l.7.56c-.72.91-1.44,1.83-2.21,2.67l-.7-.56ZM217.28,301.47c.72-.91,1.49-1.75,2.21-2.67l.7.56c-.72.91-1.49,1.75-2.21,2.67l-.7-.56ZM96.18,384.15c-.38.05-.88.09-1.37.12l-.09-.88c.5-.03.88-.09,1.37-.12l2.06-.17.09.88-2.06.17ZM221.66,296.07c.63-.74,1.28-1.61,1.91-2.35l.7.56c-.63.75-1.28,1.61-1.91,2.35l-.7-.56ZM87.78,384.02l.15-.83c1.02.13,2.16.27,3.4.26l-.03.85c-1.23.02-2.44-.08-3.51-.28ZM81.17,381.52l.44-.72c.93.6,1.89,1.09,2.99,1.47l-.27.81c-1.1-.39-2.17-.89-3.15-1.56ZM76.42,376.9c-.1-.14-.19-.28-.29-.42l.7-.49c.1.14-.24-.35.29.42.53.77,1.14,1.5,1.81,2.18l-.61.63c-.72-.75-1.33-1.47-1.91-2.32Z"/>
      <path class="cls-4" d="M156.16,375.5l-.49-.7c.63-.44,1.27-.87,1.9-1.31l.92-.63.49.7-.92.63c-.63.44-1.27.87-1.9,1.31ZM161.33,370.8c.99-.68,1.85-1.38,2.84-2.06l.49.7c-.87.7-1.85,1.38-2.84,2.06l-.49-.7ZM150.32,379.22l-.49-.7c1.03-.61,2-1.17,2.91-1.8l.49.7c-.96.56-2,1.17-2.91,1.8ZM166.96,366.61c.94-.75,1.8-1.45,2.74-2.2l.49.7c-.87.7-1.75,1.52-2.74,2.2l-.49-.7ZM144.27,382.66l-.49-.7c1.08-.54,2.05-1.1,3.01-1.66l.49.7c-1.03.61-2.05,1.1-3.01,1.66ZM172.66,362.98l-.49-.7c.96-.87,1.85-1.69,2.71-2.39l.49.7c-.75.72-1.61,1.42-2.57,2.29l-.14.1ZM141.12,384.42c-1.01.49-2.09,1.03-3.11,1.52l-.34-.8c1.08-.54,2.09-1.03,3.04-1.47l.49.7-.07.05ZM177.88,358.35l-.49-.7c.89-.82,1.71-1.59,2.66-2.46l.49.7c-.82.77-1.71,1.59-2.52,2.36l-.14.1ZM131.66,388.77l-.34-.8c1.06-.42,2.07-.91,3.2-1.38l.34.8c-1.08.54-2.14.96-3.2,1.38ZM182.44,352.92c.82-.77,1.71-1.59,2.52-2.36l.63.61c-.82.77-1.71,1.59-2.52,2.36l-.63-.61ZM128.36,390.01c-1.11.35-2.17.77-3.28,1.12l-.27-.85c1.11-.35,2.22-.7,3.28-1.12l.34.8-.07.05ZM187.51,348.07c.82-.77,1.66-1.66,2.48-2.43l.63.61c-.82.77-1.66,1.66-2.48,2.43l-.63-.61ZM192.46,343.2c.82-.77,1.71-1.59,2.47-2.43l.63.61c-.82.77-1.66,1.66-2.48,2.43l-.63-.61ZM121.87,392.19c-1.11.35-2.22.7-3.38.98l-.27-.85c1.04-.3,2.2-.58,3.31-.93l.27.85.07-.05ZM197.37,338.26c.84-.89,1.66-1.66,2.43-2.5l.63.61c-.77.84-1.66,1.66-2.43,2.51l-.63-.61ZM202.73,333.84l-.63-.61c.89-.82,1.66-1.66,2.43-2.5l.63.61c-.77.84-1.61,1.73-2.38,2.58l-.05-.07ZM111.66,394.56l-.16-.83c1.14-.16,2.22-.39,3.38-.67l.16.83c-1.09.23-2.24.51-3.38.67ZM206.96,328.22c.84-.89,1.61-1.73,2.38-2.58l.63.61c-.77.84-1.61,1.73-2.38,2.58l-.63-.61ZM212.29,323.61l-.63-.61c.77-.84,1.54-1.68,2.31-2.53l.63.61c-.77.84-1.61,1.73-2.38,2.58l.07-.05ZM104.7,395.62l-.09-.88c1.18-.09,2.32-.25,3.46-.41l.08.88c-1.14.16-2.27.32-3.46.41ZM216.23,317.88c.77-.84,1.49-1.76,2.26-2.6l.63.61c-.77.84-1.49,1.75-2.26,2.6l-.63-.61ZM220.75,312.68c.77-.84,1.49-1.75,2.26-2.6l.7.56c-.77.84-1.49,1.75-2.26,2.6l-.7-.56ZM97.79,396.13l-.08-.88c1.18-.09,2.37-.18,3.48-.22l.09.88c-1.07.11-2.25.2-3.48.22ZM225.34,307.44c.72-.91,1.49-1.76,2.21-2.67l.7.56c-.72.91-1.49,1.76-2.21,2.67l-.7-.56ZM229.77,302.11c.72-.91,1.49-1.76,2.21-2.67l.7.56c-.72.91-1.49,1.76-2.21,2.67l-.7-.56ZM91.45,396.13h-.62s.03-.84.03-.84h.62c.97.05,1.9.03,2.82.02l-.03.85c-.92.01-1.85.03-2.82-.03ZM234.19,296.77c.84-.89,1.56-1.8,2.21-2.67l.7.56c-.7.79-1.42,1.71-2.21,2.67l-.7-.56ZM238.56,291.37c.72-.91,1.44-1.83,2.09-2.69l.7.56c-.65.86-1.3,1.73-2.09,2.69l-.7-.56ZM87.23,396.03c-1.21-.1-2.3-.18-3.44-.33l.1-.9c1.14.15,2.23.23,3.44.32l-.03.85-.07.05ZM80.29,395c-1.26-.17-2.38-.44-3.43-.75l.27-.81c1.05.32,2.17.58,3.36.8l-.15.83-.05-.07ZM73.59,392.98c-1.15-.46-2.15-1.01-3.06-1.73l.56-.7c.86.65,1.87,1.2,2.94,1.71l-.39.79-.05-.07ZM67.88,388.91c-.84-.77-1.59-1.71-2.27-2.69l.7-.49c.68.99,1.38,1.85,2.15,2.67l-.61.63.02-.12Z"/>
      <path class="cls-4" d="M249.35,286.53l-1.63.5c-3.09-9.3-6.25-18.85-9.29-28.39l-1.67-5.29c-11.92-37.17-17.9-55.79-22.26-74.9-5.12-22.64-13.59-60.53-4.86-90.64,6.14-21.06,18.99-35.42,19.13-35.52,2.43-2.5,4.97-4.99,7.55-7.28,1.38-1.16,2.76-2.32,4.14-3.48l1.11,1.31c-1.36,1.04-2.74,2.2-4.07,3.43-2.62,2.22-5.1,4.66-7.45,7.11-.09.17-12.68,14.14-18.69,34.8-8.71,29.69-.25,67.27,4.85,89.72,4.31,19.05,10.29,37.67,22.28,74.79l1.67,5.29c3.04,9.53,6.16,19.02,9.29,28.39l-.09.17Z"/>
      <path class="cls-4" d="M500.98,165.25l-.21.15c-9.8,5.82-19.88,11.53-29.88,17.07-7.88,4.39-15.92,8.69-23.87,12.83-20.69,11.26-42.08,22.27-63.48,32.66-15.37,7.38-21.66,10.16-28.87,13.26-7.35,3.2-15.69,6.77-35.42,16.11-4.17,1.94-8,3.75-11.58,5.49-21.84,10.49-36.32,17.36-58.62,24.64-1.3.38-8.38,2.46-22.5,6.69-30.62,9.07-41.9,12.28-56.66,13.63-5.57.51-11.14.72-16.59.64l-.43-.02-.24-.35c-.51-.58-1.36-1.97-1.46-3.77-.09-1.18.2-2.11.52-2.85-2.71-12.67-5.61-25.31-8.56-37.72-5.1-21.1-8.97-42.83-12.79-63.88-2.78-15.63-5.67-31.72-9.05-47.46-.38-1.61-1.33-6.15-.3-11.73.07-.05.44-2.07,1.12-4.1,10-29.02,78.05-71.47,80.96-73.27,11.02-6.77,22.15-13.51,33.27-20.14l21.38-8.61c15.49-4.65,31.63-7.9,47.71-9.74,29.52-3.43,50.84-5.04,76.84,2.68,19.06,5.65,46.99,18.59,72.19,48.06,11.94,14,20.04,28.76,29.42,45.98,6.89,12.7,13.21,25.79,18.69,39.15l.19.28-1.85,4.39.07-.05ZM482.23,122.4c-9.33-17.14-17.39-31.84-29.22-45.69-24.89-29.16-52.6-41.94-71.37-47.48-25.71-7.61-46.79-5.95-76.17-2.62-16.01,1.79-32.03,5.06-47.38,9.61l-21.16,8.47c-11.09,6.51-22.23,13.25-33.13,20.04-.75.41-70.39,43.87-80.24,72.36-.59,1.86-1.01,3.81-1.01,3.81-.96,5.23-.02,9.46.29,11.12,3.31,15.79,6.19,31.87,9.05,47.46,3.82,21.05,7.69,42.78,12.74,63.81,2.97,12.59,5.85,25.36,8.54,38.14l.14.21-.11.29c-.28.5-.55,1.31-.49,2.31.04,1.11.5,1.94.84,2.43,5.34.06,10.67-.19,15.97-.63,14.54-1.2,25.83-4.41,56.33-13.5,14.16-4.16,21.25-6.24,22.5-6.69,22.23-7.23,36.71-14.09,58.48-24.54,3.7-1.72,7.53-3.53,11.58-5.5,19.8-9.39,28.14-12.96,35.49-16.16,7.21-3.1,13.48-5.76,28.8-13.21,21.4-10.39,42.71-21.35,63.41-32.61,7.95-4.13,16-8.43,23.8-12.78,9.92-5.49,19.87-11.1,29.59-16.88l1.33-3.2c-5.52-13.12-11.75-26.07-18.61-38.58Z"/>
      <path class="cls-4" d="M449.14,193.1l-1.6.69c-5.73-12.98-12.29-25.8-19.43-38.12-10.02-17.39-30.98-53.52-69.13-85.79-15.6-13.13-26.82-22.63-45.61-29.1-17.48-5.92-36.12-7.5-55.4-4.59l-.24-1.7c19.59-2.92,38.54-1.34,56.24,4.74,19.15,6.53,31,16.64,46.16,29.44,38.41,32.51,59.4,68.82,69.54,86.23,7.12,12.43,13.73,25.33,19.46,38.31l.02-.12Z"/>
      <path class="cls-4" d="M167.3,402.2c-14.99,10.34-29.61,17.61-44.62,22.35-5.81,1.82-23.41,7.32-43.93,2.56-12.85-2.98-32.95-11.34-32.49-21.21.1-2.56,1.61-5.05,4.49-7.35,22.3-20.98,45.26-41.91,68.18-62.28,11.02-9.78,22.37-19.68,33.55-29.37l1.11,1.31c-11.19,9.69-22.53,19.59-33.55,29.37-22.92,20.38-45.81,41.25-68.18,62.28-2.46,2.01-3.75,4.04-3.89,6.11-.39,8.16,18.38,16.41,31.16,19.43,20.11,4.62,37.39-.75,43.01-2.55,28.39-8.98,55.17-26.93,86.84-58.43,25.36-25.28,48.23-53.72,67.92-84.64l-.72-3.76,1.73-.36.9,4.47-.18.33c-19.74,31.17-42.77,59.82-68.34,85.24-15.13,15.11-29.2,27.09-42.85,36.51l-.12-.02Z"/>
      <path class="cls-4" d="M260.89,35.02l-1.64-.42c.33-1.48.29-2.59-.24-3.36-1.65-2.39-7.73-1.11-11.05-.06-6.02,1.97-11.19,6.37-12.52,9.26-.3.62-.41,1.22-.24,1.62.2.59,1.01.86,1.65,1.04l-.5,1.69c-1.45-.45-2.44-1.12-2.81-2.11-.27-.85-.27-1.89.31-3.02,1.74-3.8,7.72-8.23,13.55-10.17,2.43-.84,10.41-3.13,13.03.67.82,1.2.97,2.76.48,4.76l-.02.12Z"/>
      <path class="cls-3" d="M273.7,275.76c-21.04,7.14-44.3,13.93-69.77,19.76-19.19,4.4-37.38,7.7-54.55,10.2.58.84,1.46,2.11,3.04,3.2.72.44,1.34.74,1.91.97,18.24-2.61,37.85-6.26,58.69-11.29,24.17-5.76,46.12-12.49,65.72-19.46,0,0,.09-.17.04-.24.02-.43-.46-.82-.73-1.05-.98-.67-1.56-1.21-2.78-1.62-.33-.18-.86-.34-1.45-.45l-.12-.02Z"/>
      <path class="cls-4" d="M154.32,304.9c.62,0,1.16.03,1.52.1.36.07.64.18.64.18.12.02.29.11.45.21,1.51.83,2.52,2,3.7,3.26l.1.14c-.42.29-.94.44-1.51.52-.45.1-.88.08-1.18.09l-.1-.14-.24-.35c-1.18-1.26-2.24-2.5-3.8-3.4-.24-.04-.45-.21-.57-.23.4-.17.73-.3,1.11-.35l-.12-.02ZM154.34,304.48c-.5.03-1.02.18-1.58.57.36.07.52.16.52.16.17.09.41.14.5.28,1.67.92,2.72,2.28,3.99,3.69-.14.1-.21.14-.28.19.43.02,1.09.08,1.85-.03.57-.08,1.28-.26,1.84-.65-1.21-1.45-2.27-2.69-3.95-3.61-.17-.09-.41-.14-.57-.23,0,0-.98-.36-2.23-.23l-.1-.14Z"/>
      <path class="cls-4" d="M151.05,305.29c.62,0,1.16.03,1.52.1.36.07.64.18.64.18.17.09.33.18.5.28,1.44.88,2.45,2.05,3.63,3.31l.1.14c-.42.29-.94.44-1.51.52-.5.03-.92.01-1.23.02,0,0-.78-.08-1.72-.68-.84-.46-1.75-1.18-2.52-2-.56-.66-.63-.92-.68-1.29.07-.05.14-.1.21-.15.4-.17.73-.3,1.11-.35l-.05-.07ZM151.17,305.31c-.5.03-1.02.18-1.58.57-.16.22.03.5.03.5.22.47,1.36,2.28,3.97,3.5.17.09.41.14.57.23.43.02,1.09.08,1.85-.03.57-.08,1.28-.26,1.84-.64-1.28-1.4-2.32-2.76-3.99-3.69-.1-.14-.33-.18-.5-.28,0,0-1.03-.43-2.28-.3l.1.14Z"/>
      <path class="cls-4" d="M153.75,304.98l-.14.1c.24.04.41.14.57.23.17.09.45.21.55.35.38.25.77.51,1.01.86-.31-.3-.63-.61-.94-.91-.1-.14-.38-.25-.48-.4-.1-.14-.33-.18-.43-.32,0,0-.19.03-.14.1Z"/>
      <path class="cls-4" d="M155.79,304.62c-.05-.07-.31,0-.31,0l-.14.1c.24.04.52.16.69.25.17.09.38.25.55.35.38.26.77.51,1.01.86-.24-.35-.56-.65-.94-.91-.17-.09-.38-.26-.55-.35-.17-.09-.29-.11-.33-.18l.02-.12Z"/>
      <path class="cls-4" d="M154.86,304.63l-.28.19c.05.07.29.11.34.18.12.02.29.11.33.18.22.16.5.28.65.49-.22-.16-.43-.32-.58-.54-.1-.14-.22-.16-.38-.25l-.1-.14.02-.12Z"/>
      <path class="cls-4" d="M155.18,309.92c.1.14.24.04.24.04l.14-.1c-.17-.09-.31-.3-.41-.44-.22-.16-.31-.3-.41-.44-.27-.23-.65-.49-.91-.72.38.26.58.54.82.89.1.14.24.35.34.49l.24.35-.05-.07Z"/>
      <path class="cls-4" d="M156.01,310.07l.07-.05.21-.15c-.1-.14-.15-.21-.24-.35-.1-.14-.15-.21-.24-.35-.15-.21-.48-.4-.63-.61.15.21.34.49.49.7l.24.35.19.28-.09.17Z"/>
      <path class="cls-4" d="M156.93,309.75l.07-.05.21-.15c-.1-.14-.24-.35-.34-.49-.17-.09-.31-.3-.41-.44-.24-.35-.51-.58-.89-.84.31.3.51.59.75.94.1.14.24.35.34.49.1.14.19.28.29.42l-.02.12Z"/>
      <path class="cls-4" d="M158.78,309.41l.14-.1c-.17-.09-.31-.3-.41-.44-.22-.16-.31-.3-.41-.44-.27-.23-.65-.49-.91-.72.38.26.58.54.82.89.1.14.24.35.34.49l.24.35c.05.07.19-.03.19-.03Z"/>
      <path class="cls-4" d="M159.37,309.52l.07-.05.21-.14c-.1-.14-.15-.21-.24-.35-.1-.14-.15-.21-.24-.35-.14-.21-.48-.4-.63-.61.14.21.34.49.49.7l.24.35.19.28-.09.17Z"/>
      <path class="cls-4" d="M160.22,309.25l.07-.05.21-.14c-.1-.14-.24-.35-.34-.49-.17-.09-.31-.3-.41-.44-.24-.35-.56-.65-.89-.84.31.3.51.58.75.94.1.14.24.35.34.49.1.14.19.28.29.42l-.02.12Z"/>
      <path class="cls-4" d="M151.4,306.09c.31.3.63.61.87.96-.31-.3-.63-.61-1.01-.86-.22-.16-.38-.26-.55-.35-.22-.16-.45-.21-.62-.3.07-.05.14-.1.21-.15.17.09.29.11.38.26.1.14.38.25.48.4l.24.04Z"/>
      <path class="cls-4" d="M151.95,305.08c-.05-.07-.31,0-.31,0l-.14.1c.24.04.52.16.69.25.17.09.38.26.55.35.38.26.77.51,1.01.86-.24-.35-.56-.66-.94-.91-.17-.09-.38-.25-.55-.35-.17-.09-.29-.11-.33-.18l.02-.12Z"/>
      <path class="cls-4" d="M151.15,305.12l-.28.19c.12.02.29.11.33.18.12.02.29.11.34.19.22.16.5.28.65.49-.22-.16-.43-.32-.58-.54-.1-.14-.22-.16-.38-.26l-.1-.14.02-.12Z"/>
      <path class="cls-4" d="M164.5,308.37l-.1-.14-.24-.35c-1.11-1.31-2.24-2.5-3.8-3.4-.24-.04-.45-.21-.57-.23.4-.17.73-.3,1.11-.35.57-.08,1.11-.04,1.47.02.36.07.64.18.64.18.12.02.29.11.45.21.33.18.67.37.93.6,0,0,0-.31.07-.36l-.15-.21c-.22-.16-.38-.26-.6-.42-.24-.04-.45-.21-.57-.23.4-.17.73-.3,1.18-.4l-.1-.14c-.5.03-1.09.23-1.58.57-.36-.07-.95-.17-1.71-.07-.5.03-1.02.18-1.58.57-.36-.07-.95-.17-1.71-.07-.5.03-1.02.18-1.58.57-.41-.14-1-.24-1.76-.14l.03.19c.62-.01,1.16.03,1.52.09.36.07.64.18.64.18.12.02.29.11.45.21,1.51.83,2.52,2,3.7,3.26l.1.14c-.42.29-.94.44-1.51.52-.45.1-.88.09-1.19.09l-.1-.14-.24-.35c-.97-1.1-1.93-2.2-3.13-3.03v.31s.01.31.01.31c1.08.81,1.9,1.7,2.82,2.73l.1.14c-.42.29-.94.44-1.51.52-.31,0-.5.03-.88.09l.1.14c.24.04.55.04.81-.04.5-.03,1.06-.11,1.56-.45.43.02,1.09.08,1.85-.03.45-.1,1.02-.18,1.51-.52.43.02,1.09.08,1.85-.03.45-.1,1.02-.18,1.51-.52.24.04.55.04,1.04,0l-.1-.14c-.12-.02-.36-.07-.43-.02l-.33.12ZM164.14,308.31c-.42.29-.94.44-1.51.52-.45.1-.88.09-1.18.09l-.1-.14-.24-.35c-1.11-1.31-2.24-2.5-3.8-3.4-.24-.04-.45-.21-.57-.23.4-.17.73-.3,1.11-.35.57-.08,1.11-.04,1.47.02.36.07.64.18.64.18.12.02.29.11.45.21,1.51.83,2.52,2,3.7,3.26l.1.14-.07.05Z"/>
      <path class="cls-4" d="M157.32,304.29s-.19.03-.14.1l-.14.1c.17.09.41.14.57.23.17.09.45.21.55.35.38.26.77.51,1.01.86-.31-.3-.63-.61-.94-.91-.17-.09-.45-.21-.55-.35-.17-.09-.4-.14-.5-.28l.14-.1Z"/>
      <path class="cls-4" d="M158.88,304.14c-.12-.02-.38.05-.38.05l-.14.1c.24.04.52.16.69.25.24.04.45.21.62.3.45.21.84.46,1.08.81-.24-.35-.56-.65-.94-.91-.17-.09-.38-.26-.55-.35-.17-.09-.29-.11-.34-.19l-.05-.07Z"/>
      <path class="cls-4" d="M158.1,304.06l-.28.19c.05.07.29.11.34.18.12.02.29.11.33.18.22.16.5.28.65.49-.22-.16-.43-.32-.58-.54-.1-.14-.22-.16-.38-.25l-.1-.14.02-.12Z"/>
      <path class="cls-4" d="M160.61,303.79s-.19.03-.14.1l-.14.1c.17.09.41.14.57.23.17.09.45.21.55.35.33.18.72.44.96.79-.31-.3-.63-.61-.94-.91-.17-.09-.45-.21-.55-.35-.12-.02-.36-.07-.45-.21l.14-.1Z"/>
      <path class="cls-4" d="M162.17,303.64c-.17-.09-.38.05-.38.05l-.14.1c.24.04.52.16.69.25.24.04.45.21.62.3.38.26.84.46,1.08.81-.24-.35-.56-.66-.94-.91-.17-.09-.38-.25-.55-.35-.17-.09-.29-.11-.33-.18l-.05-.07Z"/>
      <path class="cls-4" d="M161.39,303.56l-.28.19c.05.07.29.11.33.18.12.02.29.11.33.18.22.16.5.28.65.49-.22-.16-.43-.33-.58-.54-.1-.14-.22-.16-.38-.26l-.1-.14.02-.12Z"/>
      <path class="cls-4" d="M162.14,308.86l.14-.1c-.17-.09-.31-.3-.41-.44-.22-.16-.31-.3-.41-.44-.26-.23-.58-.54-.91-.72.38.25.58.54.82.89.1.14.24.35.34.49l.24.35c.05.07.19-.03.19-.03Z"/>
      <path class="cls-4" d="M162.73,308.97l.07-.05.21-.15c-.1-.14-.15-.21-.24-.35-.1-.14-.15-.21-.24-.35-.15-.21-.48-.4-.63-.61.14.21.34.49.49.7l.24.35.19.28-.09.17Z"/>
      <path class="cls-4" d="M163.72,308.6l.07-.05.21-.15c-.1-.14-.24-.35-.34-.49-.17-.09-.31-.3-.41-.44-.31-.3-.63-.61-.96-.79.31.3.51.59.75.94.1.14.24.35.34.49.1.14.19.28.29.42l.05.07Z"/>
      <path class="cls-4" d="M158.78,309.41l.14-.1c-.17-.09-.31-.3-.41-.44-.22-.16-.31-.3-.41-.44-.27-.23-.65-.49-.91-.72.38.26.58.54.82.89.1.14.24.35.34.49l.24.35c.05.07.19-.03.19-.03Z"/>
      <path class="cls-4" d="M159.3,309.57l.07-.05.21-.15c-.1-.14-.15-.21-.24-.35-.1-.14-.15-.21-.24-.35-.15-.21-.48-.4-.63-.61.15.21.34.49.49.7l.24.35.19.28-.09.17Z"/>
      <path class="cls-4" d="M160.22,309.25l.07-.05.21-.14c-.1-.14-.24-.35-.34-.49-.17-.09-.31-.3-.41-.44-.24-.35-.51-.58-.89-.84.31.3.51.58.75.94.1.14.24.35.34.49.1.14.19.28.29.42l-.02.12Z"/>
      <path class="cls-4" d="M154.35,305.09c-.17-.09-.04.24-.04.24.17.09.4.14.5.28.38.26.77.51,1.01.86-.31-.3-.63-.61-.94-.91-.1-.14-.38-.26-.48-.4l-.05-.07Z"/>
      <path class="cls-4" d="M155.74,304.55c-.05-.07-.31,0-.31,0l-.14.1c.24.04.52.16.69.25.17.09.38.26.55.35.38.25.77.51,1.01.86-.24-.35-.56-.66-.94-.91-.17-.09-.38-.26-.55-.35-.17-.09-.29-.11-.33-.18l.02-.12Z"/>
      <path class="cls-4" d="M154.81,304.56l-.28.19c.05.07.29.11.33.18.12.02.29.11.34.18.22.16.5.28.65.49-.22-.16-.43-.33-.58-.54-.1-.14-.22-.16-.38-.26l-.1-.14.02-.12Z"/>
      <path class="cls-4" d="M155.42,309.96l.14-.1c-.17-.09-.31-.3-.41-.44-.22-.16-.31-.3-.41-.44-.09.17,0,.31.05.38l.15.21.24.35c.1.14.24.04.24.04Z"/>
      <path class="cls-4" d="M156.01,310.07l.07-.05.21-.15c-.1-.14-.15-.21-.24-.35-.1-.14-.15-.21-.24-.35-.15-.21-.48-.4-.63-.61.15.21.34.49.49.7l.24.35.19.28-.09.17Z"/>
      <path class="cls-4" d="M156.93,309.75l.07-.05.21-.15c-.1-.14-.24-.35-.34-.49-.17-.09-.31-.3-.41-.44-.24-.35-.51-.59-.89-.84.31.3.51.59.75.94.1.14.24.35.34.49.1.14.19.28.29.42l-.02.12Z"/>
      <path class="cls-4" d="M163.85,303.21s-.19.03-.14.1l-.14.1c.17.09.41.14.57.23.17.09.41.14.5.28.12.02.09-.17.09-.17-.12-.02-.29-.11-.38-.26-.12-.02-.36-.07-.45-.21l-.05-.07Z"/>
      <path class="cls-4" d="M165.5,308.31l.14-.1c-.17-.09-.31-.3-.41-.44-.22-.16-.31-.3-.41-.44-.26-.23-.58-.54-.91-.72.38.26.58.54.82.89.1.14.24.35.34.49l.24.35c.05.07.19-.03.19-.03Z"/>
      <path class="cls-4" d="M174.58,306.72l-.1-.14-.24-.35c-1.13-1.19-2.2-2.43-3.82-3.28-.29-.11-.45-.21-.57-.23.4-.17.73-.3,1.11-.35.57-.08,1.11-.04,1.47.02.36.07.64.18.64.18.12.02.29.11.45.21.29.11.62.3.89.53,0,0,0-.31.07-.36l-.15-.21c-.29-.11-.45-.21-.67-.37-.29-.11-.45-.21-.57-.23.4-.17.73-.3,1.18-.4l-.1-.14c-.45.1-1.04.3-1.53.64-.41-.14-1-.24-1.71-.07-.45.1-.97.25-1.53.64-.41-.14-.95-.17-1.71-.07-.5.03-1.02.18-1.58.57-.36-.07-.95-.18-1.71-.07l.03.19c.57-.08,1.11-.04,1.47.02.36.07.64.18.64.18.12.02.29.11.45.21,1.58.78,2.59,1.95,3.77,3.21l.1.14c-.47.22-.94.44-1.51.52-.38.05-.88.08-1.18.09l-.1-.14-.24-.35c-.97-1.1-1.93-2.2-3.2-2.99,0,0,0,.31-.07.36l.15.21c1.03.74,1.85,1.63,2.77,2.66l.1.14c-.42.29-.94.44-1.51.52-.31,0-.5.03-.88.09l.1.14c.24.04.55.04.81-.04.45-.1,1.02-.18,1.51-.52.48.09,1.09.08,1.85-.03.45-.1,1.02-.18,1.51-.52.43.02,1.04,0,1.8-.1.45-.1,1.02-.18,1.51-.52.31,0,.67.06,1.11-.04l-.1-.14c-.12-.02-.36-.07-.43-.02l-.28.19ZM174.17,306.59c-.47.22-.94.44-1.51.52-.38.05-.88.08-1.18.09l-.1-.14-.24-.35c-1.18-1.26-2.24-2.5-3.87-3.35-.29-.11-.45-.21-.57-.23.4-.17.73-.3,1.11-.35.57-.08,1.11-.04,1.47.02.36.07.64.18.64.18.12.02.29.11.45.21,1.58.78,2.59,1.95,3.77,3.21l.1.14-.07.05Z"/>
      <path class="cls-4" d="M167.33,302.68s-.19.03-.14.1l-.14.1c.17.09.41.14.57.23.17.09.38.26.55.35.33.18.72.44.96.79-.31-.3-.63-.61-.94-.91-.17-.09-.38-.26-.55-.35-.12-.02-.36-.07-.45-.21l.14-.1Z"/>
      <path class="cls-4" d="M168.84,302.47c-.17-.09-.38.05-.38.05l-.14.1c.24.04.52.16.69.25.24.04.45.21.62.3.38.26.84.46,1.08.81-.24-.35-.56-.66-.94-.91-.17-.09-.38-.26-.55-.35-.17-.09-.29-.11-.33-.18l-.05-.07Z"/>
      <path class="cls-4" d="M168.11,302.46l-.28.19c.05.07.29.11.33.18.12.02.29.11.33.18.22.16.5.28.65.49-.22-.16-.43-.32-.58-.54-.1-.14-.22-.16-.38-.26l-.1-.14.02-.12Z"/>
      <path class="cls-4" d="M170.5,302.16c-.05-.07-.19.03-.14.1l-.14.1c.17.09.41.14.57.23.17.09.38.26.55.35.33.18.79.39,1.03.74-.24-.35-.56-.66-.94-.91-.17-.09-.38-.26-.55-.35-.12-.02-.36-.07-.45-.21l.07-.05Z"/>
      <path class="cls-4" d="M172.13,301.97c-.17-.09-.38.05-.38.05l-.14.1c.17.09.52.16.69.25.24.04.45.21.62.3.38.25.84.46,1.08.81-.24-.35-.56-.65-.94-.91-.17-.09-.38-.26-.55-.35-.17-.09-.29-.11-.33-.18l-.05-.07Z"/>
      <path class="cls-4" d="M171.28,301.93l-.28.19c.05.07.29.11.34.18.12.02.29.11.33.18.29.11.57.23.72.44-.22-.16-.43-.32-.58-.54-.1-.14-.22-.16-.38-.25l-.1-.14-.05-.07Z"/>
      <path class="cls-4" d="M172.1,307.19c.05.07.19-.03.19-.03l.14-.1c-.22-.16-.31-.3-.41-.44-.22-.16-.38-.26-.48-.4-.26-.23-.58-.54-.91-.72.31.3.58.54.82.89.1.14.24.35.34.49l.24.35.07-.05Z"/>
      <path class="cls-4" d="M172.88,307.27l.07-.05.21-.15c-.1-.14-.15-.21-.24-.35-.17-.09-.22-.16-.31-.3-.14-.21-.48-.4-.63-.61.15.21.34.49.49.7l.24.35.19.28-.02.12Z"/>
      <path class="cls-4" d="M173.66,307.04l.07-.05.21-.15c-.1-.14-.24-.35-.34-.49-.17-.09-.31-.3-.41-.44-.31-.3-.63-.61-.96-.79.38.26.58.54.82.89.1.14.24.35.34.49.1.14.19.28.29.42l-.02.12Z"/>
      <path class="cls-4" d="M168.67,307.79c.05.07.19-.03.19-.03l.14-.1c-.17-.09-.31-.3-.41-.44-.22-.16-.38-.26-.48-.4-.26-.23-.58-.54-.91-.72.38.26.58.54.82.89.1.14.24.35.34.49l.24.35.07-.05Z"/>
      <path class="cls-4" d="M169.45,307.87l.07-.05.21-.15c-.1-.14-.15-.21-.24-.35-.17-.09-.22-.16-.31-.3-.15-.21-.48-.4-.63-.61.15.21.34.49.49.7l.24.35.19.28-.02.12Z"/>
      <path class="cls-4" d="M170.3,307.59l.07-.05.21-.14c-.1-.14-.24-.35-.34-.49-.17-.09-.31-.3-.41-.44-.31-.3-.63-.61-.96-.79.38.26.58.54.82.89.1.14.24.35.34.49.1.14.19.28.29.42l-.02.12Z"/>
      <path class="cls-4" d="M164.47,303.51c-.17-.09-.04.24-.04.24.17.09.41.14.5.28.33.18.72.44.96.79-.31-.3-.63-.61-.94-.91-.17-.09-.45-.21-.55-.35l.07-.05Z"/>
      <path class="cls-4" d="M165.6,303.04c-.17-.09-.38.05-.38.05l-.14.1c.24.04.52.16.69.25.24.04.45.21.62.3.38.26.84.46,1.08.81-.24-.35-.56-.66-.94-.91-.17-.09-.38-.26-.55-.35-.17-.09-.29-.11-.33-.18l-.05-.07Z"/>
      <path class="cls-4" d="M164.82,302.96l-.28.19c.05.07.29.11.33.18.12.02.29.11.33.18.22.16.5.28.65.49-.22-.16-.43-.33-.58-.54-.1-.14-.22-.16-.38-.26l-.1-.14.02-.12Z"/>
      <path class="cls-4" d="M165.36,308.41c.05.07.19-.03.19-.03l.14-.1c-.17-.09-.31-.3-.41-.44-.22-.16-.31-.3-.41-.44-.09.17,0,.31.05.38l.15.21.24.35.05.07Z"/>
      <path class="cls-4" d="M166.02,308.47l.07-.05.21-.14c-.1-.14-.15-.21-.24-.35-.1-.14-.15-.21-.24-.35-.15-.21-.48-.4-.63-.61.14.21.34.49.49.7l.24.35.19.28-.09.17Z"/>
      <path class="cls-4" d="M167.01,308.1l.07-.05.21-.15c-.1-.14-.24-.35-.34-.49-.17-.09-.31-.3-.41-.44-.31-.3-.63-.61-.96-.79.31.3.51.59.75.94.1.14.24.35.34.49.1.14.19.28.29.42l.05.07Z"/>
      <path class="cls-4" d="M173.81,301.54c-.05-.07-.19.03-.14.1l-.14.1c.17.09.41.14.57.23.17.09.41.14.5.28.12.02.09-.17.09-.17-.12-.02-.29-.11-.38-.26-.12-.02-.36-.07-.45-.21l-.05-.07Z"/>
      <path class="cls-4" d="M175.41,306.57c.05.07.19-.03.19-.03l.14-.1c-.22-.16-.31-.3-.41-.44-.22-.16-.38-.26-.48-.4-.26-.23-.58-.54-.91-.72.31.3.58.54.82.89.1.14.24.35.34.49l.24.35.07-.05Z"/>
      <path class="cls-4" d="M184.79,304.66l-.17-.09-.24-.35c-1.18-1.26-2.27-2.38-3.89-3.24-.29-.11-.45-.21-.57-.23.4-.17.73-.3,1.11-.35.64-.13,1.18-.09,1.54-.02.36.07.64.18.64.18.05.07.29.11.45.21.29.11.55.35.89.53,0,0,0-.31.07-.36l-.15-.21c-.17-.09-.45-.21-.62-.3-.22-.16-.45-.21-.57-.23.35-.24.68-.37,1.13-.47l-.1-.14c-.45.1-1.04.3-1.53.64-.48-.09-1.07-.2-1.78-.02-.45.1-.97.25-1.53.64-.48-.09-1.07-.2-1.78-.02-.45.1-.97.25-1.53.64-.41-.14-.95-.17-1.71-.07l.03.19c.57-.08,1.11-.04,1.47.02.36.07.64.18.64.18.12.02.29.11.45.21,1.51.83,2.59,1.95,3.77,3.21l.1.14c-.47.22-.94.44-1.51.52-.38.05-.88.09-1.18.09l-.1-.14-.24-.35c-1.04-1.05-2-2.15-3.27-2.94,0,0,0,.31-.07.36l.14.21c1.03.74,1.85,1.63,2.84,2.61l.1.14c-.47.22-.94.44-1.51.52-.31,0-.5.03-.88.08l.1.14c.24.04.55.04.81-.04.45-.1,1.02-.18,1.51-.52.43.02,1.04,0,1.8-.1.5-.03,1.02-.18,1.51-.52.43.02,1.04,0,1.8-.1.5-.03,1.02-.18,1.51-.52.31,0,.67.06,1.11-.04l-.1-.14c-.12-.02-.36-.07-.43-.02l-.07.05ZM184.2,304.55c-.47.22-.94.44-1.51.52-.38.05-.88.08-1.18.09l-.17-.09-.24-.35c-1.18-1.26-2.27-2.38-3.89-3.24-.29-.11-.45-.21-.57-.23.4-.17.73-.3,1.11-.35.57-.08,1.11-.04,1.47.02.36.07.64.18.64.18.12.02.29.11.45.21,1.58.78,2.66,1.9,3.84,3.17l.1.14-.05-.07Z"/>
      <path class="cls-4" d="M177.17,300.99c-.05-.07-.19.03-.14.1l-.14.1c.17.09.4.14.57.23.22.16.38.26.55.35.34.18.72.44,1.03.74-.24-.35-.56-.65-.94-.91-.17-.09-.38-.26-.55-.35-.12-.02-.29-.11-.45-.21l.07-.05Z"/>
      <path class="cls-4" d="M178.82,300.68c-.17-.09-.38.05-.38.05l-.14.1c.17.09.52.16.69.25.24.04.45.21.62.3.38.26.77.51,1.08.81-.24-.35-.55-.66-.94-.91-.17-.09-.38-.26-.55-.35-.17-.09-.29-.11-.33-.18l-.05-.07Z"/>
      <path class="cls-4" d="M177.95,300.76l-.28.19c.05.07.29.11.33.18.12.02.29.11.33.18.29.11.5.28.72.44-.15-.21-.43-.33-.58-.54-.1-.14-.22-.16-.38-.26l-.1-.14-.05-.07Z"/>
      <path class="cls-4" d="M180.36,300.35c-.05-.07-.19.03-.14.1l-.14.1c.17.09.41.14.57.23.22.16.38.26.55.35.33.18.72.44,1.03.74-.24-.35-.56-.66-.94-.91-.17-.09-.38-.26-.55-.35-.12-.02-.29-.11-.45-.21l.07-.05Z"/>
      <path class="cls-4" d="M181.73,300.23l-.14.1c.17.09.52.16.69.25.29.11.45.21.62.3.33.18.72.44,1.03.74-.24-.35-.56-.66-.94-.91-.17-.09-.38-.25-.55-.35-.17-.09-.29-.11-.33-.18-.17-.09-.38.05-.38.05Z"/>
      <path class="cls-4" d="M181.14,300.12l-.28.19c.05.07.29.11.33.18.12.02.29.11.33.18.29.11.5.28.72.44-.14-.21-.43-.33-.58-.54-.1-.14-.22-.16-.38-.26l-.1-.14-.05-.07Z"/>
      <path class="cls-4" d="M182.03,305.32c.05.07.19-.03.19-.03l.14-.1c-.22-.16-.31-.3-.41-.44-.22-.16-.38-.25-.48-.4-.26-.23-.58-.54-.91-.72.31.3.58.54.82.89.1.14.24.35.34.49l.24.35.07-.05Z"/>
      <path class="cls-4" d="M182.88,305.36l.07-.05.21-.15c-.1-.14-.14-.21-.24-.35-.17-.09-.22-.16-.31-.3-.26-.23-.55-.35-.7-.56.15.21.34.49.49.7l.24.35.19.28.05.07Z"/>
      <path class="cls-4" d="M183.66,305.13l.07-.05.21-.15c-.1-.14-.24-.35-.34-.49-.17-.09-.31-.3-.41-.44-.31-.3-.63-.61-.96-.79.38.25.58.54.82.89.1.14.24.35.34.49.1.14.19.28.29.42l-.02.12Z"/>
      <path class="cls-4" d="M178.72,305.94c.05.07.19-.03.19-.03l.14-.1c-.22-.16-.31-.3-.41-.44-.22-.16-.38-.25-.48-.4-.26-.23-.58-.54-.91-.72.31.3.58.54.82.89.1.14.24.35.34.49l.24.35.07-.05Z"/>
      <path class="cls-4" d="M179.5,306.03l.07-.05.21-.15c-.1-.14-.15-.21-.24-.35-.17-.09-.22-.16-.31-.3-.22-.16-.55-.35-.7-.56.14.21.34.49.49.7l.24.35.19.28.05.07Z"/>
      <path class="cls-4" d="M180.28,305.8l.07-.05.21-.15c-.1-.14-.24-.35-.34-.49-.17-.09-.31-.3-.41-.44-.31-.3-.63-.61-.96-.79.38.26.58.54.82.89.1.14.24.35.34.49.1.14.19.28.29.42l-.02.12Z"/>
      <path class="cls-4" d="M174.27,302.05c.17.09.4.14.5.28.33.18.79.39,1.03.74-.24-.35-.56-.65-.94-.91-.17-.09-.38-.25-.55-.35-.17-.09-.04.24-.04.24Z"/>
      <path class="cls-4" d="M175.63,301.32c-.17-.09-.38.05-.38.05l-.14.1c.17.09.52.16.69.25.24.04.45.21.62.3.38.26.84.46,1.08.81-.24-.35-.56-.66-.94-.91-.17-.09-.38-.25-.55-.35-.17-.09-.29-.11-.33-.18l-.05-.07Z"/>
      <path class="cls-4" d="M174.71,301.33l-.28.19c.05.07.29.11.33.18.12.02.29.11.33.18.29.11.5.28.72.44-.22-.16-.43-.33-.58-.54-.1-.14-.22-.16-.38-.26l-.1-.14-.05-.07Z"/>
      <path class="cls-4" d="M175.45,306.64c.05.07.19-.03.19-.03l.14-.1c-.22-.16-.31-.3-.41-.44-.22-.16-.38-.25-.48-.4-.09.17,0,.31.05.38l.15.21.24.35.12.02Z"/>
      <path class="cls-4" d="M176.12,306.7l.07-.05.21-.15c-.1-.14-.15-.21-.24-.35-.17-.09-.22-.16-.31-.3-.15-.21-.48-.4-.63-.61.14.21.34.49.49.7l.24.35.19.28-.02.12Z"/>
      <path class="cls-4" d="M176.97,306.42l.07-.05.21-.15c-.1-.14-.24-.35-.34-.49-.17-.09-.31-.3-.41-.44-.31-.3-.63-.61-.96-.79.38.26.58.54.82.89.1.14.24.35.34.49.1.14.19.28.29.42l-.02.12Z"/>
      <path class="cls-4" d="M183.81,299.63c-.05-.07-.19.03-.14.1l-.14.1c.17.09.41.14.57.23.17.09.4.14.5.28.05.07.02-.12.02-.12-.17-.09-.29-.11-.38-.25-.12-.02-.29-.11-.45-.21l.02-.12Z"/>
      <path class="cls-4" d="M185.34,304.7c.05.07.19-.03.19-.03l.14-.1c-.22-.16-.31-.3-.41-.44-.22-.16-.38-.25-.48-.4-.27-.23-.58-.54-.91-.72.31.3.58.54.82.89.1.14.24.35.34.49l.24.35.07-.05Z"/>
      <path class="cls-4" d="M194.75,302.68l-.17-.09-.19-.28c-1.25-1.21-2.39-2.41-3.96-3.19-.22-.16-.45-.21-.57-.23.35-.24.68-.37,1.06-.42.64-.13,1.18-.09,1.54-.02.36.07.64.18.64.18.12.02.36.07.52.16.33.18.55.35.89.53,0,0,0-.31.07-.36l-.15-.21c-.17-.09-.45-.21-.62-.3-.22-.16-.45-.21-.57-.23.35-.24.68-.37,1.13-.47l-.1-.14c-.5.03-1.04.3-1.53.64-.48-.09-1.07-.2-1.78-.02-.52.15-1.04.3-1.6.69-.48-.09-1.07-.2-1.78-.02-.45.1-.97.25-1.53.64-.48-.09-1.07-.2-1.78-.02l.1.14c.64-.13,1.18-.09,1.54-.02s.64.18.64.18c.05.07.29.11.45.21,1.46.76,2.54,1.88,3.8,3.09l.1.14c-.42.29-.89.51-1.46.59-.45.1-.95.13-1.25.14l-.17-.09-.24-.35c-1.09-1.12-2.07-2.1-3.34-2.89,0,0,0,.31-.07.36l.15.21c1.1.69,1.92,1.58,2.91,2.56l.1.14c-.47.22-.94.44-1.51.52-.26.08-.45.1-.83.16l.1.14c.19-.03.5-.03.76-.11.5-.03,1.02-.18,1.51-.52.43.02,1.09.08,1.8-.1.57-.08,1.09-.23,1.58-.57.43.02,1.09.08,1.8-.1.5-.03,1.02-.18,1.51-.52.31,0,.66.06,1.11-.04l-.1-.14c-.12-.02-.36-.07-.43-.02l-.07.05ZM194.13,302.69c-.42.29-.89.51-1.46.59-.45.1-.95.13-1.25.14l-.17-.09-.24-.35c-1.25-1.21-2.39-2.41-3.96-3.19-.22-.16-.45-.21-.57-.23.35-.24.68-.37,1.06-.42.64-.13,1.18-.09,1.54-.02.36.07.64.18.64.18.12.02.36.07.52.16,1.53.71,2.61,1.83,3.87,3.05l.1.14-.07.05Z"/>
      <path class="cls-4" d="M186.84,299.2l-.14.1c.17.09.41.14.57.23.29.11.45.21.62.3.33.18.72.44,1.03.74-.24-.35-.56-.65-.94-.91-.17-.09-.38-.26-.55-.35-.12-.02-.29-.11-.45-.21-.05-.07-.19.03-.14.1Z"/>
      <path class="cls-4" d="M188.83,298.77c-.17-.09-.38.05-.38.05l-.14.1c.17.09.52.16.69.25.29.11.45.21.62.3.33.18.72.44,1.03.74-.31-.3-.63-.61-1.01-.86-.17-.09-.38-.25-.55-.35-.17-.09-.29-.11-.33-.18l.07-.05Z"/>
      <path class="cls-4" d="M187.76,298.88l-.28.19c.12.02.36.07.41.14.12.02.29.11.34.19.29.11.5.28.72.44-.15-.21-.43-.32-.58-.54-.1-.14-.22-.16-.38-.26l-.1-.14-.12-.02Z"/>
      <path class="cls-4" d="M190.1,298.51l-.14.1c.17.09.41.14.57.23q.29.11.62.3c.33.18.72.44,1.03.74-.24-.35-.56-.65-.94-.91-.17-.09-.38-.26-.55-.35-.12-.02-.29-.11-.45-.21-.05-.07-.19.03-.14.1Z"/>
      <path class="cls-4" d="M192.09,298.07c-.17-.09-.38.05-.38.05l-.14.1c.17.09.52.16.69.25.29.11.45.21.62.3.33.18.72.44,1.03.74-.31-.3-.63-.61-1.01-.86-.17-.09-.38-.26-.55-.35-.17-.09-.29-.11-.33-.18l.07-.05Z"/>
      <path class="cls-4" d="M191.02,298.19l-.28.19c.12.02.36.07.4.14.12.02.29.11.33.18.29.11.5.28.72.44-.15-.21-.43-.33-.58-.54-.1-.14-.22-.16-.38-.26l-.1-.14-.12-.02Z"/>
      <path class="cls-4" d="M192.1,303.36c.05.07.19-.03.19-.03l.14-.1c-.29-.11-.38-.25-.48-.4-.22-.16-.38-.26-.48-.4-.26-.23-.58-.54-.91-.72.31.3.58.54.82.89.17.09.31.3.41.44l.24.35.07-.05Z"/>
      <path class="cls-4" d="M192.98,303.28c-.07.05.07-.05.07-.05l.21-.15c-.17-.09-.22-.16-.31-.3-.17-.09-.22-.16-.31-.3-.26-.23-.48-.4-.7-.56.15.21.34.49.49.7l.24.35.19.28.12.02Z"/>
      <path class="cls-4" d="M193.75,303.05l.07-.05.21-.15c-.17-.09-.31-.3-.41-.44-.1-.14-.31-.3-.41-.44-.31-.3-.63-.61-.96-.79.38.26.58.54.82.89.1.14.24.35.34.49l.29.42.05.07Z"/>
      <path class="cls-4" d="M188.84,304.05l.14-.1c-.22-.16-.31-.3-.41-.44-.22-.16-.38-.26-.48-.4-.26-.23-.58-.54-.91-.72.31.3.58.54.82.89.17.09.31.3.41.44l.24.35c.05.07.19-.03.19-.03Z"/>
      <path class="cls-4" d="M189.59,303.95c-.07.05.07-.05.07-.05l.21-.15c-.17-.09-.22-.16-.31-.3-.17-.09-.22-.16-.31-.3-.27-.23-.48-.4-.7-.56.15.21.34.49.49.7l.24.35.19.28.12.02Z"/>
      <path class="cls-4" d="M190.37,303.72l.07-.05.21-.15c-.17-.09-.31-.3-.41-.44-.17-.09-.31-.3-.41-.44-.31-.3-.63-.61-.96-.79.38.26.58.54.82.89.1.14.24.35.34.49.1.14.19.28.29.42l.05.07Z"/>
      <path class="cls-4" d="M184.2,300.19c.17.09.41.14.5.28.34.19.72.44,1.03.74-.24-.35-.56-.65-.94-.91-.17-.09-.38-.26-.55-.35-.17-.09-.04.24-.04.24Z"/>
      <path class="cls-4" d="M185.63,299.41c-.17-.09-.38.05-.38.05l-.14.1c.17.09.52.16.69.25.29.11.45.21.62.3.33.18.72.44,1.03.74-.31-.3-.63-.61-1.01-.86-.17-.09-.38-.25-.55-.35-.17-.09-.29-.11-.33-.18l.07-.05Z"/>
      <path class="cls-4" d="M184.64,299.47l-.28.19c.05.07.29.11.33.18.12.02.29.11.33.18.29.11.5.28.72.44-.15-.21-.43-.32-.58-.54-.1-.14-.22-.16-.38-.26l-.1-.14-.05-.07Z"/>
      <path class="cls-4" d="M185.39,304.77c.05.07.19-.03.19-.03l.14-.1c-.22-.16-.31-.3-.41-.44-.22-.16-.38-.26-.48-.4-.09.17,0,.31.05.38l.15.21.24.35.12.02Z"/>
      <path class="cls-4" d="M186.26,304.69c-.07.05.07-.05.07-.05l.21-.15c-.17-.09-.22-.16-.31-.3-.17-.09-.22-.16-.31-.3-.26-.23-.55-.35-.7-.56.15.21.34.49.49.7l.24.35.19.28.12.02Z"/>
      <path class="cls-4" d="M187.04,304.46l.07-.05.21-.15c-.17-.09-.31-.3-.41-.44-.17-.09-.31-.3-.41-.44-.31-.3-.63-.61-.96-.79.38.26.58.54.82.89.1.14.24.35.34.49.1.14.19.28.29.42l.05.07Z"/>
      <path class="cls-4" d="M193.81,297.71c-.05-.07-.19.03-.14.1l-.14.1c.17.09.41.14.57.23.12.02.36.07.45.21l-.03-.19c-.1-.14-.29-.11-.38-.26-.12-.02-.29-.11-.45-.21l.12.02Z"/>
      <path class="cls-4" d="M195.36,302.67c.05.07.19-.03.19-.03l.14-.1c-.22-.16-.38-.25-.48-.4-.22-.16-.38-.26-.48-.4-.26-.23-.58-.54-.91-.72.31.3.58.54.82.89.17.09.31.3.41.44l.24.35.07-.05Z"/>
      <path class="cls-4" d="M204.36,300.51l-.17-.09-.19-.28c-1.25-1.21-2.39-2.41-4.03-3.14-.22-.16-.45-.21-.57-.23.35-.24.68-.37,1.06-.42.59-.2,1.14-.16,1.49-.09.36.07.64.18.64.18.12.02.36.07.52.16.4.14.62.3.96.48,0,0,0-.31.07-.36l-.15-.21c-.17-.09-.45-.21-.62-.3-.22-.16-.45-.21-.57-.23.35-.24.68-.37,1.13-.47l-.1-.14c-.45.1-.99.37-1.48.71-.43-.02-1.02-.13-1.73.05-.57.08-1.04.3-1.6.69-.43-.02-1.02-.13-1.73.05-.57.08-1.04.3-1.6.69-.43-.02-1.02-.13-1.73.05l.1.14c.64-.13,1.18-.09,1.54-.02.36.07.64.18.64.18.12.02.36.07.52.16,1.53.71,2.61,1.83,3.87,3.05l.1.14c-.42.29-.89.51-1.46.59-.45.1-.95.13-1.25.14l-.17-.09-.24-.35c-1.04-1.05-2.02-2.03-3.29-2.82,0,0,0,.31-.07.36l.15.21c1.03.74,1.92,1.58,2.91,2.56l.1.14c-.42.29-.89.51-1.46.59-.33.12-.57.08-.9.2l.1.14c.26-.08.57-.08.83-.16.52-.15,1.04-.3,1.53-.64.36.07,1.09.08,1.8-.1.52-.15,1.04-.3,1.53-.64.36.07,1.09.08,1.8-.1.52-.15,1.04-.3,1.53-.64.26-.08.62,0,1.07-.11l-.1-.14c-.07.05-.31,0-.38.05l-.38.05ZM204.01,300.45c-.42.29-.94.44-1.46.59-.45.1-.95.13-1.25.14l-.17-.09-.19-.28c-1.18-1.26-2.39-2.41-3.96-3.19-.22-.16-.45-.21-.57-.23.35-.24.68-.37,1.06-.42.64-.13,1.18-.09,1.54-.02.36.07.64.18.64.18.12.02.36.07.52.16,1.53.71,2.61,1.83,3.87,3.05l.1.14-.12-.02Z"/>
      <path class="cls-4" d="M196.75,297.15l-.14.1c.17.09.41.14.57.23.29.11.45.21.62.3.33.18.72.44,1.03.74-.24-.35-.56-.66-.94-.91-.17-.09-.38-.25-.55-.35-.12-.02-.29-.11-.45-.21-.05-.07-.19.03-.14.1Z"/>
      <path class="cls-4" d="M198.73,296.71c-.17-.09-.38.05-.38.05l-.14.1c.17.09.52.16.69.25.29.11.45.21.62.3.33.18.72.44,1.03.74-.31-.3-.63-.61-1.01-.86-.17-.09-.38-.26-.55-.35-.17-.09-.29-.11-.33-.18l.07-.05Z"/>
      <path class="cls-4" d="M197.67,296.82l-.28.19c.12.02.36.07.41.14.12.02.29.11.33.18.29.11.5.28.72.44-.14-.21-.43-.32-.58-.54-.1-.14-.27-.23-.38-.25l-.1-.14-.12-.02Z"/>
      <path class="cls-4" d="M200.22,296.31c-.05-.07-.19.03-.14.1l-.14.1c.17.09.41.14.57.23.29.11.45.21.62.3.34.19.72.44,1.03.74-.31-.3-.63-.61-1.01-.86-.17-.09-.38-.26-.55-.35-.17-.09-.29-.11-.45-.21l.07-.05Z"/>
      <path class="cls-4" d="M201.92,296.07c-.17-.09-.38.05-.38.05l-.14.1c.17.09.52.16.69.25.17.09.4.14.57.23.41.14.79.39,1.1.69-.31-.3-.63-.61-1.01-.86-.17-.09-.38-.25-.55-.35-.17-.09-.29-.11-.33-.18l.05.07Z"/>
      <path class="cls-4" d="M200.88,296.06l-.28.19c.12.02.36.07.41.14.05.07.29.11.34.19.29.11.5.28.72.44-.14-.21-.43-.32-.58-.54-.1-.14-.27-.23-.38-.26l-.1-.14-.12-.02Z"/>
      <path class="cls-4" d="M202.08,301.26c.05.07.19-.03.19-.03l.14-.1c-.22-.16-.38-.26-.48-.4-.22-.16-.38-.26-.48-.4-.33-.18-.65-.49-.98-.67.33.18.6.42.84.77.1.14.31.3.41.44l.24.35.12.02Z"/>
      <path class="cls-4" d="M202.88,301.22l.14-.1.21-.14c-.17-.09-.22-.16-.31-.3-.17-.09-.22-.16-.31-.3-.27-.23-.48-.4-.7-.56.15.21.34.49.49.7l.24.35.19.28.05.07Z"/>
      <path class="cls-4" d="M203.75,300.83l.07-.05.21-.15c-.17-.09-.31-.3-.41-.44-.17-.09-.38-.26-.48-.4-.31-.3-.63-.61-.96-.79.31.3.58.54.82.89.1.14.24.35.34.49.1.14.19.28.29.42l.12.02Z"/>
      <path class="cls-4" d="M198.74,302c.05.07.19-.03.19-.03l.14-.1c-.22-.16-.38-.26-.48-.4-.22-.16-.38-.26-.48-.4-.33-.18-.65-.49-.98-.67.27.23.53.47.77.82.17.09.31.3.41.44l.24.35.19-.03Z"/>
      <path class="cls-4" d="M199.5,301.89c-.07.05.07-.05.07-.05l.21-.14c-.17-.09-.22-.16-.31-.3-.17-.09-.22-.16-.31-.3-.26-.23-.48-.4-.7-.56.15.21.34.49.49.7l.24.35.19.28.12.02Z"/>
      <path class="cls-4" d="M200.28,301.67l.07-.05.21-.14c-.17-.09-.31-.3-.41-.44-.1-.14-.31-.3-.41-.44-.31-.3-.63-.61-.96-.79.31.3.58.54.82.89.1.14.24.35.34.49.1.14.19.28.29.42l.05.07Z"/>
      <path class="cls-4" d="M194.08,298.26c.17.09.41.14.5.28.33.18.72.44,1.03.74-.24-.35-.56-.65-.94-.91-.17-.09-.38-.26-.55-.35-.24-.04-.04.24-.04.24Z"/>
      <path class="cls-4" d="M195.54,297.36c-.17-.09-.38.05-.38.05l-.14.1c.17.09.52.16.69.25.29.11.45.21.62.3.33.18.72.44,1.03.74-.31-.3-.63-.61-1.01-.86-.17-.09-.38-.25-.55-.35-.17-.09-.29-.11-.33-.18l.07-.05Z"/>
      <path class="cls-4" d="M194.47,297.47l-.28.19c.12.02.36.07.41.14.12.02.29.11.33.18.29.11.5.28.72.44-.15-.21-.43-.32-.58-.54-.1-.14-.26-.23-.38-.25l-.1-.14-.12-.02Z"/>
      <path class="cls-4" d="M195.48,302.69c.05.07.19-.03.19-.03l.14-.1c-.22-.16-.38-.26-.48-.4-.22-.16-.38-.25-.48-.4-.09.17,0,.31.05.38l.15.21.24.35.19-.03Z"/>
      <path class="cls-4" d="M196.24,302.59c-.07.05.07-.05.07-.05l.21-.14c-.17-.09-.22-.16-.31-.3-.17-.09-.22-.16-.31-.3-.27-.23-.48-.4-.7-.56.15.21.34.49.49.7l.24.35.19.28.12.02Z"/>
      <path class="cls-4" d="M197.02,302.36l.07-.05.21-.14c-.17-.09-.31-.3-.41-.44-.1-.14-.31-.3-.41-.44-.31-.3-.63-.61-.96-.79.38.25.58.54.82.89.1.14.24.35.34.49.1.14.19.28.29.42l.05.07Z"/>
      <path class="cls-4" d="M203.67,295.59c-.05-.07-.19.03-.14.1l-.14.1c.17.09.41.14.57.23.12.02.36.07.45.21l-.03-.19c-.1-.14-.29-.11-.38-.26-.12-.02-.29-.11-.45-.21l.12.02Z"/>
      <path class="cls-4" d="M205.34,300.57c.05.07.19-.03.19-.03l.14-.1c-.22-.16-.38-.26-.48-.4-.22-.16-.38-.26-.48-.4-.33-.18-.65-.49-.98-.67.33.18.6.42.84.77.1.14.31.3.41.44l.24.35.12.02Z"/>
      <path class="cls-4" d="M214.29,298.03l-.17-.09-.19-.28c-1.2-1.14-2.41-2.29-4.06-3.02-.22-.16-.45-.21-.57-.23.35-.24.68-.37,1.06-.42.59-.2,1.14-.16,1.49-.09.41.14.64.18.64.18.12.02.36.07.52.16.33.18.62.3.96.48,0,0-.08-.26,0-.31l-.15-.21c-.17-.09-.45-.21-.62-.3-.22-.16-.45-.21-.57-.23.4-.17.68-.37,1.13-.47l-.1-.14c-.5.03-.99.37-1.48.71-.36-.07-1.02-.13-1.73.05-.52.15-.99.37-1.55.76-.36-.07-1.02-.13-1.73.05-.52.15-.99.37-1.55.76-.43-.02-1.02-.13-1.73.05l.1.14c1.16-.28,2.14.09,2.14.09.12.02.36.07.52.16,1.53.71,2.69,1.78,3.94,3l.1.14c-.42.29-.94.44-1.46.59-.45.1-.95.13-1.25.14l-.17-.09-.19-.28c-1.04-1.05-2.02-2.03-3.36-2.77,0,0,0,.31-.07.36l.15.21c1.1.69,1.99,1.53,2.98,2.51l.1.14c-.42.29-.94.44-1.46.59-.33.12-.57.08-.9.2l.1.14c.26-.08.57-.08.83-.16.52-.15,1.04-.3,1.53-.64.31,0,1.04,0,1.75-.17.52-.15,1.04-.3,1.53-.64.31,0,1.04,0,1.75-.17.52-.15,1.04-.3,1.53-.64.31,0,.62,0,1.07-.11l-.1-.14c-.07.05-.31,0-.38.05l-.36-.07ZM214,298.23c-.42.29-.94.44-1.46.59-.45.1-.95.13-1.25.14l-.17-.09-.19-.28c-1.25-1.21-2.39-2.41-4.03-3.14-.22-.16-.45-.21-.57-.23.35-.24.68-.37,1.06-.42.59-.2,1.14-.16,1.49-.09.41.14.64.18.64.18.12.02.36.07.52.16,1.53.71,2.64,1.71,3.99,3.07l-.02.12Z"/>
      <path class="cls-4" d="M206.88,294.83c-.05-.07-.19.03-.14.1l-.14.1c.17.09.41.14.57.23.24.04.41.14.57.23.33.18.72.44,1.03.74-.31-.3-.63-.61-1.01-.86-.17-.09-.38-.25-.55-.35-.17-.09-.29-.11-.45-.21l.12.02Z"/>
      <path class="cls-4" d="M208.59,294.59c-.17-.09-.38.05-.38.05l-.14.1c.17.09.52.16.69.25.17.09.41.14.57.23.41.14.79.39,1.1.69-.31-.3-.63-.61-1.01-.86-.17-.09-.38-.26-.55-.35-.17-.09-.29-.11-.33-.18l.05.07Z"/>
      <path class="cls-4" d="M207.54,294.58l-.28.19c.12.02.36.07.41.14.05.07.29.11.33.18.24.04.45.21.67.37-.14-.21-.43-.32-.58-.54-.05-.07-.22-.16-.33-.18l-.1-.14-.12-.02Z"/>
      <path class="cls-4" d="M210.1,294.07c-.05-.07-.19.03-.14.1l-.14.1c.17.09.4.14.57.23.24.04.41.14.57.23.34.18.72.44,1.03.74-.31-.3-.63-.61-1.01-.86-.17-.09-.38-.26-.55-.35-.17-.09-.29-.11-.45-.21l.12.02Z"/>
      <path class="cls-4" d="M211.8,293.83c-.17-.09-.38.05-.38.05l-.14.1c.17.09.52.16.69.25.17.09.41.14.57.23.41.14.79.39,1.1.69-.31-.3-.63-.61-1.01-.86-.17-.09-.38-.25-.55-.35-.17-.09-.29-.11-.33-.18l.05.07Z"/>
      <path class="cls-4" d="M210.81,293.89l-.28.19c.12.02.36.07.41.14.05.07.29.11.33.18.17.09.45.21.67.37-.15-.21-.36-.37-.58-.54-.1-.14-.26-.23-.38-.26l-.1-.14-.07.05Z"/>
      <path class="cls-4" d="M211.95,299.02c.05.07.19-.03.19-.03l.14-.1c-.22-.16-.38-.26-.48-.4-.22-.16-.38-.26-.48-.4-.34-.18-.65-.49-.98-.67.26.23.6.42.84.77.1.14.31.3.41.44l.24.35.12.02Z"/>
      <path class="cls-4" d="M212.71,298.91l.14-.1.21-.15c-.17-.09-.22-.16-.31-.3-.17-.09-.22-.16-.31-.3-.27-.23-.48-.4-.7-.56.14.21.34.49.49.7l.24.35.19.28.05.07Z"/>
      <path class="cls-4" d="M213.7,298.54l.07-.05.21-.15c-.17-.09-.31-.3-.41-.44-.17-.09-.38-.26-.48-.4-.38-.26-.7-.56-1.03-.74.31.3.58.54.82.89.1.14.24.35.34.49.1.14.19.28.29.42l.19-.03Z"/>
      <path class="cls-4" d="M208.62,299.76c.05.07.19-.03.19-.03l.14-.1c-.22-.16-.38-.26-.48-.4-.22-.16-.38-.25-.48-.4-.33-.18-.65-.49-.98-.67.27.23.6.42.84.77.1.14.31.3.41.44l.24.35.12.02Z"/>
      <path class="cls-4" d="M209.43,299.72l.14-.1.21-.15c-.17-.09-.22-.16-.31-.3-.17-.09-.22-.16-.31-.3-.26-.23-.48-.4-.7-.56.15.21.34.49.49.7l.24.35.19.28.05.07Z"/>
      <path class="cls-4" d="M210.37,299.28l.07-.05.21-.15c-.17-.09-.31-.3-.41-.44-.17-.09-.38-.26-.48-.4-.38-.25-.7-.56-1.03-.74.31.3.58.54.82.89.1.14.24.35.34.49.1.14.19.28.29.42l.19-.03Z"/>
      <path class="cls-4" d="M204.08,295.73c-.24-.04-.04.24-.04.24.17.09.41.14.5.28.33.18.72.44,1.03.74-.31-.3-.63-.61-1.01-.86-.17-.09-.38-.26-.55-.35l.07-.05Z"/>
      <path class="cls-4" d="M205.37,295.35c-.17-.09-.38.05-.38.05l-.14.1c.17.09.52.16.69.25.17.09.41.14.57.23.41.14.79.39,1.1.69-.31-.3-.63-.61-1.01-.86-.17-.09-.38-.26-.55-.35-.17-.09-.29-.11-.33-.18l.05.07Z"/>
      <path class="cls-4" d="M204.28,295.27l-.28.19c.12.02.36.07.4.14.05.07.29.11.33.18.29.11.5.28.72.44-.14-.21-.43-.33-.58-.54-.1-.14-.26-.23-.38-.26l-.1-.14-.12-.02Z"/>
      <path class="cls-4" d="M205.41,300.52c.05.07.19-.03.19-.03l.14-.1c-.22-.16-.38-.26-.48-.4-.22-.16-.38-.26-.48-.4-.09.17,0,.31.05.38l.15.21.24.35.19-.03Z"/>
      <path class="cls-4" d="M206.09,300.46l.14-.1.21-.15c-.17-.09-.22-.16-.31-.3-.17-.09-.22-.16-.31-.3-.27-.23-.48-.4-.7-.56.15.21.34.49.49.7l.24.35.19.28.05.07Z"/>
      <path class="cls-4" d="M207.01,300.14l.07-.05.21-.15c-.17-.09-.31-.3-.41-.44-.17-.09-.38-.26-.48-.4-.31-.3-.63-.61-.96-.79.31.3.58.54.82.89.1.14.24.35.34.49.1.14.19.28.29.42l.12.02Z"/>
      <path class="cls-4" d="M213.5,293.28c-.05-.07-.19.03-.14.1l-.14.1c.17.09.41.14.57.23.12.02.29.11.45.21l-.03-.19c-.1-.14-.29-.11-.38-.26-.17-.09-.29-.11-.45-.21l.12.02Z"/>
      <path class="cls-4" d="M215.17,298.26c.05.07.19-.03.19-.03l.14-.1c-.22-.16-.38-.25-.48-.4-.22-.16-.38-.26-.48-.4-.33-.18-.65-.49-.98-.67.26.23.6.42.84.77.17.09.38.25.48.4l.24.35.05.07Z"/>
      <path class="cls-4" d="M223.86,295.8l-.17-.09-.19-.28c-1.2-1.14-2.41-2.29-4.06-3.02-.22-.16-.45-.21-.57-.23.33-.12.68-.37,1.06-.42.52-.15,1.14-.16,1.49-.09.36.07.59.11.59.11.12.02.36.07.52.16.33.18.62.3.96.48,0,0-.08-.26,0-.31l-.15-.21c-.17-.09-.45-.21-.62-.3-.22-.16-.45-.21-.57-.23.4-.17.73-.3,1.13-.47l-.1-.14c-.5.03-.99.37-1.48.71-.41-.14-1.02-.13-1.73.05-.57.08-.99.37-1.55.76-.4-.14-1.02-.13-1.73.05-.57.08-.99.37-1.55.76-.36-.07-1.02-.13-1.73.05l.1.14c.59-.2,1.14-.16,1.49-.09.41.14.64.18.64.18.12.02.36.07.52.16,1.65.73,2.68,1.78,4.01,2.95l.1.14c-.42.29-.94.44-1.46.59-.4.17-.83.16-1.21.21l-.17-.09-.19-.28c-1.11-1-2.09-1.98-3.43-2.72,0,0,.08.26,0,.31l.15.21c1.1.69,1.99,1.53,3.05,2.47l.1.14c-.42.29-.94.44-1.46.59-.33.12-.57.08-.9.2l.1.14c.26-.08.57-.08.83-.16.52-.15,1.04-.3,1.53-.64.43.02,1.11-.04,1.82-.22.52-.15,1.04-.3,1.53-.64.43.02,1.11-.04,1.82-.22.52-.15,1.04-.3,1.53-.64.31,0,.62-.01,1.07-.11l-.1-.14c-.07.05-.31,0-.38.05l-.64.13ZM223.81,295.73c-.42.29-.94.44-1.46.59-.45.1-.83.16-1.21.21l-.17-.09-.19-.28c-1.2-1.14-2.41-2.29-4.06-3.02-.22-.16-.45-.21-.57-.23.28-.19.68-.37,1.06-.42.52-.15,1.14-.16,1.49-.09.36.07.6.11.6.11.12.02.36.07.52.16,1.6.66,2.71,1.66,4.06,3.02l-.07.05Z"/>
      <path class="cls-4" d="M216.64,292.57c-.05-.07-.19.03-.14.1l-.14.1c.17.09.4.14.57.23.24.04.41.14.57.23.41.14.79.39,1.1.69-.31-.3-.63-.61-1.01-.86-.17-.09-.38-.26-.55-.35-.17-.09-.29-.11-.45-.21l.05.07Z"/>
      <path class="cls-4" d="M218.25,292.18c-.17-.09-.38.05-.38.05l-.14.1c.24.04.59.11.76.2.17.09.41.14.57.23.41.14.79.39,1.1.69-.24-.35-.63-.61-1.01-.86-.17-.09-.38-.26-.55-.35-.12-.02-.24-.04-.29-.11l-.07.05Z"/>
      <path class="cls-4" d="M217.47,292.1l-.28.19c.12.02.36.07.41.14.05.07.29.11.33.18.17.09.45.21.67.37-.22-.16-.43-.33-.65-.49-.12-.02-.29-.11-.41-.14l-.1-.14.02-.12Z"/>
      <path class="cls-4" d="M219.81,291.73c-.05-.07-.19.03-.14.1l-.14.1c.17.09.4.14.57.23.24.04.41.14.57.23.41.14.79.39,1.1.69-.31-.3-.63-.61-1.01-.86-.17-.09-.38-.25-.55-.35-.17-.09-.29-.11-.45-.21l.05.07Z"/>
      <path class="cls-4" d="M221.11,291.36l-.14.1c.24.04.59.11.76.2.17.09.41.14.57.23.41.14.79.39,1.1.69-.24-.35-.63-.61-1.01-.86-.24-.04-.45-.21-.62-.3-.12-.02-.24-.04-.29-.11-.17-.09-.38.05-.38.05Z"/>
      <path class="cls-4" d="M220.63,291.27l-.28.19c.12.02.36.07.41.14.05.07.29.11.34.19.17.09.45.21.67.37-.22-.16-.43-.33-.65-.49-.12-.02-.29-.11-.41-.14l-.1-.14.02-.12Z"/>
      <path class="cls-4" d="M221.81,296.59c.05.07.19-.03.19-.03l.14-.1c-.22-.16-.38-.26-.48-.4-.22-.16-.38-.25-.48-.4-.31-.3-.65-.49-.98-.67.27.23.65.49.84.77.17.09.38.26.48.4l.24.35.05.07Z"/>
      <path class="cls-4" d="M222.63,296.43l.14-.1.21-.14c-.17-.09-.22-.16-.31-.3-.17-.09-.22-.16-.31-.3-.27-.23-.48-.4-.7-.56.15.21.34.49.49.7l.24.35.19.28.05.07Z"/>
      <path class="cls-4" d="M223.55,296.11l.07-.05.21-.14c-.17-.09-.31-.3-.41-.44-.17-.09-.38-.26-.48-.4-.38-.26-.7-.56-1.03-.74.38.25.65.49.89.84.1.14.24.35.34.49.1.14.19.28.29.42l.12.02Z"/>
      <path class="cls-4" d="M218.45,297.45c.05.07.19-.03.19-.03l.14-.1c-.22-.16-.38-.26-.48-.4-.22-.16-.38-.26-.48-.4-.33-.18-.65-.49-.98-.67.26.23.6.42.84.77.17.09.38.26.48.4l.24.35.05.07Z"/>
      <path class="cls-4" d="M219.28,297.29l.14-.1.21-.15c-.17-.09-.22-.16-.31-.3-.17-.09-.22-.16-.31-.3-.26-.23-.48-.4-.7-.56.15.21.34.49.49.7l.24.35.19.28.05.07Z"/>
      <path class="cls-4" d="M220.2,296.97l.07-.05.21-.15c-.17-.09-.31-.3-.41-.44-.17-.09-.38-.26-.48-.4-.38-.25-.7-.56-1.03-.74.38.26.65.49.89.84.1.14.24.35.34.49.1.14.19.28.29.42l.12.02Z"/>
      <path class="cls-4" d="M213.91,293.42c-.24-.04-.04.24-.04.24.17.09.33.18.5.28.33.18.72.44,1.03.74-.31-.3-.63-.61-1.01-.86-.17-.09-.38-.25-.55-.35l.07-.05Z"/>
      <path class="cls-4" d="M215.16,292.97c-.17-.09-.38.05-.38.05l-.14.1c.17.09.52.16.69.25.17.09.41.14.57.23.4.14.79.39,1.1.69-.31-.3-.63-.61-1.01-.86-.17-.09-.38-.26-.55-.35-.17-.09-.29-.11-.34-.18l.05.07Z"/>
      <path class="cls-4" d="M214.18,292.91l-.28.19c.12.02.36.07.4.14.05.07.29.11.33.18.17.09.45.21.67.37-.15-.21-.36-.37-.58-.54-.12-.02-.29-.11-.41-.14l-.1-.14-.05-.07Z"/>
      <path class="cls-4" d="M215.24,298.21c.05.07.19-.03.19-.03l.14-.1c-.22-.16-.38-.25-.48-.4-.22-.16-.38-.26-.48-.4-.02.12.08.26.12.33l.15.21.24.35.12.02Z"/>
      <path class="cls-4" d="M215.99,298.1l.14-.1.21-.15c-.17-.09-.22-.16-.31-.3-.17-.09-.22-.16-.31-.3-.27-.23-.48-.4-.7-.56.15.21.34.49.49.7l.24.35.19.28.05.07Z"/>
      <path class="cls-4" d="M216.91,297.78l.07-.05.21-.15c-.17-.09-.31-.3-.41-.44-.17-.09-.38-.26-.48-.4-.38-.26-.7-.56-1.03-.74.38.26.65.49.89.84.1.14.24.35.34.49.1.14.19.28.29.42l.12.02Z"/>
      <path class="cls-4" d="M223.23,290.83c-.05-.07-.19.03-.14.1l-.14.1c.24.04.48.09.64.18.12.02.29.11.45.21l-.03-.19c-.1-.14-.29-.11-.38-.26-.17-.09-.29-.11-.45-.21l.05.07Z"/>
      <path class="cls-4" d="M225.02,295.83c.05.07.19-.03.19-.03l.14-.1c-.22-.16-.38-.26-.48-.4-.22-.16-.38-.26-.48-.4-.27-.23-.65-.49-.98-.67.26.23.6.42.84.77.17.09.38.26.48.4l.24.35.05.07Z"/>
      <path class="cls-4" d="M233.92,293.22s-.17-.09-.24-.04l-.19-.28c-1.25-1.21-2.48-2.24-4.13-2.97-.22-.16-.45-.21-.57-.23.33-.12.73-.3,1.06-.42.57-.08,1.14-.16,1.49-.09.36.07.59.11.59.11.12.02.36.07.52.16.33.18.62.3.96.48,0,0-.08-.26,0-.31l-.15-.21c-.17-.09-.38-.26-.62-.3-.22-.16-.45-.21-.57-.23.35-.24.68-.37,1.08-.54l-.1-.14c-.5.03-.99.37-1.48.71-.36-.07-.97-.06-1.68.12-.57.08-.99.37-1.55.76-.4-.14-1.02-.13-1.73.05-.57.08-.99.37-1.55.76-.41-.14-1.02-.13-1.73.05l.1.14c.52-.15,1.14-.16,1.49-.09.36.07.59.11.59.11.12.02.36.07.52.16,1.6.66,2.71,1.67,4.03,2.83l.1.14c-.42.29-.89.51-1.41.66-.45.1-.83.16-1.21.21,0,0-.1-.14-.17-.09l-.19-.28c-1.11-1-2.16-1.93-3.5-2.67,0,0,.08.26,0,.31l.15.21c1.05.62,1.94,1.46,3,2.4l.1.14c-.42.29-.89.51-1.41.66-.33.12-.64.13-.9.2l.1.14c.31,0,.57-.08.83-.16.52-.15,1.04-.3,1.53-.64.43.02,1.11-.04,1.82-.22.52-.15,1.04-.3,1.53-.64.43.02,1.11-.04,1.82-.22.52-.15.99-.37,1.48-.71.31,0,.62,0,1.07-.11l-.1-.14c-.07.05-.31,0-.38.05l-.4.17ZM233.58,293.04c-.42.29-.89.51-1.41.66-.45.1-.83.16-1.21.21,0,0-.1-.14-.17-.09l-.19-.28c-1.32-1.16-2.48-2.24-4.13-2.97-.22-.16-.45-.21-.57-.23.33-.12.68-.37,1.06-.42.52-.15,1.14-.16,1.49-.09.36.07.59.11.59.11.12.02.36.07.52.16,1.6.66,2.75,1.74,4.13,2.97l-.12-.02Z"/>
      <path class="cls-4" d="M226.33,290.04c-.05-.07-.19.03-.14.1l-.14.1c.24.04.48.09.64.18.17.09.41.14.57.23.41.14.79.39,1.1.69-.31-.3-.63-.61-1.01-.86-.17-.09-.38-.26-.55-.35-.17-.09-.29-.11-.45-.21l-.02.12Z"/>
      <path class="cls-4" d="M228.15,289.52c-.17-.09-.38.05-.38.05l-.14.1c.24.04.52.16.76.2.17.09.41.14.57.23.33.18.79.39,1.1.69-.31-.3-.7-.56-1.08-.81-.17-.09-.45-.21-.62-.3-.12-.02-.24-.04-.29-.11l.07-.05Z"/>
      <path class="cls-4" d="M227.27,289.6l-.28.19c.12.02.36.07.41.14.05.07.29.11.33.18.17.09.45.21.67.37-.22-.16-.43-.33-.65-.49-.12-.02-.22-.16-.4-.14l-.1-.14.02-.12Z"/>
      <path class="cls-4" d="M229.49,289.21c-.05-.07-.19.03-.14.1l-.14.1c.24.04.48.09.64.18.17.09.41.14.57.23.41.14.79.39,1.1.69-.31-.3-.63-.61-1.01-.86-.17-.09-.38-.26-.55-.35-.17-.09-.29-.11-.45-.21l-.02.12Z"/>
      <path class="cls-4" d="M231.36,288.75c-.17-.09-.38.05-.38.05l-.14.1c.19-.03.48.09.71.13.17.09.41.14.57.23.33.18.79.39,1.1.69-.31-.3-.7-.56-1.08-.81-.17-.09-.45-.21-.62-.3-.12-.02-.24-.04-.29-.11l.12.02Z"/>
      <path class="cls-4" d="M230.32,288.75l-.28.19c.12.02.36.07.41.14.12.02.36.07.41.14.17.09.45.21.67.37-.22-.16-.43-.33-.65-.49-.12-.02-.22-.16-.41-.14l-.1-.14-.05-.07Z"/>
      <path class="cls-4" d="M231.61,294.09c.05.07.19-.03.19-.03l.14-.1c-.22-.16-.38-.25-.48-.4-.22-.16-.38-.26-.48-.4-.31-.3-.65-.49-.98-.67.26.23.65.49.84.77.17.09.31.3.48.4l.24.35.05.07Z"/>
      <path class="cls-4" d="M232.51,293.88l.14-.1.21-.14c-.17-.09-.22-.16-.31-.3-.17-.09-.22-.16-.31-.3-.26-.23-.48-.4-.7-.56.15.21.34.49.49.7l.24.35.19.28.05.07Z"/>
      <path class="cls-4" d="M233.4,293.37l.07-.05.21-.15c-.17-.09-.38-.25-.48-.4-.17-.09-.38-.26-.48-.4-.27-.23-.65-.49-.98-.67.38.26.65.49.89.84.1.14.24.35.34.49.1.14.19.28.29.42l.14-.1Z"/>
      <path class="cls-4" d="M228.32,294.9c.05.07.19-.03.19-.03l.14-.1c-.22-.16-.38-.26-.48-.4-.22-.16-.38-.26-.48-.4-.31-.3-.65-.49-.98-.67.26.23.65.49.84.77.17.09.31.3.48.4l.24.35.05.07Z"/>
      <path class="cls-4" d="M229.15,294.74l.14-.1.21-.15c-.17-.09-.22-.16-.31-.3-.17-.09-.22-.16-.31-.3-.27-.23-.48-.4-.7-.56.15.21.34.49.49.7l.24.35.19.28.05.07Z"/>
      <path class="cls-4" d="M230.02,294.35l.07-.05.21-.15c-.1-.14-.31-.3-.41-.44-.17-.09-.38-.26-.48-.4-.31-.3-.7-.56-1.03-.74.38.26.65.49.89.84.1.14.24.35.34.49.1.14.19.28.29.42l.12.02Z"/>
      <path class="cls-4" d="M223.59,291.2c.17.09.33.18.5.28.4.14.79.39,1.1.69-.31-.3-.63-.61-1.01-.86-.17-.09-.38-.26-.55-.35-.24-.04-.04.24-.04.24Z"/>
      <path class="cls-4" d="M224.53,290.45l-.14.1c.24.04.59.11.76.2.17.09.4.14.57.23.41.14.79.39,1.1.69-.24-.35-.63-.61-1.01-.86-.24-.04-.45-.21-.62-.3-.12-.02-.24-.04-.29-.11-.17-.09-.38.05-.38.05Z"/>
      <path class="cls-4" d="M224.06,290.36l-.28.19c.12.02.36.07.4.14.05.07.29.11.33.18.17.09.45.21.67.37-.22-.16-.43-.32-.65-.49-.12-.02-.22-.16-.4-.14l-.1-.14.02-.12Z"/>
      <path class="cls-4" d="M225.02,295.83c.05.07.19-.03.19-.03l.14-.1c-.22-.16-.38-.26-.48-.4-.22-.16-.38-.26-.48-.4-.02.12.08.26.12.33l.22.16.24.35.05.07Z"/>
      <path class="cls-4" d="M225.92,295.62l.14-.1.21-.15c-.17-.09-.22-.16-.31-.3-.17-.09-.22-.16-.31-.3-.27-.23-.48-.4-.7-.56.15.21.34.49.49.7l.24.35.19.28.05.07Z"/>
      <path class="cls-4" d="M226.74,295.16l.07-.05.21-.15c-.1-.14-.31-.3-.41-.44-.17-.09-.38-.26-.48-.4-.26-.23-.65-.49-.98-.67.38.26.65.49.89.84.1.14.24.35.34.49.1.14.19.28.29.42l.07-.05Z"/>
      <path class="cls-4" d="M233.06,288.21c-.05-.07-.19.03-.14.1l-.14.1c.24.04.48.09.64.18.12.02.29.11.45.21l-.03-.19c-.17-.09-.36-.07-.45-.21-.17-.09-.29-.11-.45-.21l.12.02Z"/>
      <path class="cls-4" d="M234.87,293.09c.05.07.19-.03.19-.03l.14-.1c-.22-.16-.38-.25-.48-.4-.22-.16-.38-.26-.48-.4-.31-.3-.65-.49-.98-.67.27.23.65.49.84.77.17.09.31.3.48.4l.24.35.05.07Z"/>
      <path class="cls-4" d="M243.97,290.03s-.17-.09-.24-.04l-.19-.28c-1.32-1.17-2.48-2.24-4.2-2.92-.22-.16-.45-.21-.57-.23.28-.19.68-.37,1.01-.49.57-.08,1.07-.11,1.49-.09.36.07.59.11.59.11.12.02.29.11.52.16.33.18.62.3.96.48,0,0-.08-.26,0-.31l-.14-.21c-.17-.09-.38-.26-.62-.3-.29-.11-.52-.16-.64-.18.35-.24.68-.37,1.08-.54l-.1-.14c-.52.15-1.01.49-1.5.83-.43-.02-1.04,0-1.75.17-.52.15-.94.44-1.51.83-.43-.02-1.04,0-1.75.17-.52.15-.94.44-1.5.83-.36-.07-.97-.06-1.68.12l.1.14c.57-.08,1.07-.11,1.49-.09.36.07.59.11.59.11.12.02.29.11.52.16,1.6.66,2.75,1.74,4.13,2.97-.35.24-.89.51-1.41.66-.45.1-.83.16-1.21.21,0,0-.17-.09-.24-.04l-.19-.28c-1.11-1-2.17-1.93-3.51-2.67,0,0,.08.26,0,.31l.14.21c1.17.65,2.06,1.49,3.17,2.49-.42.29-.89.51-1.41.66-.33.12-.64.13-.9.2l.1.14c.31,0,.57-.08.83-.16.52-.15.99-.37,1.48-.71.43.02,1.11-.04,1.82-.22.52-.15.99-.37,1.48-.71.43.02,1.11-.04,1.82-.22.52-.15.99-.37,1.48-.71.24.04.62,0,1.07-.11l-.1-.14c-.12-.02-.31,0-.38.05l-.15-.21ZM243.62,290.27c-.35.24-.89.51-1.41.66-.45.1-.83.16-1.21.21,0,0-.17-.09-.24-.04l-.19-.28c-1.32-1.17-2.48-2.24-4.2-2.92-.22-.16-.45-.21-.57-.23.28-.19.68-.37,1.01-.49.57-.08,1.07-.11,1.49-.09.36.07.59.11.59.11.12.02.29.11.52.16,1.55.59,2.71,1.67,4.08,2.9l.12.02Z"/>
      <path class="cls-4" d="M236.03,287.4c-.05-.07-.19.03-.14.1l-.14.1c.24.04.48.09.64.18.17.09.41.14.57.23.41.14.79.39,1.1.69-.24-.35-.63-.61-1.01-.86-.17-.09-.38-.26-.55-.35-.17-.09-.29-.11-.45-.21l-.02.12Z"/>
      <path class="cls-4" d="M237.92,286.82c-.12-.02-.33.12-.33.12l-.14.1c.19-.03.48.09.71.13.17.09.4.14.57.23.33.18.79.39,1.1.69-.31-.3-.7-.56-1.08-.81-.17-.09-.45-.21-.62-.3-.12-.02-.24-.04-.29-.11l.07-.05Z"/>
      <path class="cls-4" d="M236.91,287.01l-.28.19c.12.02.36.07.4.14.12.02.36.07.41.14.17.09.45.21.67.37-.22-.16-.43-.33-.65-.49-.12-.02-.22-.16-.41-.14l-.1-.14-.05-.07Z"/>
      <path class="cls-4" d="M239.27,286.52c-.05-.07-.19.03-.14.1l-.14.1c.24.04.48.09.64.18.17.09.41.14.57.23.33.18.79.39,1.1.69-.24-.35-.63-.61-1.01-.86-.17-.09-.38-.26-.55-.35-.17-.09-.29-.11-.45-.21l-.02.12Z"/>
      <path class="cls-4" d="M241.09,285.99c-.12-.02-.33.12-.33.12l-.14.1c.19-.03.48.09.71.13.17.09.41.14.57.23.33.18.72.44,1.1.69-.31-.3-.7-.56-1.08-.81-.17-.09-.45-.21-.62-.3-.12-.02-.24-.04-.29-.11l.07-.05Z"/>
      <path class="cls-4" d="M240.09,286.05l-.28.19c.12.02.36.07.41.14.12.02.36.07.41.14.17.09.45.21.67.37-.22-.16-.43-.32-.65-.49-.12-.02-.22-.16-.41-.14l-.1-.14-.05-.07Z"/>
      <path class="cls-4" d="M241.46,291.35l.14-.1.14-.1c-.22-.16-.38-.26-.48-.4-.22-.16-.38-.26-.48-.4-.31-.3-.65-.49-.98-.67.26.23.65.49.84.77.1.14.31.3.48.4l.24.35.1.14Z"/>
      <path class="cls-4" d="M242.23,291.12l.14-.1.21-.14c-.17-.09-.22-.16-.31-.3-.17-.09-.29-.11-.38-.25-.26-.23-.48-.4-.7-.56.22.16.41.44.56.66l.24.35.19.28.05.07Z"/>
      <path class="cls-4" d="M243.06,290.66c.07-.05.14-.1.14-.1l.21-.15c-.17-.09-.38-.26-.48-.4-.17-.09-.38-.26-.48-.4-.26-.23-.65-.49-.98-.67.31.3.65.49.89.84.1.14.24.35.34.49.1.14.19.28.29.42l.07-.05Z"/>
      <path class="cls-4" d="M238.15,292.28l.14-.1.14-.1c-.22-.16-.38-.25-.48-.4-.22-.16-.38-.26-.48-.4-.31-.3-.65-.49-.98-.67.27.23.65.49.84.77.1.14.31.3.48.4l.24.35.1.14Z"/>
      <path class="cls-4" d="M238.93,292.05l.14-.1.21-.14c-.17-.09-.22-.16-.31-.3-.17-.09-.29-.11-.38-.26-.26-.23-.48-.4-.7-.56.22.16.41.44.56.66l.24.35.19.28.05.07Z"/>
      <path class="cls-4" d="M239.82,291.54l.07-.05.21-.15c-.17-.09-.38-.25-.48-.4-.17-.09-.38-.26-.48-.4-.26-.23-.65-.49-.98-.67.31.3.65.49.89.84.1.14.24.35.34.49.1.14.19.28.29.42l.14-.1Z"/>
      <path class="cls-4" d="M233.32,288.44c-.24-.04-.04.24-.04.24.24.04.41.14.57.23.41.14.79.39,1.1.69-.31-.3-.63-.61-1.01-.86-.17-.09-.38-.25-.55-.35l-.07.05Z"/>
      <path class="cls-4" d="M234.78,287.85c-.17-.09-.38.05-.38.05l-.14.1c.19-.03.48.09.71.13.17.09.4.14.57.23.33.18.79.39,1.1.69-.31-.3-.7-.56-1.08-.81-.17-.09-.45-.21-.62-.3-.12-.02-.24-.04-.29-.11l.12.02Z"/>
      <path class="cls-4" d="M233.74,287.84l-.28.19c.12.02.36.07.41.14.12.02.36.07.41.14.17.09.45.21.67.37-.22-.16-.43-.33-.65-.49-.12-.02-.22-.16-.41-.14l-.1-.14-.05-.07Z"/>
      <path class="cls-4" d="M234.87,293.09c.05.07.19-.03.19-.03l.14-.1c-.22-.16-.38-.26-.48-.4-.22-.16-.38-.25-.48-.4-.02.12.08.26.12.33l.22.16.24.35.05.07Z"/>
      <path class="cls-4" d="M235.69,292.93l.14-.1.21-.15c-.17-.09-.22-.16-.31-.3-.17-.09-.22-.16-.31-.3-.26-.23-.48-.4-.7-.56.14.21.34.49.49.7l.24.35.19.28.05.07Z"/>
      <path class="cls-4" d="M236.64,292.49l.07-.05.21-.15c-.17-.09-.38-.26-.48-.4-.17-.09-.38-.26-.48-.4-.27-.23-.65-.49-.98-.67.31.3.65.49.89.84.1.14.24.35.34.49.1.14.19.28.29.42l.14-.1Z"/>
      <path class="cls-4" d="M242.79,285.44c-.05-.07-.19.03-.14.1l-.14.1c.24.04.48.09.64.18.12.02.29.11.45.21l-.03-.19c-.17-.09-.36-.07-.45-.21-.17-.09-.29-.11-.45-.21l.12.02Z"/>
      <path class="cls-4" d="M244.69,290.47l.14-.1.14-.1c-.22-.16-.38-.26-.48-.4-.15-.21-.38-.26-.48-.4-.31-.3-.65-.49-.98-.67.26.23.65.49.84.77.1.14.31.3.48.4l.24.35.1.14Z"/>
      <path class="cls-4" d="M254.01,287.26s-.17-.09-.24-.04l-.19-.28c-1.27-1.09-2.55-2.19-4.22-2.8-.29-.11-.52-.16-.64-.18.28-.19.68-.37,1.01-.49.52-.15,1.02-.18,1.44-.17.43.02.67.06.67.06.12.02.29.11.52.16.33.18.62.3.96.48,0,0-.08-.26,0-.31l-.15-.21c-.17-.09-.38-.25-.62-.3-.29-.11-.52-.16-.64-.18.35-.24.68-.37,1.08-.54l-.1-.14c-.52.15-1.01.49-1.5.83-.43-.02-1.04,0-1.75.17-.52.15-.94.44-1.5.83-.43-.02-1.04,0-1.75.17-.52.15-.94.44-1.51.83-.43-.02-1.04,0-1.75.17l.1.14c.52-.15,1.02-.18,1.44-.16.36.07.59.11.59.11.12.02.29.11.52.16,1.6.66,2.78,1.62,4.15,2.85-.35.24-.89.51-1.41.66-.45.1-.83.16-1.21.21,0,0-.17-.09-.24-.04l-.19-.28c-1.11-1-2.16-1.93-3.53-2.55,0,0,.08.26,0,.31l.14.21c1.1.69,2.06,1.49,3.17,2.49-.35.24-.89.51-1.41.66-.33.12-.64.13-.9.2l.1.14c.31,0,.57-.08.83-.15.52-.15.99-.37,1.48-.71.38-.05,1.07-.11,1.77-.29.52-.15.99-.37,1.48-.71.38-.05,1.07-.11,1.77-.29.52-.15.99-.37,1.48-.71.24.04.62,0,1.07-.11l-.1-.14c-.12-.02-.31,0-.38.05l.14-.1ZM253.37,287.39c-.35.24-.89.51-1.41.66-.45.1-.83.16-1.21.21,0,0-.17-.09-.24-.04l-.19-.28c-1.27-1.09-2.55-2.19-4.22-2.8-.29-.11-.52-.16-.64-.18.28-.19.68-.37,1.01-.49.52-.15,1.02-.18,1.44-.17.43.02.67.06.67.06.12.02.29.11.52.16,1.55.59,2.78,1.62,4.15,2.85l.12.02Z"/>
      <path class="cls-4" d="M245.83,284.59c-.05-.07-.19.03-.14.1l-.14.1c.24.04.48.09.64.18.17.09.41.14.57.23.38.26.72.44,1.1.69-.31-.3-.7-.56-1.08-.81-.17-.09-.38-.26-.55-.35-.17-.09-.29-.11-.45-.21l.05.07Z"/>
      <path class="cls-4" d="M247.2,284.16l-.14.1c.19-.03.48.09.71.13.17.09.41.14.57.23.4.14.79.39,1.17.65-.31-.3-.7-.56-1.08-.81-.17-.09-.45-.21-.62-.3-.12-.02-.24-.04-.29-.11-.12-.02-.33.12-.33.12Z"/>
      <path class="cls-4" d="M246.58,284.17l-.28.19c.17.09.36.07.41.14.12.02.36.07.41.14.17.09.45.21.67.37-.22-.16-.43-.33-.65-.49-.12-.02-.22-.16-.41-.14l-.1-.14-.05-.07Z"/>
      <path class="cls-4" d="M249.09,283.59c-.05-.07-.19.03-.14.1l-.14.1c.24.04.48.09.64.18.17.09.41.14.57.23.38.26.72.44,1.1.69-.31-.3-.7-.56-1.08-.81-.24-.04-.45-.21-.62-.3-.17-.09-.29-.11-.45-.21l.12.02Z"/>
      <path class="cls-4" d="M250.32,283.26l-.14.1c.19-.03.48.09.71.13.17.09.4.14.57.23.41.14.79.39,1.17.65-.31-.3-.7-.56-1.08-.81-.17-.09-.45-.21-.62-.3-.12-.02-.24-.04-.29-.11-.12-.02-.33.12-.33.12Z"/>
      <path class="cls-4" d="M249.7,283.27l-.28.19c.17.09.36.07.41.14.12.02.36.07.41.14.24.04.52.16.74.32-.22-.16-.43-.33-.65-.49-.12-.02-.22-.16-.41-.14l-.1-.14-.12-.02Z"/>
      <path class="cls-4" d="M251.21,288.47l.14-.1.14-.1c-.22-.16-.38-.26-.48-.4-.15-.21-.38-.25-.48-.4-.38-.26-.72-.44-1.05-.62.33.18.72.44.91.72.15.21.31.3.48.4l.24.35.1.14Z"/>
      <path class="cls-4" d="M252.01,288.12l.14-.1.21-.15c-.17-.09-.22-.16-.31-.3-.17-.09-.29-.11-.38-.25-.29-.11-.5-.28-.72-.44.22.16.41.44.56.65l.24.35.19.28.07-.05Z"/>
      <path class="cls-4" d="M252.88,287.73c.07-.05.14-.1.14-.1l.21-.15c-.17-.09-.38-.25-.48-.4-.17-.09-.38-.25-.48-.4-.26-.23-.65-.49-.98-.67.31.3.65.49.89.84.1.14.24.35.34.49.1.14.19.28.29.42l.07-.05Z"/>
      <path class="cls-4" d="M247.95,289.47l.14-.1.14-.1c-.22-.16-.38-.26-.48-.4-.15-.21-.38-.26-.48-.4-.31-.3-.65-.49-.98-.67.27.23.65.49.84.77.1.14.31.3.48.4l.24.35.1.14Z"/>
      <path class="cls-4" d="M248.75,289.12l.14-.1.21-.15c-.17-.09-.22-.16-.31-.3-.17-.09-.29-.11-.38-.26-.29-.11-.5-.28-.72-.44.22.16.41.44.56.66l.24.35.19.28.07-.05Z"/>
      <path class="cls-4" d="M249.55,288.78c.07-.05.14-.1.14-.1l.21-.15c-.17-.09-.38-.26-.48-.4-.17-.09-.38-.26-.48-.4-.27-.23-.65-.49-.98-.67.31.3.65.49.89.84.1.14.24.35.34.49.1.14.19.28.29.42l.07-.05Z"/>
      <path class="cls-4" d="M243.08,285.87c.24.04.4.14.57.23.33.18.79.39,1.1.69-.31-.3-.7-.56-1.08-.81-.17-.09-.38-.25-.55-.35-.24-.04-.04.24-.04.24Z"/>
      <path class="cls-4" d="M244.46,285.01c-.12-.02-.33.12-.33.12l-.14.1c.19-.03.48.09.71.13.17.09.41.14.57.23.33.18.72.44,1.1.69-.31-.3-.7-.56-1.08-.81-.17-.09-.45-.21-.62-.3-.12-.02-.24-.04-.29-.11l.07-.05Z"/>
      <path class="cls-4" d="M243.47,285.08l-.28.19c.17.09.36.07.41.14.12.02.36.07.41.14.17.09.45.21.67.37-.22-.16-.43-.33-.65-.49-.12-.02-.22-.16-.41-.14l-.1-.14-.05-.07Z"/>
      <path class="cls-4" d="M244.69,290.47l.14-.1.14-.1c-.22-.16-.38-.25-.48-.4-.15-.21-.38-.26-.48-.4-.02.12.08.26.12.33l.22.16.24.35.1.14Z"/>
      <path class="cls-4" d="M245.61,290.14l.14-.1.21-.14c-.17-.09-.22-.16-.31-.3-.17-.09-.29-.11-.38-.26-.33-.18-.55-.35-.77-.51.22.16.41.44.56.66l.24.35.19.28.12.02Z"/>
      <path class="cls-4" d="M246.32,289.66c.07-.05.14-.1.14-.1l.21-.15c-.17-.09-.38-.25-.48-.4-.17-.09-.38-.26-.48-.4-.27-.23-.65-.49-.98-.67.31.3.65.49.89.84.1.14.24.35.34.49.1.14.19.28.29.42l.07-.05Z"/>
      <path class="cls-4" d="M252.35,282.59c-.05-.07-.19.03-.14.1l-.14.1c.24.04.48.09.64.18.19-.03.36.07.52.16l-.03-.19c-.17-.09-.36-.07-.45-.21-.17-.09-.29-.11-.45-.21l.05.07Z"/>
      <path class="cls-4" d="M254.41,287.4l.14-.1.14-.1c-.22-.16-.38-.26-.48-.4-.1-.14-.33-.18-.43-.33-.38-.25-.72-.44-1.05-.62.33.18.65.49.91.72.14.21.31.3.48.4l.24.35.05.07Z"/>
      <path class="cls-4" d="M263.66,284.24s-.17-.09-.24-.04l-.19-.28c-1.34-1.05-2.62-2.14-4.29-2.76-.29-.11-.52-.16-.64-.18.28-.19.68-.37,1.01-.49.59-.2,1.09-.23,1.51-.21.43.02.67.06.67.06.12.02.29.11.52.16.41.14.69.25,1.03.43v-.31s-.15-.21-.15-.21c-.24-.04-.45-.21-.69-.25-.29-.11-.52-.16-.64-.18.35-.24.68-.37,1.08-.54l-.1-.14c-.52.15-1.01.49-1.5.83-.43-.02-1.09-.08-1.75.17-.52.15-.94.44-1.51.83-.43-.02-1.04,0-1.75.17-.52.15-.94.44-1.5.83-.43-.02-1.04,0-1.75.17l.1.14c.59-.2,1.09-.23,1.51-.21.43.02.67.06.67.06.12.02.29.11.52.16,1.67.61,2.78,1.62,4.22,2.8-.37.36-.92.63-1.43.78-.45.1-.83.16-1.21.21,0,0-.17-.09-.24-.04l-.19-.28c-1.18-.95-2.24-1.89-3.6-2.5,0,0,.08.26,0,.31l.14.21c1.12.58,2.08,1.37,3.19,2.37-.42.29-.96.56-1.48.71-.33.12-.59.2-.85.27l.1.14c.26-.08.52-.15.78-.23.57-.08.99-.37,1.48-.71.43.02,1.07-.11,1.77-.29.57-.08.99-.37,1.48-.71.43.02,1.07-.11,1.77-.29.57-.08.99-.37,1.48-.71.24.04.62-.01,1.07-.11l-.1-.14c-.12-.02-.31,0-.38.05l.07-.05ZM262.93,284.23c-.37.36-.92.63-1.43.78-.4.17-.78.23-1.16.28,0,0-.17-.09-.24-.04l-.19-.28c-1.27-1.09-2.55-2.19-4.22-2.8-.29-.11-.52-.16-.64-.18.28-.19.68-.37,1.01-.49.59-.2,1.09-.23,1.51-.21.43.02.67.06.67.06.12.02.29.11.52.16,1.67.61,2.78,1.62,4.22,2.8l-.05-.07Z"/>
      <path class="cls-4" d="M255.6,281.59c-.05-.07-.19.03-.14.1l-.14.1c.24.04.48.09.64.18.17.09.41.14.57.23.38.26.72.44,1.1.69-.31-.3-.7-.56-1.08-.81-.17-.09-.45-.21-.62-.3-.17-.09-.29-.11-.45-.21l.12.02Z"/>
      <path class="cls-4" d="M256.83,281.26l-.14.1c.19-.03.48.09.71.13.17.09.41.14.57.23.41.14.79.39,1.17.65-.31-.3-.7-.56-1.08-.81-.22-.16-.45-.21-.62-.3-.05-.07-.24-.04-.29-.11-.12-.02-.33.12-.33.12Z"/>
      <path class="cls-4" d="M256.17,281.2l-.28.19c.17.09.36.07.41.14.12.02.36.07.41.14.24.04.52.16.74.32-.22-.16-.43-.33-.65-.49-.12-.02-.22-.16-.41-.14l-.1-.14-.12-.02Z"/>
      <path class="cls-4" d="M258.74,280.57c-.05-.07-.19.03-.14.1l-.14.1c.24.04.41.14.64.18.17.09.41.14.57.23.38.26.72.44,1.1.69-.31-.3-.7-.56-1.08-.81-.22-.16-.45-.21-.62-.3-.17-.09-.29-.11-.45-.21l.12.02Z"/>
      <path class="cls-4" d="M260.23,280.17c-.12-.02-.33.12-.33.12l-.14.1c.19-.03.48.09.71.13.24.04.48.09.64.18.41.14.79.39,1.17.65-.31-.3-.7-.56-1.08-.81-.22-.16-.45-.21-.62-.3-.05-.07-.24-.04-.29-.11l-.07.05Z"/>
      <path class="cls-4" d="M259.4,280.32l-.28.19c.12.02.31,0,.36.07.12.02.36.07.41.14.24.04.52.16.74.32-.22-.16-.43-.32-.65-.49-.12-.02-.22-.16-.41-.14l-.1-.14-.07.05Z"/>
      <path class="cls-4" d="M260.93,285.4l.14-.1.14-.1c-.22-.16-.38-.26-.48-.4-.1-.14-.33-.18-.43-.33-.38-.25-.72-.44-1.05-.62.34.19.65.49.91.72.15.21.31.3.48.4l.24.35.05.07Z"/>
      <path class="cls-4" d="M261.8,285l.14-.1.21-.15c-.17-.09-.29-.11-.38-.25-.17-.09-.29-.11-.38-.26-.22-.16-.5-.28-.72-.44.22.16.41.44.56.66l.24.35.19.28.14-.1Z"/>
      <path class="cls-4" d="M262.53,284.71c.07-.05.14-.1.14-.1l.21-.15c-.17-.09-.38-.26-.48-.4-.17-.09-.38-.26-.48-.4-.33-.18-.72-.44-1.05-.62.31.3.65.49.89.84.17.09.31.3.41.44.1.14.19.28.29.42l.07-.05Z"/>
      <path class="cls-4" d="M257.65,286.51l.14-.1.14-.1c-.22-.16-.38-.26-.48-.4-.15-.21-.38-.26-.48-.4-.38-.26-.72-.44-1.05-.62.33.18.65.49.91.72.15.21.31.3.48.4l.24.35.1.14Z"/>
      <path class="cls-4" d="M258.59,286.07l.14-.1.21-.14c-.17-.09-.29-.11-.38-.26-.17-.09-.29-.11-.38-.26-.22-.16-.5-.28-.72-.44.22.16.41.44.56.65l.24.35.19.28.14-.1Z"/>
      <path class="cls-4" d="M259.27,285.71c.07-.05.14-.1.14-.1l.21-.15c-.17-.09-.38-.26-.48-.4-.17-.09-.38-.26-.48-.4-.33-.18-.72-.44-1.05-.62.31.3.65.49.89.84.17.09.31.3.41.44.1.14.19.28.29.42l.07-.05Z"/>
      <path class="cls-4" d="M252.82,282.68c-.24-.04-.04.24-.04.24.24.04.41.14.57.23.38.25.72.44,1.1.69-.31-.3-.7-.56-1.08-.81-.24-.04-.45-.21-.62-.3l.07-.05Z"/>
      <path class="cls-4" d="M253.76,282.24l-.14.1c.19-.03.48.09.71.13.17.09.4.14.57.23.41.14.79.39,1.17.65-.31-.3-.7-.56-1.08-.81-.17-.09-.45-.21-.62-.3-.05-.07-.24-.04-.29-.11-.12-.02-.33.12-.33.12Z"/>
      <path class="cls-4" d="M253.03,282.22l-.28.19c.17.09.36.07.4.14.12.02.36.07.41.14.24.04.52.16.74.32-.22-.16-.43-.33-.65-.49-.12-.02-.22-.16-.41-.14l-.1-.14-.12-.02Z"/>
      <path class="cls-4" d="M254.41,287.4l.14-.1.14-.1c-.22-.16-.38-.26-.48-.4-.1-.14-.34-.19-.43-.33-.02.12.08.26.12.33l.22.16.24.35.05.07Z"/>
      <path class="cls-4" d="M255.33,287.07l.14-.1.21-.15c-.17-.09-.29-.11-.38-.26-.17-.09-.29-.11-.38-.25-.22-.16-.5-.28-.72-.44.22.16.41.44.56.65l.24.35.19.28.14-.1Z"/>
      <path class="cls-4" d="M256.14,286.73l.21-.15c-.17-.09-.38-.25-.48-.4-.17-.09-.38-.25-.48-.4-.26-.23-.65-.49-.98-.67.31.3.65.49.89.84.17.09.31.3.41.44.1.14.19.28.29.42.07-.05.14-.1.14-.1Z"/>
      <path class="cls-4" d="M261.86,279.67l-.14.1c.24.04.41.14.64.18.24.04.36.07.52.16l-.03-.19c-.17-.09-.36-.07-.45-.21-.17-.09-.29-.11-.45-.21,0,0-.14.1-.09.17Z"/>
      <path class="cls-4" d="M264.07,284.37l.14-.1.14-.1c-.22-.16-.38-.26-.48-.4-.1-.14-.33-.18-.43-.32-.38-.26-.72-.44-1.05-.62.33.18.65.49.91.72.15.21.31.3.48.4l.24.35.05.07Z"/>
      <path class="cls-4" d="M273.17,281.01s-.17-.09-.24-.04l-.19-.28c-1.39-1.12-2.69-2.09-4.36-2.71-.29-.11-.52-.16-.64-.18.28-.19.68-.37,1.01-.49.59-.2,1.09-.23,1.51-.21.43.02.67.06.67.06.12.02.29.11.52.16.41.14.69.25,1.03.43v-.31s-.15-.21-.15-.21c-.24-.04-.45-.21-.69-.25-.29-.11-.52-.16-.64-.18.35-.24.68-.37,1.08-.54l-.1-.14c-.47.22-.96.56-1.46.9-.43-.02-1.04,0-1.7.24-.47.22-.96.56-1.46.9-.48-.09-1.09-.08-1.75.17-.52.15-.94.44-1.51.83-.48-.09-1.09-.08-1.75.17l.1.14c.59-.2,1.09-.23,1.51-.21.43.02.67.06.67.06.12.02.29.11.52.16,1.67.61,2.85,1.57,4.29,2.75-.37.36-.91.63-1.43.78-.4.17-.78.23-1.16.28,0,0-.17-.09-.24-.04l-.19-.28c-1.11-1-2.23-1.89-3.6-2.51v.31s.15.21.15.21c1.19.53,2.15,1.32,3.26,2.32-.37.36-.91.63-1.43.78-.33.12-.59.2-.85.27l.1.14c.26-.08.57-.08.78-.23.52-.15.94-.44,1.43-.78.43.02,1.11-.04,1.77-.29.52-.15.94-.44,1.43-.78.43.02,1.11-.04,1.77-.29.52-.15.94-.44,1.43-.78.19-.03.57-.08,1.02-.18l-.1-.14c-.12-.02-.31,0-.38.05l-.05-.07ZM272.67,281.04c-.37.36-.92.63-1.43.78-.4.17-.78.23-1.16.28,0,0-.17-.09-.24-.04l-.19-.28c-1.32-1.17-2.62-2.14-4.29-2.76-.29-.11-.52-.16-.64-.18.28-.19.68-.37,1.01-.49,1.11-.35,2.11-.1,2.11-.1.12.02.29.11.52.16,1.62.54,2.8,1.5,4.24,2.68l.07-.05Z"/>
      <path class="cls-4" d="M264.97,278.45c-.05-.07-.14.1-.09.17l-.07.05c.24.04.4.14.64.18.17.09.41.14.57.23.45.21.79.39,1.17.65-.26-.23-.65-.49-1.03-.74-.22-.16-.45-.21-.62-.3-.17-.09-.29-.11-.45-.21l-.12-.02Z"/>
      <path class="cls-4" d="M266.77,278.05c-.12-.02-.33.12-.33.12l-.14.1c.19-.03.48.09.71.13.24.04.48.09.64.18.45.21.79.39,1.17.65-.31-.3-.7-.56-1.08-.81-.22-.16-.45-.21-.62-.3-.05-.07-.24-.04-.29-.11l-.07.05Z"/>
      <path class="cls-4" d="M265.82,278.18l-.28.19c.12.02.31,0,.36.07.12.02.36.07.41.14.24.04.52.16.74.32-.22-.16-.43-.32-.65-.49-.12-.02-.22-.16-.4-.14l-.1-.14-.07.05Z"/>
      <path class="cls-4" d="M268.16,277.5c-.05-.07-.14.1-.09.17l-.07.05c.19-.03.36.07.6.11.17.09.4.14.57.23.45.21.79.39,1.17.65-.31-.3-.65-.49-1.03-.74-.22-.16-.45-.21-.62-.3-.17-.09-.29-.11-.45-.21l-.07.05Z"/>
      <path class="cls-4" d="M269.86,276.96c-.12-.02-.33.12-.33.12l-.14.1c.19-.03.48.09.71.13.24.04.48.09.64.18.45.21.79.39,1.17.65-.31-.3-.7-.56-1.08-.81-.22-.16-.45-.21-.62-.3-.05-.07-.24-.04-.29-.11l-.07.05Z"/>
      <path class="cls-4" d="M268.96,277.16l-.28.19c.12.02.31,0,.36.07.12.02.36.07.41.14.24.04.52.16.74.32-.22-.16-.43-.33-.65-.49-.12-.02-.22-.16-.41-.14l-.1-.14-.07.05Z"/>
      <path class="cls-4" d="M270.65,282.02l.14-.1c-.15-.21-.38-.26-.48-.4-.17-.09-.41-.14-.5-.28-.33-.18-.67-.37-1-.55.33.18.65.49.91.72.22.16.38.26.55.35l.24.35.14-.1Z"/>
      <path class="cls-4" d="M271.4,281.91l.14-.1.21-.15c-.17-.09-.29-.11-.38-.26-.17-.09-.29-.11-.38-.26-.22-.16-.5-.28-.72-.44.29.11.48.4.63.61l.24.35.19.28.07-.05Z"/>
      <path class="cls-4" d="M272.3,281.4l.21-.15c-.17-.09-.38-.25-.48-.4-.1-.14-.38-.26-.48-.4-.33-.18-.72-.44-1.05-.62.38.26.72.44.96.79.17.09.31.3.41.44.1.14.19.28.29.42l.14-.1Z"/>
      <path class="cls-4" d="M267.35,283.26l.14-.1.14-.1c-.15-.21-.38-.26-.48-.4-.17-.09-.41-.14-.5-.28-.38-.26-.72-.44-1.05-.62.33.18.65.49.91.72.14.21.31.3.48.4l.24.35.12.02Z"/>
      <path class="cls-4" d="M268.27,282.93l.14-.1.21-.14c-.17-.09-.29-.11-.38-.26-.17-.09-.29-.11-.38-.26-.22-.16-.5-.28-.72-.44.22.16.41.44.56.66l.24.35.19.28.14-.1Z"/>
      <path class="cls-4" d="M269.02,282.52l.21-.15c-.17-.09-.38-.26-.48-.4-.1-.14-.38-.26-.48-.4-.33-.18-.72-.44-1.05-.62.38.26.72.44.96.79.17.09.31.3.41.44.1.14.19.28.29.42l.14-.1Z"/>
      <path class="cls-4" d="M262.36,279.94c.19-.03.36.07.52.16.45.21.79.39,1.17.65-.31-.3-.65-.49-1.03-.74-.22-.16-.45-.21-.62-.3-.24-.04-.04.24-.04.24Z"/>
      <path class="cls-4" d="M263.63,279.07c-.12-.02-.33.12-.33.12l-.14.1c.19-.03.48.09.71.13.24.04.48.09.64.18.45.21.79.39,1.17.65-.31-.3-.7-.56-1.08-.81-.22-.16-.45-.21-.62-.3-.05-.07-.24-.04-.29-.11l-.07.05Z"/>
      <path class="cls-4" d="M262.73,279.27l-.28.19c.12.02.31,0,.36.07.12.02.36.07.4.14.24.04.52.16.74.32-.22-.16-.43-.33-.65-.49-.12-.02-.22-.16-.41-.14l-.1-.14-.07.05Z"/>
      <path class="cls-4" d="M264,284.42l.14-.1.14-.1c-.22-.16-.38-.26-.48-.4-.1-.14-.33-.18-.43-.33-.02.12.08.26.12.33l.29.11.24.35-.02.12Z"/>
      <path class="cls-4" d="M265.06,284l.14-.1.21-.15c-.17-.09-.29-.11-.38-.26-.17-.09-.29-.11-.38-.26-.22-.16-.5-.28-.72-.44.22.16.41.44.56.65l.24.35.19.28.14-.1Z"/>
      <path class="cls-4" d="M265.81,283.59l.21-.14c-.17-.09-.38-.26-.48-.4-.1-.14-.38-.26-.48-.4-.33-.18-.72-.44-1.05-.62.38.26.72.44.96.79.17.09.31.3.41.44.1.14.19.28.29.42l.14-.1Z"/>
      <path class="cls-4" d="M271.48,276.46c-.05-.07-.14.1-.09.17l-.07.05c.19-.03.36.07.59.11.24.04.36.07.52.16l-.03-.19c-.17-.09-.29-.11-.45-.21-.17-.09-.29-.11-.45-.21l-.02.12Z"/>
      <path class="cls-4" d="M273.86,280.95l.14-.1c-.15-.21-.38-.26-.48-.4-.17-.09-.41-.14-.5-.28-.33-.18-.67-.37-1.01-.55.34.19.65.49.91.72.22.16.31.3.55.35l.24.35.14-.1Z"/>
      <path class="cls-4" d="M272.05,276.07c.59-.2,1.09-.23,1.51-.21.43.02.67.06.67.06.12.02.29.11.52.16,1.1.39,2.27,1.03,3.4,1.92.1.14.39.56.44.63.03.19-.02.43-.09.48-.28.19-.61.32-.94.44-.4.17-.78.23-1.16.28,0,0-.17-.09-.24-.04l-.19-.28c-1.34-1.05-2.64-2.02-4.31-2.64-.29-.11-.52-.16-.64-.18.28-.19.68-.37,1.01-.49l.02-.12ZM271.98,276.12c-.47.22-.96.56-1.46.9.31,0,.55.04.55.04.19-.03.43.02.59.11,1.79.64,3.06,1.73,4.58,2.87-.14.1-.21.15-.28.19.38-.05,1.07-.11,1.73-.36.4-.17.71-.18,1.13-.47.28-.19.22-.88-.21-1.21-1.39-1.12-2.45-1.74-3.78-2.17-.19.03-.41-.14-.59-.11,0,0-1.12-.27-2.3.13l.05.07Z"/>
      <path class="cls-4" d="M268.94,277.28c.59-.2,1.09-.23,1.51-.21.43.02.67.06.67.06.12.02.29.11.52.16,1.62.54,2.8,1.5,4.24,2.68-.42.29-.91.63-1.43.78-.4.17-.78.23-1.16.28,0,0-.17-.09-.24-.04l-.19-.28c-1.39-1.12-2.69-2.09-4.36-2.71-.29-.11-.52-.16-.64-.18.28-.19.68-.37,1.01-.49l.07-.05ZM268.86,277.02c-.47.22-.89.51-1.46.9.31,0,.55.04.55.04.12.02.36.07.52.16,1.86.59,3.13,1.68,4.58,2.87-.14.1-.21.15-.28.19.43.02,1.11-.04,1.77-.29.59-.2,1.2-.52,1.72-.98-1.51-1.14-2.79-2.23-4.57-2.87-.19.03-.41-.14-.59-.11,0,0-1.12-.27-2.3.13l.07-.05Z"/>
      <path class="cls-4" d="M271.44,276.38c-.05-.07-.14.1-.09.17l-.07.05c.19-.03.36.07.59.11.17.09.41.14.57.23.45.21.79.39,1.17.65-.31-.3-.65-.49-1.03-.74-.22-.16-.45-.21-.62-.3-.17-.09-.29-.11-.45-.21l-.07.05Z"/>
      <path class="cls-4" d="M272.92,275.98l-.14.1c.19-.03.48.09.71.13.24.04.48.09.64.18.45.21.79.39,1.17.64-.38-.25-.77-.51-1.15-.76-.22-.16-.45-.21-.62-.3-.05-.07-.24-.04-.29-.11-.12-.02-.33.12-.33.12Z"/>
      <path class="cls-4" d="M272.36,276.06l-.28.19c.12.02.31,0,.36.07.12.02.36.07.41.14.29.11.52.16.74.32-.22-.16-.43-.33-.65-.49-.12-.02-.22-.16-.41-.14l-.1-.14-.07.05Z"/>
      <path class="cls-4" d="M273.86,280.95l.14-.1c-.14-.21-.38-.25-.48-.4-.17-.09-.4-.14-.5-.28-.33-.18-.67-.37-1-.55.33.18.65.49.91.72.22.16.31.3.55.35l.24.35.14-.1Z"/>
      <path class="cls-4" d="M274.61,280.84l.14-.1.21-.15c-.17-.09-.29-.11-.38-.25-.17-.09-.29-.11-.38-.26-.22-.16-.5-.28-.72-.44.29.11.48.4.63.61l.24.35.19.28.07-.05Z"/>
      <path class="cls-4" d="M275.44,280.38l.21-.15c-.17-.09-.38-.26-.48-.4-.1-.14-.38-.26-.48-.4-.33-.18-.72-.44-1.05-.62.38.26.72.44.96.79.17.09.31.3.41.44.1.14.19.28.29.42l.14-.1Z"/>
      <path class="cls-4" d="M276.99,279.93l.14-.1c-.15-.21-.38-.26-.48-.4-.17-.09-.4-.14-.5-.28-.33-.18-.67-.37-1.01-.55.34.18.65.49.91.72.22.16.31.3.55.35l.24.35.14-.1Z"/>
      <path class="cls-4" d="M277.7,279.75l.14-.1.21-.15c-.17-.09-.29-.11-.38-.26-.17-.09-.29-.11-.38-.26-.22-.16-.5-.28-.72-.44.29.11.48.4.63.61l.24.35.19.28.07-.05Z"/>
      <path class="cls-4" d="M278.64,279.31l.21-.15c-.17-.09-.38-.26-.48-.4-.1-.14-.38-.26-.48-.4-.33-.18-.72-.44-1.05-.62.38.25.72.44.96.79.17.09.31.3.41.44.1.14.19.28.29.42l.14-.1Z"/>
      <path class="cls-4" d="M268.23,277.46c-.05-.07-.14.1-.09.17l-.07.05c.19-.03.36.07.59.11.17.09.12.02.57.23.45.21.79.39,1.17.65-.31-.3-.65-.49-1.03-.74-.22-.16-.45-.21-.62-.3-.17-.09-.29-.11-.45-.21l-.07.05Z"/>
      <path class="cls-4" d="M269.98,276.98c-.12-.02-.33.12-.33.12l-.14.1c.19-.03.48.09.71.13.24.04.48.09.64.18.45.21.79.39,1.17.65-.31-.3-.7-.56-1.08-.81-.22-.16-.45-.21-.62-.3-.05-.07-.24-.04-.29-.11l-.07.05Z"/>
      <path class="cls-4" d="M269.15,277.13l-.28.19c.12.02.31,0,.36.07.12.02.36.07.41.14.24.04.52.16.74.32-.22-.16-.43-.33-.65-.49-.12-.02-.22-.16-.41-.14l-.1-.14-.07.05Z"/>
    </g>
  </g>
</svg>