<svg width="448" height="456" viewBox="0 0 448 456" fill="none" xmlns="http://www.w3.org/2000/svg">
<g filter="url(#filter0_d_280_1417)">
<path d="M424.721 242.234C424.721 245.434 424.721 248.734 424.721 251.934C424.721 257.234 424.621 262.534 424.521 267.834C424.521 272.834 424.321 277.834 424.121 282.834C423.721 294.634 423.221 306.534 422.621 318.334C356.621 311.734 289.521 308.434 223.021 308.434H219.721C154.521 308.534 88.6214 311.834 23.7214 318.334L25.2214 228.134V227.834C26.3214 162.334 26.7214 140.234 38.8214 111.734C47.0214 92.5339 58.5214 75.3339 71.2214 63.4339C87.4214 48.2339 102.921 41.7339 119.421 34.9339C133.921 28.8339 146.121 25.1339 155.321 22.7339C155.821 22.6339 156.421 22.4339 156.921 22.3339C157.421 22.2339 158.021 22.0339 158.521 21.9339C158.821 21.9339 159.221 21.7339 159.521 21.7339C161.221 21.3339 162.821 20.9339 164.621 20.5339C164.921 20.5339 165.221 20.4339 165.521 20.3339C174.121 18.5339 198.721 13.7339 221.321 13.7339C221.721 21.2339 222.321 31.3339 222.721 38.5339L223.921 64.1339C225.021 49.7339 226.521 28.4339 227.421 13.8339C234.221 14.0339 240.421 14.5339 240.421 14.6339H240.721C240.921 14.6339 241.021 14.6339 241.221 14.6339C261.521 16.6339 281.321 20.3339 300.221 25.7339C302.221 26.3339 304.221 26.9339 306.121 27.6339H306.521C312.921 29.8339 319.521 32.0339 325.921 34.4339H326.021C326.121 34.4339 326.221 34.4339 326.421 34.5339C331.621 36.5339 336.821 38.7339 341.821 41.0339H342.121C342.121 41.1339 342.121 41.2339 342.121 41.2339C345.521 42.8339 348.821 44.6339 352.021 46.4339C360.321 51.2339 367.821 56.7339 375.021 63.3339C381.421 69.1339 397.521 85.5339 409.821 111.734C417.721 128.534 424.221 148.934 424.721 228.134C424.721 232.834 424.721 237.634 424.721 242.334V242.234Z" fill="#003F5E"/>
<path d="M84.8213 50.5336C79.9213 53.8336 75.0213 57.6336 70.2213 62.2336C61.1213 70.8336 48.0213 86.2336 37.4213 111.134C25.2213 139.934 24.8213 162.134 23.7213 227.834L22.2213 318.134C20.4213 317.634 18.6213 317.034 16.9213 316.234C13.5213 314.834 10.2213 312.934 7.32129 310.634C7.32129 288.334 7.72129 265.634 8.52129 243.134C11.4213 164.034 17.7213 144.834 20.4213 136.534C26.2213 118.634 35.0213 91.7336 59.5213 68.6336C59.8213 68.3336 60.2213 67.9336 60.7213 67.5336C67.9213 61.0336 75.4213 55.6336 84.9213 50.4336L84.8213 50.5336Z" fill="#003F5E"/>
<path d="M439.021 310.634C436.021 313.234 432.721 315.234 429.121 316.634C427.521 317.234 425.821 317.734 424.121 318.134C424.621 309.734 424.921 301.334 425.221 292.834C425.221 291.134 425.321 289.434 425.421 287.734C425.521 284.334 425.621 280.934 425.721 277.634C425.721 274.334 425.921 271.134 425.921 267.834C425.921 267.434 425.921 267.034 425.921 266.634C425.921 263.634 426.021 260.534 426.121 257.534C426.121 255.534 426.121 253.634 426.121 251.634C426.121 248.434 426.121 245.334 426.121 242.234C426.121 237.534 426.121 232.734 426.121 228.034C425.621 148.534 419.021 128.034 411.121 111.034C398.821 84.534 382.421 68.034 376.021 62.134C375.021 61.234 374.021 60.334 373.121 59.534C372.721 59.134 372.221 58.734 371.821 58.434C370.021 56.934 368.121 55.434 366.221 54.034C365.821 53.734 365.521 53.534 365.121 53.234C364.921 53.134 364.721 52.934 364.521 52.834C373.621 58.234 381.221 63.634 386.821 68.834C411.321 91.834 420.121 118.834 425.921 136.734C428.821 145.634 434.821 164.234 437.821 243.334C438.621 265.734 439.021 288.434 439.021 310.834V310.634Z" fill="#003F5E"/>
<path d="M439.221 426.534H439.121C437.521 430.134 435.221 432.834 432.321 434.634C421.521 441.434 404.821 433.434 399.321 430.834L398.721 430.534C367.021 415.534 282.821 398.534 240.621 396.234C176.821 392.834 80.8214 416.234 49.8214 430.134L49.4214 430.334C33.2214 437.634 21.4214 438.734 14.3214 433.634C11.0214 431.234 8.92137 427.634 7.52137 425.034C5.62137 417.634 6.12137 411.134 6.32137 408.134C7.52137 392.534 11.0214 359.534 17.2214 317.934C18.8214 318.634 20.5214 319.134 22.2214 319.634V319.934H23.1214C88.2214 313.434 154.421 310.134 219.821 309.934C287.321 309.834 355.521 313.134 422.621 319.834V320.034L423.421 319.834H424.121V319.734C425.721 319.434 427.421 318.934 428.921 318.334C430.821 326.834 432.721 335.534 434.421 344.034C441.521 379.834 444.821 406.934 439.321 426.434L439.221 426.534Z" fill="#003F5E"/>
<path d="M437.221 432.334C436.821 433.234 436.421 434.134 436.021 435.034C434.621 437.834 432.821 441.034 429.321 443.234C418.621 450.034 402.221 442.034 396.821 439.434L396.121 439.134C364.921 424.134 281.921 407.134 240.321 404.834C177.521 401.434 82.8213 424.834 52.3213 438.834L51.9213 439.034C36.0213 446.334 24.4213 447.434 17.3213 442.334C13.7213 439.734 11.7213 435.634 10.3213 432.934C10.1213 432.434 9.82134 431.934 9.62134 431.534C10.6213 432.734 11.8213 433.934 13.2213 434.934C20.8213 440.334 33.1213 439.334 49.8213 431.734L50.2213 431.534C81.1213 417.634 176.821 394.334 240.321 397.734C282.421 400.034 366.321 416.934 397.821 431.834L398.421 432.134C402.421 434.034 412.321 438.734 421.721 438.734C431.121 438.734 429.521 437.934 432.921 435.834C434.421 434.834 435.821 433.634 437.021 432.234L437.221 432.334Z" fill="#003F5E"/>
<path d="M240.521 12.634L240.721 12.934H240.421C240.421 12.934 231.821 12.234 223.821 12.034C218.521 12.034 213.121 12.034 207.721 12.534C207.721 12.534 207.621 12.534 207.521 12.534L207.721 12.234C206.221 11.334 205.521 10.434 205.421 9.63402C205.421 9.03402 205.821 8.23402 206.621 7.43402C209.621 4.53402 217.621 1.53402 225.521 1.83402C233.921 2.13402 242.821 6.13402 242.821 9.53402C242.821 10.534 242.021 11.634 240.521 12.734V12.634Z" fill="#003F5E"/>
<path d="M28.3213 320.734L27.3213 320.534L27.5213 319.034L28.5213 319.134L28.3213 320.734Z" fill="#1A1A1A"/>
<path d="M399.121 401.834H398.321V400.734H399.121C400.321 400.734 401.421 400.734 402.521 400.734V401.734C401.521 401.734 400.321 401.834 399.121 401.834ZM394.021 401.634C392.721 401.634 391.321 401.434 389.821 401.234V400.234C391.421 400.434 392.821 400.534 394.121 400.634V401.634H394.021ZM406.721 401.234L406.521 400.234C407.921 400.034 409.321 399.634 410.521 399.234L410.821 400.234C409.521 400.634 408.121 401.034 406.721 401.234ZM49.9213 400.834V399.834C51.2213 399.834 52.6213 399.834 54.1213 399.734V400.734C52.7213 400.734 51.3213 400.834 49.9213 400.834ZM385.721 400.734C384.321 400.534 383.021 400.334 381.521 400.134L381.721 399.134C383.121 399.334 384.521 399.534 385.821 399.734V400.734H385.721ZM45.7213 400.734C44.2213 400.634 42.8213 400.434 41.5213 400.234L41.7213 399.234C43.0213 399.434 44.4213 399.634 45.8213 399.734V400.734H45.7213ZM58.3213 400.434V399.434C59.6213 399.334 60.9213 399.134 62.4213 398.934V399.934C61.1213 400.134 59.7213 400.234 58.3213 400.434ZM377.321 399.434C375.921 399.234 374.621 398.934 373.221 398.634L373.421 397.634C374.821 397.934 376.221 398.134 377.521 398.434L377.321 399.434ZM66.7213 399.434L66.5213 398.434C67.8213 398.234 69.2213 398.034 70.6213 397.834L70.8213 398.834C69.4213 399.034 68.0213 399.234 66.6213 399.434H66.7213ZM37.3213 399.134C35.9213 398.634 34.6213 398.034 33.4213 397.234L34.0213 396.334C35.1213 397.034 36.3213 397.634 37.7213 398.134L37.3213 399.134ZM414.821 398.334L414.221 397.434C415.421 396.734 416.421 395.834 417.221 394.834L418.021 395.534C417.121 396.634 416.021 397.534 414.721 398.334H414.821ZM75.0213 398.034L74.8213 397.034C76.2213 396.834 77.5213 396.534 78.9213 396.234L79.1213 397.234C77.7213 397.534 76.3213 397.734 75.0213 398.034ZM369.121 397.934C367.721 397.634 366.421 397.434 365.021 397.134L365.221 396.134C366.621 396.434 368.021 396.734 369.321 396.934L369.121 397.934ZM83.3213 396.534L83.1213 395.534C84.5213 395.234 85.8213 395.034 87.2213 394.734L87.4213 395.734C86.0213 396.034 84.6213 396.334 83.3213 396.534ZM360.921 396.234C359.521 395.934 358.221 395.634 356.821 395.334L357.021 394.334C358.421 394.634 359.821 394.934 361.121 395.234L360.921 396.234ZM91.5213 394.834L91.3213 393.834C92.7213 393.534 94.0213 393.234 95.4213 392.934L95.6213 393.934C94.2213 394.234 92.8214 394.534 91.5213 394.834ZM352.621 394.434L348.521 393.534L348.721 392.534L352.821 393.434L352.621 394.434ZM30.2213 394.334C29.6213 393.634 29.1213 392.934 28.7213 392.134C28.4213 391.634 28.2213 391.134 28.0213 390.634L29.0213 390.234C29.2213 390.734 29.4213 391.234 29.7213 391.634C30.1213 392.334 30.6213 393.034 31.1213 393.734L30.3213 394.434L30.2213 394.334ZM99.7213 393.134L99.5213 392.134L103.621 391.234L103.821 392.234L99.7213 393.134ZM344.421 392.634L340.321 391.734L340.521 390.734L344.621 391.634L344.421 392.634ZM420.321 391.834L419.321 391.434C419.821 390.334 420.221 389.034 420.621 387.534L421.621 387.734C421.221 389.334 420.821 390.634 420.321 391.834ZM107.921 391.434L107.721 390.434L111.821 389.534L112.021 390.534L107.921 391.434ZM336.221 390.834L332.121 389.934L332.321 388.934L336.421 389.834L336.221 390.834ZM116.121 389.634L115.921 388.634C117.321 388.334 118.621 388.034 120.021 387.834L120.221 388.834C118.821 389.134 117.421 389.434 116.121 389.634ZM328.021 389.034C326.621 388.734 325.321 388.434 323.921 388.134L324.121 387.134C325.521 387.434 326.921 387.734 328.221 388.034L328.021 389.034ZM124.421 388.034L124.221 387.034C125.621 386.734 126.921 386.534 128.321 386.234L128.521 387.234C127.121 387.534 125.721 387.734 124.421 388.034ZM319.821 387.334C318.421 387.034 317.121 386.734 315.721 386.534L315.921 385.534C317.321 385.834 318.721 386.134 320.021 386.334L319.821 387.334ZM26.6213 386.534C26.3213 385.234 26.1213 383.934 25.9213 382.334H26.9213C27.1213 383.734 27.3213 385.034 27.6213 386.234L26.6213 386.434V386.534ZM132.621 386.334L132.421 385.334C133.821 385.034 135.121 384.834 136.521 384.534L136.721 385.534C135.321 385.834 133.921 386.034 132.621 386.334ZM311.621 385.734C310.221 385.434 308.921 385.234 307.521 384.934L307.721 383.934C309.121 384.234 310.521 384.434 311.821 384.734L311.621 385.734ZM140.921 384.834L140.721 383.834C142.121 383.634 143.421 383.334 144.821 383.134L145.021 384.134C143.621 384.334 142.221 384.634 140.921 384.834ZM303.321 384.134C301.921 383.934 300.621 383.634 299.221 383.434L299.421 382.434C300.821 382.634 302.221 382.934 303.521 383.134L303.321 384.134ZM422.421 383.534H421.421C421.621 382.134 421.721 380.734 421.821 379.234H422.821C422.721 380.834 422.521 382.234 422.421 383.534ZM149.121 383.434L148.921 382.434C150.321 382.234 151.721 381.934 153.021 381.734L153.221 382.734C151.821 382.934 150.421 383.234 149.121 383.434ZM295.121 382.734C293.721 382.534 292.321 382.234 291.021 382.034L291.221 381.034C292.621 381.234 294.021 381.434 295.321 381.734L295.121 382.734ZM157.421 382.034L157.221 381.034C158.621 380.834 160.021 380.634 161.421 380.434L161.621 381.434C160.221 381.634 158.821 381.834 157.521 382.034H157.421ZM286.821 381.434C285.421 381.234 284.021 381.034 282.721 380.834V379.834C284.221 380.034 285.621 380.234 287.021 380.434L286.821 381.434ZM165.721 380.834V379.834C166.921 379.634 168.321 379.434 169.721 379.234V380.234C168.421 380.434 167.121 380.634 165.721 380.834ZM278.521 380.234C277.121 380.034 275.721 379.834 274.321 379.734V378.734C275.821 378.934 277.221 379.134 278.621 379.234V380.234H278.521ZM174.021 379.734V378.734C175.321 378.534 176.621 378.434 178.021 378.234V379.234C176.721 379.434 175.321 379.534 174.021 379.734ZM270.221 379.134C268.821 378.934 267.421 378.834 266.021 378.634V377.634C267.521 377.734 268.921 377.934 270.321 378.134V379.134H270.221ZM182.321 378.734V377.734C183.621 377.634 185.021 377.434 186.421 377.334V378.334C185.121 378.434 183.721 378.634 182.321 378.734ZM261.821 378.234C260.421 378.134 259.021 377.934 257.621 377.834V376.834C259.121 376.934 260.521 377.134 261.921 377.234V378.234H261.821ZM25.5213 378.234C25.5213 376.934 25.3213 375.534 25.3213 374.034H26.3213C26.3213 375.534 26.4213 376.834 26.5213 378.134H25.5213V378.234ZM190.721 377.934V376.934C192.021 376.834 193.421 376.734 194.821 376.634V377.634C193.521 377.734 192.121 377.834 190.721 377.934ZM253.521 377.534C252.121 377.434 250.721 377.334 249.321 377.234V376.234C250.821 376.234 252.221 376.434 253.621 376.534V377.534H253.521ZM199.021 377.334V376.334C200.321 376.334 201.721 376.134 203.121 376.034V377.034C201.821 377.034 200.421 377.234 199.021 377.334ZM245.121 376.934C243.721 376.934 242.321 376.834 240.921 376.734V375.734C242.421 375.734 243.821 375.834 245.121 375.934V376.934ZM207.421 376.834V375.834C208.721 375.834 210.121 375.734 211.621 375.634V376.634C210.221 376.634 208.821 376.734 207.421 376.834ZM236.721 376.634C235.321 376.634 233.921 376.634 232.521 376.534V375.534C233.921 375.534 235.321 375.534 236.721 375.634V376.634ZM215.821 376.534V375.534C217.221 375.534 218.621 375.534 220.021 375.534V376.534C218.621 376.534 217.221 376.534 215.821 376.534ZM228.421 376.434C227.321 376.434 226.121 376.434 225.021 376.434H224.221V375.434H225.021C226.121 375.434 227.321 375.434 228.421 375.434V376.434ZM423.121 375.134H422.121C422.121 373.734 422.221 372.334 422.321 370.934H423.321C423.321 372.434 423.221 373.834 423.121 375.134ZM25.1213 369.834C25.1213 368.534 25.1213 367.134 25.1213 365.634H26.1213C26.1213 367.034 26.1213 368.434 26.1213 369.834H25.1213ZM423.421 366.734H422.421C422.421 365.334 422.421 363.934 422.421 362.534H423.421C423.421 364.034 423.421 365.434 423.421 366.734ZM26.1213 361.334H25.1213C25.1213 359.934 25.1213 358.534 25.1213 357.134H26.1213C26.1213 358.534 26.1213 359.934 26.1213 361.334ZM423.521 358.334H422.521V354.134H423.521V358.334ZM26.1213 353.034H25.1213V351.234C25.1213 350.434 25.1213 349.634 25.1213 348.834H26.1213C26.1213 349.634 26.1213 350.434 26.1213 351.234V353.034ZM423.621 349.934H422.621C422.621 349.234 422.621 348.634 422.621 347.934C422.621 347.234 422.621 346.434 422.621 345.734H423.621C423.621 346.434 423.621 347.234 423.621 347.934C423.621 348.634 423.621 349.234 423.621 349.934ZM26.3213 344.634H25.3213C25.3213 343.134 25.4213 341.734 25.5213 340.434H26.5213C26.5213 341.834 26.4213 343.234 26.3213 344.634ZM422.521 341.534C422.521 340.134 422.521 338.734 422.421 337.334H423.421C423.421 338.634 423.421 340.034 423.521 341.534H422.521ZM26.7213 336.234H25.7213C25.8213 334.734 25.9213 333.334 26.0213 331.934H27.0213C26.9213 333.334 26.8213 334.734 26.7213 336.234ZM422.221 333.234C422.221 331.834 422.021 330.434 422.021 329.034H423.021C423.021 330.334 423.221 331.734 423.221 333.134H422.221V333.234ZM27.5213 327.934H26.5213C26.7213 326.334 26.8213 324.934 27.0213 323.634H28.0213C27.8213 325.034 27.7213 326.434 27.5213 327.934ZM421.621 324.834C421.621 323.934 421.521 323.034 421.421 322.234H422.421C422.421 323.034 422.621 323.834 422.621 324.734H421.621V324.834Z" fill="#1A1A1A"/>
<path d="M421.321 320.734L421.121 319.134L422.221 319.034L422.321 320.634L421.321 320.734Z" fill="#1A1A1A"/>
<path d="M40.1213 319.234H39.1213C39.1213 318.334 39.3213 317.734 39.3213 317.634H40.3213C40.3213 317.934 40.3213 318.434 40.1213 319.234Z" fill="#1A1A1A"/>
<path d="M59.6214 386.934C59.0214 386.934 58.4214 386.934 57.7214 386.934V385.934C59.2214 385.934 60.6214 385.934 61.9214 385.934V386.934C61.2214 386.934 60.4214 386.934 59.6214 386.934ZM390.021 386.534H389.521V385.434H390.021C391.321 385.434 392.621 385.434 393.621 385.334V386.334C392.621 386.334 391.321 386.434 390.021 386.434V386.534ZM385.321 386.434C384.021 386.434 382.621 386.334 381.121 386.234V385.234C382.621 385.334 384.021 385.434 385.321 385.434V386.434ZM66.2214 386.434V385.434C66.1214 385.434 70.2214 384.834 70.2214 384.834V385.834C70.3214 385.834 66.2214 386.434 66.2214 386.434ZM53.5214 386.334C52.0214 386.034 50.6214 385.634 49.4214 385.134L49.8214 384.134C51.0214 384.634 52.3214 385.034 53.7214 385.334L53.5214 386.334ZM397.921 385.834L397.721 384.834H398.021C399.221 384.434 400.321 384.034 401.521 383.434L402.021 384.334C400.821 384.934 399.521 385.434 398.321 385.834H398.021H397.921ZM376.921 385.834C375.621 385.734 374.221 385.534 372.721 385.434V384.434C374.221 384.534 375.621 384.734 377.021 384.834V385.834H376.921ZM74.4214 385.334V384.334C74.3214 384.334 78.4214 383.734 78.4214 383.734V384.734C78.5214 384.734 74.4214 385.334 74.4214 385.334ZM368.621 384.934C367.221 384.734 365.921 384.634 364.421 384.434V383.434C365.921 383.634 367.321 383.734 368.721 383.934V384.934H368.621ZM82.7214 384.134V383.134C82.6214 383.134 86.7214 382.534 86.7214 382.534V383.534C86.8214 383.534 82.7214 384.134 82.7214 384.134ZM360.321 383.934C358.921 383.734 357.621 383.534 356.221 383.434V382.434C357.721 382.634 359.121 382.834 360.521 382.934V383.934H360.321ZM91.0214 383.034V382.034C90.9214 382.034 95.0214 381.434 95.0214 381.434V382.434C95.1214 382.434 91.0214 383.034 91.0214 383.034ZM45.7214 382.934C45.3214 382.534 44.8214 382.234 44.5214 381.834C43.9214 381.234 43.4214 380.534 42.8214 379.834L43.7214 379.234C44.2214 379.934 44.7214 380.634 45.3214 381.134C45.7214 381.534 46.0214 381.834 46.5214 382.134L45.8214 382.934H45.7214ZM352.021 382.834C350.621 382.634 349.321 382.434 347.921 382.234V381.234C349.421 381.434 350.821 381.634 352.221 381.834V382.834H352.021ZM99.2214 381.934V380.934C99.1214 380.934 103.221 380.334 103.221 380.334V381.334C103.321 381.334 99.2214 381.934 99.2214 381.934ZM405.421 381.834L404.721 381.034C405.621 380.134 406.421 379.034 407.121 377.834L408.021 378.334C407.321 379.634 406.421 380.734 405.421 381.734V381.834ZM343.721 381.734L339.621 381.134L339.821 380.134L343.921 380.734V381.734H343.721ZM107.521 380.734V379.734C107.421 379.734 111.521 379.134 111.521 379.134V380.134C111.621 380.134 107.521 380.734 107.521 380.734ZM335.421 380.534L331.321 379.934L331.521 378.934L335.621 379.534L335.421 380.534ZM115.821 379.634V378.634C115.721 378.634 119.821 378.034 119.821 378.034V379.034C119.921 379.034 115.821 379.634 115.821 379.634ZM327.221 379.334L323.121 378.734L323.321 377.734L327.421 378.334L327.221 379.334ZM124.121 378.534V377.534C124.021 377.534 128.121 376.934 128.121 376.934V377.934C128.221 377.934 124.121 378.534 124.121 378.534ZM318.921 378.034L314.821 377.434L315.021 376.434L319.121 377.034L318.921 378.034ZM132.321 377.434V376.434C132.221 376.434 136.321 375.834 136.321 375.834V376.834C136.421 376.834 132.321 377.334 132.321 377.334V377.434ZM310.621 376.834L306.521 376.234L306.721 375.234L310.821 375.834L310.621 376.834ZM140.621 376.334V375.334C140.521 375.334 144.621 374.834 144.621 374.834V375.834C144.721 375.834 140.621 376.334 140.621 376.334ZM40.7214 376.134C40.1214 374.834 39.5214 373.534 39.0214 372.234L40.0214 371.834C40.5214 373.134 41.0214 374.434 41.6214 375.634L40.7214 376.134ZM302.421 375.634L298.321 375.034V374.034C298.421 374.034 302.621 374.634 302.621 374.634L302.421 375.634ZM148.921 375.234V374.234C148.821 374.234 152.921 373.734 152.921 373.734V374.734C153.021 374.734 148.921 375.234 148.921 375.234ZM409.721 374.434L408.721 374.134C409.121 372.934 409.421 371.634 409.621 370.134L410.621 370.334C410.421 371.834 410.121 373.234 409.721 374.434ZM294.121 374.434C292.721 374.234 291.321 374.034 290.021 373.834V372.834C291.521 373.034 292.921 373.234 294.321 373.434V374.434H294.121ZM157.221 374.134V373.134C157.121 373.134 161.221 372.634 161.221 372.634V373.634C161.321 373.634 157.221 374.134 157.221 374.134ZM285.821 373.334C284.421 373.134 283.021 372.934 281.721 372.734V371.734C283.221 371.934 284.621 372.134 286.021 372.334V373.334H285.821ZM165.421 373.134V372.134C165.321 372.134 169.421 371.634 169.421 371.634V372.634C169.521 372.634 165.421 373.134 165.421 373.134ZM277.521 372.234C276.121 372.034 274.721 371.834 273.421 371.734V370.734C274.921 370.934 276.321 371.034 277.721 371.234V372.234H277.521ZM173.721 372.134V371.134C173.621 371.134 177.721 370.634 177.721 370.634V371.634C177.821 371.634 173.721 372.134 173.721 372.134ZM269.321 371.134C267.921 370.934 266.521 370.834 265.221 370.634V369.634C266.721 369.834 268.121 369.934 269.521 370.134V371.134H269.321ZM182.021 371.134V370.134C183.321 369.934 184.721 369.834 186.021 369.634V370.634C184.821 370.734 183.421 370.934 182.021 371.134ZM190.321 370.234V369.234C191.621 369.034 193.021 368.934 194.321 368.834V369.834C193.121 369.934 191.721 370.134 190.321 370.234ZM261.021 370.234C259.621 370.034 258.221 369.934 256.821 369.834V368.834C258.321 368.934 259.721 369.134 261.121 369.234V370.234H261.021ZM198.621 369.334V368.334C199.921 368.234 201.321 368.034 202.721 367.934V368.934C201.421 369.034 200.121 369.134 198.621 369.334ZM252.721 369.334C251.321 369.234 249.921 369.034 248.521 368.934V367.934C250.021 368.034 251.421 368.134 252.821 368.334V369.334H252.721ZM206.921 368.634V367.634C208.321 367.534 209.621 367.434 211.021 367.334V368.334C209.721 368.334 208.421 368.534 206.921 368.634ZM244.321 368.634C242.921 368.534 241.521 368.434 240.121 368.334V367.334C241.521 367.334 242.921 367.534 244.321 367.634V368.634ZM37.8214 368.134C37.5214 366.834 37.3214 365.434 37.1214 363.934H38.1214C38.3214 365.234 38.5214 366.534 38.8214 367.834L37.8214 368.034V368.134ZM236.021 368.134C234.621 368.134 233.221 368.034 231.821 367.934V366.934C233.221 366.934 234.621 367.034 236.021 367.134V368.134ZM215.221 368.134V367.134C216.621 367.134 218.021 367.034 219.321 366.934V367.934C218.021 367.934 216.621 368.034 215.221 368.134ZM227.721 367.834C227.121 367.834 226.521 367.834 226.021 367.834H225.021C224.521 367.834 224.021 367.834 223.521 367.834V366.834C224.021 366.834 224.521 366.834 225.021 366.834H226.021C226.621 366.834 227.121 366.834 227.721 366.834V367.834ZM411.121 366.134H410.121C410.221 364.734 410.321 363.434 410.321 361.934H411.321C411.321 363.534 411.221 364.834 411.121 366.134ZM36.8214 359.734C36.8214 358.434 36.8214 357.034 36.7214 355.534H37.7214C37.7214 357.034 37.7214 358.434 37.8214 359.634H36.8214V359.734ZM411.421 357.734H410.421C410.421 356.934 410.421 356.234 410.421 355.434V353.534H411.421V355.434C411.421 356.234 411.421 357.034 411.421 357.734ZM37.8214 351.434H36.8214C36.8214 350.034 36.8214 348.634 36.9214 347.234H37.9214C37.9214 348.634 37.9214 350.034 37.8214 351.434ZM410.321 349.434C410.321 348.134 410.321 346.734 410.321 345.234H411.321C411.321 346.634 411.321 348.034 411.321 349.434H410.321ZM38.0214 343.034H37.0214C37.0214 341.534 37.2214 340.134 37.2214 338.834H38.2214C38.2214 340.234 38.0214 341.634 38.0214 343.034ZM410.121 341.134C410.121 339.734 410.121 338.434 409.921 336.934H410.921C410.921 338.334 411.021 339.734 411.121 341.034H410.121V341.134ZM38.6214 334.734H37.6214C37.7214 333.234 37.8214 331.834 37.9214 330.534H38.9214C38.8214 331.934 38.7214 333.334 38.6214 334.734ZM409.721 332.734C409.721 331.334 409.521 329.934 409.521 328.534H410.521C410.521 329.934 410.721 331.234 410.721 332.634H409.721V332.734ZM39.3214 326.434H38.3214C38.4214 324.734 38.6214 323.334 38.7214 322.134H39.7214C39.6214 323.434 39.4214 324.834 39.3214 326.434ZM409.221 324.434C409.221 323.234 409.021 322.034 408.921 320.834H409.921C410.021 322.034 410.121 323.234 410.221 324.434H409.221Z" fill="#1A1A1A"/>
<path d="M408.821 319.234L408.721 317.734L409.821 317.634L409.921 319.134L408.821 319.234Z" fill="#1A1A1A"/>
<path d="M56.0215 317.734L55.0215 317.534C55.0215 317.034 55.2215 316.534 55.3215 316.034L56.3215 316.234C56.3215 316.734 56.1215 317.234 56.0215 317.734Z" fill="#1A1A1A"/>
<path d="M367.621 371.834C367.021 371.834 366.421 371.834 365.821 371.834V370.834C366.421 370.834 367.121 370.834 367.721 370.834C368.521 370.834 369.321 370.834 370.021 370.834V371.834C369.221 371.834 368.421 371.834 367.621 371.834ZM361.621 371.534C360.322 371.434 358.821 371.234 357.421 371.034V370.034C359.021 370.234 360.421 370.434 361.721 370.534V371.534H361.621ZM374.321 371.334L374.121 370.334C375.521 370.134 376.921 369.834 378.121 369.534L378.421 370.534C377.121 370.934 375.721 371.234 374.221 371.434L374.321 371.334ZM81.4215 371.034V370.034C82.7215 370.034 84.1215 369.934 85.5215 369.834V370.834C84.1215 370.934 82.7215 371.034 81.4215 371.034ZM77.1215 370.934C75.6215 370.934 74.2215 370.734 72.9215 370.434L73.1215 369.434C74.4215 369.634 75.8215 369.834 77.2215 369.934V370.934H77.1215ZM353.221 370.334C352.321 370.134 351.621 370.034 350.921 369.934L349.021 369.534L349.221 368.534L351.121 368.934C351.721 369.034 352.521 369.234 353.421 369.334L353.221 370.334ZM89.8215 370.334V369.334C90.6215 369.234 91.4215 369.034 92.1215 368.934L93.8215 368.634L94.0215 369.634L92.3215 369.934C91.6215 370.034 90.8215 370.134 89.8215 370.334ZM68.7215 369.434C67.3215 369.034 65.9215 368.434 64.7215 367.834L65.2215 366.934C66.4215 367.534 67.6215 368.034 69.0215 368.534L68.7215 369.534V369.434ZM98.1215 369.134V368.134C99.3215 367.934 100.721 367.734 102.121 367.534V368.534C100.821 368.734 99.4215 368.934 98.1215 369.134ZM382.521 369.034L382.021 368.134C383.321 367.534 384.421 366.834 385.521 365.934L386.221 366.734C385.121 367.634 383.921 368.334 382.521 369.034ZM345.021 368.734C343.621 368.534 342.221 368.234 340.921 368.034L341.121 367.034C342.521 367.234 343.921 367.534 345.221 367.734L345.021 368.734ZM106.521 367.934V366.934C107.721 366.734 109.121 366.534 110.521 366.434V367.434C109.221 367.634 107.821 367.834 106.521 367.934ZM336.721 367.334C335.321 367.134 333.921 366.934 332.521 366.634L332.721 365.634C334.121 365.834 335.521 366.034 336.921 366.334L336.721 367.334ZM114.821 366.934V365.934C116.021 365.734 117.421 365.634 118.821 365.434V366.434C117.521 366.634 116.121 366.734 114.821 366.934ZM328.421 366.034C327.021 365.834 325.621 365.634 324.221 365.434V364.434C325.721 364.634 327.121 364.834 328.521 365.034L328.321 366.034H328.421ZM123.121 365.934V364.934C123.021 364.934 127.221 364.434 127.221 364.434V365.434C127.321 365.434 123.121 365.934 123.121 365.934ZM61.2215 365.434C60.6215 364.934 60.0215 364.334 59.5215 363.734C59.1215 363.234 58.7215 362.734 58.3215 362.134L59.2215 361.534C59.5215 362.034 59.9215 362.534 60.3215 363.034C60.8215 363.634 61.3215 364.134 61.9215 364.634L61.2215 365.434ZM131.521 365.034V364.034C132.821 363.934 134.221 363.734 135.621 363.634V364.634C134.321 364.734 132.921 364.934 131.521 365.034ZM320.121 364.934C318.721 364.734 317.321 364.534 315.921 364.434V363.434C317.421 363.634 318.821 363.734 320.221 363.934V364.934H320.121ZM139.921 364.134V363.134C139.821 363.134 144.021 362.734 144.021 362.734V363.734C144.121 363.734 139.921 364.134 139.921 364.134ZM311.721 363.834C310.321 363.634 308.921 363.534 307.521 363.334V362.334C309.021 362.534 310.421 362.634 311.821 362.834V363.834H311.721ZM389.221 363.634L388.421 363.034C389.221 361.934 389.821 360.834 390.421 359.534L391.421 359.934C390.821 361.334 390.121 362.534 389.321 363.634H389.221ZM148.221 363.334V362.334C149.521 362.234 150.921 362.034 152.321 361.934V362.934C151.021 363.034 149.621 363.234 148.221 363.334ZM303.421 362.934C302.021 362.834 300.621 362.634 299.221 362.534V361.534C300.721 361.634 302.121 361.834 303.521 361.934V362.934H303.421ZM156.621 362.534V361.534L160.721 361.134V362.134L156.621 362.534ZM295.021 362.134C293.621 362.034 292.221 361.834 290.821 361.734V360.734C292.321 360.834 293.721 361.034 295.121 361.134V362.134H295.021ZM165.021 361.734V360.734C166.321 360.634 167.721 360.534 169.121 360.434V361.434C167.821 361.534 166.421 361.634 165.021 361.734ZM286.721 361.334C285.321 361.234 283.921 361.134 282.521 361.034V360.034C284.021 360.134 285.421 360.234 286.821 360.334V361.334H286.721ZM173.321 361.134V360.134C174.621 360.034 176.021 359.934 177.421 359.834V360.834C176.121 360.934 174.721 361.034 173.321 361.134ZM278.321 360.734C276.921 360.634 275.521 360.534 274.121 360.434V359.434C275.621 359.434 277.021 359.634 278.421 359.734V360.734H278.321ZM181.721 360.434V359.434C183.021 359.334 184.421 359.234 185.821 359.134V360.134C184.521 360.134 183.121 360.334 181.721 360.434ZM269.921 360.134C268.521 360.134 267.121 359.934 265.721 359.834V358.834C267.121 358.834 268.521 359.034 270.021 359.134V360.134H269.921ZM190.121 359.934V358.934C191.421 358.934 192.822 358.734 194.221 358.634V359.634C192.921 359.634 191.521 359.834 190.121 359.934ZM261.521 359.634C260.121 359.634 258.721 359.434 257.321 359.434V358.434C258.721 358.434 260.121 358.534 261.621 358.634V359.634H261.521ZM198.521 359.434V358.434C199.921 358.434 201.321 358.334 202.621 358.234V359.234C201.321 359.234 199.921 359.334 198.521 359.434ZM253.121 359.234C251.721 359.234 250.321 359.134 248.921 359.034V358.034C250.321 358.034 251.721 358.134 253.121 358.234V359.234ZM206.921 359.034V358.034C208.321 358.034 209.721 357.934 211.121 357.834V358.834C209.821 358.834 208.421 358.934 206.921 359.034ZM244.721 358.834C243.221 358.834 241.821 358.834 240.521 358.734V357.734C241.821 357.734 243.321 357.734 244.721 357.834V358.834ZM215.321 358.634V357.634C216.721 357.634 218.121 357.634 219.521 357.534V358.534C218.221 358.534 216.821 358.534 215.321 358.634ZM236.321 358.634C234.721 358.634 233.321 358.634 232.121 358.634V357.634C233.321 357.634 234.721 357.634 236.321 357.634V358.634ZM223.721 358.534V357.534C224.821 357.534 225.921 357.534 226.921 357.534H227.921V358.634H226.921C225.921 358.634 224.821 358.634 223.721 358.634V358.534ZM56.4215 358.334C55.9215 357.134 55.5215 355.734 55.2215 354.234L56.2215 354.034C56.5215 355.534 56.9215 356.834 57.3215 358.034L56.3215 358.434L56.4215 358.334ZM392.721 355.834L391.721 355.534C392.021 354.334 392.321 352.934 392.521 351.434L393.521 351.634C393.221 353.134 393.021 354.534 392.621 355.834H392.721ZM54.5215 350.034C54.3215 348.834 54.2215 347.534 54.0215 345.834H55.0215C55.1215 347.334 55.3215 348.734 55.4215 349.934H54.4215L54.5215 350.034ZM394.121 347.434H393.121C393.322 345.934 393.421 344.634 393.521 343.134H394.521C394.421 344.634 394.221 346.034 394.121 347.434ZM53.7215 341.634C53.6215 340.234 53.5215 338.834 53.5215 337.434H54.5215C54.5215 338.834 54.6215 340.234 54.7215 341.534H53.7215V341.634ZM394.921 339.134H393.921C394.021 337.634 394.121 336.234 394.121 334.834H395.121C395.121 336.234 395.021 337.734 394.921 339.134ZM54.5215 333.234H53.5215C53.5215 331.834 53.5215 330.434 53.7215 329.034H54.7215C54.7215 330.434 54.6215 331.934 54.5215 333.234ZM394.121 330.634C394.121 329.234 394.121 327.834 394.021 326.434H395.021C395.021 327.734 395.121 329.234 395.121 330.634H394.121ZM55.0215 324.934H54.0215C54.1215 323.434 54.3215 322.034 54.5215 320.634L55.5215 320.834C55.3215 322.234 55.1215 323.634 55.0215 324.934ZM393.721 322.334C393.721 321.234 393.521 320.234 393.421 319.234H394.421C394.521 320.034 394.621 321.134 394.721 322.234H393.721V322.334Z" fill="#1A1A1A"/>
<path d="M393.221 317.734C393.221 317.234 393.121 316.734 393.021 316.234L394.021 316.034C394.021 316.534 394.121 317.034 394.221 317.534H393.221V317.734Z" fill="#1A1A1A"/>
<path d="M72.6213 316.734L71.6213 316.534C71.6213 316.034 71.8213 315.534 71.9213 315.034L72.9213 315.234C72.9213 315.734 72.7213 316.234 72.6213 316.734Z" fill="#1A1A1A"/>
<path d="M346.421 358.334V357.334C347.821 357.334 349.221 357.334 350.621 357.234V358.234C349.321 358.234 347.921 358.334 346.421 358.334ZM342.121 358.334C340.721 358.334 339.321 358.334 337.921 358.134V357.134C339.421 357.134 340.821 357.234 342.121 357.334V358.334ZM333.721 357.834C332.321 357.734 330.921 357.634 329.521 357.534V356.534C331.021 356.634 332.421 356.734 333.821 356.834V357.834H333.721ZM354.821 357.834V356.834C356.121 356.634 357.521 356.434 358.821 356.134L359.021 357.134C357.721 357.434 356.321 357.634 354.821 357.834ZM99.4214 357.134C97.9214 357.134 96.5214 357.034 95.2214 356.934V355.934C96.6214 356.034 98.0214 356.134 99.5214 356.134V357.134H99.4214ZM103.621 357.134V356.134C104.921 356.134 106.321 356.034 107.721 355.934V356.934C106.321 357.034 104.921 357.134 103.621 357.134ZM325.421 357.134C324.021 357.034 322.621 356.834 321.221 356.734V355.734C322.721 355.934 324.121 356.034 325.521 356.134V357.134H325.421ZM112.021 356.634V355.634L116.121 355.334V356.334L112.021 356.634ZM91.0214 356.434C89.5214 356.134 88.1214 355.834 86.9214 355.434L87.2214 354.434C88.5214 354.834 89.8214 355.134 91.2214 355.334L91.0214 356.334V356.434ZM317.021 356.234C315.621 356.034 314.221 355.934 312.821 355.734V354.734C314.321 354.934 315.721 355.034 317.121 355.234V356.234H317.021ZM120.421 355.934V354.934L124.521 354.634V355.634L120.421 355.934ZM363.121 355.934L362.721 354.934C364.121 354.434 365.321 353.834 366.421 353.234L366.921 354.134C365.821 354.834 364.521 355.434 363.021 355.934H363.121ZM128.821 355.334V354.334L132.921 354.034V355.034L128.821 355.334ZM308.721 355.234L304.521 354.734V353.734C304.621 353.734 308.821 354.234 308.821 354.234V355.234H308.721ZM137.121 354.634V353.634L141.221 353.334V354.334L137.121 354.634ZM300.321 354.234L296.121 353.734V352.734C296.221 352.734 300.421 353.234 300.421 353.234V354.234H300.321ZM145.521 354.034V353.034L149.621 352.734V353.734L145.521 354.034ZM82.8214 353.834C81.4214 353.134 80.2214 352.434 79.1214 351.534L79.7214 350.734C80.7214 351.534 81.9214 352.234 83.2214 352.834L82.7214 353.734L82.8214 353.834ZM153.921 353.334V352.334L158.021 352.034V353.034L153.921 353.334ZM292.021 353.234C290.721 353.034 289.321 352.934 287.821 352.734V351.734C289.321 351.934 290.721 352.034 292.121 352.234V353.234H292.021ZM162.221 352.734V351.734L166.321 351.434V352.434L162.221 352.734ZM283.621 352.334C282.221 352.234 280.821 352.034 279.421 351.934V350.934C280.921 351.034 282.321 351.234 283.721 351.334V352.334H283.621ZM170.621 352.134V351.134L174.721 350.834V351.834L170.621 352.134ZM179.021 351.534V350.534L183.121 350.234V351.234L179.021 351.534ZM275.321 351.534C273.921 351.434 272.521 351.234 271.121 351.134V350.134C272.621 350.234 274.021 350.434 275.421 350.534V351.534H275.321ZM370.321 351.334L369.521 350.634C370.021 350.034 370.421 349.434 370.821 348.834C371.121 348.334 371.421 347.834 371.621 347.234L372.621 347.634C372.321 348.234 372.021 348.834 371.721 349.334C371.321 350.034 370.821 350.634 370.321 351.234V351.334ZM187.321 350.934V349.934C188.721 349.934 190.021 349.734 191.421 349.634V350.634C190.121 350.634 188.721 350.834 187.321 350.934ZM266.921 350.734C265.521 350.634 264.121 350.534 262.721 350.434V349.434C264.221 349.534 265.621 349.634 267.021 349.734V350.734H266.921ZM195.721 350.434V349.434C197.121 349.434 198.521 349.234 199.821 349.134V350.134C198.521 350.134 197.121 350.334 195.721 350.434ZM258.621 350.134C257.221 350.134 255.821 349.934 254.421 349.834V348.834C255.921 348.834 257.321 349.034 258.721 349.134V350.134H258.621ZM204.121 349.934V348.934C205.521 348.934 206.921 348.734 208.221 348.734V349.734C206.921 349.734 205.521 349.834 204.121 349.934ZM250.221 349.634C248.821 349.634 247.421 349.534 246.021 349.434V348.434C247.421 348.434 248.821 348.534 250.221 348.634V349.634ZM212.521 349.534V348.534C213.921 348.534 215.321 348.434 216.721 348.334V349.334C215.421 349.334 214.021 349.434 212.521 349.534ZM241.821 349.234C240.421 349.234 239.021 349.234 237.621 349.134V348.134C239.021 348.134 240.421 348.134 241.821 348.234V349.234ZM220.921 349.234V348.234C222.121 348.234 223.321 348.234 224.521 348.234H225.121V349.234H224.521C223.321 349.234 222.121 349.234 220.921 349.234ZM233.421 349.134C232.221 349.134 231.021 349.134 229.821 349.134H229.221V348.134H229.821C231.021 348.134 232.221 348.134 233.421 348.134V349.134ZM76.1214 348.534C76.1214 348.434 75.9214 348.234 75.8214 348.134C75.1214 347.134 74.5214 346.034 74.0214 344.734L75.0214 344.334C75.5214 345.534 76.1214 346.634 76.7214 347.534C76.7214 347.634 76.9214 347.834 77.0214 347.934L76.2214 348.534H76.1214ZM374.121 343.634L373.121 343.334C373.521 342.134 373.921 340.734 374.221 339.334L375.221 339.634C374.821 341.134 374.421 342.434 374.021 343.734L374.121 343.634ZM72.8214 340.634C72.5214 339.334 72.2214 338.034 71.9214 336.434L72.9214 336.234C73.2214 337.734 73.4214 339.034 73.7214 340.334L72.7214 340.634H72.8214ZM376.221 335.534L375.221 335.334V334.734C375.621 333.534 375.821 332.434 376.021 331.234L377.021 331.434C376.821 332.634 376.621 333.734 376.421 334.934V335.634L376.221 335.534ZM71.3214 332.334C71.1214 330.934 71.0214 329.534 70.9214 328.134H71.9214C71.9214 329.434 72.1214 330.834 72.3214 332.234H71.3214V332.334ZM377.521 327.134H376.521C376.621 325.634 376.721 324.234 376.821 322.834H377.821C377.821 324.334 377.621 325.734 377.521 327.134ZM71.9214 323.934H70.9214C70.9214 322.534 71.0214 321.034 71.2214 319.634H72.2214C72.1214 321.134 72.0214 322.534 71.9214 323.934ZM376.921 318.734V318.234H377.921V318.734H376.921Z" fill="#1A1A1A"/>
<path d="M376.821 316.734C376.821 316.234 376.821 315.734 376.821 315.234H377.821C377.821 315.634 377.821 316.234 377.821 316.734H376.821Z" fill="#1A1A1A"/>
<path d="M89.2214 315.234L88.2214 315.034C88.2214 314.534 88.4214 314.034 88.5214 313.534L89.5214 313.734C89.5214 314.234 89.3214 314.734 89.2214 315.234Z" fill="#1A1A1A"/>
<path d="M328.621 347.634V346.634C330.021 346.634 331.421 346.634 332.721 346.534V347.534C331.421 347.534 330.021 347.634 328.621 347.634ZM324.421 347.634C323.021 347.634 321.621 347.634 320.221 347.434V346.434C321.721 346.434 323.121 346.534 324.421 346.634V347.634ZM316.021 347.234C314.621 347.234 313.221 347.034 311.821 346.934V345.934C313.321 346.034 314.721 346.134 316.021 346.234V347.234ZM121.821 347.134C121.321 347.134 120.721 347.134 120.221 347.134V346.134C121.621 346.134 122.921 346.134 124.421 346.134V347.134C123.521 347.134 122.721 347.134 121.821 347.134ZM337.021 347.134V346.134C338.321 345.934 339.721 345.734 341.021 345.434L341.221 346.434C339.921 346.734 338.521 346.934 337.021 347.134ZM115.921 347.034C114.421 347.034 113.021 346.834 111.721 346.634V345.634C113.121 345.834 114.521 345.934 116.021 346.034V347.034H115.921ZM128.521 347.034V346.034C129.821 346.034 131.221 345.934 132.621 345.834V346.834C131.221 346.834 129.821 347.034 128.521 347.034ZM307.721 346.534C306.321 346.434 304.921 346.234 303.521 346.134V345.134C305.021 345.234 306.421 345.434 307.821 345.534V346.534H307.721ZM136.921 346.534V345.534C138.221 345.534 139.621 345.334 141.021 345.234V346.234C139.721 346.334 138.321 346.434 136.921 346.534ZM107.621 346.034C106.121 345.734 104.821 345.434 103.521 345.034L103.821 344.034C105.021 344.434 106.421 344.734 107.821 345.034L107.621 346.034ZM145.221 345.834V344.834C146.521 344.734 147.921 344.634 149.321 344.434V345.434C148.021 345.534 146.621 345.734 145.221 345.834ZM299.321 345.734L295.121 345.334V344.334C295.221 344.334 299.421 344.734 299.421 344.734V345.734H299.321ZM345.221 345.334L344.921 344.334C346.221 343.834 347.521 343.334 348.721 342.734L349.221 343.634C348.021 344.234 346.721 344.834 345.321 345.334H345.221ZM153.521 345.034V344.034L157.621 343.634V344.634L153.521 345.034ZM291.021 344.934L286.821 344.534V343.534C286.921 343.534 291.121 343.934 291.121 343.934V344.934H291.021ZM161.921 344.234V343.234L166.021 342.834V343.834L161.921 344.234ZM282.721 344.034C281.321 343.934 279.921 343.734 278.521 343.634V342.634C280.021 342.734 281.421 342.934 282.821 343.034V344.034H282.721ZM170.221 343.534V342.534C171.521 342.434 172.921 342.334 174.321 342.134V343.134C173.021 343.234 171.621 343.334 170.221 343.534ZM99.5215 343.334C98.2215 342.634 97.0215 341.934 95.9215 341.134L96.5215 340.334C97.5215 341.134 98.7215 341.834 100.021 342.434L99.5215 343.334ZM274.421 343.234C273.021 343.134 271.621 343.034 270.221 342.834V341.834C271.721 341.934 273.121 342.034 274.521 342.234V343.234H274.421ZM178.521 342.834V341.834C179.821 341.734 181.221 341.634 182.621 341.534V342.534C181.321 342.634 179.921 342.734 178.521 342.834ZM266.121 342.534C264.721 342.434 263.321 342.334 261.921 342.234V341.234C263.421 341.334 264.821 341.434 266.121 341.534V342.534ZM186.821 342.234V341.234C188.121 341.234 189.521 341.034 190.921 340.934V341.934C189.621 341.934 188.221 342.134 186.821 342.234ZM257.721 341.934C256.321 341.934 254.921 341.734 253.521 341.634V340.634C255.021 340.634 256.421 340.834 257.721 340.934V341.934ZM195.221 341.734V340.734C196.521 340.734 197.921 340.634 199.321 340.534V341.534C197.921 341.534 196.621 341.634 195.221 341.734ZM249.421 341.534C248.021 341.534 246.621 341.434 245.221 341.334V340.334C246.621 340.334 248.021 340.434 249.421 340.534V341.534ZM352.721 341.334L352.021 340.534C353.121 339.734 354.021 338.734 354.921 337.634L355.721 338.334C354.821 339.434 353.821 340.434 352.721 341.334ZM203.521 341.234V340.234C204.821 340.234 206.221 340.134 207.621 340.034V341.034C206.221 341.034 204.821 341.034 203.521 341.234ZM241.121 341.134C239.721 341.134 238.321 341.134 236.921 341.034V340.034C238.321 340.034 239.721 340.034 241.121 340.134V341.134ZM211.921 341.034V340.034C213.321 340.034 214.721 340.034 216.121 340.034V341.034C214.721 341.034 213.321 341.034 211.921 341.034ZM232.721 340.934C231.321 340.934 229.921 340.934 228.521 340.934V339.934C229.921 339.934 231.321 339.934 232.721 339.934V340.934ZM220.221 340.834V339.834C221.621 339.834 222.921 339.834 224.321 339.834V340.834C222.921 340.834 221.521 340.834 220.221 340.834ZM92.8215 338.134C92.1215 337.334 91.5215 336.434 90.9215 335.434C90.7215 335.134 90.6215 334.834 90.4215 334.534L91.3215 334.034C91.5215 334.334 91.6215 334.634 91.8215 334.834C92.3215 335.734 93.0215 336.634 93.6215 337.334L92.8215 338.034V338.134ZM358.121 334.834L357.221 334.334C357.821 333.134 358.421 331.934 358.821 330.634L359.821 330.934C359.321 332.334 358.822 333.634 358.121 334.834ZM88.7215 330.734C88.3215 329.434 88.0215 328.034 87.8215 326.534H88.8215C89.0215 327.734 89.3215 329.134 89.7215 330.334L88.7215 330.634V330.734ZM360.821 326.734L359.821 326.534C360.021 325.234 360.121 323.834 360.221 322.434H361.221C361.221 323.934 361.021 325.334 360.821 326.734ZM87.5215 322.334V322.134C87.5215 320.834 87.5215 319.434 87.7215 318.134H88.7215C88.6215 319.634 88.5215 320.934 88.5215 322.134V322.334H87.5215ZM360.121 318.334C360.121 317.734 360.121 317.234 359.921 316.634H360.921C360.921 317.034 361.021 317.634 361.121 318.234H360.121V318.334Z" fill="#1A1A1A"/>
<path d="M359.822 315.234C359.822 314.734 359.622 314.234 359.622 313.734L360.622 313.534C360.622 314.034 360.822 314.534 360.822 315.034H359.822V315.234Z" fill="#1A1A1A"/>
<path d="M23.1214 310.434V309.434C23.0214 309.434 27.1214 309.034 27.1214 309.034V310.034C27.2214 310.034 23.1214 310.434 23.1214 310.434ZM419.421 310.034L415.221 309.634V308.634C415.321 308.634 419.521 309.034 419.521 309.034V310.034H419.421ZM31.4214 309.534V308.534C31.3214 308.534 35.5214 308.134 35.5214 308.134V309.134C35.6214 309.134 31.4214 309.534 31.4214 309.534ZM411.121 309.234L406.921 308.834V307.834C407.021 307.834 411.221 308.234 411.221 308.234V309.234H411.121ZM39.7214 308.734V307.734C41.0214 307.634 42.4214 307.434 43.8214 307.334V308.334C42.5214 308.434 41.1214 308.634 39.7214 308.734ZM402.821 308.434L398.621 308.034V307.034L402.921 307.434V308.434H402.821ZM48.0214 307.934V306.934C49.3214 306.834 50.7214 306.634 52.1214 306.534V307.534C50.8214 307.634 49.4214 307.734 48.0214 307.934ZM394.421 307.634L390.221 307.234V306.234L394.521 306.634V307.634H394.421ZM56.3214 307.234V306.234C57.6214 306.134 59.0214 306.034 60.4214 305.834V306.834C59.1214 306.934 57.7214 307.034 56.3214 307.234ZM386.121 306.934L381.921 306.534V305.534L386.221 305.934V306.934H386.121ZM64.7214 306.534V305.534C66.0214 305.434 67.4214 305.334 68.8214 305.234V306.234C67.5214 306.334 66.1214 306.434 64.7214 306.534ZM377.821 306.234C376.421 306.134 375.021 306.034 373.621 305.934V304.934C375.121 305.034 376.521 305.134 377.821 305.234V306.234ZM73.0214 305.834V304.834C74.3214 304.734 75.7214 304.634 77.1214 304.534V305.534L73.0214 305.834ZM369.521 305.534L365.321 305.234V304.234L369.521 304.534V305.534ZM81.3214 305.234V304.234L85.4214 303.934V304.934L81.3214 305.234ZM361.121 304.934C359.721 304.834 358.321 304.734 356.921 304.634V303.634C358.421 303.634 359.821 303.834 361.121 303.934V304.934ZM89.6214 304.634V303.634L93.7214 303.334V304.334L89.6214 304.634ZM352.821 304.334L348.621 304.034V303.034L352.821 303.334V304.334ZM98.0214 304.034V303.034L102.121 302.734V303.734L98.0214 304.034ZM344.521 303.834L340.321 303.534V302.534L344.521 302.834V303.834ZM106.321 303.534V302.534L110.421 302.234V303.234L106.321 303.534ZM336.121 303.334L331.921 303.134V302.134L336.121 302.334V303.334ZM114.721 303.034V302.034L118.821 301.834V302.834L114.721 303.034ZM327.821 302.834L323.621 302.634V301.634L327.821 301.834V302.834ZM123.021 302.534V301.534L127.121 301.334V302.334L123.021 302.534ZM319.421 302.334L315.221 302.134V301.134L319.421 301.334V302.334ZM131.321 302.134V301.134L135.421 300.934V301.934L131.321 302.134ZM311.121 301.934L306.921 301.734V300.734L311.121 300.934V301.934ZM139.721 301.734V300.734L143.821 300.534V301.534L139.721 301.734ZM302.721 301.634L298.521 301.434V300.434L302.721 300.634V301.634ZM148.021 301.434V300.434L152.121 300.234V301.234L148.021 301.434ZM294.321 301.234L290.121 301.034V300.034L294.321 300.234V301.234ZM156.421 301.134V300.134L160.521 300.034V301.034L156.421 301.134ZM285.921 301.034H281.721C281.721 300.934 281.721 299.834 281.721 299.834H285.921C285.921 299.934 285.921 301.034 285.921 301.034ZM164.721 300.834V299.834L168.821 299.734V300.734L164.721 300.834ZM277.621 300.734H273.421C273.421 300.634 273.421 299.534 273.421 299.534H277.621C277.621 299.634 277.621 300.734 277.621 300.734ZM173.121 300.634V299.634L177.321 299.534V300.534L173.121 300.634ZM269.221 300.534H265.021V299.434H269.221V300.534ZM181.421 300.434V299.434H185.621V300.434H181.421ZM260.821 300.334H256.621V299.234H260.821V300.334ZM189.821 300.234V299.234H193.921V300.234H189.821ZM252.421 300.134H248.221V299.034H252.421V300.134ZM198.121 300.134V299.134H202.321V300.134H198.121ZM244.021 300.034H239.821V298.934H244.021V300.034ZM206.521 300.034V299.034H210.721V300.034H206.521ZM235.721 300.034H231.521V298.934H235.721V300.034ZM214.821 299.934V298.934H219.021V299.934H214.821ZM227.321 299.934H223.121V298.834H227.321V299.934Z" fill="#1A1A1A"/>
<path d="M219.021 57.8339L218.821 55.0339H219.821L220.021 57.8339H219.021ZM218.521 50.8339L218.221 46.6339H219.221L219.521 50.7339H218.521V50.8339ZM218.021 42.4339L217.721 38.2339H218.721L219.021 42.3339H218.021V42.4339ZM217.521 34.1339L217.221 29.9339H218.221L218.521 34.0339H217.521V34.1339ZM217.021 25.8339L216.721 21.6339H217.721L218.021 25.7339H217.021V25.8339ZM216.521 17.4339L216.221 13.2339H217.221L217.521 17.3339H216.521V17.4339Z" fill="#1A1A1A"/>
<path d="M416.921 313.534H415.921V309.334H416.921V313.534ZM417.021 305.134H416.021V300.934H417.021V305.134ZM417.121 296.834H416.121V292.634H417.121V296.834ZM417.121 288.434H416.121V284.234H417.121V288.434ZM417.221 280.134H416.221V275.934H417.221V280.134ZM417.321 271.734H416.321V267.534H417.321V271.734ZM417.321 263.334H416.321V259.134H417.321V263.334ZM417.421 255.034H416.421V250.834H417.421V255.034ZM417.421 246.634H416.421V242.434H417.421V246.634ZM416.421 238.334V234.134H417.521V238.234H416.421V238.334ZM416.421 229.934V225.734H417.421V229.934H416.421ZM416.321 221.634V217.434H417.321V221.634H416.321ZM416.321 213.234C416.321 211.834 416.321 210.434 416.321 209.034H417.321C417.321 210.334 417.321 211.734 417.321 213.234H416.321ZM416.221 204.934C416.221 203.534 416.221 202.134 416.221 200.734H417.221C417.221 202.034 417.221 203.434 417.221 204.934H416.221ZM416.021 196.534C416.021 195.134 416.021 193.734 415.921 192.334H416.921C416.921 193.634 416.921 195.034 417.021 196.434H416.021V196.534ZM415.721 188.234C415.721 186.834 415.621 185.434 415.521 184.034H416.521C416.521 185.334 416.621 186.734 416.721 188.134H415.721V188.234ZM415.221 179.934C415.221 178.534 415.021 177.134 414.921 175.734H415.921C416.021 177.034 416.121 178.434 416.221 179.834H415.221V179.934ZM414.621 171.534C414.521 170.134 414.321 168.734 414.221 167.434H415.221C415.321 168.734 415.521 170.034 415.621 171.534H414.621ZM413.721 163.334C413.521 161.934 413.421 160.534 413.221 159.234H414.221C414.421 160.434 414.621 161.834 414.721 163.234H413.721V163.334ZM412.621 155.034C412.421 153.634 412.221 152.334 412.021 150.934L413.021 150.734C413.221 152.134 413.421 153.534 413.621 154.834L412.621 155.034ZM411.321 146.834C411.121 145.434 410.821 144.034 410.621 142.734L411.621 142.534C411.821 143.834 412.121 145.234 412.321 146.634L411.321 146.834ZM409.921 138.534C409.721 137.134 409.421 135.734 409.221 134.434L410.221 134.234C410.421 135.534 410.721 136.934 410.921 138.334L409.921 138.534ZM408.421 130.334C408.121 128.934 407.821 127.534 407.621 126.234L408.621 126.034C408.921 127.334 409.221 128.734 409.521 130.134L408.521 130.334H408.421ZM406.621 122.234C406.321 120.834 405.921 119.534 405.621 118.234L406.621 117.934C407.021 119.234 407.321 120.634 407.721 122.034L406.721 122.234H406.621ZM404.421 114.234C404.021 112.934 403.521 111.534 403.121 110.334L404.121 109.934C404.621 111.234 405.021 112.534 405.421 113.934L404.421 114.234ZM401.621 106.334C401.121 105.034 400.521 103.734 400.021 102.534L401.021 102.134C401.621 103.434 402.121 104.734 402.621 106.034L401.621 106.434V106.334ZM398.221 98.8339C398.121 98.5339 397.921 98.2339 397.821 97.9339C397.321 96.9339 396.821 96.0339 396.321 95.1339L397.221 94.6339C397.721 95.5339 398.221 96.5339 398.721 97.4339C398.921 97.7339 399.021 98.0339 399.121 98.3339L398.221 98.8339ZM394.321 91.4339C393.621 90.2339 392.921 89.0339 392.221 87.8339L393.121 87.2339C393.821 88.4339 394.521 89.6339 395.221 90.8339L394.321 91.3339V91.4339ZM389.921 84.3339C389.121 83.1339 388.321 82.0339 387.521 80.9339L388.421 80.3339C389.221 81.4339 390.021 82.6339 390.821 83.8339L389.921 84.4339V84.3339ZM385.121 77.5339C384.321 76.4339 383.421 75.3339 382.521 74.2339L383.321 73.5339C384.221 74.6339 385.021 75.7339 385.921 76.8339L385.121 77.4339V77.5339ZM379.921 71.1339C379.021 70.0339 378.121 69.0339 377.121 68.0339L377.921 67.3339C378.821 68.3339 379.821 69.4339 380.721 70.4339L379.921 71.1339ZM374.321 64.9339C373.321 63.9339 372.321 62.9339 371.421 61.9339L372.121 61.1339C373.121 62.1339 374.121 63.1339 375.121 64.1339L374.321 64.8339V64.9339ZM368.321 59.1339C367.321 58.1339 366.221 57.2339 365.221 56.3339L365.921 55.5339C366.921 56.4339 368.021 57.3339 369.021 58.3339L368.321 59.1339ZM362.021 53.6339C360.921 52.7339 359.821 51.8339 358.721 51.0339L359.321 50.2339C360.421 51.0339 361.521 51.9339 362.621 52.8339L361.921 53.6339H362.021ZM355.421 48.5339C354.221 47.6339 353.121 46.8339 352.021 46.1339L352.621 45.2339C353.721 46.0339 354.821 46.8339 356.021 47.6339L355.421 48.4339V48.5339Z" fill="#1A1A1A"/>
<path d="M30.8214 316.234V312.034H31.8214V316.234H30.8214ZM30.7214 307.934V303.734H31.7214V307.934H30.7214ZM30.6214 299.534V295.334H31.6214V299.534H30.6214ZM30.5214 291.234V287.034H31.5214V291.234H30.5214ZM30.4214 282.834V278.634H31.4214V282.834H30.4214ZM30.4214 274.434V270.234H31.4214V274.434H30.4214ZM30.3214 266.134V261.934H31.3214V266.134H30.3214ZM30.3214 257.734V253.534H31.3214V257.734H30.3214ZM30.2214 249.434V245.234H31.2214V249.434H30.2214ZM30.2214 241.034V236.834H31.2214V241.034H30.2214ZM31.2214 232.634H30.2214V228.434H31.3214V232.634H31.2214ZM31.3214 224.334H30.3214V220.134H31.3214V224.334ZM31.3214 215.934H30.3214C30.3214 214.534 30.3214 213.134 30.3214 211.734H31.3214C31.3214 213.134 31.3214 214.534 31.3214 215.934ZM31.4214 207.634H30.4214C30.4214 206.234 30.4214 204.834 30.4214 203.434H31.4214C31.4214 204.834 31.4214 206.234 31.4214 207.634ZM31.6214 199.334H30.6214C30.6214 197.834 30.6214 196.534 30.7214 195.134H31.7214C31.7214 196.534 31.7214 197.934 31.6214 199.334ZM31.9214 190.934H30.9214C30.9214 189.434 31.0214 188.034 31.1214 186.734H32.1214C32.1214 188.134 32.0214 189.534 31.9214 190.934ZM32.2214 182.634H31.2214C31.2214 181.134 31.4214 179.734 31.5214 178.434H32.5214C32.5214 179.834 32.3214 181.234 32.2214 182.634ZM32.8214 174.334H31.8214C31.9214 172.834 32.0214 171.434 32.2214 170.034H33.2214C33.1214 171.534 33.0214 172.834 32.8214 174.334ZM33.6214 166.034H32.6214C32.8214 164.534 32.9214 163.134 33.1214 161.734H34.1214C33.9214 163.234 33.8214 164.634 33.6214 166.034ZM34.6214 157.734H33.6214C33.8214 156.234 34.0214 154.834 34.2214 153.434L35.2214 153.634C35.0214 155.034 34.8214 156.334 34.6214 157.734ZM35.9214 149.434L34.9214 149.234L35.6214 145.134L36.6214 145.334L35.9214 149.434ZM37.3214 141.234L36.3214 141.034C36.5214 139.634 36.8214 138.234 37.0214 136.934L38.0214 137.134C37.8214 138.434 37.5214 139.834 37.3214 141.234ZM38.7214 133.034L37.7214 132.834C38.0214 131.434 38.2214 130.034 38.5214 128.734L39.5214 128.934C39.2214 130.234 39.0214 131.634 38.7214 133.034ZM40.4214 124.834L39.4214 124.634C39.7214 123.234 40.0214 121.934 40.4214 120.534L41.4214 120.834C41.1214 122.134 40.7214 123.534 40.4214 124.834ZM42.5214 116.834L41.5214 116.534C41.9214 115.134 42.3214 113.834 42.7214 112.534L43.7214 112.834C43.3214 114.134 42.9214 115.434 42.5214 116.834ZM45.1214 108.934L44.1214 108.534C44.6214 107.234 45.1214 105.934 45.6214 104.634L46.6214 105.034C46.1214 106.334 45.5214 107.634 45.1214 108.934ZM48.3214 101.234L47.3214 100.834C47.8214 99.734 48.4214 98.634 48.9214 97.434L49.1214 97.034L50.0214 97.534L49.8214 97.934C49.2214 99.034 48.7214 100.134 48.2214 101.234H48.3214ZM52.0214 93.834L51.1214 93.334C51.8214 92.134 52.5214 90.834 53.2214 89.734L54.1214 90.234C53.4214 91.434 52.7214 92.634 52.0214 93.834ZM56.2214 86.634L55.3214 86.034C56.1214 84.834 56.8214 83.634 57.6214 82.534L58.5214 83.134C57.7214 84.234 57.0214 85.434 56.2214 86.634ZM60.9214 79.734L60.1214 79.134C60.9214 78.034 61.8214 76.834 62.6214 75.734L63.4214 76.334C62.6214 77.434 61.7214 78.534 60.9214 79.634V79.734ZM66.0214 73.234L65.2214 72.534C66.1214 71.434 67.0214 70.334 67.9214 69.334L68.7214 70.034C67.8214 71.034 66.9214 72.134 66.0214 73.234ZM71.5214 66.934L70.7214 66.234C71.7214 65.234 72.6214 64.234 73.6214 63.234L74.3214 63.934C73.3214 64.934 72.4214 65.934 71.4214 66.934H71.5214ZM77.3214 61.034L76.6214 60.234C77.6214 59.234 78.7214 58.334 79.7214 57.334L80.4214 58.134C79.4214 59.034 78.4214 60.034 77.4214 60.934L77.3214 61.034ZM83.5214 55.434L82.8214 54.634C83.9214 53.734 85.0214 52.834 86.0214 51.934L86.7214 52.734C85.6214 53.634 84.6214 54.434 83.5214 55.434ZM90.0214 50.134L89.4214 49.334C90.5214 48.434 91.7214 47.634 92.8214 46.834L93.4214 47.734C92.3214 48.534 91.2214 49.334 90.1214 50.234L90.0214 50.134ZM96.8214 45.334L96.2214 44.434C97.0214 43.834 97.8214 43.334 98.6214 42.834L99.2214 43.734C98.4214 44.234 97.6214 44.734 96.8214 45.334Z" fill="#1A1A1A"/>
<path d="M21.8214 320.234L23.4214 227.734C24.5214 161.934 24.9214 139.834 37.1214 110.934C47.7214 86.0338 60.8214 70.5338 69.9214 62.0338C86.3214 46.6338 102.821 39.7338 118.621 33.1338C137.321 25.3338 152.221 21.4338 161.821 19.1338C162.121 19.1338 195.121 11.3338 223.821 11.8338C231.921 11.9338 240.321 12.6338 240.421 12.7338H240.721C261.221 14.4338 281.321 18.1338 300.521 24.0338H300.621C302.721 24.7338 304.721 25.3338 306.621 25.9338H307.021C313.421 28.1338 320.021 30.3338 326.521 32.7338L326.321 33.7338L326.621 32.7338C332.621 35.0338 337.921 37.2338 342.721 39.4338H342.921C346.321 41.2338 349.721 42.9338 352.921 44.8338C361.321 49.7338 368.921 55.3338 376.221 61.9338C382.721 67.8338 399.021 84.4338 411.421 110.934C419.421 127.934 426.021 148.534 426.521 228.034C426.721 258.234 425.921 288.834 424.321 319.134V320.234L423.121 320.134C355.821 313.434 287.321 310.034 219.621 310.134C154.221 310.234 88.0214 313.634 22.9214 320.134H21.7214L21.8214 320.234ZM223.021 308.134C289.321 308.134 356.321 311.434 422.321 318.034C423.921 288.134 424.621 257.934 424.421 228.134C423.921 149.034 417.421 128.634 409.521 111.834C397.321 85.6339 381.221 69.3338 374.821 63.5338C367.621 56.9338 360.121 51.4338 351.821 46.6338C348.621 44.8338 345.321 43.0338 341.921 41.4338L341.521 41.2338C336.821 39.0338 331.721 36.8338 325.821 34.6338C325.821 34.6338 325.821 34.6338 325.721 34.6338C319.321 32.2338 312.721 30.0338 306.321 28.0338H305.921C304.021 27.3338 302.021 26.6338 300.021 26.0338H299.921C280.821 20.2338 260.821 16.4338 240.521 14.8338H240.221C240.221 14.8338 231.721 14.1338 223.721 13.9338C195.321 13.4338 162.521 21.1338 162.221 21.1338C152.721 23.4338 137.921 27.3338 119.421 35.0338C103.021 41.9338 87.5214 48.3338 71.3214 63.5338C62.3214 71.9338 49.4214 87.1338 39.0214 111.734C26.9214 140.234 26.5214 162.334 25.4214 227.734L23.9214 317.934C88.7214 311.534 154.621 308.234 219.621 308.134C220.721 308.134 221.821 308.134 222.921 308.134H223.021Z" fill="#1A1A1A"/>
<path d="M22.7214 320.134C20.5214 319.534 18.3214 318.834 16.1214 317.934C12.4214 316.334 9.02139 314.334 5.82139 311.934L5.42139 311.634V311.134C5.42139 288.734 5.82139 265.934 6.62139 243.234C9.52139 163.934 15.6214 145.134 18.6214 136.234C24.5214 118.234 33.4214 90.934 58.2214 67.634C58.5214 67.334 59.0214 66.934 59.5214 66.434C71.2214 55.834 83.6214 48.334 103.621 39.534C119.021 32.834 138.321 24.434 165.921 18.334C179.721 15.334 193.821 13.334 207.821 12.334V14.434C194.021 15.434 180.021 17.434 166.421 20.434C139.021 26.434 119.921 34.734 104.521 41.434C84.7214 50.134 72.5214 57.534 60.9214 67.934C60.4214 68.334 60.0214 68.734 59.7214 69.034C35.2214 92.034 26.4214 118.934 20.6214 136.834C17.9214 145.034 11.7214 164.234 8.72139 243.334C7.92139 265.834 7.52139 288.434 7.52139 310.634C10.4214 312.834 13.6214 314.634 17.0214 316.034C19.0214 316.934 21.1214 317.634 23.3214 318.134L22.8214 320.134H22.7214Z" fill="#1A1A1A"/>
<path d="M422.121 320.434V319.134C423.821 288.934 424.621 258.334 424.421 228.134C423.921 149.034 417.421 128.634 409.521 111.834C397.321 85.6342 381.221 69.3342 374.821 63.5342C367.621 56.9342 360.121 51.4342 351.821 46.6342C350.821 45.9342 350.021 45.3342 349.221 44.8342L350.221 43.0342C366.421 50.9342 379.421 59.4342 388.021 67.4342C412.921 90.8342 421.821 118.034 427.621 136.034C430.521 145.034 436.621 163.734 439.621 243.034C440.421 265.634 440.821 288.434 440.821 310.934V311.434L440.421 311.734C437.221 314.534 433.621 316.734 429.721 318.234C427.721 319.034 425.521 319.634 423.421 320.034L422.121 320.234V320.434ZM368.921 55.7342C371.421 57.7342 373.821 59.7342 376.221 61.9342C382.721 67.8342 399.021 84.4342 411.421 110.934C419.421 127.934 426.021 148.534 426.521 228.034C426.721 257.734 426.021 287.934 424.421 317.834C426.021 317.434 427.521 317.034 429.021 316.434C432.521 315.034 435.821 313.134 438.821 310.534C438.821 288.234 438.421 265.534 437.621 243.134C434.721 164.134 428.421 144.834 425.721 136.634C419.921 118.834 411.121 91.8342 386.621 68.8342C382.021 64.5342 376.021 60.0342 368.921 55.6342V55.7342Z" fill="#1A1A1A"/>
<path d="M349.321 44.834C346.921 43.634 344.521 42.534 342.021 41.334H341.721C336.621 38.834 331.321 36.634 326.021 34.534C326.021 34.534 326.021 34.534 325.921 34.534C317.621 31.334 309.021 28.434 300.221 25.934H300.021C281.021 20.434 261.021 16.734 240.621 14.734H240.321L240.521 12.634H240.821C261.421 14.634 281.521 18.434 300.621 23.834H300.821C309.621 26.434 318.321 29.334 326.621 32.534H326.821C332.221 34.634 337.521 36.934 342.821 39.334H343.021C345.521 40.534 348.021 41.734 350.421 42.934L349.521 44.834H349.321Z" fill="#1A1A1A"/>
<path d="M422.021 439.134C412.421 439.134 402.621 434.434 398.521 432.534L397.921 432.234C366.421 417.334 282.521 400.434 240.521 398.134C177.021 394.734 81.4215 418.034 50.5215 431.934L50.1215 432.134C33.3215 439.734 20.9215 440.734 13.2215 435.234C9.22149 432.434 7.02148 428.034 5.52148 425.234L7.42149 424.234C8.82149 426.934 10.9215 430.934 14.4215 433.534C19.3215 437.034 29.2215 439.234 49.2215 430.234L49.6215 430.034C80.6215 416.134 176.721 392.634 240.621 396.034C282.822 398.334 367.121 415.334 398.821 430.334L399.421 430.634C404.921 433.234 421.521 441.134 432.121 434.434C434.921 432.634 437.221 429.934 438.821 426.334L440.721 427.234C438.921 431.134 436.421 434.234 433.221 436.234C429.821 438.434 425.921 439.234 421.921 439.234L422.021 439.134Z" fill="#1D1D1B"/>
<path d="M419.121 447.734C409.721 447.734 400.021 443.034 396.021 441.134L395.321 440.834C364.321 425.934 281.621 409.034 240.221 406.734C177.621 403.334 83.5215 426.634 53.0215 440.534L52.6215 440.734C36.0215 448.334 23.8215 449.334 16.2215 443.834C12.3215 441.034 10.1215 436.634 8.62147 433.834C3.12147 423.034 3.92147 412.134 4.22147 408.134C5.42147 392.334 9.02147 358.934 15.2215 316.834L17.3215 317.134C11.1215 359.234 7.52147 392.534 6.32147 408.334C6.02147 412.234 5.22147 422.634 10.4215 432.934C11.8215 435.634 13.8215 439.634 17.3215 442.234C22.1215 445.734 31.9215 447.934 51.6215 438.934L52.0215 438.734C82.6215 424.834 177.321 401.334 240.221 404.734C281.821 407.034 364.921 424.034 396.121 439.034L396.821 439.334C402.221 441.934 418.521 449.834 429.021 443.134C432.421 440.934 434.322 437.834 435.621 435.034C445.221 415.134 442.021 385.534 433.821 344.234C432.121 335.434 430.221 326.534 428.121 317.734L430.121 317.234C432.121 326.034 434.021 335.034 435.821 343.834C444.121 385.534 447.221 415.534 437.421 435.934C436.021 438.734 433.921 442.334 430.121 444.834C426.721 447.034 422.921 447.834 418.921 447.834L419.121 447.734Z" fill="#1A1A1A"/>
<path d="M241.621 14.134L240.421 12.434C241.821 11.434 242.621 10.334 242.621 9.53396C242.621 6.53396 234.321 2.43396 225.621 2.13396C217.821 1.83396 209.821 4.73396 206.921 7.63396C206.221 8.33396 205.821 9.03396 205.821 9.53396C205.821 10.234 206.621 11.134 207.921 11.934L206.821 13.734C204.821 12.434 203.721 11.034 203.721 9.63396C203.721 8.43396 204.221 7.33396 205.421 6.13396C208.721 2.83396 217.221 -0.366041 225.621 0.0339592C234.421 0.333959 244.621 4.53396 244.721 9.53396C244.721 11.134 243.721 12.734 241.721 14.234L241.621 14.134Z" fill="#1A1A1A"/>
<path d="M228.521 12.834C227.321 27.434 225.321 49.234 223.921 63.934C222.921 49.134 221.321 27.434 220.121 12.834H228.521Z" fill="#1A1A1A"/>
<path d="M349.521 44.334L348.521 43.734L349.121 42.834L350.121 43.434L349.521 44.334Z" fill="#1A1A1A"/>
</g>
<defs>
<filter id="filter0_d_280_1417" x="0" y="0" width="447.521" height="455.834" filterUnits="userSpaceOnUse" color-interpolation-filters="sRGB">
<feFlood flood-opacity="0" result="BackgroundImageFix"/>
<feColorMatrix in="SourceAlpha" type="matrix" values="0 0 0 0 0 0 0 0 0 0 0 0 0 0 0 0 0 0 127 0" result="hardAlpha"/>
<feOffset dy="4"/>
<feGaussianBlur stdDeviation="2"/>
<feComposite in2="hardAlpha" operator="out"/>
<feColorMatrix type="matrix" values="0 0 0 0 0 0 0 0 0 0 0 0 0 0 0 0 0 0 0.25 0"/>
<feBlend mode="normal" in2="BackgroundImageFix" result="effect1_dropShadow_280_1417"/>
<feBlend mode="normal" in="SourceGraphic" in2="effect1_dropShadow_280_1417" result="shape"/>
</filter>
</defs>
</svg>
