<svg width="282" height="270" viewBox="0 0 282 270" fill="none" xmlns="http://www.w3.org/2000/svg">
<g clip-path="url(#clip0_281_2952)">
<path d="M30.5059 260.096V261.811C32.6909 258.925 34.9817 256.13 37.3858 253.433V250.653H38.2175V252.527C40.6821 249.8 43.2602 247.178 45.9366 244.655C45.9366 244.104 45.9517 243.53 46.0046 242.948H46.8362C46.8362 243.235 46.8362 243.514 46.8362 243.801C49.6487 241.195 52.5896 238.717 55.6138 236.353V235.847H56.264C59.1747 233.603 62.1686 231.458 65.2607 229.448C65.3212 228.632 65.3817 227.779 65.4422 226.857H66.2738C66.2285 227.582 66.1831 228.247 66.1377 228.874C67.3323 228.111 68.5344 227.356 69.7516 226.63C91.9789 213.335 117.306 206.611 143.011 207.216C168.436 207.835 192.652 215.51 213.383 228.783C213.367 228.292 213.33 227.779 213.246 227.235H214.078C214.078 227.922 214.123 228.61 214.176 229.297C217.034 231.156 219.824 233.112 222.546 235.182V233.278H223.377V235.809C226.674 238.355 229.857 241.067 232.918 243.915C232.888 243.454 232.858 242.986 232.828 242.495H233.659C233.659 243.258 233.697 243.983 233.743 244.678C236.222 247.02 238.611 249.467 240.917 251.998V250.502H241.749V252.92C244.584 256.085 247.283 259.394 249.838 262.831V261.532H250.67V263.956C254.564 269.313 258.109 274.978 261.255 280.946L262.086 279.662C262.918 266.744 263.296 253.675 263.296 240.53V240.379C263.296 234.109 263.22 227.764 262.993 221.494C262.767 213.335 262.464 204.874 261.708 196.262C259.591 173.977 256.416 140.36 240.237 120.416C220.882 96.6957 186.785 96.3935 143.692 96.0158C97.7248 95.6381 61.3596 95.3359 40.1151 120.19C20.7607 142.928 18.417 180.247 17.5098 196.186C17.2829 200.417 17.2073 209.482 16.9805 227.461C16.8293 244.988 16.7537 262.589 16.9049 279.889L18.1902 281.173C21.5545 274.774 25.4103 268.693 29.6819 262.937V260.096H30.5135H30.5059ZM250.587 255.186V258.359H249.755V255.186H250.587ZM250.436 248.765C250.436 249.822 250.436 250.88 250.511 251.938H249.68C249.68 250.88 249.68 249.822 249.604 248.765H250.436ZM47.1387 236.602C47.1387 237.735 46.9874 238.793 46.9874 239.851H46.1558V239.775C46.1558 238.717 46.2314 237.66 46.307 236.602H47.1387ZM56.8915 229.501C56.8159 230.634 56.7403 231.692 56.6647 232.749H55.833V232.674C55.833 231.616 55.9842 230.559 56.0598 229.501H56.8915ZM47.3655 233.429H46.5338V233.354C46.5338 232.296 46.685 231.239 46.7606 230.181H47.5923C47.5167 231.314 47.4411 232.372 47.3655 233.429ZM47.8191 227.008H46.9874V226.933C47.0631 225.875 47.1387 224.817 47.2899 223.76H48.1215C48.0459 224.893 47.8947 225.951 47.8191 227.008ZM56.2866 226.328V226.253C56.3622 225.195 56.4379 224.138 56.5891 223.08H57.4207C57.3451 224.213 57.1939 225.271 57.1183 226.328H56.2866ZM66.8711 220.511C66.7199 221.72 66.6443 222.778 66.5687 223.76H65.737V223.684C65.8126 222.627 65.9639 221.569 66.0395 220.511H66.8711ZM48.4239 220.663H47.5923V220.587C47.6679 219.529 47.8191 218.472 47.8947 217.414H48.7263C48.5751 218.547 48.4995 219.605 48.4239 220.663ZM56.8915 219.983V219.907C56.9671 218.849 57.1183 217.792 57.2695 216.734H58.1011C57.9499 217.943 57.8743 219.001 57.7231 219.983H56.8915ZM67.5515 214.09C67.4003 215.299 67.2491 216.357 67.1735 217.339H66.3419L66.4175 217.263C66.5687 216.205 66.7199 215.148 66.7955 214.09H67.5515ZM49.1043 214.241H48.2727V214.166L48.6507 210.993H49.4824C49.4824 211.068 49.1043 214.241 49.1043 214.241ZM57.5719 213.637L57.6475 213.486C57.7987 212.428 57.9499 211.371 58.1011 210.313L58.8572 210.464C58.7059 211.522 58.5547 212.579 58.4035 213.637H57.5719ZM68.5344 207.896C68.3832 208.953 68.232 210.011 68.0807 211.068L67.3247 210.917C67.4759 209.86 67.6271 208.802 67.7783 207.745L68.5344 207.896ZM49.936 207.896H49.1043V207.82C49.2555 206.763 49.4067 205.705 49.4824 204.647H50.314C50.1628 205.78 50.0116 206.838 49.936 207.896ZM59.3108 207.291L58.5547 207.14C58.7059 206.083 58.8572 205.025 59.084 203.967L59.84 204.119C59.6888 205.176 59.462 206.234 59.3108 207.291ZM70.8025 164.232V164.156L70.8403 164.186C71.5056 163.37 72.1784 162.554 72.9193 161.814L73.5242 162.343C72.7681 163.098 72.0877 163.929 71.4073 164.685L70.8403 164.186C70.8403 164.186 70.8176 164.216 70.8025 164.232ZM131.512 156.979L131.587 156.904V156.979C132.623 156.979 133.651 156.904 134.536 156.828H134.763V157.584H134.612C133.704 157.584 132.646 157.659 131.587 157.735V156.979C131.587 156.979 131.535 156.979 131.512 156.979ZM80.4797 155.846L80.5553 155.771L80.5704 155.793C81.455 155.28 82.4 154.766 83.3526 154.26L83.7306 154.94C82.7478 155.393 81.8405 155.922 80.9333 156.451L80.5704 155.793C80.5704 155.793 80.5099 155.824 80.4797 155.846ZM67.2491 150.86L67.7783 151.465C67.0223 152.145 66.2663 152.9 65.5102 153.655L64.9054 153.127H64.981L67.2491 150.86ZM86.3767 152.9H86.3011C87.284 152.522 88.2668 152.069 89.3252 151.767L89.6277 152.522C88.6448 152.9 87.5864 153.278 86.6791 153.655L86.3767 152.9ZM187.761 150.785V150.709L187.987 149.954C189.046 150.332 190.029 150.709 191.012 151.087L190.709 151.842C189.726 151.465 188.743 151.087 187.761 150.785ZM193.658 153.051L194.036 152.296C195.019 152.749 196.001 153.278 196.909 153.807L196.531 154.486C195.623 153.958 194.716 153.429 193.733 152.976L193.658 153.051ZM199.101 156.299V156.224C199.101 156.224 199.124 156.239 199.131 156.247L199.555 155.62C200.462 156.224 201.294 156.904 202.125 157.584L201.596 158.188C200.772 157.516 199.955 156.851 199.131 156.247L199.101 156.299ZM215.734 155.317C216.339 156.148 217.019 157.055 217.548 157.961L216.868 158.415C216.339 157.508 215.734 156.677 215.053 155.771L215.734 155.317ZM118.735 157.886H118.659C119.718 157.735 120.852 157.659 121.835 157.584V158.415C120.852 158.49 119.793 158.641 118.735 158.717V157.886ZM115.484 159.095C114.577 159.246 113.518 159.397 112.384 159.548L112.233 158.792L112.309 158.717C113.367 158.566 114.426 158.415 115.484 158.264V159.095ZM163.416 158.188H163.492V157.357C164.626 157.508 165.685 157.584 166.743 157.81L166.592 158.566C165.533 158.415 164.475 158.264 163.416 158.188ZM157.141 156.828C158.275 156.828 159.334 156.979 160.392 157.055V157.886C159.258 157.81 158.2 157.735 157.141 157.659V156.828ZM153.966 157.433C152.832 157.433 151.774 157.357 150.715 157.357V156.526C151.774 156.526 152.832 156.526 153.966 156.602V157.433ZM146.935 156.526H147.615V157.357H144.364V156.526H146.935ZM141.113 157.433C140.055 157.433 138.921 157.433 137.938 157.508V156.677C138.997 156.677 140.055 156.677 141.113 156.602V157.433ZM128.261 157.886C127.278 157.886 126.22 158.037 125.086 158.113V157.282C126.22 157.206 127.278 157.13 128.261 157.055V157.886ZM78.2872 158.264C77.4555 158.868 76.5483 159.548 75.7923 160.228L75.2631 159.623V159.548C76.0947 158.868 76.9263 158.188 77.8336 157.584L78.2872 158.264ZM106.034 159.85H105.958C107.016 159.623 108.075 159.397 109.133 159.246L109.285 160.001C108.226 160.152 107.168 160.379 106.185 160.605L106.034 159.85ZM96.5832 162.343L96.81 163.098C95.7515 163.476 94.7687 163.778 93.7858 164.156L93.4834 163.401L93.559 163.476C94.5419 163.098 95.5247 162.721 96.5832 162.343ZM182.468 161.663C183.451 162.041 184.51 162.494 185.417 162.872L185.115 163.627C184.132 163.174 183.149 162.796 182.166 162.419L182.468 161.663ZM218.38 161.059L218.456 161.134L219.136 160.757C219.665 161.663 220.119 162.645 220.572 163.627L219.816 163.929C219.363 162.947 218.909 162.041 218.38 161.059ZM206.51 162.041L206.737 162.267L206.132 162.796L205.905 162.57C205.301 161.814 204.62 161.134 204.015 160.454L203.94 160.379L204.545 159.85C205.225 160.53 205.905 161.285 206.51 162.041ZM179.369 160.681L179.142 161.436C178.159 161.134 177.101 160.832 176.042 160.53L176.269 159.774C177.327 160.077 178.386 160.379 179.369 160.681ZM103.009 161.285C101.951 161.512 100.893 161.814 99.9097 162.116L99.6829 161.361C100.666 161.059 101.724 160.757 102.783 160.53L103.009 161.285ZM59.9912 161.361C59.5376 162.267 59.0084 163.249 58.6303 164.232L57.8743 163.929V163.854C58.3279 162.872 58.7815 161.89 59.3108 160.983L59.9912 161.361ZM188.29 164.383C189.273 164.911 190.18 165.44 191.087 165.969L190.634 166.649C189.726 166.12 188.819 165.591 187.912 165.063L188.29 164.383ZM90.9129 165.44C89.9301 165.893 88.9472 166.347 88.04 166.876L87.662 166.196L87.7376 166.12C88.6448 165.591 89.6277 165.138 90.6105 164.685L90.9129 165.44ZM69.5928 167.329C69.0636 168.16 68.5344 169.066 68.0807 170.124L67.3247 169.746C67.7783 168.689 68.3076 167.782 68.9124 166.876L69.5928 167.329ZM57.4963 167.178C57.1183 168.16 56.8159 169.142 56.5135 170.199L55.7574 169.973L55.6818 169.897C55.9842 168.84 56.3622 167.782 56.7403 166.876L57.4963 167.178ZM82.3698 169.671H82.2942C83.1258 168.991 84.033 168.386 84.9403 167.782L85.3939 168.462C84.4866 169.066 83.5794 169.671 82.8234 170.275L82.3698 169.671ZM193.28 168.462L193.733 167.858C194.565 168.538 195.472 169.217 196.228 169.897L195.699 170.502C194.943 169.822 194.111 169.142 193.28 168.462ZM221.102 166.876V166.8C221.102 166.8 221.117 166.845 221.124 166.868L221.858 166.573C222.236 167.555 222.614 168.538 222.992 169.595L222.236 169.822C221.865 168.787 221.495 167.827 221.124 166.868H221.102V166.876ZM211.878 170.426C212.332 171.333 212.785 172.39 213.163 173.372L212.407 173.674C212.029 172.692 211.576 171.71 211.122 170.804L211.878 170.426ZM223.219 172.919L223.975 172.692C224.277 173.674 224.579 174.732 224.806 175.79L224.05 176.016C223.748 174.959 223.521 173.901 223.219 172.919ZM199.933 175.11C199.328 174.279 198.648 173.448 197.967 172.692L198.572 172.164C199.328 172.995 200.008 173.826 200.613 174.657L199.933 175.11ZM80.3285 172.39C79.5724 173.146 78.8164 173.901 78.136 174.657L77.5312 174.128H77.6068C78.2872 173.297 79.0432 172.541 79.7992 171.786L80.3285 172.39ZM66.7955 172.995C66.4175 173.901 66.1151 174.883 65.8127 176.016L65.0566 175.79C65.359 174.657 65.737 173.674 66.0395 172.692L66.7955 172.995ZM55.5306 173.297C55.3038 174.279 55.0014 175.336 54.7746 176.394L54.0185 176.243V176.167C54.2454 175.11 54.5478 174.052 54.7746 173.07L55.5306 173.297ZM214.297 176.318C214.675 177.301 214.978 178.358 215.28 179.416L214.524 179.642C214.222 178.585 213.844 177.603 213.541 176.621L214.297 176.318ZM224.806 179.189V179.114L225.562 178.963C225.789 180.02 226.016 181.002 226.243 182.135L225.487 182.286C225.26 181.229 225.033 180.171 224.806 179.189ZM203.108 180.7C202.654 179.718 202.125 178.736 201.596 177.905L201.672 177.829L202.352 177.452C202.881 178.358 203.411 179.34 203.864 180.322L203.108 180.7ZM76.3971 177.225C75.8679 177.98 75.4143 178.811 75.0362 179.567C75.0362 179.718 74.885 179.794 74.885 179.945L74.129 179.642L74.0534 179.567C74.0534 179.416 74.2046 179.265 74.2802 179.189C74.7338 178.358 75.1874 177.527 75.7167 176.772L76.3971 177.225ZM64.981 179.114C64.7542 180.096 64.4518 181.153 64.225 182.211L63.4689 182.06V181.984C63.6958 180.927 63.9982 179.869 64.225 178.887L64.981 179.114ZM54.0942 179.416C53.8673 180.398 53.7161 181.455 53.4893 182.589L52.7333 182.438C52.9601 181.38 53.1113 180.322 53.3381 179.265L54.0942 179.416ZM216.187 182.513C216.49 183.495 216.717 184.553 216.943 185.61L216.187 185.761C215.968 184.726 215.673 183.699 215.447 182.732H215.431V182.664C215.431 182.687 215.447 182.709 215.447 182.732L216.187 182.513ZM204.393 183.495L204.469 183.42C204.469 183.42 204.477 183.45 204.484 183.457L205.149 183.193C205.527 184.175 205.905 185.157 206.283 186.215L205.527 186.441C205.157 185.399 204.855 184.432 204.484 183.457L204.393 183.495ZM226.167 185.308H226.091L226.848 185.157C227.074 186.215 227.226 187.272 227.452 188.33L226.696 188.481C226.545 187.423 226.318 186.366 226.167 185.308ZM73.6754 182.815C73.373 183.722 73.1462 184.704 72.8438 185.913L72.0877 185.761V185.686C72.3901 184.477 72.6169 183.495 72.9193 182.589L73.6754 182.815ZM63.5446 185.233C63.3177 186.215 63.0909 187.272 62.8641 188.33L62.1232 188.179C62.1232 188.179 62.1157 188.224 62.1081 188.254V188.179H62.1232C62.3425 187.151 62.5693 186.116 62.7885 185.082L63.5446 185.233ZM52.9601 185.761C52.8089 186.819 52.6577 187.801 52.4309 188.934L51.6748 188.783C51.8261 187.726 51.9773 186.668 52.2041 185.61L52.9601 185.761ZM71.4073 188.783L72.1633 188.934C71.9365 189.916 71.7097 190.974 71.4829 192.032L70.742 191.88C70.742 191.88 70.7344 191.926 70.7269 191.956V191.88H70.742C70.9612 190.778 71.188 189.743 71.4073 188.783ZM227.15 191.654L227.906 191.503C228.057 192.56 228.208 193.618 228.36 194.676L227.604 194.827C227.452 193.769 227.301 192.711 227.15 191.654ZM207.266 192.636C206.964 191.578 206.737 190.596 206.435 189.539L207.191 189.312C207.493 190.294 207.795 191.352 208.022 192.409L207.266 192.636ZM218.229 191.956L217.473 192.107C217.246 191.049 217.019 189.992 216.868 189.01V188.934L217.624 188.783C217.851 189.841 218.078 190.823 218.229 191.956ZM62.1837 191.503C61.9569 192.485 61.8057 193.542 61.5789 194.676L60.8228 194.524C61.0496 193.467 61.2765 192.409 61.4277 191.352L62.1837 191.503ZM51.9773 192.107C51.8261 193.165 51.6748 194.222 51.5236 195.28H50.7676V195.129C50.9188 194.071 51.07 193.014 51.2212 191.956L51.9773 192.107ZM70.122 195.129L70.8781 195.28L70.2732 198.453L69.5172 198.302L70.122 195.129ZM208.854 198.755C208.635 197.72 208.34 196.693 208.113 195.726H208.098V195.658C208.098 195.68 208.113 195.703 208.113 195.726L208.854 195.507C209.081 196.489 209.383 197.546 209.61 198.604L208.854 198.755ZM228.133 197.924H228.889C229.04 198.83 229.191 199.888 229.342 201.021H228.586C228.435 200.039 228.284 198.982 228.133 197.924ZM60.974 197.848C60.7472 198.906 60.596 199.964 60.3692 201.021L59.6132 200.87C59.7644 199.813 59.9912 198.755 60.218 197.697L60.974 197.848ZM51.1456 198.302C50.9944 199.435 50.8432 200.492 50.692 201.55H49.8604L49.936 201.474C50.0872 200.417 50.2384 199.359 50.3896 198.302H51.1456ZM68.8368 201.399L69.5928 201.55C69.366 202.608 69.2148 203.665 69.0636 204.723L68.3076 204.572C68.4588 203.514 68.6856 202.457 68.8368 201.399ZM219.212 201.55L219.968 201.399C220.119 202.457 220.346 203.514 220.497 204.572L219.741 204.723C219.59 203.665 219.363 202.608 219.212 201.55ZM211.046 204.949L210.29 205.101C210.064 204.043 209.837 203.061 209.61 202.003V201.928L210.366 201.777C210.593 202.834 210.82 203.892 211.046 204.949ZM229.418 207.367C229.267 206.385 229.116 205.327 228.964 204.27H229.796C229.947 205.176 230.098 206.234 230.25 207.367H229.418ZM221.026 207.669C221.177 208.727 221.328 209.784 221.48 210.842H220.724C220.572 209.935 220.421 208.878 220.27 207.82L221.026 207.669ZM210.895 208.198L211.651 208.047C211.878 209.104 212.029 210.162 212.18 211.22L211.424 211.371C211.273 210.313 211.046 209.255 210.895 208.198ZM230.174 213.713C230.174 213.788 229.796 210.615 229.796 210.615H230.628C230.628 210.54 231.006 213.713 231.006 213.713H230.174ZM212.332 217.49C212.18 216.583 212.105 215.526 211.878 214.392L211.954 214.468L212.71 214.317C212.861 215.374 213.012 216.432 213.163 217.49H212.332ZM221.177 214.166H222.009C222.16 215.148 222.236 216.205 222.387 217.263H221.555C221.48 216.281 221.328 215.223 221.177 214.166ZM231.006 220.134C230.93 219.529 230.854 218.849 230.779 218.17L230.628 217.112V217.036H231.459C231.459 216.961 231.611 218.019 231.611 218.019C231.686 218.698 231.762 219.454 231.837 220.134H231.006ZM213.012 223.911C212.937 222.929 212.861 221.871 212.71 220.814H213.541C213.617 221.871 213.768 222.929 213.844 223.911H213.012ZM221.858 220.511H222.689C222.765 221.569 222.841 222.627 222.916 223.609H222.085C222.085 222.627 221.933 221.569 221.858 220.511ZM231.686 226.479C231.611 225.497 231.459 224.44 231.384 223.382H232.215C232.367 224.364 232.442 225.422 232.518 226.479H231.686ZM222.463 230.105C222.463 229.123 222.387 228.066 222.311 226.933H223.143C223.143 227.99 223.219 229.048 223.294 230.105H222.463ZM232.215 232.825C232.14 231.843 232.064 230.785 231.989 229.728H232.82C232.896 230.785 232.971 231.843 233.047 232.825H232.215ZM232.745 239.246C232.745 238.264 232.593 237.207 232.518 236.073H233.349C233.349 237.131 233.501 238.189 233.576 239.246H232.745ZM240.834 247.254C240.834 246.272 240.834 245.139 240.759 244.081H241.59C241.59 245.139 241.59 246.196 241.666 247.254H240.834ZM250.133 242.344C250.133 243.401 250.209 244.459 250.285 245.516H249.453C249.453 244.534 249.377 243.401 249.302 242.344H250.133ZM241.515 240.833H240.683C240.683 239.851 240.607 238.793 240.532 237.66H241.363C241.363 238.717 241.439 239.775 241.515 240.833ZM249.831 235.998C249.831 237.055 249.982 238.113 249.982 239.171H249.15C249.15 238.189 249.075 237.131 248.999 235.998H249.831ZM240.38 234.487C240.38 233.505 240.229 232.447 240.229 231.314H241.061C241.061 232.372 241.212 233.429 241.212 234.487H240.38ZM249.453 229.577C249.453 230.634 249.604 231.692 249.68 232.749H248.848C248.848 231.767 248.697 230.71 248.621 229.577H249.453ZM240.002 228.066C240.002 227.084 239.851 226.026 239.776 224.893H240.607C240.683 225.875 240.758 227.008 240.834 228.066H240.002ZM248.999 223.155C249.075 224.138 249.15 225.271 249.226 226.253H248.394C248.319 225.271 248.243 224.213 248.168 223.155H248.999ZM240.38 221.645H239.549C239.473 220.663 239.398 219.605 239.246 218.547H240.078C240.154 219.529 240.305 220.587 240.38 221.645ZM248.47 216.81L248.697 219.907H247.865L247.638 216.81H248.47ZM238.944 215.223C238.868 214.241 238.717 213.184 238.642 212.126H239.473C239.549 213.108 239.7 214.166 239.776 215.223H238.944ZM247.941 210.389L248.168 213.486H247.336L247.109 210.389H247.941ZM238.264 208.878C238.264 208.953 237.886 205.78 237.886 205.78H238.717C238.717 205.705 239.095 208.878 239.095 208.878H238.264ZM247.412 204.043L247.714 207.14H246.882L246.58 204.043H247.412ZM237.583 202.532C237.583 202.608 237.205 199.435 237.205 199.435H238.037C238.037 199.359 238.415 202.532 238.415 202.532H237.583ZM246.807 197.697C246.882 198.679 247.034 199.737 247.109 200.795H246.278C246.202 199.813 246.051 198.755 245.975 197.697H246.807ZM219.363 198.226L218.607 198.377C218.456 197.32 218.229 196.262 218.078 195.204L218.834 195.053C218.985 196.111 219.212 197.168 219.363 198.226ZM236.827 196.186C236.676 195.204 236.6 194.147 236.449 193.089H237.281C237.432 194.071 237.508 195.129 237.659 196.186H236.827ZM246.202 191.276C246.278 192.258 246.429 193.316 246.504 194.373H245.673C245.597 193.391 245.446 192.334 245.37 191.276H246.202ZM236.071 189.765C235.92 188.783 235.769 187.726 235.693 186.668H236.525C236.676 187.574 236.827 188.632 236.903 189.765H236.071ZM245.597 184.93C245.748 185.913 245.824 186.97 245.975 188.028H245.143C245.068 187.046 244.917 185.988 244.765 184.93H245.597ZM235.239 183.42C235.088 182.438 234.937 181.38 234.786 180.398L235.542 180.247C235.693 181.304 235.844 182.362 235.995 183.42H235.239ZM244.765 178.585C244.917 179.491 245.068 180.549 245.143 181.682H244.312C244.161 180.7 244.085 179.642 243.934 178.585H244.765ZM234.332 177.225C234.181 176.167 233.954 175.11 233.803 174.052L234.559 173.901C234.71 174.959 234.937 176.016 235.088 177.074L234.332 177.225ZM244.312 175.261H243.556C243.405 174.279 243.253 173.221 243.102 172.239L243.858 172.088C244.009 173.146 244.161 174.203 244.312 175.261ZM233.274 170.955C233.047 169.897 232.82 168.84 232.593 167.858V167.782L233.349 167.631C233.576 168.613 233.803 169.671 234.03 170.804L233.274 170.955ZM243.329 168.991L242.573 169.142C242.422 168.084 242.195 167.027 241.968 165.969L242.724 165.818C242.951 166.876 243.102 167.858 243.329 168.991ZM210.366 167.555L209.686 167.933C209.156 167.027 208.552 166.12 208.022 165.289H207.947L208.627 164.836C209.232 165.667 209.837 166.649 210.366 167.555ZM231.837 164.685C231.535 163.627 231.308 162.57 231.006 161.588L231.762 161.361C232.064 162.343 232.367 163.401 232.593 164.458L231.837 164.685ZM242.044 162.57L241.288 162.721C241.068 161.686 240.842 160.658 240.547 159.691H240.532V159.623C240.532 159.646 240.547 159.669 240.547 159.691L241.288 159.472C241.515 160.454 241.817 161.512 242.044 162.57ZM173.018 159.699C171.96 159.472 170.901 159.246 169.918 159.095H169.843L169.994 158.339C171.052 158.566 172.111 158.717 173.169 158.943L173.018 159.699ZM229.947 158.641C229.569 157.659 229.191 156.602 228.813 155.695V155.62L229.569 155.317C229.947 156.299 230.401 157.282 230.703 158.339L229.947 158.641ZM240.532 156.526L239.776 156.753C239.473 155.695 239.171 154.713 238.793 153.731V153.655L239.549 153.429C239.851 154.411 240.229 155.469 240.532 156.526ZM213.012 153.202C212.256 152.447 211.576 151.691 210.82 150.936L210.895 151.011L211.424 150.407C212.18 151.163 212.861 151.918 213.541 152.673V152.749L213.012 153.278V153.202ZM227.528 152.749C226.999 151.767 226.545 150.86 225.94 150.029L226.621 149.576C227.15 150.483 227.679 151.389 228.208 152.371L227.528 152.749ZM181.788 148.216C182.846 148.443 183.905 148.67 184.888 148.972L184.661 149.727C183.678 149.425 182.62 149.198 181.561 148.972H181.637L181.788 148.216ZM175.362 147.159C176.571 147.31 177.63 147.461 178.688 147.688L178.537 148.443C177.554 148.292 176.496 148.141 175.362 147.99V147.159ZM172.262 147.536C171.128 147.461 170.069 147.31 169.011 147.234V146.403C170.145 146.479 171.204 146.554 172.262 146.705V147.536ZM111.401 148.216V147.385H111.326C112.384 147.31 113.443 147.159 114.501 147.083V147.914C113.518 147.99 112.46 148.065 111.401 148.216ZM108.15 148.594C107.168 148.745 106.109 148.821 105.051 148.972V148.216L104.975 148.141C106.034 147.99 107.092 147.839 108.15 147.763V148.594ZM206.087 146.804L206.057 146.857V146.781C206.057 146.781 206.079 146.796 206.087 146.804L206.51 146.177C207.342 146.781 208.249 147.461 209.081 148.141L208.552 148.745C207.727 148.073 206.911 147.408 206.087 146.804ZM165.911 147.008C164.777 147.008 163.719 146.932 162.66 146.857V146.026C163.794 146.026 164.853 146.101 165.911 146.177V147.008ZM159.485 146.781H156.234V145.95H159.485V146.781ZM152.983 146.781H149.808V145.95H152.983V146.781ZM146.557 146.026V146.857H143.382V146.026H146.557ZM140.206 146.177C140.206 146.101 140.206 146.932 140.206 146.932H137.031C137.031 147.008 137.031 146.177 137.031 146.177H140.206ZM133.78 146.328C133.78 146.252 133.78 147.083 133.78 147.083H130.605C130.605 147.159 130.605 146.328 130.605 146.328H133.78ZM127.354 147.31C126.295 147.31 125.237 147.31 124.178 147.385V146.554C125.237 146.554 126.295 146.479 127.354 146.479V147.31ZM120.927 147.536C119.869 147.536 118.811 147.612 117.752 147.688V146.857C118.811 146.857 119.869 146.705 120.927 146.705V147.536ZM72.8438 147.612C71.9365 148.216 71.1049 148.821 70.2732 149.425L69.8196 148.821H69.744C70.5757 148.141 71.4829 147.536 72.3901 146.932L72.8438 147.612ZM98.7001 149.198H98.6244C99.6073 148.972 100.666 148.821 101.8 148.594L101.951 149.349C100.893 149.501 99.8341 149.727 98.8513 149.954L98.7001 149.198ZM238.415 150.332L237.659 150.634C237.281 149.652 236.827 148.67 236.374 147.763L237.13 147.385C237.583 148.292 238.037 149.349 238.415 150.332ZM224.731 146.932L224.126 147.385L223.975 147.159C223.37 146.403 222.765 145.648 222.16 144.968H222.085L222.689 144.439C223.294 145.195 223.975 145.95 224.579 146.705L224.731 146.932ZM84.2598 141.946C83.277 142.324 82.2185 142.702 81.3113 143.155L81.0089 142.399H80.9333C81.9161 142.022 82.899 141.568 83.9574 141.191L84.2598 141.946ZM194.867 140.889L195.17 140.133C196.153 140.511 197.211 140.964 198.118 141.342L197.816 142.097C196.833 141.644 195.85 141.266 194.867 140.889ZM201.067 142.853C202.05 143.382 202.957 143.91 203.864 144.439L203.411 145.119C202.503 144.59 201.596 144.061 200.689 143.533L201.067 142.853ZM78.3628 144.364C77.3799 144.817 76.4727 145.346 75.5655 145.874L75.1874 145.195H75.1118C76.0191 144.666 77.0019 144.137 77.9848 143.684L78.3628 144.364ZM235.617 144.515L234.937 144.892C234.408 143.993 233.886 143.094 233.281 142.188L233.198 142.248L233.274 142.173C233.274 142.173 233.274 142.188 233.281 142.188L233.879 141.795C234.483 142.702 235.013 143.608 235.617 144.515ZM220.497 142.097L219.968 142.702C219.212 141.946 218.456 141.266 217.624 140.586V140.511L218.153 139.907C218.985 140.586 219.741 141.342 220.497 142.097ZM231.989 139.151L231.384 139.68C230.703 138.849 230.023 138.018 229.342 137.263H229.267L229.872 136.734C230.628 137.565 231.308 138.32 231.989 139.151ZM191.919 139.907C190.936 139.604 189.878 139.302 188.895 139H188.819L189.046 138.245C190.104 138.547 191.163 138.849 192.146 139.151L191.919 139.907ZM215.583 137.867L215.129 138.471C214.297 137.867 213.39 137.263 212.559 136.658L212.483 136.734L212.937 136.054C213.844 136.658 214.751 137.263 215.583 137.867ZM66.5687 136.734C65.737 137.338 64.8298 138.018 64.0738 138.622L63.5446 138.018C64.3762 137.338 65.2078 136.734 66.1151 136.054L66.5687 136.734ZM108.982 135.752V136.583C107.999 136.658 106.941 136.809 105.882 136.96V136.129H105.807C106.865 135.978 107.924 135.903 108.982 135.752ZM102.631 136.583L102.783 137.338C101.724 137.489 100.666 137.64 99.6073 137.867L99.4561 137.111C100.515 136.96 101.573 136.734 102.631 136.583ZM182.695 137.64H182.62L182.771 136.885C183.829 137.111 184.888 137.263 185.946 137.489L185.795 138.245C184.737 138.018 183.754 137.791 182.695 137.64ZM179.52 136.28L179.369 137.036C178.333 136.885 177.305 136.741 176.269 136.59V136.658L176.193 136.583C176.193 136.583 176.246 136.583 176.269 136.59V135.827C177.403 135.978 178.537 136.129 179.52 136.28ZM173.169 135.525V136.356C172.035 136.28 170.977 136.205 169.918 136.054V135.223C171.052 135.298 172.111 135.374 173.169 135.525ZM147.464 135.449H144.289V134.619H147.464V135.449ZM150.715 134.619H153.966V135.449H150.715V134.619ZM141.113 135.449H137.938V134.619H141.113V135.449ZM134.687 135.449H131.512V134.619H134.687V135.449ZM128.261 135.525C127.202 135.525 126.144 135.525 125.086 135.601V134.77C126.144 134.77 127.202 134.77 128.261 134.694V135.525ZM157.141 135.525V134.694C158.2 134.694 159.334 134.694 160.392 134.77V135.601C159.334 135.601 158.275 135.601 157.141 135.525ZM163.568 134.921C164.702 134.921 165.76 134.996 166.819 135.072V135.903C165.684 135.903 164.626 135.827 163.568 135.752V134.921ZM207.039 133.561H206.964L207.342 132.881C208.325 133.334 209.308 133.863 210.215 134.392L209.837 135.072C208.93 134.543 207.947 134.09 207.039 133.561ZM227.604 134.392L227.074 134.996C226.318 134.241 225.562 133.561 224.731 132.805L225.26 132.201C226.091 132.881 226.847 133.636 227.604 134.392ZM204.167 132.277C203.184 131.899 202.201 131.446 201.218 131.068H201.142L201.445 130.313C202.428 130.69 203.486 131.068 204.469 131.521L204.167 132.277ZM222.841 130.161L222.387 130.766C221.555 130.086 220.648 129.482 219.816 128.877L219.741 128.953L220.194 128.273C221.102 128.877 221.933 129.482 222.841 130.161ZM195.17 129.104H195.094L195.321 128.348C196.379 128.651 197.362 128.953 198.421 129.255L198.194 130.01C197.211 129.708 196.153 129.406 195.17 129.104ZM80.8577 129.708L80.6309 128.953H80.5553C81.5381 128.651 82.5966 128.273 83.655 127.971L83.8818 128.726C82.8234 129.028 81.8405 129.33 80.8577 129.708ZM192.07 128.273C191.012 128.046 190.029 127.82 188.97 127.593H188.895L189.046 126.838C190.104 127.064 191.163 127.291 192.221 127.517L192.07 128.273ZM96.3563 126.007C95.2979 126.158 94.2395 126.309 93.181 126.535L93.0298 125.78C94.0883 125.629 95.1467 125.402 96.2051 125.251L96.3563 126.007ZM99.4561 124.873H99.3805C100.439 124.722 101.497 124.647 102.556 124.496V125.327C101.573 125.402 100.515 125.553 99.4561 125.704V124.873ZM182.544 126.46L182.695 125.704C183.754 125.855 184.812 126.007 185.871 126.233L185.719 126.989C184.661 126.838 183.602 126.611 182.544 126.46ZM217.473 126.535L217.019 127.215C216.112 126.686 215.205 126.158 214.297 125.629L214.675 124.949C215.658 125.478 216.565 126.007 217.473 126.535ZM179.52 125.251V126.082C178.386 125.931 177.327 125.855 176.269 125.704V124.873C177.403 124.949 178.461 125.1 179.52 125.251ZM173.094 125.327C171.96 125.251 170.901 125.176 169.843 125.1V124.269C170.977 124.345 172.035 124.42 173.094 124.496V125.327ZM144.289 123.514H147.54V124.345H144.289V123.514ZM141.038 124.269H137.863V123.438H141.038V124.269ZM150.639 123.589H153.89V124.42H150.639V123.589ZM157.066 123.665C158.124 123.665 159.258 123.665 160.317 123.74V124.571C159.258 124.571 158.124 124.571 157.066 124.496V123.665ZM163.492 123.891C164.626 123.891 165.685 123.967 166.743 124.042V124.873C165.609 124.873 164.55 124.722 163.492 124.722V123.891ZM211.802 123.514L211.424 124.269C210.517 123.816 209.534 123.363 208.552 122.985V122.909L208.854 122.154C209.837 122.607 210.82 122.985 211.802 123.514ZM205.83 120.945L205.527 121.701C204.545 121.323 203.562 120.945 202.503 120.643H202.579L202.806 119.888C203.864 120.19 204.847 120.567 205.83 120.945ZM199.782 118.905L199.555 119.661C198.572 119.359 197.513 119.057 196.455 118.83L196.682 118.074C197.74 118.377 198.723 118.603 199.782 118.905ZM193.582 117.395L193.431 118.15C192.372 117.923 191.39 117.697 190.331 117.47H190.256L190.407 116.715C191.465 116.941 192.524 117.168 193.582 117.395ZM187.231 116.11L187.08 116.866C186.022 116.715 184.963 116.488 183.905 116.337L184.056 115.582C185.115 115.733 186.173 115.884 187.231 116.11ZM180.805 115.128V115.959C179.671 115.808 178.613 115.733 177.554 115.582V114.751C178.688 114.902 179.747 114.977 180.805 115.128ZM174.454 114.373V115.204C173.32 115.128 172.262 115.053 171.204 114.977V114.146C172.338 114.222 173.396 114.297 174.454 114.373ZM168.104 113.92V114.751C166.97 114.751 165.911 114.599 164.853 114.599V113.769C165.987 113.769 167.045 113.844 168.104 113.92ZM161.678 113.617V114.448C160.543 114.448 159.485 114.448 158.427 114.373V113.542C159.485 113.542 160.619 113.542 161.678 113.617ZM155.251 113.391V114.222H152V113.391H155.251ZM148.749 113.391V114.222H145.574V113.391H148.749ZM142.323 113.315V114.146H139.148V113.315H142.323ZM135.972 114.222H132.797V113.391H135.972V114.222ZM129.546 113.391V114.222H126.371V113.391H129.546ZM123.12 113.542V114.373H119.945V113.542H123.12ZM116.694 113.617V114.448C115.635 114.448 114.577 114.524 113.518 114.599V113.769C114.577 113.769 115.635 113.693 116.694 113.617ZM110.267 113.92V114.751C109.285 114.751 108.15 114.902 107.092 114.977V114.146C108.15 114.071 109.209 113.995 110.267 113.92ZM100.666 114.751C101.724 114.599 102.783 114.524 103.841 114.448V115.279C102.858 115.355 101.8 115.506 100.741 115.582V114.751H100.666ZM97.4904 115.204V115.959C96.5076 116.11 95.4491 116.261 94.4663 116.413L94.3151 115.657C95.3735 115.506 96.4319 115.355 97.4904 115.204ZM88.04 116.79C89.0984 116.564 90.1569 116.337 91.2153 116.186L91.3665 116.941C90.3081 117.168 89.2496 117.319 88.2668 117.546L88.1156 116.79H88.04ZM81.7649 118.301C82.8234 117.999 83.8062 117.772 84.8647 117.47L85.0915 118.226C84.033 118.452 83.0502 118.754 81.9917 119.057L81.7649 118.301ZM75.5655 120.265H75.6411C76.6239 119.888 77.6824 119.585 78.6652 119.208L78.892 119.963C77.9092 120.265 76.8507 120.643 75.8679 121.021L75.5655 120.265ZM69.6684 122.683C70.6513 122.229 71.6341 121.776 72.6169 121.398L72.9193 122.154C71.9365 122.532 70.9537 122.985 69.9708 123.438L69.6684 122.683ZM134.612 123.438V124.269H131.436V123.438H134.612ZM128.185 123.514V124.345H125.01V123.514H128.185ZM121.759 123.589V124.42H118.584V123.589H121.759ZM115.333 123.665V124.496C114.274 124.496 113.216 124.571 112.157 124.647V123.816C113.216 123.816 114.274 123.74 115.333 123.665ZM108.982 124.798C107.924 124.798 106.865 124.949 105.807 125.024V124.193C106.865 124.118 107.924 124.042 108.982 123.967V124.798ZM63.9226 125.704C64.8298 125.176 65.8127 124.647 66.7199 124.118L67.0979 124.798C66.1151 125.327 65.2078 125.78 64.3006 126.384L63.9226 125.704ZM89.8545 126.46L90.0057 127.215C88.9472 127.442 87.8888 127.668 86.9059 127.895L86.6791 127.14H86.7547C87.7376 126.913 88.796 126.611 89.8545 126.46ZM58.6303 129.255H58.5547C59.3864 128.651 60.2936 127.971 61.2009 127.366L61.6545 128.046C60.7472 128.651 59.9156 129.255 59.084 129.859L58.6303 129.255ZM77.758 130.766C76.7751 131.144 75.7923 131.597 74.8094 132.05L74.507 131.295C75.4899 130.841 76.4727 130.464 77.4555 130.01L77.758 130.766ZM53.6405 133.485L53.7161 133.41C54.457 132.685 55.2584 132.02 56.0598 131.295L56.5891 131.899C55.7574 132.579 55.0014 133.259 54.2454 134.014L53.7161 133.41C53.7161 133.41 53.6632 133.455 53.6405 133.485ZM68.7612 134.316H68.8368C69.744 133.788 70.7269 133.259 71.6341 132.73L72.0121 133.41C71.1049 133.939 70.122 134.467 69.2148 134.996L68.7612 134.316ZM121.835 134.845V135.676C120.776 135.676 119.718 135.752 118.659 135.827V134.996C119.718 134.996 120.776 134.921 121.835 134.845ZM112.233 135.449C113.291 135.374 114.35 135.298 115.408 135.223V136.054C114.426 136.054 113.367 136.205 112.309 136.28V135.449H112.233ZM49.2555 138.169C49.936 137.338 50.692 136.507 51.3724 135.752L51.9773 136.28C51.2968 137.036 50.5408 137.867 49.8604 138.698L49.2555 138.169ZM93.2566 138.396H93.181C94.2395 138.169 95.2979 137.942 96.3563 137.716L96.5076 138.471C95.4491 138.698 94.3907 138.924 93.4078 139.151L93.2566 138.396ZM90.3081 139.982C89.2496 140.284 88.2668 140.586 87.284 140.889L87.0572 140.133H86.9816C87.9644 139.831 89.0228 139.529 90.0813 139.227L90.3081 139.982ZM61.6545 140.738C60.8984 141.417 60.1424 142.173 59.3864 143.004L58.7816 142.475L58.8572 142.399L61.1252 140.133L61.6545 140.738ZM45.6266 143.382H45.551C46.1558 142.475 46.685 141.568 47.3655 140.738L48.0459 141.191C47.4411 142.022 46.8362 142.928 46.307 143.835L45.6266 143.382ZM57.2695 145.346C56.5891 146.177 55.9086 147.008 55.3038 147.839L54.6234 147.385H54.699C55.3038 146.554 55.9842 145.648 56.6647 144.817L57.2695 145.346ZM42.3757 149.198L42.4513 149.123C42.9049 148.141 43.3585 147.159 43.8877 146.252L44.5681 146.63C44.0389 147.536 43.5853 148.518 43.1317 149.501L42.3757 149.198ZM95.6759 150.709C94.6175 150.936 93.559 151.238 92.5762 151.54L92.3494 150.785C93.3322 150.483 94.3907 150.18 95.4491 149.954L95.6759 150.709ZM53.5649 150.483C53.0357 151.389 52.4309 152.296 51.9773 153.202L51.2968 152.824C51.8261 151.918 52.3553 150.936 52.8845 150.029L53.5649 150.483ZM40.1076 155.166V155.091C40.4856 154.033 40.8636 153.051 41.2416 152.069L41.9976 152.371C41.6196 153.353 41.2416 154.335 40.8636 155.393L40.1076 155.166ZM63.4689 156.073C62.7885 156.904 62.1837 157.735 61.5789 158.641L60.8984 158.188H60.974C61.5789 157.282 62.1837 156.375 62.8641 155.544L63.4689 156.073ZM50.6164 156.073C50.1628 157.055 49.7848 157.961 49.3312 159.019L48.5751 158.717C48.9531 157.735 49.4068 156.753 49.8604 155.771L50.6164 156.073ZM38.2931 161.21C38.5955 160.152 38.8223 159.095 39.1247 158.113L39.8807 158.339C39.5783 159.321 39.2759 160.379 39.0491 161.436L38.2931 161.21ZM48.1215 161.89C47.8191 162.872 47.4411 163.854 47.1387 164.911L46.4053 164.692C46.4053 164.692 46.3902 164.738 46.3826 164.76V164.685H46.4053C46.7077 163.657 47.0706 162.698 47.3655 161.663L48.1215 161.89ZM36.8566 167.48V167.404H36.8717C37.091 166.377 37.3178 165.342 37.5371 164.307L38.2931 164.458C38.0663 165.44 37.8395 166.498 37.6127 167.555L36.8717 167.404C36.8717 167.404 36.8642 167.45 36.8566 167.48ZM46.307 168.084C46.0046 169.066 45.7778 170.124 45.551 171.182L44.795 171.03V170.955C45.0218 169.897 45.3242 168.84 45.551 167.858L46.307 168.084ZM35.7226 173.826C35.8738 172.768 36.1006 171.71 36.2518 170.653L37.0078 170.804C36.8566 171.861 36.6298 172.919 36.4786 173.977L35.7226 173.826ZM44.8706 174.279C44.6437 175.336 44.4925 176.319 44.2657 177.452L43.5097 177.301C43.7365 176.243 43.8877 175.185 44.1145 174.128L44.8706 174.279ZM34.7397 180.247L34.8153 180.171C34.9665 179.114 35.1177 178.056 35.269 176.998H36.025C35.8738 178.132 35.7226 179.189 35.5714 180.247H34.7397ZM43.6609 180.549C43.5097 181.607 43.3585 182.664 43.2073 183.722L42.4513 183.571C42.6025 182.513 42.7537 181.455 42.9049 180.398L43.6609 180.549ZM34.0593 186.592V186.517C34.2105 185.459 34.2861 184.402 34.4373 183.344H35.269C35.1177 184.477 35.0421 185.535 34.8909 186.592H34.0593ZM42.8293 186.819C42.6781 187.952 42.5269 189.01 42.4513 190.067H41.6196V189.992C41.7708 188.934 41.8464 187.877 41.9976 186.819H42.8293ZM33.3789 193.014V192.938C33.4545 191.88 33.6057 190.823 33.6813 189.765H34.5129C34.4373 190.898 34.2861 191.956 34.2105 193.014H33.3789ZM42.1488 193.165C41.9976 194.298 41.922 195.355 41.7708 196.413H40.9392V196.338C41.0148 195.28 41.166 194.222 41.3172 193.165H42.1488ZM32.774 199.359V199.284C32.8496 198.226 33.0009 197.169 33.0765 196.111H33.9081C33.8325 197.244 33.6813 198.302 33.6057 199.359H32.774ZM41.4684 199.51C41.3928 200.644 41.2416 201.701 41.166 202.759H40.3344V202.683C40.41 201.626 40.5612 200.568 40.6368 199.51H41.4684ZM32.2448 205.78V205.705C32.3204 204.647 32.396 203.59 32.5472 202.532H33.3789C33.3033 203.665 33.2277 204.723 33.0765 205.78H32.2448ZM40.8636 205.932C40.788 207.065 40.7124 208.122 40.5612 209.18H39.7295V209.104C39.8051 208.047 39.8807 206.989 40.032 205.932H40.8636ZM31.7156 212.126V212.051L31.9424 208.878H32.774L32.5472 212.126H31.7156ZM40.3344 212.277L40.032 215.526H39.2003V215.45L39.5027 212.277H40.3344ZM31.1864 218.547V218.472L31.4132 215.299H32.2448L32.018 218.547H31.1864ZM39.7295 218.698L39.5027 221.947H38.6711V221.871L38.8979 218.698H39.7295ZM30.7328 224.893V224.817C30.7328 223.76 30.884 222.702 30.9596 221.645H31.7912C31.7156 222.778 31.64 223.835 31.5644 224.893H30.7328ZM38.4443 225.12H39.2759C39.2003 226.253 39.1247 227.31 39.0491 228.368H38.2175V228.292C38.2175 227.235 38.3687 226.177 38.4443 225.12ZM30.3547 231.314V231.239C30.3547 230.181 30.5059 229.123 30.5059 228.066H31.3376C31.3376 229.199 31.1864 230.257 31.1864 231.314H30.3547ZM38.8223 231.465C38.8223 232.598 38.6711 233.656 38.6711 234.714H37.8395V234.638C37.8395 233.58 37.9151 232.523 37.9907 231.465H38.8223ZM30.0523 237.735V237.66C30.0523 236.602 30.1279 235.545 30.2035 234.487H31.0352C31.0352 235.62 30.9596 236.678 30.884 237.735H30.0523ZM38.5199 237.886C38.5199 239.02 38.4443 240.077 38.3687 241.135H37.5371V241.059C37.5371 240.002 37.537 238.944 37.6883 237.886H38.5199ZM29.8255 244.157V244.081C29.8255 243.023 29.8255 241.966 29.9011 240.908H30.7328C30.7328 242.041 30.7328 243.099 30.6572 244.157H29.8255ZM38.2175 244.308V247.556H37.3858V244.308H38.2175ZM29.6743 250.578V247.329H30.5059V250.578H29.6743ZM29.6743 256.848V253.675H30.5059V256.848H29.6743Z" fill="#FDBC08"/>
<path d="M47.7434 266.895C82.9745 234.94 125.917 235.544 140.055 235.696C194.262 236.375 225.411 259.341 242.044 278.529C242.936 279.556 243.798 280.591 244.637 281.626H259.841C236.812 237.833 192.138 209.928 142.996 208.802C91.9637 207.601 43.7591 236.171 19.7173 281.626H35.1403C42.0958 272.092 47.6754 266.948 47.7358 266.895H47.7434Z" fill="#3C3C3B"/>
<path d="M240.985 279.511C224.579 260.625 193.809 237.962 140.206 237.282C126.22 237.131 83.7305 236.527 48.9531 268.028C48.9001 268.081 43.7289 272.802 37.1816 281.626H242.754C242.172 280.916 241.59 280.213 240.985 279.511Z" fill="#FDBC08"/>
<path d="M146.935 157.357H147.615V156.526H144.364V157.357H146.935Z" fill="#1A1A1A"/>
<path d="M163.492 157.357V158.188H163.416C164.475 158.264 165.533 158.415 166.592 158.566L166.743 157.81C165.684 157.584 164.626 157.508 163.492 157.357Z" fill="#1A1A1A"/>
<path d="M70.7268 191.956C70.7268 191.956 70.7343 191.911 70.7418 191.881H70.7268V191.956Z" fill="#1A1A1A"/>
<path d="M71.4829 192.032C71.7097 190.974 71.9365 189.917 72.1633 188.934L71.4072 188.783C71.188 189.743 70.9612 190.778 70.7419 191.881L71.4829 192.032Z" fill="#1A1A1A"/>
<path d="M150.715 156.526V157.357C151.774 157.357 152.832 157.433 153.966 157.433V156.602C152.832 156.526 151.774 156.526 150.715 156.526Z" fill="#1A1A1A"/>
<path d="M160.392 157.886V157.055C159.334 156.979 158.275 156.828 157.141 156.828V157.659C158.2 157.735 159.258 157.81 160.392 157.886Z" fill="#1A1A1A"/>
<path d="M206.435 189.538C206.737 190.596 206.964 191.578 207.266 192.636L208.022 192.409C207.795 191.352 207.493 190.294 207.191 189.312L206.435 189.538Z" fill="#1A1A1A"/>
<path d="M65.4346 226.857C65.3741 227.771 65.3137 228.625 65.2532 229.448C65.548 229.259 65.8353 229.071 66.1302 228.882C66.1755 228.247 66.2209 227.582 66.2663 226.865H65.4346V226.857Z" fill="#1A1A1A"/>
<path d="M68.0807 211.068C68.2319 210.011 68.3832 208.953 68.5344 207.896L67.7783 207.744C67.6271 208.802 67.4759 209.86 67.3247 210.917L68.0807 211.068Z" fill="#1A1A1A"/>
<path d="M137.938 157.508C138.921 157.433 140.055 157.433 141.113 157.433V156.602C140.055 156.677 138.996 156.677 137.938 156.677V157.508Z" fill="#1A1A1A"/>
<path d="M201.672 177.83L201.596 177.905C202.125 178.736 202.654 179.718 203.108 180.7L203.864 180.322C203.41 179.34 202.881 178.358 202.352 177.452L201.672 177.83Z" fill="#1A1A1A"/>
<path d="M74.0535 179.567L74.1291 179.642L74.8851 179.944C74.8851 179.793 75.0363 179.718 75.0363 179.567C75.4143 178.811 75.8679 177.98 76.3972 177.225L75.7167 176.772C75.1875 177.527 74.7339 178.358 74.2803 179.189C74.2047 179.264 74.0535 179.416 74.0535 179.567Z" fill="#1A1A1A"/>
<path d="M125.085 158.112C126.219 158.037 127.278 157.886 128.261 157.886V157.055C127.278 157.13 126.219 157.206 125.085 157.281V158.112Z" fill="#1A1A1A"/>
<path d="M131.512 156.979C131.512 156.979 131.564 156.979 131.587 156.979V156.905L131.512 156.979Z" fill="#1A1A1A"/>
<path d="M66.3418 217.338H67.1734C67.249 216.356 67.4002 215.299 67.5514 214.09H66.7954C66.7198 215.148 66.5686 216.205 66.4174 217.263L66.3418 217.338Z" fill="#1A1A1A"/>
<path d="M134.612 157.584H134.763V156.828H134.536C133.651 156.904 132.623 156.972 131.587 156.979V157.735C132.646 157.659 133.704 157.584 134.612 157.584Z" fill="#1A1A1A"/>
<path d="M65.7371 223.76H66.5687C66.6443 222.778 66.7199 221.72 66.8711 220.511H66.0395C65.9639 221.569 65.8127 222.627 65.7371 223.684V223.76Z" fill="#1A1A1A"/>
<path d="M213.239 227.235C213.322 227.771 213.36 228.285 213.375 228.783C213.639 228.957 213.904 229.123 214.169 229.297C214.116 228.609 214.07 227.922 214.07 227.235H213.239Z" fill="#1A1A1A"/>
<path d="M112.233 158.792L112.384 159.548C113.518 159.397 114.577 159.246 115.484 159.095V158.264C114.425 158.415 113.367 158.566 112.309 158.717L112.233 158.792Z" fill="#1A1A1A"/>
<path d="M169.843 159.094H169.918C170.901 159.245 171.959 159.472 173.018 159.699L173.169 158.943C172.111 158.717 171.052 158.566 169.994 158.339L169.843 159.094Z" fill="#1A1A1A"/>
<path d="M204.393 183.495L204.483 183.458C204.483 183.458 204.476 183.428 204.468 183.42L204.393 183.495Z" fill="#1A1A1A"/>
<path d="M121.835 157.584C120.852 157.659 119.718 157.735 118.659 157.886H118.735V158.717C119.793 158.641 120.852 158.49 121.835 158.415V157.584Z" fill="#1A1A1A"/>
<path d="M72.0876 185.762L72.8437 185.913C73.1461 184.704 73.3729 183.722 73.6753 182.815L72.9193 182.589C72.6169 183.495 72.3901 184.477 72.0876 185.686V185.762Z" fill="#1A1A1A"/>
<path d="M206.283 186.215C205.905 185.157 205.527 184.175 205.149 183.193L204.484 183.457C204.855 184.424 205.157 185.399 205.527 186.441L206.283 186.215Z" fill="#1A1A1A"/>
<path d="M190.634 166.649L191.087 165.969C190.18 165.44 189.273 164.911 188.29 164.383L187.912 165.063C188.819 165.591 189.726 166.12 190.634 166.649Z" fill="#1A1A1A"/>
<path d="M197.967 172.692C198.647 173.448 199.328 174.279 199.933 175.11L200.613 174.657C200.008 173.826 199.328 172.995 198.572 172.164L197.967 172.692Z" fill="#1A1A1A"/>
<path d="M196.228 169.897C195.472 169.217 194.565 168.537 193.733 167.857L193.28 168.462C194.111 169.142 194.943 169.822 195.699 170.501L196.228 169.897Z" fill="#1A1A1A"/>
<path d="M185.417 162.872C184.51 162.494 183.451 162.041 182.468 161.663L182.166 162.418C183.149 162.796 184.132 163.174 185.115 163.627L185.417 162.872Z" fill="#1A1A1A"/>
<path d="M212.71 220.813C212.861 221.871 212.937 222.929 213.012 223.911H213.844C213.768 222.929 213.617 221.871 213.541 220.813H212.71Z" fill="#1A1A1A"/>
<path d="M209.61 202.003C209.837 203.061 210.063 204.043 210.29 205.101L211.046 204.949C210.82 203.892 210.593 202.834 210.366 201.777L209.61 201.928V202.003Z" fill="#1A1A1A"/>
<path d="M211.954 214.468L211.878 214.392C212.105 215.526 212.18 216.583 212.332 217.49H213.163C213.012 216.432 212.861 215.375 212.71 214.317L211.954 214.468Z" fill="#1A1A1A"/>
<path d="M87.6619 166.196L88.0399 166.875C88.9471 166.347 89.93 165.893 90.9128 165.44L90.6104 164.685C89.6276 165.138 88.6447 165.591 87.7375 166.12L87.6619 166.196Z" fill="#1A1A1A"/>
<path d="M85.3939 168.462L84.9403 167.782C84.0331 168.386 83.1258 168.991 82.2942 169.671H82.3698L82.8234 170.275C83.5794 169.671 84.4867 169.066 85.3939 168.462Z" fill="#1A1A1A"/>
<path d="M176.042 160.53C177.1 160.832 178.159 161.134 179.142 161.437L179.369 160.681C178.386 160.379 177.327 160.077 176.269 159.775L176.042 160.53Z" fill="#1A1A1A"/>
<path d="M99.9097 162.116C100.893 161.814 101.951 161.512 103.009 161.285L102.783 160.53C101.724 160.756 100.666 161.059 99.6829 161.361L99.9097 162.116Z" fill="#1A1A1A"/>
<path d="M211.651 208.047L210.895 208.198C211.046 209.255 211.273 210.313 211.424 211.371L212.181 211.22C212.029 210.162 211.878 209.104 211.651 208.047Z" fill="#1A1A1A"/>
<path d="M208.098 195.733H208.113C208.113 195.733 208.098 195.681 208.098 195.658V195.733Z" fill="#1A1A1A"/>
<path d="M70.2731 198.453L70.878 195.28L70.1219 195.129L69.5171 198.302L70.2731 198.453Z" fill="#1A1A1A"/>
<path d="M109.285 160.001L109.133 159.246C108.075 159.397 107.016 159.623 105.958 159.85H106.034L106.185 160.605C107.168 160.379 108.226 160.152 109.285 160.001Z" fill="#1A1A1A"/>
<path d="M208.113 195.726C208.34 196.685 208.627 197.72 208.854 198.755L209.61 198.604C209.383 197.546 209.081 196.489 208.854 195.506L208.113 195.726Z" fill="#1A1A1A"/>
<path d="M93.7858 164.156C94.7687 163.778 95.7515 163.476 96.8099 163.098L96.5831 162.343C95.5247 162.72 94.5418 163.098 93.559 163.476L93.4834 163.4L93.7858 164.156Z" fill="#1A1A1A"/>
<path d="M77.531 174.128L78.1358 174.657C78.8163 173.901 79.5723 173.146 80.3283 172.39L79.7991 171.786C79.0431 172.542 78.287 173.297 77.6066 174.128H77.531Z" fill="#1A1A1A"/>
<path d="M69.0636 204.723C69.2149 203.665 69.3661 202.607 69.5929 201.55L68.8368 201.399C68.6856 202.456 68.4588 203.514 68.3076 204.572L69.0636 204.723Z" fill="#1A1A1A"/>
<path d="M187.987 149.954L187.76 150.709V150.785C188.743 151.087 189.726 151.465 190.709 151.842L191.011 151.087C190.029 150.709 189.046 150.331 187.987 149.954Z" fill="#1A1A1A"/>
<path d="M214.524 179.643L215.28 179.416C214.978 178.358 214.675 177.301 214.297 176.319L213.541 176.621C213.844 177.603 214.222 178.585 214.524 179.643Z" fill="#1A1A1A"/>
<path d="M65.8127 176.016C66.1151 174.883 66.4175 173.901 66.7955 172.994L66.0395 172.692C65.7371 173.674 65.3591 174.656 65.0566 175.789L65.8127 176.016Z" fill="#1A1A1A"/>
<path d="M57.2694 216.734C57.1182 217.792 56.967 218.849 56.8914 219.907V219.982H57.723C57.8742 219 57.9498 217.943 58.101 216.734H57.2694Z" fill="#1A1A1A"/>
<path d="M169.011 146.403V147.234C170.069 147.31 171.128 147.461 172.262 147.537V146.706C171.203 146.555 170.145 146.479 169.011 146.403Z" fill="#1A1A1A"/>
<path d="M184.661 149.727L184.888 148.972C183.905 148.669 182.846 148.443 181.788 148.216L181.637 148.972H181.561C182.619 149.198 183.678 149.425 184.661 149.727Z" fill="#1A1A1A"/>
<path d="M175.362 147.99C176.496 148.141 177.554 148.292 178.537 148.443L178.688 147.687C177.63 147.461 176.571 147.31 175.362 147.159V147.99Z" fill="#1A1A1A"/>
<path d="M111.326 147.385H111.401V148.216C112.46 148.065 113.518 147.99 114.501 147.914V147.083C113.443 147.159 112.384 147.31 111.326 147.385Z" fill="#1A1A1A"/>
<path d="M196.909 153.806C196.001 153.278 195.019 152.749 194.036 152.296L193.658 153.051L193.733 152.975C194.716 153.429 195.623 153.958 196.531 154.486L196.909 153.806Z" fill="#1A1A1A"/>
<path d="M75.2629 159.623L75.7922 160.228C76.5482 159.548 77.4554 158.868 78.2871 158.263L77.8334 157.584C76.9262 158.188 76.0946 158.868 75.2629 159.548V159.623Z" fill="#1A1A1A"/>
<path d="M56.589 223.08C56.4378 224.137 56.3622 225.195 56.2866 226.253V226.328H57.1183C57.1939 225.271 57.3451 224.213 57.4207 223.08H56.589Z" fill="#1A1A1A"/>
<path d="M202.125 157.584C201.294 156.904 200.462 156.224 199.555 155.62L199.131 156.247C199.955 156.843 200.772 157.516 201.596 158.188L202.125 157.584Z" fill="#1A1A1A"/>
<path d="M63.469 182.06L64.225 182.211C64.4518 181.153 64.7542 180.096 64.9811 179.114L64.225 178.887C63.9982 179.869 63.6958 180.927 63.469 181.984V182.06Z" fill="#1A1A1A"/>
<path d="M212.407 173.674L213.163 173.372C212.785 172.39 212.332 171.332 211.878 170.426L211.122 170.804C211.576 171.71 212.029 172.692 212.407 173.674Z" fill="#1A1A1A"/>
<path d="M89.6276 152.522L89.3252 151.767C88.2667 152.069 87.2839 152.522 86.301 152.9H86.3766L86.679 153.655C87.5863 153.278 88.6447 152.9 89.6276 152.522Z" fill="#1A1A1A"/>
<path d="M101.951 149.349L101.8 148.594C100.666 148.82 99.6074 148.972 98.6245 149.198H98.7001L98.8513 149.954C99.8342 149.727 100.893 149.5 101.951 149.349Z" fill="#1A1A1A"/>
<path d="M80.4797 155.846C80.4797 155.846 80.5398 155.816 80.5698 155.794L80.5548 155.771L80.4797 155.846Z" fill="#1A1A1A"/>
<path d="M70.8025 164.231C70.8025 164.231 70.825 164.201 70.84 164.186L70.8025 164.156V164.231Z" fill="#1A1A1A"/>
<path d="M59.0839 203.968C58.8571 205.025 58.7059 206.083 58.5547 207.14L59.3107 207.292C59.4619 206.234 59.6887 205.176 59.8399 204.119L59.0839 203.968Z" fill="#1A1A1A"/>
<path d="M117.752 147.688C118.81 147.612 119.869 147.536 120.927 147.536V146.705C119.869 146.705 118.81 146.857 117.752 146.857V147.688Z" fill="#1A1A1A"/>
<path d="M73.5242 162.343L72.9194 161.814C72.1785 162.554 71.5056 163.37 70.8403 164.186L71.4074 164.685C72.0878 163.929 72.7682 163.098 73.5242 162.343Z" fill="#1A1A1A"/>
<path d="M83.7305 154.94L83.3525 154.26C82.3999 154.774 81.4549 155.287 80.5703 155.793L80.9332 156.451C81.8404 155.922 82.7477 155.393 83.7305 154.94Z" fill="#1A1A1A"/>
<path d="M215.431 182.74H215.446C215.446 182.74 215.431 182.687 215.431 182.665V182.74Z" fill="#1A1A1A"/>
<path d="M58.101 210.313C57.9498 211.37 57.7986 212.428 57.6474 213.486L57.5718 213.637H58.4034C58.5546 212.579 58.7058 211.522 58.857 210.464L58.101 210.313Z" fill="#1A1A1A"/>
<path d="M208.022 165.289C208.551 166.12 209.156 167.027 209.685 167.933L210.366 167.555C209.837 166.649 209.232 165.667 208.627 164.836L207.947 165.289H208.022Z" fill="#1A1A1A"/>
<path d="M222.538 233.278V235.182C222.818 235.394 223.098 235.598 223.37 235.809V233.278H222.538Z" fill="#1A1A1A"/>
<path d="M216.187 185.761L216.943 185.61C216.717 184.553 216.49 183.495 216.187 182.513L215.447 182.732C215.673 183.691 215.961 184.726 216.187 185.761Z" fill="#1A1A1A"/>
<path d="M62.1082 188.254C62.1082 188.254 62.1157 188.209 62.1232 188.179H62.1082V188.254Z" fill="#1A1A1A"/>
<path d="M222.387 217.263C222.236 216.206 222.16 215.148 222.009 214.166H221.177C221.328 215.224 221.48 216.281 221.555 217.263H222.387Z" fill="#1A1A1A"/>
<path d="M62.864 188.33C63.0908 187.272 63.3176 186.215 63.5444 185.233L62.7884 185.082C62.5691 186.117 62.3423 187.152 62.123 188.179L62.864 188.33Z" fill="#1A1A1A"/>
<path d="M221.48 210.842C221.328 209.784 221.177 208.727 221.026 207.669L220.27 207.82C220.421 208.878 220.572 209.935 220.724 210.842H221.48Z" fill="#1A1A1A"/>
<path d="M146.557 146.856V146.025H143.382V146.856H146.557Z" fill="#1A1A1A"/>
<path d="M61.5788 194.676C61.8056 193.543 61.9568 192.485 62.1836 191.503L61.4276 191.352C61.2764 192.409 61.0496 193.467 60.8228 194.525L61.5788 194.676Z" fill="#1A1A1A"/>
<path d="M55.833 232.75H56.6646C56.7402 231.692 56.8159 230.634 56.8915 229.501H56.0598C55.9842 230.559 55.833 231.616 55.833 232.674V232.75Z" fill="#1A1A1A"/>
<path d="M60.3691 201.021C60.5959 199.963 60.7471 198.906 60.9739 197.848L60.2179 197.697C59.9911 198.755 59.7642 199.812 59.613 200.87L60.3691 201.021Z" fill="#1A1A1A"/>
<path d="M92.5762 151.54C93.559 151.238 94.6175 150.936 95.6759 150.709L95.4491 149.954C94.3907 150.18 93.3322 150.482 92.3494 150.785L92.5762 151.54Z" fill="#1A1A1A"/>
<path d="M55.6062 236.345C55.8255 236.179 56.0371 236.005 56.2564 235.839H55.6062V236.345Z" fill="#1A1A1A"/>
<path d="M216.868 188.934V189.01C217.019 189.992 217.246 191.049 217.473 192.107L218.229 191.956C218.078 190.823 217.851 189.841 217.624 188.783L216.868 188.934Z" fill="#1A1A1A"/>
<path d="M219.967 201.399L219.211 201.55C219.363 202.607 219.589 203.665 219.741 204.723L220.497 204.572C220.345 203.514 220.119 202.456 219.967 201.399Z" fill="#1A1A1A"/>
<path d="M218.077 195.204C218.229 196.262 218.455 197.319 218.607 198.377L219.363 198.226C219.211 197.168 218.985 196.111 218.833 195.053L218.077 195.204Z" fill="#1A1A1A"/>
<path d="M68.0807 170.124C68.5344 169.066 69.0636 168.16 69.5928 167.329L68.9124 166.876C68.3075 167.782 67.7783 168.689 67.3247 169.746L68.0807 170.124Z" fill="#1A1A1A"/>
<path d="M162.66 146.026V146.857C163.719 146.932 164.777 147.008 165.911 147.008V146.177C164.853 146.101 163.794 146.026 162.66 146.026Z" fill="#1A1A1A"/>
<path d="M124.178 147.385C125.237 147.31 126.295 147.31 127.354 147.31V146.479C126.295 146.479 125.237 146.554 124.178 146.554V147.385Z" fill="#1A1A1A"/>
<path d="M105.051 148.216V148.972C106.109 148.821 107.168 148.745 108.15 148.594V147.763C107.092 147.839 106.034 147.99 104.975 148.141L105.051 148.216Z" fill="#1A1A1A"/>
<path d="M199.101 156.299L199.131 156.247C199.131 156.247 199.109 156.232 199.101 156.224V156.299Z" fill="#1A1A1A"/>
<path d="M133.78 147.083C133.78 147.083 133.78 146.252 133.78 146.328H130.604C130.604 146.328 130.604 147.159 130.604 147.083H133.78Z" fill="#1A1A1A"/>
<path d="M140.206 146.932C140.206 146.932 140.206 146.101 140.206 146.177H137.031C137.031 146.177 137.031 147.008 137.031 146.932H140.206Z" fill="#1A1A1A"/>
<path d="M222.311 226.933C222.387 228.066 222.462 229.123 222.462 230.105H223.294C223.219 229.048 223.143 227.99 223.143 226.933H222.311Z" fill="#1A1A1A"/>
<path d="M156.234 145.95V146.781H159.485V145.95H156.234Z" fill="#1A1A1A"/>
<path d="M222.916 223.609C222.841 222.627 222.765 221.569 222.689 220.512H221.858C221.933 221.569 222.084 222.627 222.084 223.609H222.916Z" fill="#1A1A1A"/>
<path d="M203.94 160.379L204.015 160.455C204.62 161.134 205.301 161.814 205.905 162.57L206.132 162.796L206.737 162.268L206.51 162.041C205.905 161.286 205.225 160.53 204.545 159.85L203.94 160.379Z" fill="#1A1A1A"/>
<path d="M149.808 145.95V146.781H152.983V145.95H149.808Z" fill="#1A1A1A"/>
<path d="M221.102 166.875H221.124C221.124 166.875 221.109 166.823 221.102 166.8V166.875Z" fill="#1A1A1A"/>
<path d="M216.868 158.415L217.548 157.961C217.019 157.055 216.339 156.148 215.734 155.317L215.053 155.771C215.734 156.677 216.339 157.508 216.868 158.415Z" fill="#1A1A1A"/>
<path d="M57.8743 163.929L58.6303 164.231C59.0083 163.249 59.5375 162.267 59.9912 161.361L59.3107 160.983C58.7815 161.89 58.3279 162.872 57.8743 163.854V163.929Z" fill="#1A1A1A"/>
<path d="M53.4892 182.588C53.716 181.455 53.8672 180.398 54.094 179.416L53.338 179.264C53.1112 180.322 52.96 181.38 52.7332 182.437L53.4892 182.588Z" fill="#1A1A1A"/>
<path d="M226.243 182.136C226.016 181.002 225.789 180.02 225.562 178.963L224.806 179.114V179.189C225.033 180.171 225.26 181.229 225.487 182.287L226.243 182.136Z" fill="#1A1A1A"/>
<path d="M219.136 160.756L218.455 161.134L218.38 161.059C218.909 162.041 219.363 162.947 219.816 163.929L220.572 163.627C220.119 162.645 219.665 161.663 219.136 160.756Z" fill="#1A1A1A"/>
<path d="M224.806 175.789C224.579 174.732 224.277 173.674 223.975 172.692L223.219 172.919C223.521 173.901 223.748 174.959 224.05 176.016L224.806 175.789Z" fill="#1A1A1A"/>
<path d="M54.0186 176.243L54.7746 176.394C55.0014 175.336 55.3038 174.279 55.5306 173.297L54.7746 173.07C54.5478 174.052 54.2454 175.11 54.0186 176.167V176.243Z" fill="#1A1A1A"/>
<path d="M55.7575 169.973L56.5135 170.199C56.8159 169.142 57.1183 168.16 57.4964 167.177L56.7403 166.875C56.3623 167.782 55.9843 168.839 55.6819 169.897L55.7575 169.973Z" fill="#1A1A1A"/>
<path d="M222.992 169.595C222.614 168.538 222.236 167.555 221.858 166.573L221.124 166.868C221.495 167.827 221.865 168.787 222.236 169.822L222.992 169.595Z" fill="#1A1A1A"/>
<path d="M198.118 141.342C197.211 140.964 196.152 140.511 195.17 140.133L194.867 140.888C195.85 141.266 196.833 141.644 197.816 142.097L198.118 141.342Z" fill="#1A1A1A"/>
<path d="M131.512 134.618V135.449H134.687V134.618H131.512Z" fill="#1A1A1A"/>
<path d="M137.938 134.618V135.449H141.113V134.618H137.938Z" fill="#1A1A1A"/>
<path d="M153.966 135.449V134.618H150.715V135.449H153.966Z" fill="#1A1A1A"/>
<path d="M144.289 134.618V135.449H147.464V134.618H144.289Z" fill="#1A1A1A"/>
<path d="M173.169 136.356V135.525C172.111 135.374 171.052 135.298 169.918 135.223V136.054C170.977 136.205 172.035 136.28 173.169 136.356Z" fill="#1A1A1A"/>
<path d="M125.085 135.601C126.144 135.525 127.202 135.525 128.261 135.525V134.694C127.202 134.77 126.144 134.77 125.085 134.77V135.601Z" fill="#1A1A1A"/>
<path d="M231.459 217.037H230.628V217.112L230.779 218.17C230.855 218.85 230.93 219.529 231.006 220.134H231.837C231.762 219.454 231.686 218.698 231.611 218.019C231.611 218.019 231.459 216.961 231.459 217.037Z" fill="#1A1A1A"/>
<path d="M231.384 223.382C231.459 224.44 231.61 225.497 231.686 226.479H232.518C232.442 225.422 232.366 224.364 232.215 223.382H231.384Z" fill="#1A1A1A"/>
<path d="M176.268 136.658V136.591C176.268 136.591 176.216 136.591 176.193 136.583L176.268 136.658Z" fill="#1A1A1A"/>
<path d="M166.819 135.903V135.072C165.76 134.996 164.702 134.921 163.568 134.921V135.752C164.626 135.827 165.685 135.903 166.819 135.903Z" fill="#1A1A1A"/>
<path d="M160.392 134.77C159.334 134.694 158.2 134.694 157.141 134.694V135.525C158.275 135.601 159.334 135.601 160.392 135.601V134.77Z" fill="#1A1A1A"/>
<path d="M81.009 142.399L81.3114 143.155C82.2186 142.702 83.277 142.324 84.2599 141.946L83.9575 141.191C82.899 141.568 81.9162 142.022 80.9333 142.399H81.009Z" fill="#1A1A1A"/>
<path d="M75.1874 145.195L75.5654 145.875C76.4727 145.346 77.3799 144.817 78.3628 144.364L77.9847 143.684C77.0019 144.137 76.0191 144.666 75.1118 145.195H75.1874Z" fill="#1A1A1A"/>
<path d="M203.41 145.119L203.864 144.439C202.957 143.91 202.05 143.382 201.067 142.853L200.689 143.533C201.596 144.062 202.503 144.59 203.41 145.119Z" fill="#1A1A1A"/>
<path d="M65.5101 153.655C66.2661 152.9 67.0222 152.144 67.7782 151.465L67.249 150.86L64.9809 153.126H64.9053L65.5101 153.655Z" fill="#1A1A1A"/>
<path d="M229.796 210.615C229.796 210.615 230.174 213.788 230.174 213.713H231.006C231.006 213.713 230.628 210.54 230.628 210.615H229.796Z" fill="#1A1A1A"/>
<path d="M179.369 137.036L179.52 136.28C178.537 136.129 177.403 135.978 176.269 135.827V136.59C177.305 136.741 178.333 136.885 179.369 137.036Z" fill="#1A1A1A"/>
<path d="M189.046 138.245L188.819 139H188.895C189.878 139.302 190.936 139.605 191.919 139.907L192.146 139.151C191.163 138.849 190.104 138.547 189.046 138.245Z" fill="#1A1A1A"/>
<path d="M102.783 137.338L102.631 136.582C101.573 136.734 100.514 136.96 99.4561 137.111L99.6073 137.867C100.666 137.64 101.724 137.489 102.783 137.338Z" fill="#1A1A1A"/>
<path d="M185.946 137.489C184.888 137.263 183.829 137.111 182.771 136.885L182.62 137.64H182.695C183.754 137.791 184.737 138.018 185.795 138.245L185.946 137.489Z" fill="#1A1A1A"/>
<path d="M105.882 136.96C106.941 136.809 107.999 136.658 108.982 136.583V135.752C107.924 135.903 106.865 135.978 105.807 136.129H105.882V136.96Z" fill="#1A1A1A"/>
<path d="M232.518 236.073C232.593 237.206 232.744 238.264 232.744 239.246H233.576C233.5 238.188 233.349 237.131 233.349 236.073H232.518Z" fill="#1A1A1A"/>
<path d="M231.989 229.728C232.064 230.786 232.14 231.843 232.215 232.825H233.047C232.971 231.843 232.896 230.786 232.82 229.728H231.989Z" fill="#1A1A1A"/>
<path d="M69.8195 148.82L70.2731 149.425C71.1048 148.82 71.9364 148.216 72.8436 147.612L72.39 146.932C71.4828 147.536 70.5755 148.141 69.7439 148.82H69.8195Z" fill="#1A1A1A"/>
<path d="M46.1558 239.851H46.9874C46.9874 238.793 47.1386 237.735 47.1386 236.602H46.307C46.2314 237.66 46.1558 238.717 46.1558 239.775V239.851Z" fill="#1A1A1A"/>
<path d="M46.7605 230.181C46.6849 231.238 46.5337 232.296 46.5337 233.354V233.429H47.3653C47.4409 232.372 47.5165 231.314 47.5921 230.181H46.7605Z" fill="#1A1A1A"/>
<path d="M206.057 146.856L206.087 146.804C206.087 146.804 206.064 146.789 206.057 146.781V146.856Z" fill="#1A1A1A"/>
<path d="M206.51 146.177L206.087 146.804C206.911 147.4 207.728 148.073 208.552 148.745L209.081 148.141C208.249 147.461 207.342 146.781 206.51 146.177Z" fill="#1A1A1A"/>
<path d="M227.452 188.33C227.225 187.272 227.074 186.215 226.847 185.157L226.091 185.308H226.167C226.318 186.366 226.545 187.423 226.696 188.481L227.452 188.33Z" fill="#1A1A1A"/>
<path d="M47.2897 223.76C47.1385 224.818 47.0629 225.875 46.9873 226.933V227.008H47.8189C47.8945 225.951 48.0457 224.893 48.1214 223.76H47.2897Z" fill="#1A1A1A"/>
<path d="M49.4823 204.647C49.4067 205.705 49.2555 206.762 49.1042 207.82V207.896H49.9359C50.0115 206.838 50.1627 205.78 50.3139 204.647H49.4823Z" fill="#1A1A1A"/>
<path d="M213.541 152.673C212.861 151.918 212.18 151.163 211.424 150.407L210.895 151.012L210.82 150.936C211.576 151.691 212.256 152.447 213.012 153.202V153.278L213.541 152.749V152.673Z" fill="#1A1A1A"/>
<path d="M48.6507 210.993L48.2727 214.166V214.241H49.1043C49.1043 214.241 49.4824 211.068 49.4824 210.993H48.6507Z" fill="#1A1A1A"/>
<path d="M47.8947 217.414C47.8191 218.472 47.6679 219.529 47.5923 220.587V220.663H48.4239C48.4995 219.605 48.5751 218.547 48.7263 217.414H47.8947Z" fill="#1A1A1A"/>
<path d="M232.82 242.495C232.85 242.986 232.881 243.454 232.911 243.915C233.183 244.172 233.463 244.421 233.735 244.678C233.689 243.983 233.652 243.258 233.652 242.495H232.82Z" fill="#1A1A1A"/>
<path d="M229.342 201.021C229.191 199.888 229.04 198.83 228.889 197.924H228.133C228.284 198.981 228.435 200.039 228.586 201.021H229.342Z" fill="#1A1A1A"/>
<path d="M115.408 136.054V135.223C114.35 135.298 113.291 135.374 112.233 135.449H112.309V136.28C113.367 136.205 114.425 136.054 115.408 136.054Z" fill="#1A1A1A"/>
<path d="M121.835 135.676V134.845C120.776 134.921 119.718 134.996 118.659 134.996V135.827C119.718 135.752 120.776 135.676 121.835 135.676Z" fill="#1A1A1A"/>
<path d="M96.3562 137.716C95.2978 137.942 94.2394 138.169 93.1809 138.395H93.2565L93.4077 139.151C94.3906 138.924 95.449 138.698 96.5075 138.471L96.3562 137.716Z" fill="#1A1A1A"/>
<path d="M228.964 204.269C229.116 205.327 229.267 206.385 229.418 207.367H230.25C230.098 206.234 229.947 205.176 229.796 204.269H228.964Z" fill="#1A1A1A"/>
<path d="M49.8604 201.55H50.692C50.8432 200.492 50.9944 199.435 51.1456 198.301H50.3896C50.2384 199.359 50.0872 200.417 49.936 201.474L49.8604 201.55Z" fill="#1A1A1A"/>
<path d="M50.7676 195.28H51.5236C51.6748 194.222 51.826 193.165 51.9772 192.107L51.2212 191.956C51.07 193.013 50.9188 194.071 50.7676 195.129V195.28Z" fill="#1A1A1A"/>
<path d="M60.8984 158.188L61.5789 158.641C62.1837 157.735 62.7885 156.904 63.4689 156.073L62.8641 155.544C62.1837 156.375 61.5789 157.281 60.974 158.188H60.8984Z" fill="#1A1A1A"/>
<path d="M228.36 194.676C228.208 193.618 228.057 192.56 227.906 191.503L227.15 191.654C227.301 192.711 227.452 193.769 227.604 194.827L228.36 194.676Z" fill="#1A1A1A"/>
<path d="M46.0046 242.948C45.9441 243.53 45.9365 244.104 45.9365 244.655C46.2389 244.376 46.5262 244.081 46.8286 243.802C46.8286 243.522 46.8286 243.235 46.8286 242.948H45.997H46.0046Z" fill="#1A1A1A"/>
<path d="M87.057 140.133L87.2839 140.889C88.2667 140.586 89.2495 140.284 90.308 139.982L90.0812 139.227C89.0227 139.529 87.9643 139.831 86.9814 140.133H87.057Z" fill="#1A1A1A"/>
<path d="M52.4308 188.934C52.6576 187.801 52.8089 186.819 52.9601 185.761L52.204 185.61C51.9772 186.668 51.826 187.725 51.6748 188.783L52.4308 188.934Z" fill="#1A1A1A"/>
<path d="M239.776 224.893C239.851 226.026 240.002 227.084 240.002 228.066H240.834C240.758 227.008 240.683 225.875 240.607 224.893H239.776Z" fill="#1A1A1A"/>
<path d="M240.229 231.314C240.229 232.447 240.38 233.505 240.38 234.487H241.212C241.212 233.429 241.061 232.372 241.061 231.314H240.229Z" fill="#1A1A1A"/>
<path d="M179.52 126.082V125.251C178.461 125.1 177.403 124.949 176.269 124.873V125.704C177.327 125.855 178.386 125.931 179.52 126.082Z" fill="#1A1A1A"/>
<path d="M134.612 124.269V123.438H131.436V124.269H134.612Z" fill="#1A1A1A"/>
<path d="M121.759 124.42V123.589H118.584V124.42H121.759Z" fill="#1A1A1A"/>
<path d="M166.743 124.874V124.043C165.684 123.967 164.626 123.891 163.492 123.891V124.722C164.55 124.722 165.609 124.874 166.743 124.874Z" fill="#1A1A1A"/>
<path d="M128.185 124.345V123.514H125.01V124.345H128.185Z" fill="#1A1A1A"/>
<path d="M160.317 124.571V123.74C159.258 123.665 158.124 123.665 157.066 123.665V124.496C158.124 124.571 159.258 124.571 160.317 124.571Z" fill="#1A1A1A"/>
<path d="M147.54 124.345V123.514H144.289V124.345H147.54Z" fill="#1A1A1A"/>
<path d="M153.89 124.42V123.589H150.639V124.42H153.89Z" fill="#1A1A1A"/>
<path d="M137.863 123.438V124.269H141.038V123.438H137.863Z" fill="#1A1A1A"/>
<path d="M74.8095 132.05C75.7923 131.597 76.7752 131.143 77.758 130.766L77.4556 130.01C76.4728 130.463 75.4899 130.841 74.5071 131.294L74.8095 132.05Z" fill="#1A1A1A"/>
<path d="M71.6342 132.73C70.7269 133.259 69.7441 133.787 68.8368 134.316H68.7612L69.2149 134.996C70.1221 134.467 71.1049 133.938 72.0122 133.41L71.6342 132.73Z" fill="#1A1A1A"/>
<path d="M58.7815 142.475L59.3863 143.004C60.1424 142.173 60.8984 141.417 61.6544 140.738L61.1252 140.133L58.8571 142.4L58.7815 142.475Z" fill="#1A1A1A"/>
<path d="M115.333 124.495V123.664C114.274 123.74 113.216 123.816 112.157 123.816V124.646C113.216 124.571 114.274 124.495 115.333 124.495Z" fill="#1A1A1A"/>
<path d="M54.6233 147.385L55.3037 147.838C55.9085 147.007 56.589 146.176 57.2694 145.345L56.6646 144.817C55.9841 145.648 55.3037 146.554 54.6989 147.385H54.6233Z" fill="#1A1A1A"/>
<path d="M105.807 125.024C106.865 124.949 107.924 124.798 108.982 124.798V123.967C107.924 124.042 106.865 124.118 105.807 124.193V125.024Z" fill="#1A1A1A"/>
<path d="M86.906 127.895C87.8888 127.668 88.9473 127.442 90.0057 127.215L89.8545 126.46C88.7961 126.611 87.7376 126.913 86.7548 127.14H86.6792L86.906 127.895Z" fill="#1A1A1A"/>
<path d="M64.0737 138.622C64.8297 138.018 65.7369 137.338 66.5686 136.733L66.1149 136.054C65.2077 136.733 64.3761 137.338 63.5444 138.018L64.0737 138.622Z" fill="#1A1A1A"/>
<path d="M212.559 136.658C213.39 137.263 214.297 137.867 215.129 138.471L215.583 137.867C214.751 137.263 213.844 136.658 212.937 136.054L212.483 136.734L212.559 136.658Z" fill="#1A1A1A"/>
<path d="M207.342 132.881L206.964 133.561H207.039C207.947 134.09 208.93 134.543 209.837 135.072L210.215 134.392C209.308 133.863 208.325 133.334 207.342 132.881Z" fill="#1A1A1A"/>
<path d="M222.084 144.968H222.16C222.765 145.648 223.37 146.403 223.975 147.159L224.126 147.385L224.731 146.932L224.579 146.705C223.975 145.95 223.294 145.194 222.689 144.439L222.084 144.968Z" fill="#1A1A1A"/>
<path d="M169.843 125.1C170.901 125.176 171.959 125.251 173.093 125.327V124.496C172.035 124.42 170.977 124.345 169.843 124.269V125.1Z" fill="#1A1A1A"/>
<path d="M217.624 140.586C218.455 141.266 219.211 141.946 219.967 142.702L220.497 142.097C219.741 141.342 218.985 140.586 218.153 139.907L217.624 140.511V140.586Z" fill="#1A1A1A"/>
<path d="M201.142 131.068H201.218C202.201 131.446 203.184 131.899 204.166 132.277L204.469 131.521C203.486 131.068 202.428 130.69 201.445 130.313L201.142 131.068Z" fill="#1A1A1A"/>
<path d="M198.421 129.255C197.362 128.953 196.379 128.65 195.321 128.348L195.094 129.104H195.17C196.152 129.406 197.211 129.708 198.194 130.01L198.421 129.255Z" fill="#1A1A1A"/>
<path d="M93.181 126.535C94.2394 126.309 95.2979 126.157 96.3563 126.006L96.2051 125.251C95.1467 125.402 94.0882 125.629 93.0298 125.78L93.181 126.535Z" fill="#1A1A1A"/>
<path d="M240.532 237.66C240.607 238.793 240.683 239.85 240.683 240.833H241.515C241.439 239.775 241.363 238.717 241.363 237.66H240.532Z" fill="#1A1A1A"/>
<path d="M102.556 124.495C101.497 124.646 100.439 124.722 99.3804 124.873H99.456V125.704C100.514 125.553 101.573 125.402 102.556 125.326V124.495Z" fill="#1A1A1A"/>
<path d="M83.6549 127.97C82.5965 128.273 81.538 128.65 80.5552 128.953H80.6308L80.8576 129.708C81.8404 129.33 82.8233 129.028 83.8817 128.726L83.6549 127.97Z" fill="#1A1A1A"/>
<path d="M188.895 127.593H188.97C190.029 127.82 191.011 128.046 192.07 128.273L192.221 127.518C191.163 127.291 190.104 127.064 189.046 126.838L188.895 127.593Z" fill="#1A1A1A"/>
<path d="M41.6196 190.067H42.4513C42.5269 189.01 42.6781 187.952 42.8293 186.819H41.9976C41.8464 187.877 41.7708 188.934 41.6196 189.992V190.067Z" fill="#1A1A1A"/>
<path d="M231.006 161.587C231.308 162.569 231.535 163.627 231.837 164.685L232.593 164.458C232.366 163.4 232.064 162.343 231.762 161.361L231.006 161.587Z" fill="#1A1A1A"/>
<path d="M232.593 167.782V167.858C232.82 168.84 233.047 169.897 233.274 170.955L234.03 170.804C233.803 169.671 233.576 168.613 233.349 167.631L232.593 167.782Z" fill="#1A1A1A"/>
<path d="M233.803 174.052C233.954 175.11 234.181 176.167 234.332 177.225L235.088 177.074C234.937 176.016 234.71 174.959 234.559 173.901L233.803 174.052Z" fill="#1A1A1A"/>
<path d="M228.813 155.619V155.695C229.191 156.601 229.569 157.659 229.947 158.641L230.703 158.339C230.401 157.281 229.947 156.299 229.569 155.317L228.813 155.619Z" fill="#1A1A1A"/>
<path d="M37.8394 234.713H38.671C38.671 233.656 38.8222 232.598 38.8222 231.465H37.9906C37.915 232.523 37.8394 233.58 37.8394 234.638V234.713Z" fill="#1A1A1A"/>
<path d="M37.5371 241.135H38.3687C38.4443 240.077 38.52 239.02 38.52 237.886H37.6883C37.5371 238.944 37.5371 240.002 37.5371 241.059V241.135Z" fill="#1A1A1A"/>
<path d="M37.3857 247.556H38.2174V244.308H37.3857V247.556Z" fill="#1A1A1A"/>
<path d="M225.94 150.029C226.545 150.86 226.999 151.767 227.528 152.749L228.208 152.371C227.679 151.389 227.15 150.483 226.621 149.576L225.94 150.029Z" fill="#1A1A1A"/>
<path d="M237.205 199.435C237.205 199.435 237.583 202.607 237.583 202.532H238.415C238.415 202.532 238.037 199.359 238.037 199.435H237.205Z" fill="#1A1A1A"/>
<path d="M237.885 205.78C237.885 205.78 238.264 208.953 238.264 208.878H239.095C239.095 208.878 238.717 205.705 238.717 205.78H237.885Z" fill="#1A1A1A"/>
<path d="M234.786 180.398C234.937 181.38 235.088 182.437 235.24 183.419H235.996C235.844 182.362 235.693 181.304 235.542 180.247L234.786 180.398Z" fill="#1A1A1A"/>
<path d="M238.642 212.126C238.717 213.183 238.868 214.241 238.944 215.223H239.776C239.7 214.166 239.549 213.108 239.473 212.126H238.642Z" fill="#1A1A1A"/>
<path d="M51.9773 153.202C52.4309 152.296 53.0357 151.389 53.565 150.483L52.8845 150.029C52.3553 150.936 51.8261 151.918 51.2969 152.824L51.9773 153.202Z" fill="#1A1A1A"/>
<path d="M236.449 193.089C236.6 194.147 236.676 195.204 236.827 196.187H237.659C237.507 195.129 237.432 194.071 237.281 193.089H236.449Z" fill="#1A1A1A"/>
<path d="M235.693 186.668C235.769 187.725 235.92 188.783 236.071 189.765H236.903C236.827 188.632 236.676 187.574 236.525 186.668H235.693Z" fill="#1A1A1A"/>
<path d="M44.7949 171.031L45.551 171.182C45.7778 170.124 46.0046 169.066 46.307 168.084L45.551 167.858C45.3241 168.84 45.0217 169.897 44.7949 170.955V171.031Z" fill="#1A1A1A"/>
<path d="M44.2658 177.452C44.4926 176.319 44.6438 175.336 44.8706 174.279L44.1146 174.128C43.8878 175.185 43.7366 176.243 43.5098 177.301L44.2658 177.452Z" fill="#1A1A1A"/>
<path d="M46.3826 164.76C46.3826 164.76 46.3976 164.715 46.4051 164.693H46.3826V164.76Z" fill="#1A1A1A"/>
<path d="M43.2072 183.722C43.3584 182.664 43.5096 181.606 43.6608 180.549L42.9048 180.398C42.7536 181.455 42.6024 182.513 42.4512 183.571L43.2072 183.722Z" fill="#1A1A1A"/>
<path d="M47.1386 164.912C47.441 163.854 47.8191 162.872 48.1215 161.89L47.3654 161.663C47.0706 162.698 46.7001 163.658 46.4053 164.693L47.1386 164.912Z" fill="#1A1A1A"/>
<path d="M38.2175 228.368H39.0492C39.1248 227.311 39.2004 226.253 39.276 225.12H38.4443C38.3687 226.177 38.2175 227.235 38.2175 228.293V228.368Z" fill="#1A1A1A"/>
<path d="M49.331 159.019C49.7846 157.961 50.1626 157.055 50.6162 156.073L49.8602 155.771C49.4066 156.753 48.953 157.735 48.575 158.717L49.331 159.019Z" fill="#1A1A1A"/>
<path d="M39.7295 209.18H40.5611C40.7123 208.122 40.7879 207.064 40.8635 205.931H40.0319C39.8807 206.989 39.8051 208.047 39.7295 209.104V209.18Z" fill="#1A1A1A"/>
<path d="M39.2002 215.525H40.0318L40.3342 212.277H39.5026L39.2002 215.45V215.525Z" fill="#1A1A1A"/>
<path d="M239.246 218.547C239.398 219.605 239.473 220.662 239.549 221.645H240.38C240.305 220.587 240.154 219.529 240.078 218.547H239.246Z" fill="#1A1A1A"/>
<path d="M38.6711 221.947H39.5028L39.7296 218.698H38.898L38.6711 221.871V221.947Z" fill="#1A1A1A"/>
<path d="M40.9392 196.413H41.7708C41.922 195.355 41.9977 194.298 42.1489 193.165H41.3172C41.166 194.222 41.0148 195.28 40.9392 196.338V196.413Z" fill="#1A1A1A"/>
<path d="M40.3342 202.759H41.1659C41.2415 201.701 41.3927 200.644 41.4683 199.51H40.6366C40.561 200.568 40.4098 201.626 40.3342 202.683V202.759Z" fill="#1A1A1A"/>
<path d="M185.87 126.233C184.812 126.007 183.754 125.856 182.695 125.705L182.544 126.46C183.602 126.611 184.661 126.838 185.719 126.989L185.87 126.233Z" fill="#1A1A1A"/>
<path d="M240.91 250.502V251.998C241.189 252.3 241.462 252.61 241.741 252.919V250.502H240.91Z" fill="#1A1A1A"/>
<path d="M240.759 244.081C240.834 245.139 240.834 246.272 240.834 247.254H241.666C241.59 246.196 241.59 245.139 241.59 244.081H240.759Z" fill="#1A1A1A"/>
<path d="M38.2174 250.653H37.3857V253.433C37.6579 253.123 37.9452 252.829 38.2174 252.519V250.646V250.653Z" fill="#1A1A1A"/>
<path d="M30.506 260.096H29.6743V262.937C29.954 262.566 30.2262 262.189 30.506 261.811V260.096Z" fill="#1A1A1A"/>
<path d="M30.506 253.675H29.6743V255.412V256.848H30.506V255.412V253.675Z" fill="#1A1A1A"/>
<path d="M66.7199 124.118C65.8127 124.647 64.8298 125.176 63.9226 125.704L64.3006 126.384C65.2079 125.78 66.1151 125.327 67.0979 124.798L66.7199 124.118Z" fill="#1A1A1A"/>
<path d="M72.617 121.398C71.6341 121.776 70.6513 122.229 69.6685 122.683L69.9709 123.438C70.9537 122.985 71.9366 122.531 72.9194 122.154L72.617 121.398Z" fill="#1A1A1A"/>
<path d="M249.982 239.171C249.982 238.113 249.831 237.056 249.831 235.998H248.999C249.075 237.131 249.15 238.189 249.15 239.171H249.982Z" fill="#1A1A1A"/>
<path d="M29.901 240.908C29.8254 241.966 29.8254 243.024 29.8254 244.081V244.157H30.6571C30.7327 243.099 30.7327 242.042 30.7327 240.908H29.901Z" fill="#1A1A1A"/>
<path d="M78.6652 119.207C77.6823 119.585 76.6239 119.887 75.641 120.265H75.5654L75.8678 121.021C76.8507 120.643 77.9091 120.265 78.892 119.963L78.6652 119.207Z" fill="#1A1A1A"/>
<path d="M250.511 251.938C250.436 250.88 250.436 249.822 250.436 248.765H249.604C249.68 249.822 249.68 250.88 249.68 251.938H250.511Z" fill="#1A1A1A"/>
<path d="M61.2008 127.366C60.2936 127.971 59.3863 128.651 58.5547 129.255H58.6303L59.0839 129.859C59.9155 129.255 60.7472 128.651 61.6544 128.046L61.2008 127.366Z" fill="#1A1A1A"/>
<path d="M29.6743 247.329V250.578H30.506V247.329H29.6743Z" fill="#1A1A1A"/>
<path d="M123.12 114.373V113.542H119.945V114.373H123.12Z" fill="#1A1A1A"/>
<path d="M30.2035 234.487C30.1278 235.545 30.0522 236.602 30.0522 237.66V237.735H30.8839C30.9595 236.678 31.0351 235.62 31.0351 234.487H30.2035Z" fill="#1A1A1A"/>
<path d="M129.546 114.222V113.391H126.371V114.222H129.546Z" fill="#1A1A1A"/>
<path d="M116.694 114.449V113.618C115.635 113.693 114.577 113.769 113.518 113.769V114.6C114.577 114.524 115.635 114.449 116.694 114.449Z" fill="#1A1A1A"/>
<path d="M135.141 113.391H132.797V114.222H135.141H135.972V113.391H135.141Z" fill="#1A1A1A"/>
<path d="M139.148 113.315V114.146H142.323V113.315H139.148Z" fill="#1A1A1A"/>
<path d="M84.8646 117.47C83.8062 117.772 82.8233 117.999 81.7649 118.301L81.9917 119.057C83.0501 118.754 84.033 118.452 85.0914 118.226L84.8646 117.47Z" fill="#1A1A1A"/>
<path d="M97.4903 115.959V115.204C96.4318 115.355 95.3734 115.506 94.3149 115.657L94.4661 116.413C95.449 116.262 96.5074 116.11 97.4903 115.959Z" fill="#1A1A1A"/>
<path d="M110.267 114.75V113.919C109.209 113.995 108.15 114.071 107.092 114.146V114.977C108.15 114.902 109.285 114.75 110.267 114.75Z" fill="#1A1A1A"/>
<path d="M91.3666 116.942L91.2154 116.186C90.1569 116.337 89.0985 116.564 88.04 116.79H88.1156L88.2669 117.546C89.2497 117.319 90.3081 117.168 91.3666 116.942Z" fill="#1A1A1A"/>
<path d="M103.841 115.279V114.448C102.783 114.524 101.724 114.599 100.666 114.751H100.741V115.582C101.8 115.506 102.858 115.355 103.841 115.279Z" fill="#1A1A1A"/>
<path d="M249.831 261.531V262.831C250.111 263.208 250.39 263.579 250.662 263.964V261.539H249.831V261.531Z" fill="#1A1A1A"/>
<path d="M51.3725 135.752C50.6921 136.507 49.936 137.338 49.2556 138.169L49.8604 138.698C50.5409 137.867 51.2969 137.036 51.9773 136.28L51.3725 135.752Z" fill="#1A1A1A"/>
<path d="M38.2929 164.458L37.5369 164.307C37.3176 165.342 37.0908 166.377 36.8716 167.405L37.6125 167.556C37.8393 166.498 38.0661 165.44 38.2929 164.458Z" fill="#1A1A1A"/>
<path d="M36.2516 170.653C36.1004 171.71 35.8736 172.768 35.7224 173.825L36.4784 173.977C36.6297 172.919 36.8565 171.861 37.0077 170.804L36.2516 170.653Z" fill="#1A1A1A"/>
<path d="M35.269 176.998C35.1178 178.056 34.9666 179.113 34.8153 180.171L34.7397 180.247H35.5714C35.7226 179.189 35.8738 178.131 36.025 176.998H35.269Z" fill="#1A1A1A"/>
<path d="M34.4373 183.344C34.2861 184.402 34.2105 185.459 34.0593 186.517V186.592H34.891C35.0422 185.535 35.1178 184.477 35.269 183.344H34.4373Z" fill="#1A1A1A"/>
<path d="M43.8876 146.252C43.3583 147.159 42.9047 148.141 42.4511 149.123L42.3755 149.198L43.1315 149.5C43.5851 148.518 44.0388 147.536 44.568 146.63L43.8876 146.252Z" fill="#1A1A1A"/>
<path d="M33.6813 189.765C33.6057 190.823 33.4545 191.881 33.3789 192.938V193.014H34.2105C34.2861 191.956 34.4374 190.898 34.513 189.765H33.6813Z" fill="#1A1A1A"/>
<path d="M39.1246 158.113C38.8222 159.095 38.5954 160.152 38.293 161.21L39.049 161.437C39.2758 160.379 39.5782 159.321 39.8806 158.339L39.1246 158.113Z" fill="#1A1A1A"/>
<path d="M47.3655 140.738C46.6851 141.569 46.1559 142.475 45.551 143.382H45.6266L46.3071 143.835C46.8363 142.928 47.4411 142.022 48.0459 141.191L47.3655 140.738Z" fill="#1A1A1A"/>
<path d="M36.8564 167.48C36.8564 167.48 36.864 167.435 36.8715 167.405H36.8564V167.48Z" fill="#1A1A1A"/>
<path d="M53.6404 133.485C53.6404 133.485 53.6929 133.44 53.7155 133.41L53.6404 133.485Z" fill="#1A1A1A"/>
<path d="M31.4131 215.299L31.1863 218.472V218.547H32.0179L32.2447 215.299H31.4131Z" fill="#1A1A1A"/>
<path d="M148.749 114.222V113.391H145.574V114.222H148.749Z" fill="#1A1A1A"/>
<path d="M30.9595 221.645C30.8839 222.702 30.7327 223.76 30.7327 224.818V224.893H31.5643C31.6399 223.835 31.7155 222.778 31.7911 221.645H30.9595Z" fill="#1A1A1A"/>
<path d="M30.5059 228.066C30.5059 229.123 30.3547 230.181 30.3547 231.238V231.314H31.1864C31.1864 230.256 31.3376 229.199 31.3376 228.066H30.5059Z" fill="#1A1A1A"/>
<path d="M33.0763 196.111C33.0007 197.169 32.8495 198.226 32.7739 199.284V199.359H33.6056C33.6812 198.302 33.8324 197.244 33.908 196.111H33.0763Z" fill="#1A1A1A"/>
<path d="M32.5473 202.532C32.3961 203.59 32.3205 204.647 32.2449 205.705V205.78H33.0765C33.2277 204.723 33.3033 203.665 33.3789 202.532H32.5473Z" fill="#1A1A1A"/>
<path d="M56.589 131.899L56.0598 131.295C55.2584 132.027 54.457 132.685 53.7161 133.41L54.2453 134.014C55.0013 133.259 55.7573 132.579 56.589 131.899Z" fill="#1A1A1A"/>
<path d="M250.587 258.359V255.186H249.755V258.359H250.587Z" fill="#1A1A1A"/>
<path d="M31.9424 208.878L31.7156 212.05V212.126H32.5472L32.774 208.878H31.9424Z" fill="#1A1A1A"/>
<path d="M229.342 137.262C230.023 138.018 230.703 138.849 231.384 139.68L231.989 139.151C231.308 138.32 230.628 137.564 229.872 136.733L229.267 137.262H229.342Z" fill="#1A1A1A"/>
<path d="M227.074 134.996L227.603 134.392C226.847 133.636 226.091 132.881 225.26 132.201L224.73 132.805C225.562 133.561 226.318 134.241 227.074 134.996Z" fill="#1A1A1A"/>
<path d="M233.198 142.249L233.281 142.189C233.281 142.189 233.281 142.174 233.273 142.174L233.198 142.249Z" fill="#1A1A1A"/>
<path d="M248.697 219.907L248.47 216.81H247.638L247.865 219.907H248.697Z" fill="#1A1A1A"/>
<path d="M241.288 162.721L242.044 162.57C241.817 161.512 241.515 160.454 241.288 159.472L240.547 159.691C240.842 160.651 241.061 161.686 241.288 162.721Z" fill="#1A1A1A"/>
<path d="M237.659 150.634L238.415 150.332C238.037 149.35 237.583 148.292 237.13 147.385L236.374 147.763C236.827 148.67 237.281 149.652 237.659 150.634Z" fill="#1A1A1A"/>
<path d="M248.168 213.486L247.941 210.389H247.109L247.336 213.486H248.168Z" fill="#1A1A1A"/>
<path d="M242.573 169.142L243.329 168.991C243.102 167.857 242.951 166.875 242.724 165.818L241.968 165.969C242.195 167.026 242.422 168.084 242.573 169.142Z" fill="#1A1A1A"/>
<path d="M217.019 127.215L217.473 126.535C216.565 126.007 215.658 125.478 214.675 124.949L214.297 125.629C215.205 126.158 216.112 126.687 217.019 127.215Z" fill="#1A1A1A"/>
<path d="M219.816 128.877C220.648 129.481 221.555 130.086 222.387 130.766L222.84 130.161C221.933 129.481 221.102 128.877 220.194 128.273L219.741 128.953L219.816 128.877Z" fill="#1A1A1A"/>
<path d="M240.532 159.699H240.547C240.547 159.699 240.532 159.646 240.532 159.624V159.699Z" fill="#1A1A1A"/>
<path d="M243.556 175.261H244.312C244.161 174.203 244.009 173.146 243.858 172.088L243.102 172.239C243.253 173.221 243.404 174.279 243.556 175.261Z" fill="#1A1A1A"/>
<path d="M41.2415 152.069C40.8635 153.051 40.4854 154.033 40.1074 155.091V155.166L40.8635 155.393C41.2415 154.335 41.6195 153.353 41.9975 152.371L41.2415 152.069Z" fill="#1A1A1A"/>
<path d="M246.504 194.374C246.429 193.316 246.277 192.258 246.202 191.276H245.37C245.446 192.334 245.597 193.391 245.673 194.374H246.504Z" fill="#1A1A1A"/>
<path d="M247.109 200.794C247.034 199.737 246.882 198.679 246.807 197.697H245.975C246.051 198.755 246.202 199.812 246.278 200.794H247.109Z" fill="#1A1A1A"/>
<path d="M155.251 114.222V113.391H152V114.222H155.251Z" fill="#1A1A1A"/>
<path d="M245.143 181.682C245.068 180.549 244.917 179.491 244.765 178.585H243.934C244.085 179.642 244.161 180.7 244.312 181.682H245.143Z" fill="#1A1A1A"/>
<path d="M245.975 188.028C245.824 186.97 245.748 185.913 245.597 184.931H244.765C244.917 185.988 245.068 187.046 245.143 188.028H245.975Z" fill="#1A1A1A"/>
<path d="M247.714 207.14L247.411 204.043H246.58L246.882 207.14H247.714Z" fill="#1A1A1A"/>
<path d="M234.937 144.893L235.617 144.515C235.013 143.608 234.483 142.702 233.879 141.795L233.281 142.188C233.879 143.087 234.408 143.986 234.937 144.893Z" fill="#1A1A1A"/>
<path d="M199.555 119.661L199.782 118.905C198.723 118.603 197.74 118.376 196.682 118.074L196.455 118.83C197.514 119.056 198.572 119.358 199.555 119.661Z" fill="#1A1A1A"/>
<path d="M249.68 232.75C249.604 231.692 249.453 230.634 249.453 229.577H248.621C248.697 230.71 248.848 231.767 248.848 232.75H249.68Z" fill="#1A1A1A"/>
<path d="M238.793 153.731C239.171 154.713 239.473 155.695 239.776 156.753L240.532 156.526C240.229 155.469 239.851 154.411 239.549 153.429L238.793 153.656V153.731Z" fill="#1A1A1A"/>
<path d="M208.552 122.985C209.534 123.363 210.517 123.816 211.424 124.269L211.802 123.514C210.82 122.985 209.837 122.607 208.854 122.154L208.552 122.909V122.985Z" fill="#1A1A1A"/>
<path d="M202.503 120.643C203.562 120.945 204.544 121.323 205.527 121.701L205.83 120.945C204.847 120.568 203.864 120.19 202.806 119.888L202.579 120.643H202.503Z" fill="#1A1A1A"/>
<path d="M250.284 245.516C250.209 244.459 250.133 243.401 250.133 242.343H249.302C249.377 243.401 249.453 244.534 249.453 245.516H250.284Z" fill="#1A1A1A"/>
<path d="M190.331 117.47C191.389 117.697 192.372 117.923 193.431 118.15L193.582 117.394C192.523 117.168 191.465 116.941 190.407 116.715L190.255 117.47H190.331Z" fill="#1A1A1A"/>
<path d="M168.104 114.75V113.92C167.045 113.844 165.987 113.768 164.853 113.768V114.599C165.911 114.599 166.97 114.75 168.104 114.75Z" fill="#1A1A1A"/>
<path d="M174.454 115.204V114.373C173.396 114.297 172.337 114.222 171.203 114.146V114.977C172.262 115.053 173.32 115.128 174.454 115.204Z" fill="#1A1A1A"/>
<path d="M187.08 116.866L187.231 116.11C186.173 115.884 185.114 115.733 184.056 115.581L183.905 116.337C184.963 116.488 186.022 116.715 187.08 116.866Z" fill="#1A1A1A"/>
<path d="M161.677 114.448V113.617C160.619 113.542 159.485 113.542 158.427 113.542V114.373C159.485 114.448 160.543 114.448 161.677 114.448Z" fill="#1A1A1A"/>
<path d="M180.805 115.959V115.128C179.747 114.977 178.688 114.901 177.554 114.75V115.581C178.613 115.732 179.671 115.808 180.805 115.959Z" fill="#1A1A1A"/>
<path d="M249.226 226.253C249.15 225.271 249.075 224.138 248.999 223.156H248.167C248.243 224.213 248.319 225.271 248.394 226.253H249.226Z" fill="#1A1A1A"/>
<path d="M16.4665 281.414L16.6933 281.626H18.1827V281.55L16.595 279.964C16.5194 262.74 16.595 245.063 16.6706 227.461C16.8218 209.482 16.8974 200.492 17.1998 196.262C18.1827 180.322 20.4508 142.928 39.8808 120.114C61.2009 95.1091 97.566 95.4113 143.608 95.8646C186.853 96.2423 220.95 96.5445 240.381 120.341C256.635 140.284 259.811 173.977 261.927 196.337C262.759 204.949 262.986 213.032 263.213 221.644C263.364 227.915 263.515 234.26 263.515 240.53C263.515 253.675 263.137 266.819 262.305 279.737L261.171 281.475C258.057 275.499 254.533 269.834 250.663 264.47V264.704H249.831V263.329C247.276 259.869 244.576 256.538 241.741 253.358V253.675H240.91V252.428C238.611 249.898 236.23 247.45 233.765 245.108C233.78 245.29 233.788 245.486 233.803 245.667H232.971C232.971 245.237 232.956 244.791 232.934 244.33C229.864 241.467 226.674 238.747 223.37 236.179V236.451H222.538V235.552C219.832 233.49 217.049 231.533 214.199 229.675C214.207 229.765 214.214 229.864 214.222 229.954H213.39C213.39 229.69 213.39 229.418 213.39 229.138C192.652 215.828 168.399 208.13 142.936 207.518C117.306 206.913 91.979 213.637 69.8272 226.857C68.5722 227.605 67.3399 228.375 66.1151 229.161C66.0924 229.486 66.0697 229.803 66.0471 230.105H65.2154V230.03C65.2154 229.932 65.2305 229.826 65.2381 229.735C62.2215 231.699 59.2881 233.792 56.4455 235.975V236.829H55.6138V236.904V236.617C52.5821 238.982 49.6487 241.46 46.8363 244.058C46.8287 244.428 46.806 244.791 46.7682 245.138H45.9366C45.9366 245.07 45.9366 244.987 45.9366 244.912C43.2603 247.435 40.6897 250.064 38.2251 252.791V253.826H37.3934V253.705C34.9893 256.41 32.6985 259.212 30.5135 262.106V263.269H29.6819V263.231C25.3952 269.025 21.5394 275.167 18.1902 281.626H19.4679C43.4946 236.051 91.7975 207.374 142.936 208.651C192.153 209.852 236.827 237.758 259.924 281.626H262.525L262.631 281.467C262.449 281.044 262.275 280.621 262.086 280.191L263.523 279.586C263.576 279.707 263.621 279.82 263.674 279.941V279.813C264.884 260.625 265.262 240.984 264.657 221.418C264.43 213.184 264.203 204.723 263.371 196.035C261.255 173.599 258.004 139.604 241.522 119.359C221.638 95.0336 187.239 94.7314 143.692 94.3537C97.2712 93.976 60.6036 93.6738 38.9055 119.132C19.1731 142.324 16.905 180.02 15.9221 196.111C15.6197 200.417 15.5441 209.482 15.3929 227.461C15.2417 238.717 15.2417 249.973 15.2417 261.229L15.3173 261.305L15.3173 279.888L16.8294 280.493C16.7084 280.803 16.595 281.105 16.474 281.414H16.4665Z" fill="#1A1A1A"/>
<path d="M233.735 244.678C233.742 244.821 233.758 244.965 233.765 245.109C236.23 247.45 238.611 249.898 240.91 252.429V251.991C238.604 249.46 236.215 247.012 233.735 244.67V244.678Z" fill="#1A1A1A"/>
<path d="M46.8286 243.794C46.8286 243.877 46.8286 243.967 46.8286 244.058C49.6411 241.459 52.5745 238.982 55.6061 236.617V236.353C52.582 238.717 49.6411 241.195 46.8286 243.801V243.794Z" fill="#1A1A1A"/>
<path d="M30.5059 261.811V262.098C32.6908 259.205 34.9816 256.402 37.3858 253.698V253.433C34.9816 256.13 32.6908 258.925 30.5059 261.811Z" fill="#1A1A1A"/>
<path d="M38.2175 252.519V252.784C40.6822 250.057 43.2527 247.428 45.929 244.905C45.929 244.821 45.929 244.731 45.929 244.64C43.2527 247.163 40.6822 249.785 38.21 252.512L38.2175 252.519Z" fill="#1A1A1A"/>
<path d="M223.37 235.809V236.179C226.673 238.74 229.864 241.459 232.933 244.33C232.933 244.194 232.918 244.051 232.911 243.907C229.849 241.059 226.666 238.355 223.37 235.801V235.809Z" fill="#1A1A1A"/>
<path d="M56.2563 235.847H56.4378V235.975C59.2805 233.792 62.2063 231.699 65.2304 229.735C65.2304 229.645 65.2456 229.546 65.2531 229.448C62.161 231.465 59.1671 233.603 56.2563 235.847Z" fill="#1A1A1A"/>
<path d="M143.003 207.216C117.298 206.611 91.9713 213.335 69.7439 226.63C68.5267 227.356 67.3246 228.111 66.1301 228.874C66.1301 228.972 66.115 229.063 66.1074 229.161C67.3322 228.375 68.5645 227.605 69.8195 226.857C91.9713 213.637 117.298 206.914 142.928 207.518C168.399 208.137 192.652 215.835 213.382 229.138C213.382 229.018 213.382 228.897 213.375 228.776C192.645 215.51 168.436 207.828 143.003 207.208V207.216Z" fill="#1A1A1A"/>
<path d="M214.169 229.297C214.176 229.426 214.184 229.547 214.199 229.675C217.049 231.533 219.831 233.49 222.538 235.552V235.182C219.824 233.112 217.027 231.156 214.169 229.297Z" fill="#1A1A1A"/>
<path d="M29.6741 262.929C25.4026 268.685 21.5468 274.767 18.1825 281.165L16.8972 279.881C16.746 262.581 16.8216 244.98 16.9728 227.454C17.1996 209.474 17.2752 200.409 17.502 196.179C18.4093 180.239 20.753 142.921 40.1074 120.182C61.3519 95.3282 97.717 95.6303 143.684 96.0081C186.778 96.3858 220.875 96.688 240.229 120.409C256.408 140.352 259.584 173.969 261.7 196.254C262.456 204.866 262.759 213.327 262.986 221.486C263.212 227.756 263.288 234.102 263.288 240.372V240.523C263.288 253.667 262.91 266.736 262.078 279.654L261.247 280.939C258.102 274.971 254.556 269.305 250.662 263.949V264.455C254.533 269.819 258.056 275.484 261.171 281.46L262.305 279.722C263.137 266.804 263.515 253.66 263.515 240.515C263.515 234.245 263.364 227.899 263.212 221.629C262.986 213.017 262.759 204.934 261.927 196.322C259.81 173.961 256.635 140.269 240.38 120.326C220.95 96.5293 186.853 96.2271 143.608 95.8494C97.5658 95.3962 61.2007 95.094 39.8806 120.099C20.4506 142.913 18.1825 180.307 17.1996 196.247C16.8972 200.477 16.8216 209.467 16.6704 227.446C16.5948 245.048 16.5192 262.725 16.5948 279.949L18.1825 281.535V281.611C21.5317 275.152 25.3874 269.01 29.6741 263.216V262.921V262.929Z" fill="#1A1A1A"/>
<path d="M241.741 252.912V253.35C244.576 256.53 247.275 259.862 249.831 263.322V262.823C247.275 259.378 244.576 256.077 241.741 252.912Z" fill="#1A1A1A"/>
<path d="M143.003 208.802C192.146 209.928 236.819 237.833 259.848 281.626H259.924C236.827 237.758 192.153 209.852 142.935 208.651C91.7974 207.374 43.4869 236.051 19.4678 281.626H19.7324C43.7666 236.171 91.9713 207.601 143.011 208.802H143.003Z" fill="#1A1A1A"/>
<path d="M213.39 229.954H214.222C214.214 229.864 214.207 229.765 214.199 229.675C213.927 229.501 213.655 229.32 213.383 229.146C213.383 229.426 213.383 229.698 213.383 229.962L213.39 229.954Z" fill="#1A1A1A"/>
<path d="M65.2078 230.03V230.105H66.0394C66.0621 229.803 66.0848 229.486 66.1074 229.161C65.8126 229.35 65.5177 229.539 65.2304 229.735C65.2304 229.834 65.2153 229.939 65.2078 230.03Z" fill="#1A1A1A"/>
<path d="M213.375 228.776C213.375 228.897 213.375 229.018 213.383 229.139C213.655 229.312 213.927 229.494 214.199 229.667C214.192 229.539 214.184 229.418 214.169 229.29C213.904 229.116 213.64 228.942 213.375 228.776Z" fill="#1A1A1A"/>
<path d="M65.2531 229.44C65.2531 229.539 65.238 229.637 65.2305 229.728C65.5253 229.539 65.8126 229.342 66.1075 229.153C66.1075 229.063 66.1226 228.965 66.1301 228.866C65.8353 229.055 65.5404 229.244 65.2531 229.433V229.44Z" fill="#1A1A1A"/>
<path d="M222.538 236.451H223.37V236.179C223.098 235.968 222.818 235.756 222.538 235.545V236.444V236.451Z" fill="#1A1A1A"/>
<path d="M55.6062 236.829H56.4378V235.975C56.1581 236.186 55.8859 236.406 55.6062 236.617V236.829Z" fill="#1A1A1A"/>
<path d="M56.2564 235.847C56.0371 236.013 55.8179 236.179 55.6062 236.353V236.617C55.8859 236.398 56.1581 236.187 56.4378 235.975V235.847H56.2564Z" fill="#1A1A1A"/>
<path d="M222.538 235.174V235.545C222.818 235.756 223.098 235.96 223.37 236.179V235.809C223.098 235.598 222.818 235.386 222.538 235.182V235.174Z" fill="#1A1A1A"/>
<path d="M45.929 245.139H46.7606C46.7984 244.791 46.8211 244.429 46.8286 244.058C46.5262 244.338 46.2314 244.633 45.9365 244.912C45.9365 244.988 45.9365 245.063 45.9365 245.139H45.929Z" fill="#1A1A1A"/>
<path d="M232.971 245.667H233.803C233.788 245.486 233.78 245.297 233.765 245.108C233.486 244.844 233.206 244.587 232.934 244.33C232.956 244.791 232.971 245.237 232.971 245.667Z" fill="#1A1A1A"/>
<path d="M232.911 243.907C232.918 244.051 232.926 244.187 232.934 244.33C233.213 244.587 233.493 244.844 233.765 245.108C233.758 244.965 233.743 244.821 233.735 244.678C233.463 244.421 233.183 244.164 232.911 243.915V243.907Z" fill="#1A1A1A"/>
<path d="M45.929 244.648C45.929 244.738 45.929 244.821 45.929 244.912C46.2314 244.633 46.5187 244.338 46.8211 244.058C46.8211 243.975 46.8211 243.885 46.8211 243.794C46.5187 244.074 46.2238 244.368 45.929 244.648Z" fill="#1A1A1A"/>
<path d="M240.91 253.675H241.741V253.358C241.462 253.048 241.189 252.738 240.91 252.428V253.675Z" fill="#1A1A1A"/>
<path d="M37.3857 253.826H38.2174V252.791C37.9376 253.093 37.6579 253.396 37.3857 253.705V253.826Z" fill="#1A1A1A"/>
<path d="M240.91 251.991V252.429C241.189 252.738 241.462 253.048 241.741 253.358V252.92C241.462 252.61 241.189 252.3 240.91 251.998V251.991Z" fill="#1A1A1A"/>
<path d="M37.3857 253.433V253.698C37.6579 253.388 37.9376 253.093 38.2174 252.784V252.519C37.9452 252.821 37.6579 253.124 37.3857 253.433Z" fill="#1A1A1A"/>
<path d="M29.6743 263.269H30.506V262.106C30.2262 262.476 29.954 262.861 29.6743 263.231V263.269Z" fill="#1A1A1A"/>
<path d="M249.831 264.704H250.662V264.47C250.39 264.092 250.111 263.715 249.831 263.337V264.712V264.704Z" fill="#1A1A1A"/>
<path d="M29.6743 262.929V263.224C29.954 262.846 30.2262 262.468 30.506 262.098V261.811C30.2262 262.181 29.954 262.559 29.6743 262.937V262.929Z" fill="#1A1A1A"/>
<path d="M249.831 262.823V263.322C250.111 263.7 250.39 264.077 250.662 264.455V263.949C250.39 263.571 250.111 263.193 249.831 262.816V262.823Z" fill="#1A1A1A"/>
<path d="M139.979 236.149C125.842 235.998 82.9746 235.393 47.8191 267.273C47.7662 267.326 42.2774 272.342 35.4504 281.626H36.8793C43.4417 272.765 48.6659 268.013 48.7264 267.953C83.5794 236.375 126.144 236.904 140.131 237.131C193.809 237.811 224.655 260.549 241.061 279.435C241.704 280.153 242.324 280.886 242.936 281.626H244.085C243.322 280.689 242.543 279.76 241.741 278.831C225.184 259.718 194.036 236.829 139.979 236.149Z" fill="#1A1A1A"/>
<path d="M47.819 267.273C82.9745 235.393 125.842 235.998 139.979 236.149C194.036 236.829 225.184 259.718 241.741 278.831C242.55 279.76 243.321 280.689 244.085 281.626H244.637C243.798 280.591 242.936 279.556 242.044 278.529C225.411 259.341 194.262 236.375 140.055 235.696C125.917 235.544 82.9745 234.94 47.7434 266.895C47.6905 266.948 42.1034 272.092 35.1479 281.626H35.4428C42.2698 272.342 47.7586 267.326 47.8115 267.273H47.819Z" fill="#1A1A1A"/>
<path d="M48.953 268.028C83.7305 236.527 126.219 237.131 140.206 237.282C193.809 237.962 224.579 260.625 240.985 279.511C241.59 280.213 242.172 280.916 242.754 281.626H242.936C242.323 280.886 241.703 280.153 241.061 279.435C224.655 260.549 193.809 237.811 140.13 237.131C126.144 236.904 83.5793 236.375 48.7262 267.953C48.6657 268.013 43.4339 272.765 36.8792 281.626H37.1816C43.7288 272.802 48.9001 268.081 48.953 268.028Z" fill="#1A1A1A"/>
</g>
<defs>
<clipPath id="clip0_281_2952">
<rect width="417" height="282" fill="white" transform="matrix(0 -1 1 0 0 417)"/>
</clipPath>
</defs>
</svg>
