<?xml version="1.0" encoding="UTF-8"?>
<svg id="Capa_2" data-name="Capa 2" xmlns="http://www.w3.org/2000/svg" xmlns:xlink="http://www.w3.org/1999/xlink" viewBox="0 0 2035.15 626.61">
  <defs>
    <style>
      .cls-1 {
        clip-path: url(#clippath-51);
      }

      .cls-2 {
        clip-path: url(#clippath-34);
      }

      .cls-3 {
        clip-path: url(#clippath-38);
      }

      .cls-4 {
        clip-path: url(#clippath-21);
      }

      .cls-5 {
        clip-path: url(#clippath-6);
      }

      .cls-6 {
        clip-path: url(#clippath-7);
      }

      .cls-7 {
        clip-path: url(#clippath-17);
      }

      .cls-8 {
        clip-path: url(#clippath-31);
      }

      .cls-9 {
        clip-path: url(#clippath-15);
      }

      .cls-10 {
        clip-path: url(#clippath-33);
      }

      .cls-11 {
        clip-path: url(#clippath-18);
      }

      .cls-12 {
        clip-path: url(#clippath-47);
      }

      .cls-13 {
        clip-path: url(#clippath-4);
      }

      .cls-14 {
        clip-path: url(#clippath-22);
      }

      .cls-15 {
        clip-path: url(#clippath-23);
      }

      .cls-16 {
        clip-path: url(#clippath-54);
      }

      .cls-17 {
        clip-path: url(#clippath-9);
      }

      .cls-18 {
        clip-path: url(#clippath-10);
      }

      .cls-19 {
        clip-path: url(#clippath-42);
      }

      .cls-20 {
        fill: #fff;
      }

      .cls-21 {
        clip-path: url(#clippath-43);
      }

      .cls-22 {
        clip-path: url(#clippath-25);
      }

      .cls-23 {
        clip-path: url(#clippath-27);
      }

      .cls-24 {
        clip-path: url(#clippath-11);
      }

      .cls-25 {
        clip-path: url(#clippath-57);
      }

      .cls-26 {
        fill: none;
      }

      .cls-27 {
        clip-path: url(#clippath-36);
      }

      .cls-28 {
        clip-path: url(#clippath-35);
      }

      .cls-29 {
        clip-path: url(#clippath-48);
      }

      .cls-30 {
        clip-path: url(#clippath-28);
      }

      .cls-31 {
        clip-path: url(#clippath-1);
      }

      .cls-32 {
        clip-path: url(#clippath-56);
      }

      .cls-33 {
        clip-path: url(#clippath-45);
      }

      .cls-34 {
        clip-path: url(#clippath-46);
      }

      .cls-35 {
        clip-path: url(#clippath-40);
      }

      .cls-36 {
        clip-path: url(#clippath-5);
      }

      .cls-37 {
        clip-path: url(#clippath-20);
      }

      .cls-38 {
        clip-path: url(#clippath-8);
      }

      .cls-39 {
        clip-path: url(#clippath-52);
      }

      .cls-40 {
        clip-path: url(#clippath-41);
      }

      .cls-41 {
        clip-path: url(#clippath-3);
      }

      .cls-42 {
        clip-path: url(#clippath-26);
      }

      .cls-43 {
        clip-path: url(#clippath-12);
      }

      .cls-44 {
        clip-path: url(#clippath-50);
      }

      .cls-45 {
        clip-path: url(#clippath-14);
      }

      .cls-46 {
        clip-path: url(#clippath-30);
      }

      .cls-47 {
        clip-path: url(#clippath-19);
      }

      .cls-48 {
        clip-path: url(#clippath-32);
      }

      .cls-49 {
        clip-path: url(#clippath-55);
      }

      .cls-50 {
        clip-path: url(#clippath-53);
      }

      .cls-51 {
        clip-path: url(#clippath-39);
      }

      .cls-52 {
        clip-path: url(#clippath-16);
      }

      .cls-53 {
        clip-path: url(#clippath-2);
      }

      .cls-54 {
        clip-path: url(#clippath-29);
      }

      .cls-55 {
        clip-path: url(#clippath-49);
      }

      .cls-56 {
        clip-path: url(#clippath-37);
      }

      .cls-57 {
        clip-path: url(#clippath-58);
      }

      .cls-58 {
        clip-path: url(#clippath-13);
      }

      .cls-59 {
        clip-path: url(#clippath-24);
      }

      .cls-60 {
        clip-path: url(#clippath);
      }

      .cls-61 {
        clip-path: url(#clippath-44);
      }
    </style>
    <clipPath id="clippath">
      <path class="cls-26" d="M1111.95,468.18c-6.67,19.59-19.38,18.47-25.67,37.7-5.8,17.75-2.4,42.33,11.77,54.33,12.59,10.66,22.38,1.79,44.95,12.43,21.14,9.96,18.54,20.57,36.1,27.6,27.76,11.12,65.88-2.75,69.35-19.01,1.63-7.62-4.29-14.94.3-20.4,3.7-4.41,11.16-3.93,14.58-3.71,12.15.78,13.66,7.94,24.59,9.38,11.77,1.56,14.15-6.19,23.99-3.58,10.18,2.71,10.37,11.74,19.7,12.58,7.09.64,9.48-4.35,17.78-3.4,6.24.71,9.56,4.06,12.54,5.68,16.77,9.08,61.7-15.81,62.21-40.7.37-17.89-22.38-27.7-17.43-43.03,2.44-7.54,8.83-7.94,10.84-16.72,2.02-8.84-1.75-20.33-9.42-26.82-12.95-10.96-25,2.49-52.1-7.04-8.78-3.08-14.14-5.33-23.87-5-9.78.34-12.85,3.45-20.35,2.39-10.22-1.44-12.08-8.31-21.23-13.49-9.43-5.34-25.21-3.12-56.4,1.52-18.31,2.73-24.45,4.62-34.96,2.08-10.28-2.48-13.42-6.47-22.41-10.92-19.93-9.88-52.28-14.12-62.59-.91-9.48,12.14,5.91,24.96-2.28,49.03Z"/>
    </clipPath>
    <clipPath id="clippath-1">
      <path class="cls-26" d="M1098.32,171.01c3.54-1.05,3.65-2.12,15.5-12.43,13.78-12,20.3-15.01,20.03-20.91-.15-3.36-2.25-3.58-3.07-7.17-1.6-7,4.31-15.39,19.3-28.08,17.02-14.4,19.9-12.47,31.59-22.67,19.76-17.23,20.41-30.5,29.94-30.45,9.18.05,9.81,12.35,29.28,26.94,10.46,7.83,11.51,5.2,27.2,15.5,5.4,3.55,32.81,21.53,29.39,31.29-.98,2.81-3.75,2.73-3.95,4.97-.53,6.09,19.26,14.82,39.48,17.99,19.8,3.1,23.97-1.64,35.97,3.8,5.01,2.28,17.24,8.98,22.96,23.54.36.92,7.2,19.17-2.34,35.83-7.29,12.73-20.58,18.3-28.22,21.5-11.02,4.61-17.48,4.04-26.18,11.41-2.69,2.28-5.21,5.47-10.24,11.84-8.91,11.3-9.65,14.3-15.5,21.35-2.96,3.57-8.07,8.08-18.28,17.11-16.74,14.8-19.27,15.75-21.35,21.2-3.65,9.57,1.32,15.08-3.58,19.74-5.81,5.53-13.01.29-22.16,4.39-15.11,6.77-13.71,29.24-22.08,29.83-7.12.51-7.66-15.05-22.81-22.81-11.91-6.1-19.91-.73-26.03-8.04-4.5-5.38-1.44-9.78-6.99-20.41-2.98-5.71-6.28-12.02-11.31-12.86-10.17-1.7-15.04,21.04-28.06,22.01-10.54.78-12.15-13.78-32.32-27.35-19.86-13.36-32.57-8.84-38.75-21.35-3.29-6.65-3.07-14.77-2.78-25.88.32-12.08,2.59-15.7,0-22.52-3.41-8.96-9.35-7.96-12.28-15.79-4.29-11.45,3.97-25.45,10.8-32.64,2.62-2.76,9.47-9.95,19.91-11.52,12.03-1.81,16.57,5.69,26.91,2.63Z"/>
    </clipPath>
    <clipPath id="clippath-2">
      <path class="cls-26" d="M503.33,399.3c3.54-1.05,3.65-2.12,15.5-12.43,13.78-12,20.3-15.01,20.03-20.91-.15-3.36-2.25-3.58-3.07-7.17-1.6-7,4.31-15.39,19.3-28.08,17.02-14.4,19.9-12.47,31.59-22.67,19.76-17.23,20.41-30.5,29.94-30.45,9.18.05,9.81,12.35,29.28,26.94,10.46,7.83,11.51,5.2,27.2,15.5,5.4,3.55,32.81,21.53,29.39,31.29-.98,2.81-3.75,2.73-3.95,4.97-.53,6.09,19.26,14.82,39.48,17.99,19.8,3.1,23.97-1.64,35.97,3.8,5.01,2.28,17.24,8.98,22.96,23.54.36.92,7.2,19.17-2.34,35.83-7.29,12.73-20.58,18.3-28.22,21.5-11.02,4.61-17.48,4.04-26.18,11.41-2.69,2.28-5.21,5.47-10.24,11.84-8.91,11.3-9.65,14.3-15.5,21.35-2.96,3.57-8.07,8.08-18.28,17.11-16.74,14.8-19.27,15.75-21.35,21.2-3.65,9.57,1.32,15.08-3.58,19.74-5.81,5.53-13.01.29-22.16,4.39-15.11,6.77-13.71,29.24-22.08,29.83-7.12.51-7.66-15.05-22.81-22.81-11.91-6.1-19.91-.73-26.03-8.04-4.5-5.38-1.44-9.78-6.99-20.41-2.98-5.71-6.28-12.02-11.31-12.86-10.17-1.7-15.04,21.04-28.06,22.01-10.54.78-12.15-13.78-32.32-27.35-19.86-13.36-32.57-8.84-38.75-21.35-3.29-6.65-3.07-14.77-2.78-25.88.32-12.08,2.59-15.7,0-22.52-3.41-8.96-9.35-7.96-12.28-15.79-4.29-11.45,3.97-25.45,10.8-32.64,2.62-2.76,9.47-9.95,19.91-11.52,12.03-1.81,16.57,5.69,26.91,2.63Z"/>
    </clipPath>
    <clipPath id="clippath-3">
      <path class="cls-26" d="M236.74,121.7c3.54-1.05,3.65-2.12,15.5-12.43,13.78-12,20.3-15.01,20.03-20.91-.15-3.36-2.25-3.58-3.07-7.17-1.6-7,4.31-15.39,19.3-28.08,17.02-14.4,19.9-12.47,31.59-22.67C339.84,13.21,340.49-.05,350.03,0c9.18.05,9.81,12.35,29.28,26.94,10.46,7.83,11.51,5.2,27.2,15.5,5.4,3.55,32.81,21.53,29.39,31.29-.98,2.81-3.75,2.73-3.95,4.97-.53,6.09,19.26,14.82,39.48,17.99,19.8,3.1,23.97-1.64,35.97,3.8,5.01,2.28,17.24,8.98,22.96,23.54.36.92,7.2,19.17-2.34,35.83-7.29,12.73-20.58,18.3-28.22,21.5-11.02,4.61-17.48,4.04-26.18,11.41-2.69,2.28-5.21,5.47-10.24,11.84-8.91,11.3-9.65,14.3-15.5,21.35-2.96,3.57-8.07,8.08-18.28,17.11-16.74,14.8-19.27,15.75-21.35,21.2-3.65,9.57,1.32,15.08-3.58,19.74-5.81,5.53-13.01.29-22.16,4.39-15.11,6.77-13.71,29.24-22.08,29.83-7.12.51-7.66-15.05-22.81-22.81-11.91-6.1-19.91-.73-26.03-8.04-4.5-5.38-1.44-9.78-6.99-20.41-2.98-5.71-6.28-12.02-11.31-12.86-10.17-1.7-15.04,21.04-28.06,22.01-10.54.78-12.15-13.78-32.32-27.35-19.86-13.36-32.57-8.84-38.75-21.35-3.29-6.65-3.07-14.77-2.78-25.88.32-12.08,2.59-15.7,0-22.52-3.41-8.96-9.35-7.96-12.28-15.79-4.29-11.45,3.97-25.45,10.8-32.64,2.62-2.76,9.47-9.95,19.91-11.52,12.03-1.81,16.57,5.69,26.91,2.63Z"/>
    </clipPath>
    <clipPath id="clippath-4">
      <path class="cls-26" d="M1443.65,521.05c-5.42,6.91-12.13,15.49-14.07,28.62-.63,4.3-3.38,22.99,7.03,32.02,4.62,4,12.35,6.55,40.5,0,31.19-7.26,33.92-13.24,56.76-18.92,33.44-8.31,40.3,1.35,65.97-9.46,10.56-4.45,34.86-14.69,35.41-32.25.41-13.02-12.31-27.32-24.25-28.14-10.76-.74-14.58,9.89-25.22,8.25-10.37-1.61-10.48-12.28-22.32-15.22-4.57-1.14-11.5.78-25.19,4.67-18.02,5.12-18.06,6.69-25.21,7.56-15.83,1.92-18-5.51-31.09-4.28-18.39,1.72-31.12,17.97-38.32,27.17Z"/>
    </clipPath>
    <clipPath id="clippath-5">
      <path class="cls-26" d="M1167.27,415.58c-5.88,7.51-13.18,16.82-15.28,31.08-.69,4.67-3.68,24.97,7.64,34.77,5.01,4.34,13.41,7.12,43.99,0,33.87-7.89,36.84-14.38,61.64-20.55,36.31-9.03,43.77,1.47,71.65-10.28,11.47-4.83,37.86-15.95,38.46-35.03.44-14.14-13.37-29.67-26.34-30.56-11.68-.8-15.84,10.75-27.4,8.96-11.26-1.74-11.38-13.33-24.24-16.53-4.96-1.23-12.49.85-27.35,5.07-19.57,5.56-19.61,7.27-27.38,8.21-17.19,2.08-19.55-5.98-33.77-4.65-19.98,1.87-33.8,19.51-41.62,29.5Z"/>
    </clipPath>
    <clipPath id="clippath-6">
      <path class="cls-26" d="M1124.58,389.22c-1.66-19.52,3.02-24.45,1.57-38.46-1.25-12.04-5.17-12.86-4.32-23.15.76-9.16,3.96-9.7,4.49-18.05.93-14.43-8.15-19.84-4.53-26.68,3.46-6.52,15.68-9.08,22.01-5.1,4.03,2.53,3.58,6.4,6.67,7.06,6.28,1.35,16.83-12.75,13.73-18.84-1.72-3.39-6.85-2.69-7.46-5.49-.71-3.28,5.97-5.77,10.2-10.99,5.78-7.12,4.83-16.6,3.53-27.86-2.73-23.72-10.65-25.11-9.42-38.06,1.29-13.55,11.56-28.7,26.68-32.96,8.45-2.39,21.34-2.2,30.22,5.49,20.23,17.53,1.96,58.71,17.27,66.71,4.95,2.59,7.69-1.29,23.55-5.49,34.14-9.05,51.97.86,61.22-11.38,3.8-5.03,4.91-12.15,3.53-17.66-2.02-8.1-8.63-9.62-12.56-15.7-8.14-12.6-2.35-41.05,18.05-52.19,17.51-9.57,40.14-3.29,50.62,9.03,12.96,15.24,1.43,32.76,16.09,57.69,6.68,11.36,13.68,15.54,20.41,21.98,36.08,34.51,44.7,114.91,13.73,143.23-6.62,6.06-9.01,4.21-55.72,14.13-45.73,9.71-43.29,11.46-88.81,20.8-39.3,8.06-27.13,3.9-68.55,12.16,0,0-22.54,4.5-53.76,5.89-17.35.77-32.04.31-36.89-8.24-.58-1.02-1.1-2.29-1.57-7.85Z"/>
    </clipPath>
    <clipPath id="clippath-7">
      <path class="cls-26" d="M833.83,564.75c-1.66-19.52,3.02-24.45,1.57-38.46-1.25-12.04-5.17-12.86-4.32-23.15.76-9.16,3.96-9.7,4.49-18.05.93-14.43-8.15-19.84-4.53-26.68,3.46-6.52,15.68-9.08,22.01-5.1,4.03,2.53,3.58,6.4,6.67,7.06,6.28,1.35,16.83-12.75,13.73-18.84-1.72-3.39-6.85-2.69-7.46-5.49-.71-3.28,5.97-5.77,10.2-10.99,5.78-7.12,4.83-16.6,3.53-27.86-2.73-23.72-10.65-25.11-9.42-38.06,1.29-13.55,11.56-28.7,26.68-32.96,8.45-2.39,21.34-2.2,30.22,5.49,20.23,17.53,1.96,58.71,17.27,66.71,4.95,2.59,7.69-1.29,23.55-5.49,34.14-9.05,51.97.86,61.22-11.38,3.8-5.03,4.91-12.15,3.53-17.66-2.02-8.1-8.63-9.62-12.56-15.7-8.14-12.6-2.35-41.05,18.05-52.19,17.51-9.57,40.14-3.29,50.62,9.03,12.96,15.24,1.43,32.76,16.09,57.69,6.68,11.36,13.68,15.54,20.41,21.98,36.08,34.51,44.7,114.91,13.73,143.23-6.62,6.06-9.01,4.21-55.72,14.13-45.73,9.71-43.29,11.46-88.81,20.8-39.3,8.06-27.13,3.9-68.55,12.16,0,0-22.54,4.5-53.76,5.89-17.35.77-32.04.31-36.89-8.24-.58-1.02-1.1-2.29-1.57-7.85Z"/>
    </clipPath>
    <clipPath id="clippath-8">
      <path class="cls-26" d="M327.73,461.56c1.14,8.9,2.12,18.35,9.49,24.94,6.95,6.21,14.86,5.66,26.7,6.68,38.85,3.32,45.54,17.12,66.05,11.59,4.32-1.16,13.65-4.37,27.05-18.27,44.64-46.3,56.68-130.66,38.65-139.47-9.83-4.8-32.39,11-37.24,14.4-11.59,8.12-16.15,15.32-20.73,13.64-5.47-2.01-3.41-13.93-6.68-32.96-1.98-11.55-7.02-40.95-19.32-43.56-13.51-2.87-30.6,27.65-31.62,29.51-12.48,22.7-10.07,40.87-16.16,41.81-10.01,1.54-18.17-47.34-36.54-48.05-9.14-.36-17.91,11.31-21.07,21-3.75,11.5.75,19.15,5.97,37.59,9.02,31.84,15,77.57,15.46,81.16Z"/>
    </clipPath>
    <clipPath id="clippath-9">
      <path class="cls-26" d="M1293.7,494.84c1.14,8.9,2.12,18.35,9.49,24.94,6.95,6.21,14.86,5.66,26.7,6.68,38.85,3.32,45.54,17.12,66.05,11.59,4.32-1.16,13.65-4.37,27.05-18.27,44.64-46.3,56.68-130.66,38.65-139.47-9.83-4.8-32.39,11-37.24,14.4-11.59,8.12-16.15,15.32-20.73,13.64-5.47-2.01-3.41-13.93-6.68-32.96-1.98-11.55-7.02-40.95-19.32-43.56-13.51-2.87-30.6,27.65-31.62,29.51-12.48,22.7-10.07,40.87-16.16,41.81-10.01,1.54-18.17-47.34-36.54-48.05-9.14-.36-17.91,11.31-21.07,21-3.75,11.5.75,19.15,5.97,37.59,9.02,31.84,15,77.57,15.46,81.16Z"/>
    </clipPath>
    <clipPath id="clippath-10">
      <path class="cls-26" d="M76.92,352.75c-2.21,9.84,3.21,14.93,12.4,36.45,14.28,33.41,9.8,41.22,18.04,45.09,16.06,7.54,31.39-22.95,67.64-23.3,6.68-.06,14.12.9,22.92-3.38,12.19-5.93,11.77-14.52,21.42-17.66,13.22-4.3,20.35,9.77,33.44,6.01,13.44-3.86,13.75-20.94,24.8-21.79,10.16-.78,13.68,13.36,24.42,12.78,11.03-.6,12.34-15.77,24.42-17.66,12.28-1.92,17.06,12.78,30.06,11.27,12.98-1.51,16.19-17.09,26.68-15.78,8.38,1.04,10.53,11.51,18.41,10.9,6.15-.48,7.07-7.04,13.53-7.89,8.15-1.07,11.38,8.78,18.41,9.39,12.29,1.07,28.31-26.79,31.56-54.48,1.93-16.46.93-46.21-13.53-52.61-7.81-3.46-12.29,3.13-30.06,0-9.73-1.71-12.69-4.44-20.29-3.34-9.73,1.41-10.3,6.67-18.04,7.47-12.59,1.31-16.26-12.08-28.18-11.65-12.32.45-14.33,14.97-27.05,15.78-11.68.74-13.05-11.29-25.55-12.4-17.15-1.53-24.29,20.25-45.84,19.16-6.66-.34-5.25-2.38-12.78-3.01-17.91-1.5-22.96,10.31-45.09,15.03-14.68,3.14-16.02-1.3-28.18,3.01-13.13,4.65-12.98,10.32-25.93,16.91-17.98,9.15-24.25,1.27-42.16,9.99-5.22,2.54-22.13,10.78-25.48,25.71Z"/>
    </clipPath>
    <clipPath id="clippath-11">
      <path class="cls-26" d="M124.31,485.39c-9.92,7.15-12.11,5.45-16.7,9.9-8.79,8.51-11.07,24.74-6.74,36.58,7.92,21.62,37.21,26.72,42.61,27.65,27.11,4.72,66.78-4.81,68.6-5.26,4.98-1.22,12.18-3.45,18.47.04,3.26,1.81,5.33,4.63,8.49,4.18,3.22-.46,5.19-3.99,6.2-5.86,5.95-10.98,10.1-21.23,11.08-23.58,7.07-16.94,14.21-18.3,12.87-26.86-1.17-7.45-7.61-12.96-7.93-13.23-4.89-4.08-7.88-2.82-11.11-6.22-5.55-5.82-.08-12.95-3.54-20.05-2.96-6.06-17.99-7.7-47.92-10.73-10.14-1.03-20.01-1.81-24.49,3.85-.79.99-1.85,3.34-3.98,8.04-4.69,10.34-4.25,11.37-5.89,12.43-5.43,3.49-12.05-6.71-21.97-5.02-6.32,1.08-6.3,5.67-18.03,14.13Z"/>
    </clipPath>
    <clipPath id="clippath-12">
      <path class="cls-26" d="M979.79,131.96c-9.92,7.15-12.11,5.45-16.7,9.9-8.79,8.51-11.07,24.74-6.74,36.58,7.92,21.62,37.21,26.72,42.61,27.65,27.11,4.72,66.78-4.81,68.6-5.26,4.98-1.22,12.18-3.45,18.47.04,3.26,1.81,5.33,4.63,8.49,4.18,3.22-.46,5.19-3.99,6.2-5.86,5.95-10.98,10.1-21.23,11.08-23.58,7.07-16.94,14.21-18.3,12.87-26.86-1.17-7.45-7.61-12.96-7.93-13.23-4.89-4.08-7.88-2.82-11.11-6.22-5.55-5.82-.08-12.95-3.54-20.05-2.96-6.06-17.99-7.7-47.92-10.73-10.14-1.03-20.01-1.81-24.49,3.85-.79.99-1.85,3.34-3.98,8.04-4.69,10.34-4.25,11.37-5.89,12.43-5.43,3.49-12.05-6.71-21.97-5.02-6.32,1.08-6.3,5.67-18.03,14.13Z"/>
    </clipPath>
    <clipPath id="clippath-13">
      <path class="cls-26" d="M905.93,296.93c26.16-5.67,34.02,4.3,48.64-4.8,4.93-3.07,3.95-4.15,21.49-26.71,18.38-23.64,19.47-22.47,20.91-27.59,6.24-22.23-14.66-43.2-7.26-50.23,4.28-4.06,11.92,2.29,17.42-2.32,7.02-5.89,5.08-25.05-4.94-35.14-6.72-6.76-11.26-3.59-21.78-11.61-8.57-6.54-6.95-9.71-16.84-19.46-7.08-6.97-15.97-15.74-27.88-16.55-5.9-.4-6.7,1.55-20.3,4.52-9.65,2.1-16.87,2.56-24.39,3.48-29.23,3.6-37.77-6.35-50.34,1.33-9.59,5.86-5.03,11.9-20.44,27.86-10.42,10.78-14.47,10.06-18.95,18.29-5.17,9.52-4.6,19.41-3.92,31.14,1.11,19.25,6.43,27.73,1.74,32.01-5.2,4.75-15.14-2.57-20.04,2.61-4.09,4.33-1.13,13.33.65,18.73,1.12,3.39,5.09,14.83,16.27,21.59,7.82,4.73,9.94,1.6,16.4,5.41,12.96,7.65,8.2,22.49,19.93,33.09,9.54,8.62,23.05,8.16,31.9,7.86,18.7-.64,20.21-8.85,41.71-13.51Z"/>
    </clipPath>
    <clipPath id="clippath-14">
      <path class="cls-26" d="M30.15,472.7c-4.9,12.61-9.68,25.26-14.64,37.84-11,27.93-11.67,31.41-9.67,34.53,3.91,6.07,13.3,3.58,47.79,1.66,37.46-2.09,48.88-.45,54.69-9.12,5.76-8.58-.3-18.64,7.18-25.41,6.15-5.57,15.88-3.89,20.16-3.31,6.31.85,27.41-4.04,69.61-13.81,64.8-15.01,64.01-22.99,87.47-20.81,25.84,2.4,29.13,12.3,48.62,8.84,27.5-4.89,52.91-30.3,50.09-48.62-1.55-10.05-10.46-10.53-13.26-23.57-3.5-16.34,8.83-23.3,4.42-35.36-4.5-12.31-22.63-17.45-34.62-17.68-12.71-.24-22.26,5.04-25.6,6.81-26.56,14.08-34.65,4.5-105.24,20.72-53.55,12.3-80.32,18.45-81.21,18.78-3.93,1.46-24.21,9.09-27.9,3.59-2.34-3.49,4.16-9.11,1.93-13.26-2.37-4.43-12.36-2.88-45.85,3.59-24.05,4.65-28.42,6.7-32.59,11.33-8.57,9.51-10.53,25.25-5.52,29,3.63,2.72,9.01-2.3,12.15.28,3.76,3.08-.04,13.49-8.01,33.98Z"/>
    </clipPath>
    <clipPath id="clippath-15">
      <path class="cls-26" d="M964.98,177.85c-14,17.96-48.76,67.58-47.39,136.08.42,20.88,1.87,93.18,46.71,115.77,50.99,25.68,120.13-32.05,136.08-45.36,58.31-48.68,76.07-113.83,81.92-142.17-14.52-7.06-36.33-19.9-57.09-42.2-17.01-18.28-27.4-36.56-33.62-49.87-17.19,8.41-40.9,17.8-70.18,23.24-21.54,4.01-40.75,4.89-56.42,4.51Z"/>
    </clipPath>
    <clipPath id="clippath-16">
      <path class="cls-26" d="M272.92,423.98c-10.98,14.08-38.25,53.01-37.17,106.73.33,16.37,1.46,73.09,36.64,90.8,39.99,20.14,94.22-25.14,106.73-35.58,45.74-38.19,59.67-89.28,64.25-111.51-11.39-5.54-28.5-15.61-44.78-33.1-13.34-14.33-21.49-28.67-26.37-39.12-13.48,6.6-32.08,13.96-55.05,18.23-16.89,3.14-31.96,3.83-44.25,3.54Z"/>
    </clipPath>
    <clipPath id="clippath-17">
      <path class="cls-26" d="M1608.71,376.81c-10.98,14.08-38.25,53.01-37.17,106.73.33,16.37,1.46,73.09,36.64,90.8,39.99,20.14,94.22-25.14,106.73-35.58,45.74-38.19,59.67-89.28,64.25-111.51-11.39-5.54-28.5-15.61-44.78-33.1-13.34-14.33-21.49-28.67-26.37-39.12-13.48,6.6-32.08,13.96-55.05,18.23-16.89,3.14-31.96,3.83-44.25,3.54Z"/>
    </clipPath>
    <clipPath id="clippath-18">
      <path class="cls-26" d="M121.64,104.39c-10.98,14.08-38.25,53.01-37.17,106.73.33,16.37,1.46,73.09,36.64,90.8,39.99,20.14,94.22-25.14,106.73-35.58,45.74-38.19,59.67-89.28,64.25-111.51-11.39-5.54-28.5-15.61-44.78-33.1-13.34-14.33-21.49-28.67-26.37-39.12-13.48,6.6-32.08,13.96-55.05,18.23-16.89,3.14-31.96,3.83-44.25,3.54Z"/>
    </clipPath>
    <clipPath id="clippath-19">
      <path class="cls-26" d="M941.27,206.27c-6.43,7.3-3.37,14.94-10.48,19.98-3.65,2.59-5.33,1.19-9.93,3.2-12.99,5.68-19.5,25.56-15.14,29.53,3.54,3.22,13.62-4.67,16.42-1.35,2.09,2.47-3.32,7.09-2.7,15.87.45,6.34,3.52,7.63,2.5,12.03-1.1,4.74-5.98,8.98-10.84,9.4-6.18.53-8.95-5.44-15.21-9.08-16.57-9.62-45.42,4.2-44.93,10.7.19,2.59,4.9,2.15,15.48,7.6,18.33,9.44,19.34,18.56,29.64,19.08,7.86.39,7.6-4.9,22.8-8.06,10.28-2.13,12.34-.11,18.17-3.11,6.74-3.47,10.31-9.41,14.54-16.47,6.95-11.58,7.21-18.57,11.61-19.2,4.88-.7,7.74,7.46,12.62,6.39,3.88-.85,5.7-6.81,7.01-11.09.77-2.53,2.48-8.14.87-14.54-1.93-7.63-6.37-7.62-9.12-13.96-4.87-11.24,6.04-18.32,1.83-30.3-2.3-6.57-8.4-12.48-15.67-13.82-7.47-1.37-15.14,2.27-19.48,7.2Z"/>
    </clipPath>
    <clipPath id="clippath-20">
      <path class="cls-26" d="M1323.45,151.33c-2.96,8.56,1.35,13.64,7.38,33.76,9.36,31.25,4.58,37.76,11.53,42.04,13.56,8.35,30.32-17.3,62.68-13.94,5.96.62,12.51,2.23,20.79-.7,11.48-4.06,11.96-11.76,20.89-13.59,12.23-2.5,17.17,10.77,29.22,8.74,12.38-2.08,14.38-17.29,24.32-16.93,9.14.33,10.86,13.3,20.49,13.86,9.9.58,12.6-12.82,23.57-13.28,11.15-.47,13.92,13.12,25.67,13.09,11.73-.03,16.17-13.61,25.39-11.38,7.37,1.78,8.23,11.33,15.32,11.58,5.54.19,7.02-5.57,12.86-5.67,7.38-.13,9.27,8.98,15.47,10.24,10.86,2.2,27.96-21.03,33.66-45.41,3.39-14.49,5.5-41.12-6.75-48.29-6.62-3.87-11.28,1.55-26.81-3.04-8.5-2.51-10.87-5.25-17.76-5.03-8.82.27-9.86,4.91-16.84,4.84-11.36-.1-13.29-12.42-23.96-13.24-11.03-.84-14.29,11.91-25.73,11.34-10.49-.52-10.5-11.39-21.54-13.64-15.14-3.09-23.72,15.61-42.83,12.46-5.9-.97-4.44-2.65-11.09-3.97-15.83-3.15-21.53,6.87-41.74,8.85-13.41,1.31-14.16-2.78-25.44-.17-12.18,2.82-12.62,7.89-24.84,12.46-16.96,6.35-21.76-1.32-38.61,4.65-4.92,1.74-20.83,7.38-25.32,20.35Z"/>
    </clipPath>
    <clipPath id="clippath-21">
      <path class="cls-26" d="M1567.56,275.9c-12.39,16.57-24.13,11.59-36.05,27.94-11,15.1-15.34,39.53-5.57,55.31,8.68,14.03,20.74,8.61,38.92,25.69,17.03,16,11.29,25.29,25.82,37.4,22.97,19.14,63.51,17.72,71.83,3.32,3.9-6.75.53-15.53,6.58-19.32,4.88-3.05,11.83-.3,15.01.97,11.32,4.49,10.54,11.76,20.49,16.51,10.72,5.11,15.38-1.52,23.93,4,8.85,5.72,6.24,14.37,14.86,18.05,6.54,2.79,10.36-1.21,17.96,2.25,5.72,2.6,7.84,6.81,10.18,9.27,13.15,13.82,63.57,4,71.73-19.51,5.87-16.9-12.74-33.25-3.3-46.31,4.65-6.42,10.85-4.82,15.47-12.56,4.65-7.79,4.61-19.88-.68-28.42-8.93-14.42-24.55-5.35-47.38-22.77-7.4-5.64-11.8-9.44-21.16-12.12-9.4-2.7-13.29-.68-20.09-4-9.27-4.53-8.92-11.63-16.03-19.38-7.32-7.98-23.02-10.75-54.12-15.96-18.25-3.06-24.68-3.15-33.9-8.81-9.01-5.53-10.77-10.3-17.94-17.3-15.91-15.55-45.37-29.56-59.25-20.18-12.76,8.62-2.08,25.57-17.3,45.93Z"/>
    </clipPath>
    <clipPath id="clippath-22">
      <path class="cls-26" d="M47.27,161.92c-11.09,17.47-23.18,13.4-33.8,30.61-9.81,15.89-12.28,40.58-1.33,55.58,9.73,13.32,21.34,7,40.78,22.64,18.21,14.65,13.19,24.35,28.6,35.31,24.37,17.33,64.68,12.81,71.88-2.18,3.37-7.03-.66-15.53,5.08-19.76,4.64-3.42,11.77-1.2,15.04-.18,11.63,3.61,11.41,10.92,21.7,14.9,11.08,4.28,15.21-2.7,24.16,2.16,9.26,5.03,7.32,13.85,16.19,16.86,6.74,2.29,10.24-2,18.08.87,5.9,2.16,8.34,6.19,10.86,8.46,14.17,12.77,63.69-.88,70.03-24.94,4.56-17.3-15.25-32.18-6.83-45.92,4.14-6.76,10.45-5.64,14.46-13.7,4.04-8.12,3.07-20.18-2.86-28.29-10.01-13.69-24.89-3.46-48.98-19.08-7.81-5.06-12.49-8.5-22.03-10.47-9.58-1.97-13.3.34-20.34-2.45-9.59-3.8-9.79-10.91-17.47-18.1-7.91-7.4-23.77-8.96-55.18-11.77-18.43-1.65-24.85-1.25-34.47-6.19-9.41-4.83-11.53-9.44-19.21-15.88-17.05-14.29-47.5-26-60.62-15.59-12.06,9.57-.12,25.65-13.74,47.12Z"/>
    </clipPath>
    <clipPath id="clippath-23">
      <circle class="cls-26" cx="810.92" cy="235.01" r="132.55"/>
    </clipPath>
    <clipPath id="clippath-24">
      <circle class="cls-26" cx="102.7" cy="338.98" r="97.75"/>
    </clipPath>
    <clipPath id="clippath-25">
      <path class="cls-26" d="M1639.89,251.27c4.77-8.47.19-15.32,6.09-21.72,3.03-3.29,4.97-2.27,9.04-5.19,11.53-8.25,13.75-29.06,8.67-32.03-4.13-2.42-12.35,7.4-15.78,4.74-2.55-1.98,1.77-7.62-.66-16.09-1.76-6.1-5.03-6.73-4.95-11.25.09-4.86,3.98-10.03,8.64-11.45,5.94-1.81,9.88,3.46,16.77,5.71,18.21,5.96,43.55-13.56,41.72-19.82-.73-2.49-5.24-1.08-16.73-4.21-19.89-5.42-22.78-14.13-32.96-12.49-7.77,1.25-6.42,6.38-20.63,12.62-9.61,4.22-12.05,2.68-17.13,6.83-5.87,4.79-8.13,11.35-10.8,19.13-4.39,12.77-3.19,19.67-7.36,21.2-4.63,1.7-9.13-5.68-13.67-3.62-3.62,1.64-4.16,7.84-4.54,12.31-.23,2.64-.74,8.48,2.18,14.4,3.47,7.06,7.82,6.12,11.82,11.76,7.1,9.98-2.09,19.17,4.51,30.02,3.62,5.94,10.81,10.46,18.2,10.25,7.59-.21,14.34-5.37,17.56-11.1Z"/>
    </clipPath>
    <clipPath id="clippath-26">
      <path class="cls-26" d="M1730.88,567.01c4.77-8.47.19-15.32,6.09-21.72,3.03-3.29,4.97-2.27,9.04-5.19,11.53-8.25,13.75-29.06,8.67-32.03-4.13-2.42-12.35,7.4-15.78,4.74-2.55-1.98,1.77-7.62-.66-16.09-1.76-6.1-5.03-6.73-4.95-11.25.09-4.86,3.98-10.03,8.64-11.45,5.94-1.81,9.88,3.46,16.77,5.71,18.21,5.96,43.55-13.56,41.72-19.82-.73-2.49-5.24-1.08-16.73-4.21-19.89-5.42-22.78-14.13-32.96-12.49-7.77,1.25-6.42,6.38-20.63,12.62-9.61,4.22-12.05,2.68-17.13,6.83-5.87,4.79-8.13,11.35-10.8,19.13-4.39,12.77-3.19,19.67-7.36,21.2-4.63,1.7-9.13-5.68-13.67-3.62-3.62,1.64-4.16,7.84-4.54,12.31-.23,2.64-.74,8.48,2.18,14.4,3.47,7.06,7.82,6.12,11.82,11.76,7.1,9.98-2.09,19.17,4.51,30.02,3.62,5.94,10.81,10.46,18.2,10.25,7.59-.21,14.34-5.37,17.56-11.1Z"/>
    </clipPath>
    <clipPath id="clippath-27">
      <path class="cls-26" d="M1037.7,315.52c6.74,13.33,19.39,13.33,22.52,26.34,1.61,6.68-1.34,8.29-1.1,15.98.69,21.77,25.35,42.39,33.48,38.44,6.62-3.21,1.11-22.09,7.43-24.19,4.71-1.57,8.22,8.78,21.1,12.9,9.29,2.97,12.89-.67,18.59,3.3,6.13,4.27,9.4,13.66,7.23,20.82-2.76,9.12-12.86,9.66-21.62,16.52-23.17,18.15-19.91,67.17-10.35,70.19,3.81,1.2,5.86-5.77,19.67-17.75,23.92-20.76,37.51-17,44.11-31.4,5.04-10.99-2.66-13.64,1.51-37.12,2.82-15.87,6.87-17.66,5.92-27.69-1.1-11.59-7.55-20.07-15.2-30.14-12.55-16.51-22.38-20.88-20.77-27.51,1.79-7.36,15.05-6.79,16.31-14.36,1-6.02-6.46-12.01-11.82-16.32-3.17-2.54-10.19-8.18-20.24-9.53-11.98-1.6-14.5,4.74-25.11,5.04-18.81.53-22.68-19.05-42.17-19.89-10.68-.46-22.59,4.86-28.64,14.47-6.22,9.87-5.39,22.89-.84,31.89Z"/>
    </clipPath>
    <clipPath id="clippath-28">
      <path class="cls-26" d="M259.21,175.92c5.32,10.51,15.3,10.52,17.76,20.78,1.27,5.27-1.06,6.54-.87,12.61.54,17.17,19.99,33.43,26.41,30.32,5.22-2.53.88-17.42,5.86-19.08,3.72-1.24,6.48,6.92,16.64,10.18,7.33,2.35,10.17-.53,14.66,2.6,4.84,3.37,7.42,10.77,5.71,16.42-2.18,7.2-10.14,7.62-17.06,13.03-18.28,14.32-15.7,52.99-8.17,55.36,3,.95,4.62-4.55,15.51-14,18.87-16.37,29.59-13.41,34.8-24.77,3.98-8.67-2.1-10.76,1.19-29.28,2.23-12.52,5.42-13.93,4.67-21.84-.87-9.14-5.95-15.83-11.99-23.77-9.9-13.02-17.65-16.47-16.38-21.7,1.41-5.81,11.87-5.36,12.86-11.33.79-4.75-5.1-9.47-9.33-12.87-2.5-2.01-8.04-6.46-15.96-7.51-9.45-1.26-11.44,3.74-19.81,3.98-14.84.42-17.89-15.03-33.26-15.69-8.42-.36-17.82,3.83-22.6,11.42-4.91,7.79-4.25,18.06-.66,25.16Z"/>
    </clipPath>
    <clipPath id="clippath-29">
      <path class="cls-26" d="M1395.83,312.92c2.93,5.1-11.44,13.3-14.01,27.98-2.61,14.91,8.4,28.26,16.86,38.51,9.73,11.8,28.56,34.61,58.33,37.07,43.58,3.6,85.07-38.56,82.59-66.96-1.2-13.68-12.65-24.86-8.6-29.07,4.28-4.45,16.56,8.5,31.26,4.63,14.25-3.76,23.49-21.4,26.7-32.86,3.28-11.73.09-16.38,5.56-26.86,3.4-6.5,5.49-6.35,14.32-17.18,11.13-13.66,17.3-21.24,15.12-27.75-2.35-7.03-13.49-10.01-20.21-11.81-9.53-2.55-11.61-.29-16.5-3.03-9.44-5.3-5.66-15.96-13.18-24.57-9.8-11.22-24.36-2.46-47.82-10.73-17.41-6.14-14.17-12.64-32.4-21.3-29.48-14-59.47-7.22-69.45-4.96-11.5,2.6-28.79,6.75-42.36,21.51-2.98,3.24-14.5,15.77-10.81,23.43,3.12,6.48,14.54,4.09,38.67,12.03,3.46,1.14,16.77,5.52,16.34,7.83-.63,3.36-29.15-5.07-56.72,7.88-2.27,1.07-9.99,4.84-17.35,12.59-5.98,6.29-15.34,19.01-11.58,24.93,3.07,4.83,12.11.78,15.06,5.63,2.73,4.49-3.67,10.12-7.25,25.09-1.59,6.64-3.58,14.95-.36,17.28,5.94,4.3,25.65-14.64,28.11-12.1,1.93,2-10.25,13.68-7.12,19.11,3.57,6.2,23.49-2.08,26.83,3.72Z"/>
    </clipPath>
    <clipPath id="clippath-30">
      <path class="cls-26" d="M1632.36,211.03c-4.9,12.61-9.68,25.26-14.64,37.84-11,27.93-11.67,31.41-9.67,34.53,3.91,6.07,13.3,3.58,47.79,1.66,37.46-2.09,48.88-.45,54.69-9.12,5.76-8.58-.3-18.64,7.18-25.41,6.15-5.57,15.88-3.89,20.16-3.31,6.31.85,27.41-4.04,69.61-13.81,64.8-15.01,64.01-22.99,87.47-20.81,25.84,2.4,29.13,12.3,48.62,8.84,27.5-4.89,52.91-30.3,50.09-48.62-1.55-10.05-10.46-10.53-13.26-23.57-3.5-16.34,8.83-23.3,4.42-35.36-4.5-12.31-22.63-17.45-34.62-17.68-12.71-.24-22.26,5.04-25.6,6.81-26.56,14.08-34.65,4.5-105.24,20.72-53.55,12.3-80.32,18.45-81.21,18.78-3.93,1.46-24.21,9.09-27.9,3.59-2.34-3.49,4.16-9.11,1.93-13.26-2.37-4.43-12.36-2.88-45.85,3.59-24.05,4.65-28.42,6.7-32.59,11.33-8.57,9.51-10.53,25.25-5.52,29,3.63,2.72,9.01-2.3,12.15.28,3.76,3.08-.04,13.49-8.01,33.98Z"/>
    </clipPath>
    <clipPath id="clippath-31">
      <path class="cls-26" d="M457.73,372.25c-13.72-18.73,6.89-35.89,6.01-89.08-.97-58.91-26.76-68.75-18.88-108.51,7.19-36.23,37.31-71.86,73.38-82.86,43.16-13.17,58.35,20.79,113.42,17.12,70.61-4.71,99.56-64.13,134.02-48.78,25.58,11.39,29.54,52.99,31.42,72.63,6.11,64.09-28.66,130.64-79.41,159.49-22.87,13-25.6,5.06-58.86,21.98-48.49,24.67-49.97,45.26-86.39,62.11-39.02,18.06-96.34,20.98-114.71-4.09Z"/>
    </clipPath>
    <clipPath id="clippath-32">
      <path class="cls-26" d="M1835.63,502.96c-22-7.4-15.04-33.31-46.4-76.28-34.73-47.59-61.48-40.78-77.93-77.82-15-33.76-10.89-80.23,12.25-110,27.69-35.63,59.67-16.62,102.58-51.34,55.01-44.52,44.44-109.77,81.45-117.08,27.47-5.42,54.67,26.3,67.52,41.27,41.91,48.87,51.82,123.3,26.96,176.11-11.2,23.8-18.01,18.88-35.46,51.87-25.43,48.09-14.78,65.78-34.84,100.53-21.5,37.24-66.67,72.64-96.12,62.73Z"/>
    </clipPath>
    <clipPath id="clippath-33">
      <path class="cls-26" d="M772.97,371.83c3.44-11.9,17.4-8.79,39.58-26.49,24.56-19.61,20.31-33.71,39.67-43.33,17.64-8.77,42.5-7.66,58.91,3.98,19.63,13.93,10.24,31.42,29.74,53.48,25,28.28,59.53,21.14,64.28,40.7,3.53,14.51-12.75,29.75-20.43,36.94-25.07,23.47-64.51,30.47-93.23,18.45-12.94-5.42-10.48-9.16-28.47-17.7-26.22-12.44-35.4-6.35-54.38-16.24-20.34-10.59-40.26-33.85-35.66-49.77Z"/>
    </clipPath>
    <clipPath id="clippath-34">
      <path class="cls-26" d="M1688.54,475.41c2.75,11.91.33,13.27,2.66,19.23,4.44,11.4,18.52,19.79,31.12,20.38,23,1.07,39.04-23.96,42-28.57,14.85-23.17,21.42-63.43,21.72-65.29.8-5.06,1.54-12.57,7.19-17.01,2.93-2.3,6.34-3.12,7.14-6.21.82-3.15-1.67-6.33-3-7.99-7.82-9.73-15.66-17.54-17.45-19.35-12.88-13.08-11.37-20.19-19.78-22.27-7.32-1.81-14.89,2-15.27,2.19-5.65,2.93-5.65,6.17-10.04,7.84-7.51,2.86-11.97-4.94-19.85-4.5-6.73.38-14.06,13.6-28.45,40.03-4.87,8.95-9.42,17.75-5.94,24.07.61,1.11,2.36,3,5.87,6.78,7.72,8.33,8.84,8.32,9.18,10.24,1.11,6.35-10.85,8.51-13.14,18.31-1.45,6.24,2.78,8.01,6.04,22.1Z"/>
    </clipPath>
    <clipPath id="clippath-35">
      <path class="cls-26" d="M405.11,584.51c2.75,11.91.33,13.27,2.66,19.23,4.44,11.4,18.52,19.79,31.12,20.38,23,1.07,39.04-23.96,42-28.57,14.85-23.17,21.42-63.43,21.72-65.29.8-5.06,1.54-12.57,7.19-17.01,2.93-2.3,6.34-3.12,7.14-6.21.82-3.15-1.67-6.33-3-7.99-7.82-9.73-15.66-17.54-17.45-19.35-12.88-13.08-11.37-20.19-19.78-22.27-7.32-1.81-14.89,2-15.27,2.19-5.65,2.93-5.65,6.17-10.04,7.84-7.51,2.86-11.97-4.94-19.85-4.5-6.73.38-14.06,13.6-28.45,40.03-4.87,8.95-9.42,17.75-5.94,24.07.61,1.11,2.36,3,5.87,6.78,7.72,8.33,8.84,8.32,9.18,10.24,1.11,6.35-10.85,8.51-13.14,18.31-1.45,6.24,2.78,8.01,6.04,22.1Z"/>
    </clipPath>
    <clipPath id="clippath-36">
      <path class="cls-26" d="M414.82,514.91c-3.63-6.89-1.33-9.08-4.28-16.63-2.99-7.66-6.3-7.85-6.18-12.36.17-6.22,6.51-7.43,6.77-13.53.24-5.7-5.15-7.46-6.53-13.08-2.05-8.38,7.22-15.58,12.36-22.81,15.02-21.13-5.92-41.54,4.51-68.91,6.39-16.78,22.93-31.86,41.58-34.93,32.32-5.32,57.65,27.59,59.41,29.94,11.47,15.35,5.3,20.26,20.44,42.53,8.49,12.49,14.54,17,24.24,34.22,5.07,8.99,12.84,24.5,7.37,30.89-2.2,2.57-5.89,2.91-6.18,5.47-.44,3.89,7.82,5.45,8.32,9.03,1.05,7.52-32.52,20.67-67.72,27.33-14.35,2.71-29.33,4.42-41.11,5.76-1.11.13-26.24,2.98-33.62,3.33-1.55.07-3.86.11-7.19.59-3.03.44-3.38.74-4.46.63-3.94-.42-6.52-5.18-7.72-7.46Z"/>
    </clipPath>
    <clipPath id="clippath-37">
      <path class="cls-26" d="M1333,383.9c-3.63-6.89-1.33-9.08-4.28-16.63-2.99-7.66-6.3-7.85-6.18-12.36.17-6.22,6.51-7.43,6.77-13.53.24-5.7-5.15-7.46-6.53-13.08-2.05-8.38,7.22-15.58,12.36-22.81,15.02-21.13-5.92-41.54,4.51-68.91,6.39-16.78,22.93-31.86,41.58-34.93,32.32-5.32,57.65,27.59,59.41,29.94,11.47,15.35,5.3,20.26,20.44,42.53,8.49,12.49,14.54,17,24.24,34.22,5.07,8.99,12.84,24.5,7.37,30.89-2.2,2.57-5.89,2.91-6.18,5.47-.44,3.89,7.82,5.45,8.32,9.03,1.05,7.52-32.52,20.67-67.72,27.33-14.35,2.71-29.33,4.42-41.11,5.76-1.11.13-26.24,2.98-33.62,3.33-1.55.07-3.86.11-7.19.59-3.03.44-3.38.74-4.46.63-3.94-.42-6.52-5.18-7.72-7.46Z"/>
    </clipPath>
    <clipPath id="clippath-38">
      <path class="cls-26" d="M1549.92,435.52c3.63-6.89,1.33-9.08,4.28-16.63,2.99-7.66,6.3-7.85,6.18-12.36-.17-6.22-6.51-7.43-6.77-13.53-.24-5.7,5.15-7.46,6.53-13.08,2.05-8.38-7.22-15.58-12.36-22.81-15.02-21.13,5.92-41.54-4.51-68.91-6.39-16.78-22.93-31.86-41.58-34.93-32.32-5.32-57.65,27.59-59.41,29.94-11.47,15.35-5.3,20.26-20.44,42.53-8.49,12.49-14.54,17-24.24,34.22-5.07,8.99-12.84,24.5-7.37,30.89,2.2,2.57,5.89,2.91,6.18,5.47.44,3.89-7.82,5.45-8.32,9.03-1.05,7.52,32.52,20.67,67.72,27.33,14.35,2.71,29.33,4.42,41.11,5.76,1.11.13,26.24,2.98,33.62,3.33,1.55.07,3.86.11,7.19.59,3.03.44,3.38.74,4.46.63,3.94-.42,6.52-5.18,7.72-7.46Z"/>
    </clipPath>
    <clipPath id="clippath-39">
      <path class="cls-26" d="M628.1,480.62c5.04,3.47-4.76,17.62-.57,32.55,4.25,15.17,20.58,22.74,33.12,28.55,14.43,6.69,42.35,19.64,71.39,8.57,42.51-16.21,62.49-74.41,47.4-99.94-7.27-12.3-23.04-17.64-21.13-23.41,2.02-6.1,19.36.53,31.41-9.71,11.68-9.93,12.42-30.63,10.28-42.83-2.19-12.48-7.28-15.41-6.85-27.7.27-7.63,2.3-8.42,5.71-22.56,4.3-17.81,6.69-27.7,1.72-32.84-5.37-5.54-17.16-3.33-24.27-2-10.08,1.89-11.02,4.95-16.85,4.57-11.24-.73-12.48-12.43-23.41-17.13-14.24-6.12-23.96,8.64-49.68,11.42-19.09,2.07-18.98-5.49-39.98-5.43-33.95.11-59.05,19.96-67.39,26.56-9.62,7.61-23.98,19.27-30.08,39.21-1.34,4.39-6.52,21.31.38,26.84,5.84,4.68,15.48-2.7,41.69-6.09,3.76-.49,18.21-2.36,18.85,0,.92,3.44-29.63,8.34-49.68,32.88-1.65,2.02-7.2,9.03-10.62,19.61-2.78,8.59-5.85,24.73.34,28.6,5.05,3.15,11.71-4.71,16.66-1.48,4.58,2.98,1.1,11.14,4.47,26.8,1.49,6.95,3.36,15.63,7.42,16.37,7.5,1.36,17.49-25.26,20.94-23.99,2.71,1-3.47,17.44,1.9,21.13,6.14,4.21,21.1-12.51,26.84-8.57Z"/>
    </clipPath>
    <clipPath id="clippath-40">
      <path class="cls-26" d="M1744.72,572.27c-6.51-12.37-2.38-16.29-7.67-29.85-5.37-13.74-11.31-14.08-11.09-22.17.31-11.15,11.68-13.33,12.14-24.29.43-10.22-9.25-13.38-11.72-23.47-3.67-15.03,12.95-27.97,22.17-40.93,26.95-37.92-10.61-74.54,8.1-123.66,11.47-30.11,41.14-57.17,74.62-62.68,58-9.55,103.45,49.51,106.6,53.73,20.58,27.55,9.51,36.36,36.67,76.33,15.23,22.41,26.09,30.51,43.49,61.4,9.09,16.14,23.04,43.96,13.22,55.43-3.95,4.61-10.56,5.22-11.09,9.81-.8,6.98,14.03,9.77,14.92,16.2,1.88,13.49-58.35,37.08-121.52,49.04-25.74,4.87-52.64,7.93-73.77,10.34-1.98.23-47.08,5.34-60.34,5.97-2.78.13-6.92.19-12.9,1.07-5.45.79-6.06,1.33-7.99,1.13-7.07-.75-11.7-9.29-13.86-13.39Z"/>
    </clipPath>
    <clipPath id="clippath-41">
      <path class="cls-26" d="M663.66,444.25c9.95-3.99,12.39-.59,23.34-4.49,11.64-4.15,16.5-10.72,34.92-30.94,21.92-24.07,34.28-35.9,32.15-38.55-1.87-2.33-11.99,6.16-16.42,2.59-5.46-4.39-.81-25.88,11.65-31.46,5.75-2.58,13.97-2.12,19.98-.35,5.52,1.63,7.4,3.85,11.06,3.11,6.47-1.3,11.53-10.4,9.51-13.31-3.2-4.6-22.64,8.43-27.49,2.94-3.7-4.19,2.16-17.99,11.75-25.93,16.19-13.39,45.81-12.39,56.01,1.56,5.05,6.91,3.22,14.1-2.77,46.5-3.47,18.75-6.38,37.6-9.85,56.35-10.46,56.52-11.09,71.08-4.67,74.51,3.03,1.61,4.83-.73,18.5-3.28,13.23-2.47,26.4-4.94,28.89-.86,3.55,5.8-14.04,25.69-34.94,38.03-9.49,5.6-38.92,22.98-54.8,11.06-12.16-9.13-11.63-31.9-11.41-41.14.11-4.56.88-9.73,2.42-19.88,2.03-13.35,4.14-24.28,5.7-31.81-17.32-9.62-25.66-8.55-30.08-5.7-4.11,2.65-3.12,5.73-10.37,13.66-7.29,7.98-12.91,9.9-12.45,14,.35,3.04,3.83,5.49,6.74,6.4,7.94,2.47,13.31-6.06,19.43-3.66,4.6,1.81,7.2,8.85,6.15,14.2-.54,2.74-2.25,6.15-14.69,13.48-13.95,8.22-20.93,12.33-26.97,11.41-11.77-1.8-11.15-14.74-24.03-21.44-19.45-10.11-41.12,8.89-46.33,2.07-4.88-6.39,8.3-30.74,29.04-39.07Z"/>
    </clipPath>
    <clipPath id="clippath-42">
      <path class="cls-26" d="M551.92,450.67c-.19,12.22-2.87,12.96-2.05,19.31,1.57,12.14,13.21,23.67,25.3,27.27,22.07,6.58,43.66-13.86,47.64-17.62,19.99-18.91,36.07-56.4,36.8-58.14,1.99-4.72,4.52-11.83,11.07-14.78,3.4-1.53,6.9-1.5,8.42-4.3,1.55-2.86-.1-6.55-.99-8.48-5.24-11.33-10.98-20.79-12.28-22.98-9.35-15.8-6.17-22.34-13.83-26.38-6.67-3.52-14.94-1.65-15.34-1.55-6.19,1.48-6.97,4.63-11.63,5.19-7.98.97-10.43-7.68-18.19-9.14-6.63-1.25-16.93,9.82-37.25,32-6.89,7.52-13.42,14.96-11.56,21.94.33,1.22,1.57,3.48,4.06,8,5.49,9.95,6.58,10.2,6.44,12.15-.45,6.43-12.58,5.64-17.16,14.61-2.92,5.71.77,8.44.54,22.9Z"/>
    </clipPath>
    <clipPath id="clippath-43">
      <path class="cls-26" d="M48.14,459.57c2.04,1.73,3.27,4.76,2.61,20.67-.54,13.24-1.47,11.97-.82,16.02.57,3.54,1.66,6.8-.13,8.69-1.83,1.93-4.96.63-6.33,2.76-.69,1.07-.07,1.68-.1,5.3-.04,4.29-.92,4.8-.25,6.01,1.71,3.11,8.9,2.42,9.98,2.32,4.61-.44,6.4-2.1,7.53-1.07,1.49,1.35.59,6.24-2.27,8.32-2.73,1.99-5.75.3-7.31,2.42-.51.7-.32,1.06-.62,5.08-.36,4.77-.68,4.93-.36,5.61,1.11,2.35,5.43,1.62,14.44,1.96,10.07.38,13.84,1.63,15.85-.94.73-.93.92-2.44,1.29-5.47.48-3.86.83-6.71-.66-7.9-2.06-1.65-6.06,1.18-7.08-.22-.51-.7.39-1.51.94-4.37.61-3.22-.17-4.11.67-5.03,1.09-1.2,2.81-.11,7.26-.09,4.69.02,6.56-1.17,7.8.13.6.63.25,1,.98,4.14.72,3.1,1.29,3.72.85,4.37-.91,1.33-3.86-.54-5.61.94-1.31,1.1-1.09,3.36-.76,6.68.38,3.78.56,5.66,1.65,6.86,1.63,1.8,5.83,1.31,14.17.27,8.67-1.09,13.05-1.66,14.48-3.39,2.76-3.33,2.96-9.3.4-11.5-1.43-1.23-3.88-1.4-4.23-1.43-2.44-.17-3.15.82-4.41.36-2.41-.89-3.85-6.04-2.05-8.2,1.64-1.96,4.63.11,7-1.78,1.19-.95,1.86-2.63,1.29-12.16-.66-11.21-1.79-12.39-2.55-12.98-2.99-2.31-8.45-1.73-10.36.82-.72.96-.86,2.28-1.16,4.91-.38,3.34-.07,5.49-.3,5.52-.18.02-.66-1.28-1.51-6.15-1.31-7.44-1.29-10.7-1.84-14.58-1.09-7.66-1.91-13.39-6.15-16.66-4.76-3.67-13.21-3.76-18,.18-1.5,1.23-3.63,3.67-5.79,27.27-.71,7.74-1,13.18-1.29,13.17-.33-.01-.37-7.01-.4-12.54-.06-10.84.24-9.78.09-14.44-.4-12.49-2.49-17.21.56-19.9,2.28-2.02,4.56-.35,7.01-2.61,3.39-3.13,3.72-10.63.45-13.57-2.8-2.51-5.99.31-16.49.18-8.39-.11-11-1.97-13.29.18-2.83,2.66-2.53,8.95.23,12.5,1.56,2.01,2.91,1.87,4.63,3.33Z"/>
    </clipPath>
    <clipPath id="clippath-44">
      <path class="cls-26" d="M534.42,394.84c4.38,3.7,7.01,10.21,5.61,44.34-1.16,28.4-3.16,25.68-1.75,34.37,1.23,7.6,3.55,14.59-.29,18.63-3.93,4.14-10.65,1.35-13.57,5.92-1.47,2.3-.15,3.61-.22,11.38-.09,9.19-1.97,10.29-.54,12.9,3.66,6.67,19.09,5.19,21.41,4.97,9.89-.95,13.73-4.5,16.15-2.29,3.19,2.9,1.26,13.38-4.87,17.84-5.87,4.26-12.32.65-15.67,5.19-1.1,1.49-.69,2.27-1.34,10.89-.77,10.24-1.46,10.58-.76,12.04,2.38,5.03,11.65,3.48,30.96,4.2,21.59.81,29.68,3.5,34-2.01,1.57-2,1.97-5.24,2.77-11.73,1.02-8.28,1.77-14.39-1.41-16.94-4.42-3.54-13,2.54-15.19-.48-1.09-1.5.85-3.23,2.01-9.37,1.3-6.9-.36-8.83,1.43-10.8,2.34-2.57,6.02-.23,15.58-.19,10.07.04,14.06-2.52,16.72.29,1.28,1.35.53,2.13,2.1,8.89,1.55,6.65,2.76,7.98,1.82,9.37-1.96,2.86-8.29-1.15-12.04,2.01-2.82,2.37-2.33,7.21-1.62,14.33.81,8.1,1.21,12.15,3.54,14.72,3.49,3.85,12.5,2.81,30.39.57,18.6-2.33,27.99-3.55,31.06-7.26,5.92-7.14,6.34-19.94.86-24.66-3.08-2.64-8.32-3.01-9.08-3.06-5.24-.36-6.76,1.76-9.46.76-5.17-1.92-8.26-12.95-4.4-17.58,3.51-4.21,9.93.23,15-3.82,2.56-2.05,3.98-5.63,2.77-26.09-1.42-24.04-3.84-26.57-5.48-27.84-6.41-4.95-18.13-3.72-22.23,1.76-1.54,2.05-1.85,4.88-2.49,10.54-.81,7.16-.15,11.78-.64,11.85-.38.05-1.42-2.75-3.25-13.19-2.8-15.95-2.76-22.94-3.95-31.28-2.34-16.43-4.09-28.73-13.19-35.74-10.21-7.86-28.34-8.06-38.61.38-3.22,2.64-7.78,7.88-12.42,58.48-1.52,16.59-2.15,28.26-2.77,28.24-.7-.02-.79-15.04-.86-26.9-.14-23.26.51-20.97.19-30.96-.87-26.78-5.34-36.9,1.21-42.68,4.9-4.32,9.78-.75,15.04-5.61,7.27-6.71,7.98-22.81.96-29.11-6-5.39-12.85.67-35.36.38-17.99-.23-23.59-4.22-28.52.39-6.08,5.7-5.42,19.19.48,26.82,3.34,4.32,6.24,4.01,9.94,7.14Z"/>
    </clipPath>
    <clipPath id="clippath-45">
      <path class="cls-26" d="M802.2,482.38c-4.9,12.61-9.68,25.26-14.64,37.84-11,27.93-11.67,31.41-9.67,34.53,3.91,6.07,13.3,3.58,47.79,1.66,37.46-2.09,48.88-.45,54.69-9.12,5.76-8.58-.3-18.64,7.18-25.41,6.15-5.57,15.88-3.89,20.16-3.31,6.31.85,27.41-4.04,69.61-13.81,64.8-15.01,64.01-22.99,87.47-20.81,25.84,2.4,29.13,12.3,48.62,8.84,27.5-4.89,52.91-30.3,50.09-48.62-1.55-10.05-10.46-10.53-13.26-23.57-3.5-16.34,8.83-23.3,4.42-35.36-4.5-12.31-22.63-17.45-34.62-17.68-12.71-.24-22.26,5.04-25.6,6.81-26.56,14.08-34.65,4.5-105.24,20.72-53.55,12.3-80.32,18.45-81.21,18.78-3.93,1.46-24.21,9.09-27.9,3.59-2.34-3.49,4.16-9.11,1.93-13.26-2.37-4.43-12.36-2.88-45.85,3.59-24.05,4.65-28.42,6.7-32.59,11.33-8.57,9.51-10.53,25.25-5.52,29,3.63,2.72,9.01-2.3,12.15.28,3.76,3.08-.04,13.49-8.01,33.98Z"/>
    </clipPath>
    <clipPath id="clippath-46">
      <path class="cls-26" d="M463.83,563.54c3.79,2.75,8.47-3.45,16.93-2.14,7.74,1.2,9.45,7.27,14.79,6.24,5.41-1.04,6.16-7.73,10.34-7.66,4.29.07,4.5,7.15,10.34,10.05,7.37,3.66,20.25-1.07,25.49-9.34,4.1-6.48,1.66-12.22,6.42-15.33,3.9-2.55,6.75.79,11.76-1.07,7.83-2.91,13.33-15.55,10.16-25.49-1.6-5.02-5.11-8.4-6.77-9.8-1.95-1.65-4.65-3.92-8.55-4.46-5.66-.77-8.04,2.92-11.76,1.25-3.2-1.44-2.45-4.9-5.35-5.7-5.34-1.48-10.02,6.15-12.93,4.74-3.91-1.9,2.89-16.46-2.76-21.31-3.33-2.86-9.39-.96-15.86,1.07-5.26,1.65-10.94,3.43-12.65,8.02-1.38,3.7,1.18,5.58-.53,9.8-1.65,4.07-4.71,4.02-5.7,7.49-1.04,3.62,1.71,5.72,2.85,9.98,2.04,7.63-2.47,17.05-8.02,21.92-7.77,6.81-15.86,3.2-19.43,9.62-2.22,4-1.65,10.02,1.25,12.12Z"/>
    </clipPath>
    <clipPath id="clippath-47">
      <path class="cls-26" d="M1265.85,401.29c3.79,2.75,8.47-3.45,16.93-2.14,7.74,1.2,9.45,7.27,14.79,6.24,5.41-1.04,6.16-7.73,10.34-7.66,4.29.07,4.5,7.15,10.34,10.05,7.37,3.66,20.25-1.07,25.49-9.34,4.1-6.48,1.66-12.22,6.42-15.33,3.9-2.55,6.75.79,11.76-1.07,7.83-2.91,13.33-15.55,10.16-25.49-1.6-5.02-5.11-8.4-6.77-9.8-1.95-1.65-4.65-3.92-8.55-4.46-5.66-.77-8.04,2.92-11.76,1.25-3.2-1.44-2.45-4.9-5.35-5.7-5.34-1.48-10.02,6.15-12.93,4.74-3.91-1.9,2.89-16.46-2.76-21.31-3.33-2.86-9.39-.96-15.86,1.07-5.26,1.65-10.94,3.43-12.65,8.02-1.38,3.7,1.18,5.58-.53,9.8-1.65,4.07-4.71,4.02-5.7,7.49-1.04,3.62,1.71,5.72,2.85,9.98,2.04,7.63-2.47,17.05-8.02,21.92-7.77,6.81-15.86,3.2-19.43,9.62-2.22,4-1.65,10.02,1.25,12.12Z"/>
    </clipPath>
    <clipPath id="clippath-48">
      <path class="cls-26" d="M3.29,205.2c4.79,3.92,10.69-4.93,21.39-3.05,9.78,1.71,11.93,10.37,18.68,8.9,6.83-1.48,7.78-11.02,13.06-10.93,5.42.09,5.68,10.2,13.06,14.34,9.31,5.23,25.58-1.52,32.19-13.32,5.18-9.24,2.1-17.44,8.1-21.87,4.92-3.63,8.53,1.13,14.86-1.53,9.89-4.16,16.83-22.18,12.83-36.36-2.02-7.16-6.45-11.98-8.55-13.98-2.46-2.35-5.87-5.6-10.81-6.36-7.15-1.1-10.15,4.17-14.86,1.78-4.04-2.05-3.1-6.99-6.75-8.14-6.74-2.12-12.65,8.78-16.33,6.76-4.94-2.71,3.65-23.48-3.48-30.4-4.21-4.08-11.86-1.37-20.03,1.53-6.64,2.35-13.82,4.9-15.98,11.44-1.74,5.28,1.49,7.96-.68,13.98-2.08,5.8-5.95,5.73-7.2,10.68-1.31,5.17,2.16,8.17,3.6,14.24,2.58,10.88-3.12,24.33-10.13,31.27-9.81,9.72-20.03,4.57-24.54,13.73-2.81,5.71-2.08,14.29,1.58,17.29Z"/>
    </clipPath>
    <clipPath id="clippath-49">
      <path class="cls-26" d="M376.73,229.23c-2.85,3.64-6.39,8.15-7.4,15.06-.33,2.26-1.78,12.1,3.7,16.85,2.43,2.1,6.5,3.45,21.32,0,16.42-3.82,17.86-6.97,29.87-9.96,17.6-4.38,21.21.71,34.72-4.98,5.56-2.34,18.35-7.73,18.64-16.98.22-6.85-6.48-14.38-12.77-14.81-5.66-.39-7.68,5.21-13.28,4.34-5.46-.84-5.52-6.46-11.75-8.01-2.41-.6-6.05.41-13.26,2.46-9.48,2.69-9.5,3.52-13.27,3.98-8.33,1.01-9.47-2.9-16.36-2.25-9.68.91-16.38,9.46-20.17,14.3Z"/>
    </clipPath>
    <clipPath id="clippath-50">
      <path class="cls-26" d="M1395.1,470.58c-1.98,8.84,2.88,13.4,11.13,32.72,12.81,30,8.8,37.01,16.19,40.48,14.42,6.77,28.18-20.6,60.72-20.91,5.99-.06,12.68.8,20.58-3.04,10.95-5.32,10.56-13.04,19.23-15.85,11.87-3.86,18.27,8.77,30.02,5.4,12.07-3.47,12.34-18.8,22.26-19.56,9.12-.7,12.28,11.99,21.93,11.47,9.9-.54,11.07-14.16,21.92-15.85,11.02-1.72,15.31,11.47,26.98,10.12,11.66-1.35,14.54-15.34,23.95-14.17,7.52.94,9.46,10.33,16.53,9.78,5.52-.43,6.35-6.32,12.14-7.08,7.32-.96,10.22,7.88,16.53,8.43,11.03.96,25.41-24.05,28.33-48.91,1.74-14.78.84-41.48-12.14-47.22-7.02-3.1-11.03,2.81-26.98,0-8.73-1.54-11.39-3.99-18.21-3-8.73,1.26-9.25,5.99-16.19,6.71-11.3,1.18-14.6-10.85-25.3-10.46-11.06.4-12.86,13.44-24.29,14.17-10.48.67-11.71-10.13-22.94-11.13-15.4-1.37-21.81,18.18-41.15,17.2-5.98-.3-4.71-2.13-11.47-2.7-16.08-1.34-20.62,9.25-40.48,13.49-13.18,2.81-14.38-1.17-25.3,2.7-11.78,4.17-11.66,9.26-23.27,15.18-16.14,8.22-21.77,1.14-37.84,8.97-4.69,2.28-19.87,9.68-22.87,23.08Z"/>
    </clipPath>
    <clipPath id="clippath-51">
      <path class="cls-26" d="M1660.84,489.16c3.69-.27,6.12,3.44,7.5,2.5,2.19-1.49-3.19-11.36-1.25-12.71,2.13-1.47,11.24,8.56,12.5,7.5.82-.69-3.37-4.69-2.5-9.16.84-4.33,6.13-7.6,10.83-8.12,7.62-.86,15.49,5.29,15.62,10.62.12,4.68-5.71,8.64-5.21,9.16.52.55,5.52-5.25,8.96-3.96,2.77,1.04,4.31,6.2,2.71,8.33-1.02,1.36-2.67.63-5.31,2.4-2.13,1.42-3.59,3.59-3.23,4.06.58.75,5.02-4.02,9.58-3.12,4.19.83,7.3,6.2,7.71,10.89.64,7.42-5.32,15.01-10.62,15.14-5.24.13-9.57-7.03-10-6.67-.52.44,9.11,9.62,6.87,14.16-1.15,2.33-5.35,3.33-8.12,2.08-4.29-1.94-4.27-9.71-5.12-9.58-.47.07-.73,2.43-.4,5.1.72,5.72,3.45,7.08,3.23,9.89-.34,4.23-7.16,9.44-14.16,8.12-6.27-1.18-10.25-7.08-10.21-11.87.06-6.79,8.2-11.98,7.92-12.29-.37-.4-11.85,10.65-13.75,9.16-2.04-1.6,8.18-16.9,5.83-18.75-1.74-1.37-7.6,6.81-12.91,5.21-4.66-1.4-7.05-9.78-5.83-16.25.99-5.26,4.79-11.54,9.37-11.87Z"/>
    </clipPath>
    <clipPath id="clippath-52">
      <path class="cls-26" d="M1085.27,127.53c3.69-.27,6.12,3.44,7.5,2.5,2.19-1.49-3.19-11.36-1.25-12.71,2.13-1.47,11.24,8.56,12.5,7.5.82-.69-3.37-4.69-2.5-9.16.84-4.33,6.13-7.6,10.83-8.12,7.62-.86,15.49,5.29,15.62,10.62.12,4.68-5.71,8.64-5.21,9.16.52.55,5.52-5.25,8.96-3.96,2.77,1.04,4.31,6.2,2.71,8.33-1.02,1.36-2.67.63-5.31,2.4-2.13,1.42-3.59,3.59-3.23,4.06.58.75,5.02-4.02,9.58-3.12,4.19.83,7.3,6.2,7.71,10.89.64,7.42-5.32,15.01-10.62,15.14-5.24.13-9.57-7.03-10-6.67-.52.44,9.11,9.62,6.87,14.16-1.15,2.33-5.35,3.33-8.12,2.08-4.29-1.94-4.27-9.71-5.12-9.58-.47.07-.73,2.43-.4,5.1.72,5.72,3.45,7.08,3.23,9.89-.34,4.23-7.16,9.44-14.16,8.12-6.27-1.18-10.25-7.08-10.21-11.87.06-6.79,8.2-11.98,7.92-12.29-.37-.4-11.85,10.65-13.75,9.16-2.04-1.6,8.18-16.9,5.83-18.75-1.74-1.37-7.6,6.81-12.91,5.21-4.66-1.4-7.05-9.78-5.83-16.25.99-5.26,4.79-11.54,9.37-11.87Z"/>
    </clipPath>
    <clipPath id="clippath-53">
      <path class="cls-26" d="M1043.77,489.16c3.69-.27,6.12,3.44,7.5,2.5,2.19-1.49-3.19-11.36-1.25-12.71,2.13-1.47,11.24,8.56,12.5,7.5.82-.69-3.37-4.69-2.5-9.16.84-4.33,6.13-7.6,10.83-8.12,7.62-.86,15.49,5.29,15.62,10.62.12,4.68-5.71,8.64-5.21,9.16.52.55,5.52-5.25,8.96-3.96,2.77,1.04,4.31,6.2,2.71,8.33-1.02,1.36-2.67.63-5.31,2.4-2.13,1.42-3.59,3.59-3.23,4.06.58.75,5.02-4.02,9.58-3.12,4.19.83,7.3,6.2,7.71,10.89.64,7.42-5.32,15.01-10.62,15.14-5.24.13-9.57-7.03-10-6.67-.52.44,9.11,9.62,6.87,14.16-1.15,2.33-5.35,3.33-8.12,2.08-4.29-1.94-4.27-9.71-5.12-9.58-.47.07-.73,2.43-.4,5.1.72,5.72,3.45,7.08,3.23,9.89-.34,4.23-7.16,9.44-14.16,8.12-6.27-1.18-10.25-7.08-10.21-11.87.06-6.79,8.2-11.98,7.92-12.29-.37-.4-11.85,10.65-13.75,9.16-2.04-1.6,8.18-16.9,5.83-18.75-1.74-1.37-7.6,6.81-12.91,5.21-4.66-1.4-7.05-9.78-5.83-16.25.99-5.26,4.79-11.54,9.37-11.87Z"/>
    </clipPath>
    <clipPath id="clippath-54">
      <path class="cls-26" d="M1736.46,111.89c1.51,3.38-1.15,6.92.19,7.9,2.14,1.55,9.6-6.86,11.53-5.49,2.11,1.51-4.24,13.48-2.81,14.3.93.53,3.27-4.76,7.77-5.46,4.36-.68,9.23,3.19,11.32,7.43,3.39,6.88.28,16.36-4.69,18.3-4.36,1.7-10.06-2.43-10.39-1.79-.34.68,6.81,3.41,6.76,7.08-.04,2.95-4.37,6.15-6.92,5.38-1.63-.5-1.5-2.3-4.06-4.18-2.06-1.52-4.6-2.16-4.92-1.66-.51.8,5.49,3.35,6.19,7.95.65,4.22-3.36,8.97-7.63,10.95-6.76,3.12-15.92.09-17.85-4.85-1.9-4.88,3.37-11.39,2.88-11.67-.59-.34-5.95,11.83-10.99,11.27-2.58-.29-4.95-3.9-4.72-6.93.36-4.7,7.68-7.31,7.27-8.07-.22-.42-2.54.14-4.94,1.36-5.14,2.62-5.48,5.65-8.21,6.4-4.09,1.12-11.31-3.53-12.45-10.57-1.02-6.3,3.18-12.04,7.7-13.63,6.41-2.25,14.05,3.65,14.25,3.27.25-.49-14.04-7.53-13.29-9.82.81-2.47,18.67,1.96,19.61-.88.7-2.1-8.98-4.84-9.28-10.38-.26-4.86,6.81-9.95,13.3-11,5.28-.85,12.48.59,14.35,4.79Z"/>
    </clipPath>
    <clipPath id="clippath-55">
      <path class="cls-26" d="M1377.47,182.66c3.69-.27,6.12,3.44,7.5,2.5,2.19-1.49-3.19-11.36-1.25-12.71,2.13-1.47,11.24,8.56,12.5,7.5.82-.69-3.37-4.69-2.5-9.16.84-4.33,6.13-7.6,10.83-8.12,7.62-.86,15.49,5.29,15.62,10.62.12,4.68-5.71,8.64-5.21,9.16.52.55,5.52-5.25,8.96-3.96,2.77,1.04,4.31,6.2,2.71,8.33-1.02,1.36-2.67.63-5.31,2.4-2.13,1.42-3.59,3.59-3.23,4.06.58.75,5.02-4.02,9.58-3.12,4.19.83,7.3,6.2,7.71,10.89.64,7.42-5.32,15.01-10.62,15.14-5.24.13-9.57-7.03-10-6.67-.52.44,9.11,9.62,6.87,14.16-1.15,2.33-5.35,3.33-8.12,2.08-4.29-1.94-4.27-9.71-5.12-9.58-.47.07-.73,2.43-.4,5.1.72,5.72,3.45,7.08,3.23,9.89-.34,4.23-7.16,9.44-14.16,8.12-6.27-1.18-10.25-7.08-10.21-11.87.06-6.79,8.2-11.98,7.92-12.29-.37-.4-11.85,10.65-13.75,9.16-2.04-1.6,8.18-16.9,5.83-18.75-1.74-1.37-7.6,6.81-12.91,5.21-4.66-1.4-7.05-9.78-5.83-16.25.99-5.26,4.79-11.54,9.37-11.87Z"/>
    </clipPath>
    <clipPath id="clippath-56">
      <path class="cls-26" d="M368.58,481.25c4.98-.36,8.26,4.64,10.12,3.37,2.95-2.01-4.31-15.33-1.69-17.14,2.88-1.99,15.17,11.56,16.86,10.12,1.1-.94-4.55-6.33-3.37-12.37,1.14-5.85,8.28-10.25,14.62-10.96,10.28-1.15,20.9,7.14,21.08,14.33.16,6.31-7.7,11.66-7.03,12.37.7.74,7.45-7.08,12.09-5.34,3.73,1.4,5.81,8.36,3.65,11.24-1.37,1.84-3.61.86-7.17,3.23-2.88,1.92-4.84,4.85-4.36,5.48.78,1.02,6.77-5.43,12.93-4.22,5.65,1.11,9.85,8.37,10.4,14.7.86,10.01-7.18,20.25-14.33,20.43-7.07.18-12.91-9.49-13.49-8.99-.7.6,12.29,12.98,9.28,19.11-1.55,3.14-7.22,4.5-10.96,2.81-5.79-2.61-5.76-13.1-6.91-12.93-.63.09-.99,3.28-.54,6.89.97,7.72,4.66,9.55,4.36,13.35-.46,5.7-9.67,12.74-19.11,10.96-8.46-1.59-13.83-9.56-13.77-16.02.08-9.17,11.07-16.16,10.68-16.58-.5-.55-15.99,14.37-18.55,12.37-2.76-2.16,11.04-22.8,7.87-25.3-2.35-1.85-10.26,9.18-17.43,7.03-6.29-1.89-9.51-13.2-7.87-21.92,1.33-7.09,6.46-15.57,12.65-16.02Z"/>
    </clipPath>
    <clipPath id="clippath-57">
      <path class="cls-26" d="M423.94,216.41c4.98-.36,8.26,4.64,10.12,3.37,2.95-2.01-4.31-15.33-1.69-17.14,2.88-1.99,15.17,11.56,16.86,10.12,1.1-.94-4.55-6.33-3.37-12.37,1.14-5.85,8.28-10.25,14.62-10.96,10.28-1.15,20.9,7.14,21.08,14.33.16,6.31-7.7,11.66-7.03,12.37.7.74,7.45-7.08,12.09-5.34,3.73,1.4,5.81,8.36,3.65,11.24-1.37,1.84-3.61.86-7.17,3.23-2.88,1.92-4.84,4.85-4.36,5.48.78,1.02,6.77-5.43,12.93-4.22,5.65,1.11,9.85,8.37,10.4,14.7.86,10.01-7.18,20.25-14.33,20.43-7.07.18-12.91-9.49-13.49-8.99-.7.6,12.29,12.98,9.28,19.11-1.55,3.14-7.22,4.5-10.96,2.81-5.79-2.61-5.76-13.1-6.91-12.93-.63.09-.99,3.28-.54,6.89.97,7.72,4.66,9.55,4.36,13.35-.46,5.7-9.67,12.74-19.11,10.96-8.46-1.59-13.83-9.56-13.77-16.02.08-9.17,11.07-16.16,10.68-16.58-.5-.55-15.99,14.37-18.55,12.37-2.76-2.16,11.04-22.8,7.87-25.3-2.35-1.85-10.26,9.18-17.43,7.03-6.29-1.89-9.51-13.2-7.87-21.92,1.33-7.09,6.46-15.57,12.65-16.02Z"/>
    </clipPath>
    <clipPath id="clippath-58">
      <path class="cls-26" d="M316.79,250.5c2.85-.21,4.72,2.65,5.78,1.93,1.69-1.15-2.46-8.77-.96-9.8,1.64-1.14,8.67,6.61,9.64,5.78.63-.54-2.6-3.62-1.93-7.07.65-3.34,4.73-5.86,8.36-6.27,5.88-.66,11.95,4.08,12.05,8.2.09,3.61-4.4,6.67-4.02,7.07.4.42,4.26-4.05,6.91-3.05,2.13.8,3.32,4.78,2.09,6.43-.79,1.05-2.06.49-4.1,1.85-1.64,1.1-2.77,2.77-2.49,3.13.45.58,3.87-3.1,7.39-2.41,3.23.64,5.63,4.79,5.95,8.4.49,5.72-4.11,11.58-8.2,11.68-4.04.1-7.38-5.43-7.71-5.14-.4.34,7.03,7.42,5.3,10.93-.88,1.8-4.13,2.57-6.27,1.61-3.31-1.49-3.29-7.49-3.95-7.39-.36.05-.57,1.88-.31,3.94.55,4.41,2.66,5.46,2.49,7.63-.26,3.26-5.53,7.28-10.93,6.27-4.83-.91-7.9-5.46-7.87-9.16.04-5.24,6.33-9.24,6.11-9.48-.29-.31-9.14,8.21-10.61,7.07-1.58-1.23,6.31-13.04,4.5-14.46-1.34-1.06-5.86,5.25-9.96,4.02-3.6-1.08-5.44-7.55-4.5-12.53.76-4.06,3.69-8.9,7.23-9.16Z"/>
    </clipPath>
    <image id="image" width="1500" height="1500" xlink:href="../../199246224520_6.jpg"/>
    <image id="image-2" width="1500" height="1500" xlink:href="../../677144684146_6.jpg"/>
    <image id="image-3" width="1500" height="1500" xlink:href="../../197372875630_6.jpg"/>
    <image id="image-4" width="1500" height="1500" xlink:href="../../197214824918_2.jpg"/>
    <image id="image-5" width="1500" height="1500" xlink:href="../../677144682418_7.jpg"/>
    <image id="image-6" width="1500" height="1500" xlink:href="../../199246224513_6.jpg"/>
    <image id="image-7" width="1500" height="1500" xlink:href="../../677144682708_6.jpg"/>
    <image id="image-8" width="1500" height="1500" xlink:href="../../197374108033-4.jpg"/>
    <image id="image-9" width="1500" height="1500" xlink:href="../../198733132874_6.jpg"/>
    <image id="image-10" width="1500" height="1500" xlink:href="../../198733132904_7.jpg"/>
    <image id="image-11" width="3840" height="3840" xlink:href="../../811cbbbdf7da.webp"/>
    <image id="image-12" width="2826" height="949" xlink:href="../../2CAP-logo1.png"/>
    <image id="image-13" width="1500" height="1500" xlink:href="../../197374108033-1.jpg"/>
    <image id="image-14" width="1500" height="1500" xlink:href="../../677144684634_7.jpg"/>
    <image id="image-15" width="1500" height="1500" xlink:href="../../677144682722_6.jpg"/>
    <image id="image-16" width="1500" height="1500" xlink:href="../../677144684658_7.jpg"/>
    <image id="image-17" width="1500" height="1500" xlink:href="../../677144684634_6.jpg"/>
    <image id="image-18" width="1500" height="1500" xlink:href="../../198589133360_6.jpg"/>
  </defs>
  <g id="Capa_1-2" data-name="Capa 1">
    <g>
      <g>
        <rect class="cls-20" x="41.79" y="134.81" width="1919" height="408.33"/>
        <path d="M1960.29,135.31v407.33H42.29V135.31h1918M1961.29,134.31H41.29v409.33h1920V134.31h0Z"/>
      </g>
      <g class="cls-60">
        <use transform="translate(1054.21 253.82) rotate(.83) scale(.28)" xlink:href="#image-9"/>
      </g>
      <g class="cls-31">
        <use transform="translate(983.84 -36.66) scale(.31)" xlink:href="#image-3"/>
      </g>
      <g class="cls-53">
        <use transform="translate(388.85 191.63) scale(.31)" xlink:href="#image-3"/>
      </g>
      <g class="cls-41">
        <use transform="translate(122.26 -85.97) scale(.31)" xlink:href="#image-3"/>
      </g>
      <g class="cls-13">
        <use transform="translate(1171.08 38.35) scale(.46)" xlink:href="#image-8"/>
      </g>
      <g class="cls-36">
        <use transform="translate(871.23 -108.66) scale(.5)" xlink:href="#image-8"/>
      </g>
      <g class="cls-5">
        <use transform="translate(1099.87 66.26) scale(.23)" xlink:href="#image-16"/>
      </g>
      <g class="cls-6">
        <use transform="translate(809.13 241.79) scale(.23)" xlink:href="#image-16"/>
      </g>
      <g class="cls-38">
        <use transform="translate(291.8 190.26) scale(.25)" xlink:href="#image-17"/>
      </g>
      <g class="cls-17">
        <use transform="translate(1257.77 223.54) scale(.25)" xlink:href="#image-17"/>
      </g>
      <g class="cls-18">
        <use transform="translate(7.98 -10.12) scale(.35)" xlink:href="#image"/>
      </g>
      <g class="cls-24">
        <use transform="translate(218.46 368.74) rotate(55.02) scale(.14)" xlink:href="#image-2"/>
      </g>
      <g class="cls-43">
        <use transform="translate(1073.93 15.31) rotate(55.02) scale(.14)" xlink:href="#image-2"/>
      </g>
      <g class="cls-58">
        <use transform="translate(743.77 42.4) scale(.2)" xlink:href="#image-15"/>
      </g>
      <g class="cls-45">
        <use transform="translate(-28.02 165.64) scale(.3)" xlink:href="#image-10"/>
      </g>
      <g class="cls-9">
        <use transform="translate(733.14 -20.27) scale(.16)" xlink:href="#image-11"/>
      </g>
      <g class="cls-52">
        <use transform="translate(91.08 268.59) scale(.12)" xlink:href="#image-11"/>
      </g>
      <g class="cls-7">
        <use transform="translate(1426.87 221.41) scale(.12)" xlink:href="#image-11"/>
      </g>
      <g class="cls-11">
        <use transform="translate(-60.2 -51.01) scale(.12)" xlink:href="#image-11"/>
      </g>
      <g class="cls-47">
        <use transform="translate(927.53 398.43) rotate(-145.73) scale(.14)" xlink:href="#image-7"/>
      </g>
      <g class="cls-37">
        <use transform="translate(1298.63 -179.31) rotate(6.46) scale(.32)" xlink:href="#image"/>
      </g>
      <g class="cls-4">
        <use transform="translate(1578.8 54.18) rotate(18.81) scale(.28)" xlink:href="#image-9"/>
      </g>
      <g class="cls-14">
        <use transform="translate(41.51 -60) rotate(14.42) scale(.28)" xlink:href="#image-9"/>
      </g>
      <g class="cls-15">
        <use transform="translate(622.8 56.1) scale(.25)" xlink:href="#image-6"/>
      </g>
      <g class="cls-59">
        <use transform="translate(-36.04 207.04) scale(.18)" xlink:href="#image-6"/>
      </g>
      <g class="cls-22">
        <use transform="translate(1613.35 60.46) rotate(22.27) scale(.14)" xlink:href="#image-7"/>
      </g>
      <g class="cls-42">
        <use transform="translate(1704.33 376.2) rotate(22.27) scale(.14)" xlink:href="#image-7"/>
      </g>
      <g class="cls-23">
        <use transform="translate(1306.88 450.46) rotate(146.07) scale(.22)" xlink:href="#image-15"/>
      </g>
      <g class="cls-30">
        <use transform="translate(471.55 282.36) rotate(146.07) scale(.17)" xlink:href="#image-15"/>
      </g>
      <g class="cls-54">
        <use transform="translate(1388.29 -6.87) rotate(25.59) scale(.26)" xlink:href="#image-18"/>
      </g>
      <g class="cls-46">
        <use transform="translate(1574.19 -96.02) scale(.3)" xlink:href="#image-10"/>
      </g>
      <g class="cls-8">
        <use transform="translate(347.34 13.9) rotate(-13.95) scale(.28)" xlink:href="#image-14"/>
      </g>
      <g class="cls-48">
        <use transform="translate(1538.98 273.63) rotate(-49.12) scale(.28)" xlink:href="#image-14"/>
      </g>
      <g class="cls-10">
        <use transform="translate(888.32 208.43) rotate(38.39) scale(.15)" xlink:href="#image-14"/>
      </g>
      <g class="cls-2">
        <use transform="translate(1617.44 343.44) rotate(-12.2) scale(.14)" xlink:href="#image-2"/>
      </g>
      <g class="cls-28">
        <use transform="translate(334.01 452.54) rotate(-12.2) scale(.14)" xlink:href="#image-2"/>
      </g>
      <g class="cls-27">
        <use transform="translate(346.4 262.53) rotate(6.57) scale(.17)" xlink:href="#image-5"/>
      </g>
      <g class="cls-56">
        <use transform="translate(1264.58 131.51) rotate(6.57) scale(.17)" xlink:href="#image-5"/>
      </g>
      <g class="cls-3">
        <use transform="translate(1618.33 183.14) rotate(173.43) scale(.17 -.17)" xlink:href="#image-5"/>
      </g>
      <g class="cls-51">
        <use transform="translate(477.32 183.97) scale(.27)" xlink:href="#image-18"/>
      </g>
      <g class="cls-35">
        <use transform="translate(1621.96 119.39) rotate(6.57) scale(.31)" xlink:href="#image-5"/>
      </g>
      <g class="cls-40">
        <use transform="translate(436.86 -90.17) rotate(15.05) scale(.7)" xlink:href="#image-13"/>
      </g>
      <g class="cls-19">
        <use transform="translate(514.69 305.46) rotate(1.74) scale(.14)" xlink:href="#image-2"/>
      </g>
      <g class="cls-21">
        <use transform="translate(-99.65 322.46) scale(.24)" xlink:href="#image-4"/>
      </g>
      <g class="cls-61">
        <use transform="translate(217.45 100.76) scale(.51)" xlink:href="#image-4"/>
      </g>
      <g class="cls-33">
        <use transform="translate(744.03 175.33) scale(.3)" xlink:href="#image-10"/>
      </g>
      <g class="cls-34">
        <use transform="translate(351.73 390.02) scale(.24)" xlink:href="#image-13"/>
      </g>
      <g class="cls-12">
        <use transform="translate(1153.75 227.78) scale(.24)" xlink:href="#image-13"/>
      </g>
      <g class="cls-29">
        <use transform="translate(-138.31 -42.35) scale(.3 .34)" xlink:href="#image-13"/>
      </g>
      <g class="cls-55">
        <use transform="translate(233.26 -24.83) scale(.24)" xlink:href="#image-8"/>
      </g>
      <g class="cls-44">
        <use transform="translate(1333.21 144.84) scale(.32)" xlink:href="#image"/>
      </g>
      <g class="cls-1">
        <use transform="translate(1576.03 410.76) scale(.1)" xlink:href="#image-17"/>
      </g>
      <g class="cls-39">
        <use transform="translate(1000.46 49.13) scale(.1)" xlink:href="#image-17"/>
      </g>
      <g class="cls-50">
        <use transform="translate(958.95 410.76) scale(.1)" xlink:href="#image-17"/>
      </g>
      <g class="cls-16">
        <use transform="translate(1781.41 5.5) rotate(70.16) scale(.1)" xlink:href="#image-17"/>
      </g>
      <g class="cls-49">
        <use transform="translate(1292.66 104.27) scale(.1)" xlink:href="#image-17"/>
      </g>
      <g class="cls-32">
        <use transform="translate(254.14 375.46) scale(.13)" xlink:href="#image-17"/>
      </g>
      <g class="cls-25">
        <use transform="translate(309.5 110.63) scale(.13)" xlink:href="#image-17"/>
      </g>
      <g class="cls-57">
        <use transform="translate(251.36 190.02) scale(.08)" xlink:href="#image-17"/>
      </g>
      <use transform="translate(711.71 530.04) rotate(-6.75) scale(.03)" xlink:href="#image-12"/>
      <use transform="translate(944.59 505.11) rotate(-6.75) scale(.03)" xlink:href="#image-12"/>
      <use transform="translate(355.73 251.37) rotate(-6.75) scale(.03)" xlink:href="#image-12"/>
      <use transform="translate(1520.51 382.08) rotate(-6.75) scale(.03)" xlink:href="#image-12"/>
      <use transform="translate(1268.75 134.01) rotate(1.2) scale(.03)" xlink:href="#image-12"/>
    </g>
  </g>
</svg>