<?xml version="1.0" encoding="UTF-8"?>
<svg id="Capa_2" data-name="Capa 2" xmlns="http://www.w3.org/2000/svg" xmlns:xlink="http://www.w3.org/1999/xlink" viewBox="0 0 349.15 240.68">
  <defs>
    <style>
      .cls-1 {
        fill: none;
      }

      .cls-2 {
        clip-path: url(#clippath);
      }
    </style>
    <clipPath id="clippath">
      <path class="cls-1" d="M42.32,51.1c-11.09,17.47-23.18,13.4-33.8,30.61-9.81,15.89-12.28,40.58-1.33,55.58,9.73,13.32,21.34,7,40.78,22.64,18.21,14.65,13.19,24.35,28.6,35.31,24.37,17.33,64.68,12.81,71.88-2.18,3.37-7.03-.66-15.53,5.08-19.76,4.64-3.42,11.77-1.2,15.04-.18,11.63,3.61,11.41,10.92,21.7,14.9,11.08,4.28,15.21-2.7,24.16,2.16,9.26,5.03,7.32,13.85,16.19,16.86,6.74,2.29,10.24-2,18.08.87,5.9,2.16,8.34,6.19,10.86,8.46,14.17,12.77,63.69-.88,70.03-24.94,4.56-17.3-15.25-32.18-6.83-45.92,4.14-6.76,10.45-5.64,14.46-13.7,4.04-8.12,3.07-20.18-2.86-28.29-10.01-13.69-24.89-3.46-48.98-19.08-7.81-5.06-12.49-8.5-22.03-10.47-9.58-1.97-13.3.34-20.34-2.45-9.59-3.8-9.79-10.91-17.47-18.1-7.91-7.4-23.77-8.96-55.18-11.77-18.43-1.65-24.85-1.25-34.47-6.19-9.41-4.83-11.53-9.44-19.21-15.88C99.62,5.28,69.18-6.43,56.05,3.98c-12.06,9.57-.12,25.65-13.74,47.12Z"/>
    </clipPath>
  </defs>
  <g id="micollage">
    <g>
      <g class="cls-2">
        <image width="1500" height="1500" transform="translate(36.56 -170.83) rotate(14.42) scale(.28)" xlink:href="../198733132874_6.jpg"/>
      </g>
      <image width="2826" height="949" transform="translate(260.18 211.95) rotate(-6.75) scale(.03)" xlink:href="../2CAP-logo1.png"/>
    </g>
  </g>
</svg>